<svg height="353.081671" viewBox="0 0 456 568" width="283.220592" xmlns="http://www.w3.org/2000/svg" xmlns:xlink="http://www.w3.org/1999/xlink"><clipPath id="a"><path d="m-572-311h1684v1191h-1684z"/></clipPath><g clip-path="url(#a)"><path d="m50.42 187.76c.92-.1.54 1.84.55 3.69.03 7.12.43 26.21.05 30.58-.64.26-.91.36-1.51.75l.23.37c.28.71.8 15.94.89 17.08.23 3.25.92 15 1.45 17.22.88 6.37 1.44 12.66 2.46 19.04 6.08 38.02 16.52 72.71 31.76 107.77.42.98 2.83 6.49 3.68 7.3l.74-1.02c.23-.44.33-.62.58-1.04l14.26-22.68c2.77-3.97 8.47-11.35 11.8-15.22l6.26-7.14c6.64-7.66 12.79-13.51 20.27-20.14 1.35-1.19 2.27-1.89 3.56-3.14 2.18-2.08 16.78-13.49 18.94-14.78l5.83-4.09c.81-.54 1.33-.81 2.12-1.34 8.01-5.37 16.77-10.76 25.4-15.27 25.98-13.58 48.25-22.43 77.08-30.56 21.88-6.18 44.62-10.57 67.56-13.27 4.13-.49 22.05-2.36 24.99-1.86l.15 1.53c-4.69.88-10.3 2.74-14.98 4.04l-10.98 3.08c-.59.17-1.18.34-1.8.53-.4.13-1.33.38-1.87.67l15.73-2.78c5.55-.8 11.15-1.28 16.85-1.51 5.92-.23 12.04-.06 17.84.58 8.43.92 8.46 1.56 15.44 3.12.74-8.79 2.15-17.68 2.79-27.08l.17-1.18c.19-.52-.07-.09.29-.56l.44.27c0-.52.11-.39-.44-.27-.38-.37-.33-.81-.33-1.74l.39-15.72c.1-5.63.04-12.03.48-17.6-.6-4.89-.78-10.22-1.22-15.18-2.35-26.2-7.71-77.61-17.84-97.68-1.59-3.16-1.08-2.39-4.01-4.06-12.17-6.92-25.56-13.69-38.33-19.42-12.7-5.7-35.45-14.73-49.18-17-3.59-.24-7.16-.84-10.83-1.22-2.01-.21-3.93-.26-5.98-.39-1.26-.09-3.8-.78-4.55-1.4-3.65-.25-7.39-.88-11.14-1.13-28.25-1.86-51.43-.82-79.77 3.68-27.43 4.36-52.35 11.96-75.77 21.71-14.19 5.91-24.11 11.29-36.47 18.48-2.52 1.47-2.48 1.1-3.13 2.9-12.25 33.92-18.12 71.57-20.14 107.77-.14 2.35.18 4.39-.76 5.31z" fill="#fff"/><g fill-rule="evenodd"><path d="m387.47 334.2c-7.7 23.55-14.55 42.04-25.55 64.49-1.32 2.69-9.57 19.07-11.44 21.26-1.79-.79-11.99-7.77-13.78-8.97-3.29-2.22-17.75-12.14-20.75-13.44l-16-7.1c-1.81-.81-6.75-2.75-7.93-3.63l2.14-43.87c-.99 2.2-8.64 39.36-9.41 42.85-.64 2.93-.38 2.27-2.55 3.89-1.17.88-2.45 1.78-3.79 2.67-5.02 3.33-10.39 7.37-15.35 10.97l-34.18 24.49c-1.38.99-3.44.13-5.43-.21-5.37-.92-40.44-8.03-44.17-8.25 1.35.87 26.97 8.96 28.27 9.4l17.79 5.8c2.13.7 1.89.22 2.57 2.27l12.13 35.19c1.73 4.93 3.13 9.21 4.87 14.13.69 1.95 4.26 13.11 4.92 13.94.64.66 14.17 2.27 14.97 2.39 5.1.75 10.14 1.33 15.15 2.21-1.23 1.19-3.05 2.49-4.5 3.63-3.99 3.14-8.09 6.2-12.36 8.88-4.26 2.69-8.77 5.77-13.25 8.23-1.93 1.06-3.58 2.06-5.48 3.06-1.16.61-4.49 2.54-5.58 2.78.31-7.17 1.96-14.57 1.75-22.81-.61.72-10.95 24.34-11.2 25.8l1.35.74c-.45.56-1.17.77-1.84 1.07-2.24 1.01-3.81-.32-5.98-1.13-10-3.71-13.15-5.73-21.68-11.57l-9.73-6.91c-3.2-2.48-6.36-4.51-9.42-7.2-1.99-1.76-4.19-3.27-6.28-5.04-14.06-11.93-21.21-19.13-34.01-32.74l-5.16-5.92c-1.54-1.89-3.87-4.13-4.98-6.24 3.15-5.56 16.78-22.54 21.15-27.48 1.23-1.39 2.16-2.68 3.25-3.9l11.32-12.94c.89-1.01.78-1.21.51-2.83-1.35-8.26-2.38-16.64-3.21-25.04-.71-7.14-2.9-25.62.03-32.28.54-1.22 2.2-3.36 2.87-4.07 2.44-2.58 4.38-4.54 7.1-7 4.8-4.35 10.1-8.42 15.38-12.56 4.05-3.17 13.22-9.58 16.02-11.97-6.71-.23-25.14 12.55-31.66 17.35l-17.71 13.93c-3.07 2.92-5.69.1-15.09 2.64-2.7.73-10.39 3.73-10.64 3.76-.73-1.23-7.19-8.06-8.17-8.7.55 1.69 3.16 6.32 4.22 8.24 1.39 2.5 1.26 1.8.04 4.15-3.63 7.02-7.17 14.05-10.46 21.42-2.65 5.93-4.91 11.85-6.68 18.7-1.93 7.45-2.67 13.78-3.81 21.65-.85-1.07-1.92-3.08-2.67-4.47-.8-1.48-1.76-3.07-2.55-4.61-1.59-3.12-3.41-6.19-5.05-9.5-.79-1.61-4.62-9.07-4.6-10.07.02-.88 4.46-8.36 5.18-9.49l5.56-8.98c3.78-5.88 7.88-11.42 12.24-16.88 1.03-1.29 2.15-2.69 3.12-4.03l10.16-11.54c4.52-5.16 9.36-9.99 14.59-14.51 7.69-6.64 15.59-13.88 24.1-19.56l8.55-5.98c18.82-13.2 45.61-26.34 67.24-34.39 22.08-8.21 44.19-14.95 67.96-19.4 12.39-2.32 25.09-4.38 37.78-5.81 3.72-.42 9.77-1.29 13.45-1.1-1.29.68-6.65 1.9-8.61 2.46l-17.41 4.99c-2.16.65-4.26 1.17-6.24 2.08-.98.45-1.15.68-.87 1.79 2.33.63 15.2-2.51 18.52-3.12 13.2-2.43 26.85-3.67 40.48-2.82 4.44.28 14.93 1.74 18.33 3.49.26 4.48-1.72 14.49-2.59 19.34-2.24 12.39-4.62 24.65-7.72 36.84-.73 2.9-1.49 5.89-2.26 8.8-.62 2.33-2.21 6.77-2.37 8.85-.74.08-10.69-5.58-12.28-6.43-2.48-1.33-10.44-5.58-13.46-5.34l24.12 14.05c.87.78.41-.13.58 1.11-.72 1.73-1.23 4.09-1.87 6.05zm-90.48-2.48 21.79-11.01c3.27-1.62 26.86-13.83 29.16-14.73-.6-1.45-14.33-16.48-16.54-19.25-1.34-1.67-2.73-3.08-4.21-4.79-1.45-1.68-2.67-3.18-4.14-4.86-1.03-1.17-.85-1.31-2.76-1.63-1.41-.24-2.61-.44-3.98-.64-21.41-2.97-44.9-.9-66.12 3-2.34.43-5.47 1.28-7.69 1.44-.94-1.13-2-2.22-3.03-3.38l-3.2-3.25c4.09 8.45 4.79 6.61 2.56 10.42l-12.34 20.47c-1.12 1.78-1.93 3.25-3.03 5.05-.74 1.21-2.72 4.15-3.08 5.41 22.9 6.2 45.91 12.35 68.79 18.68 4.88 1.35 3.62 1.21 7.82-.93z" fill="#ffeb3d"/><path d="m54.72 276.49c6.08 38.02 16.52 72.71 31.75 107.77.43.98 2.84 6.48 3.68 7.3l.75-1.02c.23-.43.32-.62.57-1.04l14.27-22.68c2.77-3.97 8.47-11.35 11.8-15.22l6.25-7.14c6.65-7.66 12.8-13.51 20.28-20.14 1.35-1.19 2.26-1.89 3.56-3.14 2.17-2.08 16.78-13.49 18.94-14.78l5.83-4.09c.81-.54 1.33-.81 2.12-1.34 8.01-5.37 16.77-10.76 25.4-15.26 25.98-13.59 48.25-22.44 77.07-30.57 21.89-6.18 44.63-10.57 67.57-13.27 4.13-.49 22.04-2.37 24.99-1.86l.15 1.53c-4.69.88-10.3 2.74-14.98 4.04l-10.98 3.08c-.6.17-1.18.34-1.8.53-.4.13-1.34.38-1.87.67l15.72-2.79c5.55-.79 11.15-1.27 16.86-1.5 5.92-.23 12.03-.06 17.84.58 8.43.92 8.46 1.56 15.44 3.12.74-8.79 2.15-17.68 2.78-27.08l.17-1.18c.2-.52-.06-.09.3-.56l.43.27c.3.43 24.66 14.85 25.27 14.93l1.75-37.29-26.91-12.97c-.6-4.89-.78-10.22-1.22-15.18-2.35-26.2-7.72-77.61-17.84-97.68-1.59-3.16-1.08-2.39-4.02-4.06-12.17-6.92-25.55-13.69-38.32-19.42-12.7-5.7-35.46-14.73-49.18-17-1.12-.28-2.13-.47-3.33-.69l-3.14-.62c-.35-.13-.37-.17-.54-.28 7.92.24 25.89 3.85 33.96 5.76 33.12 7.84 66.78 21.77 94.61 39.32 1.39.88 1.87 1.56 2.21 2.91 4.32 17.04 7.64 31.56 10.1 49.5 3.46 25.26 8.13 45.69 5.69 72.28-.37.28-.03.05-.45.25l-.47.21c-.83 24.12-1.51 38.6-4.95 62.63-7.76 54.1-25.24 107.4-50.25 153.48-2.03 3.74-4.04 7.36-6.07 10.79-7.74 13.11-14.5 23.34-23.7 35.67l-11.34 14.29c-8.65 10.99-23.53 25.29-33.72 34.18-16.21 14.17-37.92 27.62-57.81 35.53-1.54.61-4.82 2.23-6.55 1.77-.52-1.66.35-1.39-1.29-2.16-2.83-1.34-15.69-8.22-16.8-8.53-.04-.06-.15-.26-.17-.31-.01-.04-.04-.11-.05-.15 0-.03-.01-.1-.02-.13-.01-.05.03-.2.03-.41l-2.79-.82c.57.43 1.28 1.02 2.03 1.32l-.58.62-6.26 4.73c-.97.69-1.09 1.03-2.53.58-7.51-2.32-14.26-5.44-21.22-8.82-4.8-2.32-9.84-5.3-14.41-8-5.05-2.98-13.19-8.4-17.85-11.94l-8.48-6.53c-.74-.6-1.33-1.09-2.06-1.64l-6.14-5.18c-9.21-8-25.93-24.6-33.17-34.02l-6.7-8.32c-2.45-3.47-10.71-14.05-12.63-17.31-.01-.4.11-.34-.25-.3l-.31-.37c.08-.41.2-.37-.18-.28l-11.14-17.75c-2.42-3.82-8.5-14.65-10.43-18.64-1.61-3.31-3.36-6.46-5.03-9.79-2.84-5.67-6.73-14.26-9.04-20.04-7.45-18.6-13.1-35.49-17.89-55.07-1.19-4.84-10.86-46.63-9.93-48.33l24.16-13.99c.88 6.37 1.44 12.66 2.46 19.04zm338.03 39.42c.77-2.91 1.52-5.9 2.26-8.8 3.09-12.19 5.48-24.45 7.72-36.85.87-4.84 2.85-14.85 2.59-19.33-3.4-1.75-13.89-3.22-18.33-3.49-13.63-.85-27.28.39-40.48 2.82-3.33.61-16.19 3.75-18.52 3.12-.28-1.11-.11-1.34.87-1.79 1.98-.91 4.08-1.43 6.24-2.08l17.41-4.99c1.96-.56 7.32-1.78 8.6-2.46-3.67-.19-9.72.68-13.44 1.1-12.69 1.43-25.39 3.49-37.78 5.81-23.77 4.45-45.88 11.19-67.96 19.4-21.63 8.04-48.42 21.19-67.24 34.39l-8.55 5.98c-8.51 5.68-16.41 12.92-24.1 19.56-5.24 4.52-10.07 9.35-14.59 14.51l-10.16 11.54c-.97 1.33-2.09 2.74-3.12 4.03-4.36 5.46-8.46 11-12.24 16.88l-5.56 8.98c-.72 1.13-5.17 8.61-5.18 9.49-.03 1 3.81 8.46 4.6 10.07 1.64 3.31 3.45 6.38 5.05 9.5.79 1.53 1.75 3.13 2.55 4.61.75 1.39 1.82 3.4 2.67 4.47 1.14-7.87 1.88-14.2 3.8-21.65 1.78-6.85 4.04-12.77 6.69-18.7 3.29-7.37 6.83-14.4 10.46-21.42 1.22-2.35 1.35-1.65-.04-4.15-1.06-1.92-3.67-6.55-4.22-8.24.98.63 7.44 7.47 8.17 8.7.25-.03 7.94-3.03 10.63-3.76 9.41-2.54 12.03.28 15.1-2.64l17.71-13.93c6.52-4.8 24.94-17.58 31.66-17.35-2.8 2.39-11.97 8.8-16.02 11.97-5.28 4.14-10.58 8.21-15.38 12.56-2.73 2.46-4.66 4.42-7.1 7-.67.71-2.33 2.85-2.87 4.07-2.93 6.66-.74 25.14-.03 32.28.83 8.4 1.86 16.78 3.21 25.04.27 1.62.38 1.82-.51 2.83l-11.32 12.93c-1.09 1.23-2.02 2.52-3.25 3.91-4.37 4.94-18 21.92-21.15 27.48 1.11 2.11 3.43 4.35 4.98 6.24l5.16 5.92c12.8 13.61 19.95 20.81 34.01 32.74 2.09 1.77 4.29 3.28 6.28 5.03 3.06 2.7 6.22 4.73 9.42 7.21l9.73 6.91c8.53 5.84 11.68 7.86 21.68 11.57 2.17.81 3.74 2.14 5.98 1.13.67-.3 1.38-.51 1.84-1.07l-1.35-.74c.25-1.46 10.59-25.08 11.19-25.8.22 8.24-1.43 15.64-1.74 22.81 1.09-.24 4.42-2.17 5.57-2.78 1.91-1 3.55-2 5.49-3.07 4.48-2.45 8.98-5.53 13.25-8.22 4.26-2.68 8.37-5.74 12.36-8.88 1.45-1.14 3.27-2.44 4.5-3.63-5.02-.88-10.05-1.46-15.15-2.21-.8-.12-14.34-1.73-14.97-2.39-.67-.83-4.23-11.99-4.92-13.94-1.74-4.92-3.14-9.2-4.87-14.13l-12.13-35.19c-.68-2.05-.45-1.57-2.57-2.27l-17.79-5.81c-1.3-.43-26.92-8.52-28.27-9.39 3.73.22 38.8 7.33 44.17 8.25 1.99.34 4.05 1.2 5.43.21l34.17-24.49c4.97-3.6 10.34-7.64 15.36-10.97 1.34-.89 2.61-1.79 3.79-2.67 2.17-1.62 1.91-.96 2.55-3.89.77-3.49 8.42-40.65 9.41-42.85l-2.14 43.87c1.18.88 6.12 2.82 7.93 3.63l16 7.1c2.99 1.3 17.46 11.22 20.74 13.44 1.8 1.2 12 8.18 13.79 8.97 1.86-2.19 10.12-18.57 11.44-21.26 11-22.45 17.85-40.94 25.55-64.49.64-1.96 1.15-4.32 1.87-6.05l1.04-3.39c.16-2.09 1.75-6.52 2.37-8.85z" fill="#0e234b"/><path d="m224.14 557.53-2.79 2.12c-3.01 2.21-4.99 4.32-9.15 3.09-4.11-1.23-8.12-2.58-12.09-4.17-17.12-6.86-30.85-16.45-45.57-27.26l-.07-.05-8.88-7.05-.05-.04c-23.68-19.86-43.05-41.42-61.66-66l-.08-.1-19.35-28.52-.04-.07c-1.05-1.65-2.04-3.33-3.04-5.02-8.93-15.15-17.2-30.68-24.47-46.71-11.39-25.14-19.96-50.94-26.13-77.83-17.15-74.75-13.29-151.76 8.69-225.06 1.22-4.09 2.47-8.18 3.78-12.24.32-.99.64-1.96.96-2.95.77-2.37.87-3.71 3.19-5.27 1.6-1.07 3.5-2.05 5.2-2.97 2.66-1.44 5.33-2.85 8.01-4.25 4.36-2.28 8.77-4.61 13.18-6.78 14.58-7.17 29.56-13.58 44.89-18.95 16.28-5.7 32.91-10.73 49.85-14.05 9.31-1.83 18.62-3.48 28.04-4.61 9.7-1.16 19.42-1.76 29.17-2.19 25.75-1.12 54.16 2.32 78.9 9.5 1.52.45 3.03.9 4.55 1.35.39.12.87.29 1.27.36.48.05 1.04.03 1.53.05 1.71.07 3.43.21 5.13.37 7.07.66 14.09 1.69 21.07 3.01 33.77 6.41 63.97 17.7 94.31 33.65 3.37 1.78 6.76 3.79 10.04 5.72 2.44 1.44 9.8 5.55 11.35 7.69 1 1.39 1.83 3.9 2.41 5.53.91 2.59 1.76 5.21 2.58 7.82 1.25 3.96 2.5 7.96 3.63 11.95 4.92 17.44 8.44 35.47 10.47 53.47 8.35 73.9-3.58 151.11-29 220.68-4.43 12.14-9.25 24.05-14.66 35.78-4.69 10.19-9.78 20.18-15 30.11-8.83 16.8-19.8 33.68-31.04 48.97-8.92 12.13-18.77 23.95-29.34 34.69l-.09.09-12.25 11.78-13 10.9-.06.05c-12.35 9.7-25.6 18.12-39.84 24.77-3.65 1.71-7.47 3.31-11.22 4.79-2.53.99-5.12 1.96-7.73 2.73-2.48.73-5.53 1.5-7.97.25-3.54-1.8-7.08-3.61-10.53-5.45zm48.74-526.19c-10-2.39-19.9-4.15-30.33-5.22-11.95-1.21-23.41-1.54-35.42-1.3-4.13.08-8.45.79-12.56.51-2.67-.18-6.3.46-9.04.7-19.82 1.76-40.34 6.21-59.45 11.68-10.81 3.09-21.34 6.66-31.76 10.87-9.12 3.68-18.07 7.75-26.99 11.86-4.64 2.14-9.05 4.71-13.63 6.98-2.25 1.11-4.36 2.51-6.61 3.67-1.03.54-2.02 1.17-3.03 1.75-.19.1-.38.21-.58.31-3.46 10.14-6.88 20.24-9.56 30.63-4.32 16.75-7.67 34.32-9.58 51.53-.33 3.02-.56 6.08-.84 9.1-.16 1.74-.47 6.76-1.06 9.63-.27 6.44-1.03 12.86-1.1 19.32-.1 9.88-.22 19.78.12 29.66.37 10.87 1.4 21.59 2.79 32.38 2.74 21.2 7.39 42.45 13.51 62.93.39 1.29.79 2.58 1.21 3.87.28.88.61 2.02.99 2.9l.38.51.22 1.01c.56 2.47 1.64 5.36 2.45 7.78.88 2.59 1.77 5.17 2.67 7.76 1.77 5.1 3.7 10.14 5.61 15.19 3.76 9.96 8.1 19.66 12.53 29.34 2.13 4.64 4.41 9.27 6.95 13.71 2.49 4.38 4.83 8.84 7.57 13.07 1.42 2.19 2.82 4.39 4.18 6.62.64 1.06 1.41 2.14 2.11 3.17 1.34 1.98 2.71 3.95 4.08 5.91 1.26 1.8 2.53 3.59 3.83 5.36.34.45.73 1 1.13 1.53l.04-.01.88 1.05h.5l.33.54 1.8 1.07-.29 1.16.21.25-.03.32c.54.82 1.14 1.63 1.7 2.41 1.22 1.7 2.48 3.38 3.74 5.06 2.1 2.8 4.28 5.59 6.3 8.45l6.64 8.24.04.05c4.64 6.04 10.39 11.97 15.74 17.39 5.38 5.44 10.98 10.9 16.69 15.87l6.06 5.09c.7.54 1.38 1.1 1.98 1.59l8.48 6.53c2.74 2.11 5.64 4.1 8.52 6.02 2.89 1.92 5.83 3.82 8.82 5.58 4.6 2.72 9.25 5.48 14.06 7.81 6.34 3.07 12.67 6.01 19.38 8.19l6.13-4.64.72-.25c1.73-.61 2.67-.72 4.48-.22 1.21.33 2.84 1.23 3.97 1.8 1.89.96 3.78 1.94 5.66 2.92 2.62 1.36 5.3 2.84 7.98 4.1.73.34 1.36.71 1.89 1.13.79-.32 1.57-.68 2.04-.87 19.64-7.8 40.48-20.75 56.39-34.65 6.08-5.32 12-10.91 17.7-16.62 5.34-5.36 10.7-11 15.41-16.92l11.29-14.23c8.52-11.43 16.11-22.9 23.36-35.18 2.07-3.5 4.04-7.06 5.98-10.63 25.33-46.66 42.17-99.29 49.71-151.84 1.48-10.34 2.67-20.66 3.43-31.08.75-10.32 1.11-20.67 1.47-31.02l.1-3.05 1.07-.48c.86-11.77.31-23.19-1.1-34.96-1.33-11.17-3.27-22.27-4.8-33.41-2.29-16.68-5.84-32.57-9.97-48.86l-.09-.06c-27.99-17.66-60.91-31.07-93.12-38.7-5.41-1.28-10.9-2.38-16.37-3.38-1.73-.31-3.46-.62-5.2-.9l-.09.53-4.48-.3c-3.7-.24-7.33-.86-11.01-1.24-1.93-.19-3.87-.24-5.81-.37-2.22-.15-5.68-1.12-7.37-2.54l-1.75-1.46z" fill="#0e234b"/><path d="m283.26 14.82c9.88 2.87 3.28 1.36 13.39 2.3 6.99.66 13.75 1.64 20.62 2.95 33.92 6.43 63.1 17.49 92.94 33.17 2.89 1.52 18.72 10.6 19.68 11.94 1.37 1.89 6.91 20.31 7.88 23.75 4.68 16.55 8.28 34.6 10.32 52.69 8.33 73.72-3.85 150.33-28.73 218.45-9.25 25.31-17.32 42.3-29.4 65.28-8.38 15.94-20.12 34.03-30.64 48.35-8.71 11.84-18.73 23.82-28.89 34.15l-12.13 11.66-12.81 10.75c-11.99 9.42-24.84 17.62-38.88 24.18-2.25 1.05-20.19 9.08-22.61 7.85-3.49-1.78-6.99-3.56-10.5-5.44l-7.76-4.02c-1.03-.53-1.71-1.26-2.69-.64l-4.61 3.5c-2.46 1.81-3.11 2.85-4.84 2.34-4.2-1.25-7.75-2.45-11.67-4.02-17.12-6.87-30.11-16.1-44.48-26.66l-8.76-6.94c-23.93-20.07-42.27-40.6-60.89-65.21l-19.24-28.34c-1.06-1.68-1.92-3.14-2.96-4.89-22.93-38.89-39.33-76.49-50.04-123.15-17.28-75.3-12.71-151.46 8.6-222.55 1.22-4.06 2.45-8.1 3.76-12.15.33-1.03.65-2 .96-2.93.65-2.03.43-2.16 1.25-2.71 2.98-2 23.28-12.42 25.82-13.67 13.98-6.88 28.87-13.3 44.34-18.72 15.43-5.41 32.17-10.54 49.18-13.87 21.74-4.27 34.1-5.73 56.48-6.71 25.12-1.1 53.4 2.37 77.31 9.31zm5.05 16.01c-2.02-.21-3.93-.26-5.98-.39-1.26-.09-3.8-.78-4.55-1.4l6.19.07c-.31-.11-.88-.23-1.27-.34-13.51-3.65-25.4-6.08-39.65-7.53-12.86-1.32-23.17-1.59-36.01-1.33-3.62.07-8.97.76-12.14.52-2.53-.15-7.14.48-9.8.71-19.85 1.75-41.55 6.46-60.38 11.85-23.13 6.61-38.44 13.31-59.44 22.99-4.9 2.26-9.12 4.74-13.75 7.03-2.27 1.12-4.36 2.52-6.69 3.71-1.18.62-2.03 1.18-3.2 1.84-2.46 1.39-2.15 1.06-2.64 2.51-3.51 10.28-6.95 20.32-9.83 31.48-4.23 16.37-7.81 35.08-9.71 52.22-.25 2.28-1.58 18.08-1.87 18.62l-.01-1.19c-.18 7.05-1.07 13.88-1.15 21.11-.25 24.41-.31 37.45 2.95 62.71 2.75 21.33 7.55 43.23 13.68 63.71.33 1.1 2.19 7.26 2.71 7.96.61 2.73 4.14 12.81 5.27 16.08 1.82 5.22 3.77 10.34 5.65 15.32 3.93 10.39 8.21 19.92 12.67 29.64 2.19 4.8 4.64 9.73 7.14 14.11 2.61 4.56 4.84 8.85 7.72 13.3 1.37 2.12 2.88 4.49 4.1 6.5.97 1.6 11.9 17.62 13.24 18.42-.1.4-.2.34.18.28l.31.37c-.03.39-.13.3.25.3 1.92 3.26 10.18 13.84 12.63 17.31l6.7 8.32c7.24 9.42 23.96 26.02 33.17 34.03l6.15 5.17c.72.55 1.31 1.04 2.05 1.64l8.48 6.53c4.66 3.54 12.8 8.96 17.85 11.94 4.57 2.7 9.62 5.68 14.41 8 6.96 3.38 13.71 6.5 21.22 8.82 1.44.45 1.57.11 2.53-.58l6.26-4.73c.79-.28.75-.33 1.55-.12 1.11.31 13.97 7.19 16.8 8.53 1.64.77.77.5 1.3 2.16 1.72.46 5-1.16 6.54-1.77 19.89-7.91 41.6-21.36 57.81-35.53 10.19-8.89 25.07-23.19 33.72-34.18l11.34-14.29c9.2-12.33 15.96-22.56 23.7-35.67 2.03-3.43 4.04-7.05 6.07-10.79 25.01-46.08 42.49-99.38 50.25-153.48 3.45-24.03 4.12-38.51 4.95-62.63l.47-.21c.42-.2.08.03.45-.25 2.44-26.59-2.23-47.02-5.69-72.28-2.46-17.94-5.78-32.45-10.1-49.5-.34-1.35-.82-2.03-2.21-2.91-27.83-17.55-61.49-31.48-94.61-39.32-8.06-1.91-26.04-5.52-33.96-5.76.17.11.19.15.54.28l3.14.62c1.2.22 2.21.41 3.33.69-3.59-.24-7.16-.84-10.83-1.22z" fill="#ffeb3d"/></g><path d="m194.9 20.43c-.37.33-9.22 1.01-10.02 1.1-10.65 1.27-18.11 2.39-28.9 4.54-33.94 6.75-68.1 19.49-98.55 35.45-4.79 2.51-9.73 5.22-14.15 8.03-1.16.74-1.42 2.3-1.94 3.58-5.8 14.24-9.65 34.11-12.36 49.08-3.11 17.24-5.91 52.42-6.12 71.78-.04 2.99-.41 8.27-.04 10.99 1.06-.39 8.53-5.31 10.32-6.33 1.13-.64 2.51-1.56 3.56-2.21l13.9-8.68c.94-.92.62-2.95.76-5.31 2.02-36.2 7.89-73.85 20.14-107.77.65-1.8.61-1.43 3.13-2.9 12.36-7.19 22.27-12.57 36.48-18.48 23.41-9.75 48.33-17.35 75.76-21.71 28.34-4.5 51.52-5.53 79.76-3.68 3.76.25 7.49.88 11.15 1.13l6.19.07c-.31-.11-.88-.23-1.26-.34-13.52-3.65-25.41-6.08-39.66-7.53-12.86-1.32-23.17-1.59-36.01-1.33-3.62.07-8.97.76-12.14.52z" fill="#0e234b"/><path d="m220.38 313.97c22.89 6.2 45.91 12.35 68.79 18.68 4.88 1.35 3.62 1.21 7.82-.93l21.79-11.01c3.27-1.62 26.86-13.83 29.15-14.73-.59-1.45-14.32-16.48-16.53-19.25-1.34-1.67-2.73-3.08-4.21-4.79-1.45-1.68-2.67-3.18-4.14-4.86-1.03-1.17-.85-1.31-2.76-1.63-1.41-.24-2.61-.44-3.98-.64-21.41-2.97-44.9-.9-66.12 3-2.34.43-5.47 1.28-7.69 1.44-.94-1.13-2-2.22-3.03-3.38l-3.2-3.25c4.09 8.45 4.79 6.61 2.55 10.42l-12.33 20.47c-1.12 1.78-1.93 3.25-3.03 5.05-.74 1.21-2.72 4.15-3.08 5.41z" fill="#0e1b2d"/><path d="m17.59 173.39c.06 3.48-.16 7.31-.4 10.77-.59 8.55-.43 23.77-.15 32.21.92 27.69 4.18 50.42 9.76 76.94 1.16 5.5 6.86 28.62 8.97 34.38.61 2.73 4.14 12.81 5.27 16.08 1.82 5.22 3.77 10.34 5.65 15.32 3.93 10.39 8.21 19.92 12.67 29.64 2.19 4.8 4.64 9.73 7.14 14.11 2.61 4.56 4.84 8.85 7.72 13.3 1.37 2.13 2.88 4.49 4.1 6.5.97 1.6 11.9 17.63 13.24 18.42-.1.4-.2.34.19.28l.3.37c-.03.39-.13.3.25.3 0-.4.11-.34-.25-.3l-.3-.37c.07-.41.19-.37-.19-.28l-11.13-17.75c-2.43-3.82-8.51-14.65-10.44-18.64-1.61-3.31-3.36-6.46-5.03-9.79-2.84-5.67-6.73-14.26-9.04-20.03-7.44-18.61-13.1-35.5-17.89-55.08-1.19-4.84-10.86-46.63-9.93-48.33l24.16-13.99c-.53-2.22-1.22-13.97-1.46-17.22-.08-1.14-.6-16.37-.88-17.08l-.23-.37c-4.32 2.51-8.26 4.98-12.63 7.51l-12.43 7.29c-1.12-5.98-2.11-26.41-1.81-32.6-.37-2.72 0-8 .03-10.99.22-19.36 3.02-54.54 6.13-71.78 2.7-14.97 6.56-34.84 12.36-49.08.52-1.28.78-2.84 1.94-3.57 4.42-2.82 9.36-5.53 14.15-8.04 30.45-15.96 64.61-28.7 98.55-35.45 10.79-2.15 18.24-3.27 28.9-4.54.8-.09 9.65-.77 10.02-1.1-2.53-.15-7.14.48-9.8.71-19.85 1.75-41.55 6.46-60.38 11.85-23.13 6.61-38.44 13.31-59.44 22.99-4.9 2.26-9.12 4.74-13.75 7.03-2.27 1.12-4.36 2.52-6.69 3.71-1.18.62-2.03 1.18-3.2 1.84-2.46 1.39-2.14 1.06-2.64 2.51-3.51 10.28-6.95 20.32-9.83 31.48-4.23 16.37-7.81 35.08-9.71 52.22-.25 2.28-1.58 18.08-1.87 18.62z" fill="#ff2e17"/><path d="m22.82 204.98c-.3 6.19.69 26.62 1.81 32.6l12.43-7.29c4.37-2.52 8.31-4.99 12.63-7.5.6-.4.87-.5 1.51-.76.38-4.37-.02-23.46-.05-30.57-.01-1.86.37-3.79-.55-3.7l-13.9 8.68c-1.05.65-2.43 1.57-3.56 2.21-1.79 1.02-9.26 5.94-10.32 6.33z" fill="#fff"/><path d="m35.77 327.69c-2.11-5.76-7.81-28.88-8.97-34.38-5.58-26.52-8.84-49.25-9.76-76.94-.28-8.44-.44-23.66.15-32.21.24-3.46.46-7.29.4-10.77l-.01-1.19c-.18 7.05-1.07 13.88-1.15 21.11-.25 24.41-.31 37.45 2.95 62.71 2.75 21.33 7.55 43.23 13.68 63.71.33 1.1 2.19 7.26 2.71 7.96z" fill="#9be4fa"/><path d="m120.24 306.73c-1 .82-2.92 3.2-1.23 4.82 2.21 2.13 6.81-3.33 10.6-2.97 3.46.32 5.62 4.75 2.13 8.72-3.32 3.77-8.02 4.06-9.72 1.39l1.09-1.44c1.17.31 1.36 1.01 2.85 1 1.14 0 1.94-.43 2.77-.95 1.1-.68 3.2-2.41 2.65-4.72-1.05-4.46-7.57 1.19-10.1 1.62-4.09.69-6.89-3.97-3.26-8.07 1.85-2.1 5.03-3.83 8-2.02 1.36.83.26 1.28-.4 2.22-1.45-.35-2.41-2.03-5.38.4zm97.94-58.52c.74 1.37 1.68 3.67 1.99 5.41 1.24 6.91-5.16 7.65-7.26 6.32-2.3-1.46-4.69-5.72-5.36-9.37-1.16-6.37 6.1-10.83 10.63-2.36zm-7.44 5.34c.93 2.21 2.82 6.1 5.88 5 2.95-1.07 1.29-5.6.3-7.94-.95-2.24-2.55-6.04-5.65-4.92-3.23 1.16-1.57 5.36-.53 7.86z" fill="#0e1b2d" fill-rule="evenodd"/><path d="m190.94 257.66c1.87 1.48 5.02 5.89 5.4 9.56.47 4.65-4.42 7.51-8.07 4.65-1.93-1.51-5.03-5.84-5.44-9.53-.53-4.82 4.4-7.62 8.11-4.68zm-2.26 11.95c2.82 3.39 10.21 1.56 1.84-9.68-1.88-2.53-6.61-2.26-5.65 2.41.46 2.19 2.77 6.01 3.81 7.27zm-17.69 1.63c-2.37-7.28 5.35-9.36 8.11-7.06 4.46 3.69-.5 9.75-.48 14.28.99-.42 2.48-1.45 3.46-2.04 1.01-.61 2.68-1.94 3.79-2.18l.77 1.49c-.53.6-8.74 5.75-9.69 5.9-1.48-5.71 1.89-8.16 1.89-13.05.01-2.29-1.76-4.26-4.19-3.28-.77.31-1.76 1.18-2.05 1.88-.58 1.35.03 2.09.26 3.24z" fill="#0e1b2d" fill-rule="evenodd"/><path d="m164.17 288.79c2.11-.78 2.16-1.98 2.15-4.55l1.67-.75c.89 1.33.49 3.43-.33 4.6-.64.93-2.06 2.11-3.45 2.58-3.66 1.24-6.31-1.74-7.43-3.95-3.63-7.19 6.41-12.16 10.17-4.98-2.16 1.89-5.26 3.41-7.31 5.31.5 1.21 2.52 2.48 4.53 1.74zm-.04-7.28c-1.85-2.78-7.47-1.85-5.66 3.99.6-.22 5.19-3.12 5.66-3.99zm-22.66 26.4-3.72-4.93c-.8-1-3.4-3.98-3.71-4.89l1.5-1 .92 1.17c.53-4.41 4.95-7.41 8.61-2.14.46.67.93 1.11 1.43 1.8.83 1.16 2.43 2.74 2.87 4.03l-1.47.97c-3.1-2.47-5.38-9.64-8.93-6.78-3.04 2.46.79 6.14 3.15 9.16.6.77.66.64.99 1.51zm247.29 19.13-24.12-14.05c3.02-.24 10.99 4.01 13.46 5.34 1.59.85 11.54 6.51 12.28 6.43l-1.04 3.39c-.17-1.24.29-.33-.58-1.11zm-235.71-38.77c-2.09-.75-3.51-1.4-4.73.83-1.55 2.85 2.45 8.33 5.88 7.02 2.1-.8 2.18-2.53 1.42-4.83l1.7-1.01c2.94 6.79-5.13 10.89-9.53 5.2-5.45-7.05 2.95-12.3 6.51-8.68zm45.51-36.89c.32-1.39.02-1.5 1.32-1.96.36.33 7.2 14.11 7.48 15.23l-1.73.97-5.77-11.81c-1 1.07-1.52 3.12-2.87 3.75-1.41-3.33.51-1.62 1.57-6.18zm-66.69 53.3c-.21-.25-1.97-2.45-2.01-2.48.59-.45.89-.82 1.73-1.11.84 1.49 7.43 8.28 7.77 9.36-.57.5-.8.85-1.67 1.12-.52-.79-1.28-1.46-1.89-2.26zm-3.63-7.16c.68.43 1.12 1.05 1.51 1.94l-1.41 1.11c-.58-.49-1.19-1.09-1.51-1.74z" fill="#0e1b2d" fill-rule="evenodd"/><path d="m223.75 538.46c.79-.28.75-.33 1.55-.12-.04-.06-.15-.26-.17-.31-.01-.03-.04-.11-.04-.15-.01-.03-.02-.1-.03-.13-.01-.05.03-.2.04-.41l-2.8-.82c.57.43 1.28 1.02 2.03 1.32z" fill="#93a83e"/><path d="m279.08 132.05h-17.25l-3.65 11.4h-9.89l17.18-50.48h9.74l17.73 50.48h-10.07zm-170.31 0h-17.25l-3.65 11.4h-9.89l17.17-50.48h9.75l17.72 50.48h-10.06zm263.16-.92v-6.08h-10.11v-8.85h19.53v20.24l-.04.05c-2.11 2.35-5.07 4.13-8.14 5.5-3.37 1.5-6.98 2.37-10.81 2.37-4.49 0-8.58-1.04-12.14-3.34-3.77-2.44-6.21-5.83-7.77-9.55-1.81-4.32-2.58-8.86-2.58-13.43 0-4.76.79-9.56 2.89-14.01 1.77-3.77 4.49-7.08 8.49-9.43 3.14-1.86 6.84-2.53 10.64-2.53 4.84 0 9.48 1.01 12.94 3.97 3.48 2.98 5.2 6.91 5.97 10.95l.03.18-9.27 1.98-.05-.2c-.53-2.13-1.56-4.18-3.42-5.74-1.71-1.44-3.81-2.08-6.21-2.08-3.89 0-6.85 1.44-9.03 4.12-2.78 3.43-3.38 8.35-3.38 12.38 0 4.26.57 9.62 3.43 13.29 2.1 2.7 4.97 4.37 8.89 4.37 1.94 0 3.77-.47 5.47-1.22 1.74-.77 3.31-1.74 4.67-2.94zm-48.14-5.31v-32.85h8.69v50.48h-9.27l-17.4-32.21v32.21h-8.69v-50.48h8.99zm-47.72-2.63-5.79-17.59-5.63 17.59zm-40.57-30.22h9.36v50.48h-9.36zm-16.85 38.16v-6.08h-10.11v-8.85h19.53v20.24l-.05.05c-2.1 2.35-5.06 4.13-8.13 5.5-3.37 1.5-6.98 2.37-10.81 2.37-4.49 0-8.59-1.04-12.14-3.34-3.77-2.44-6.21-5.83-7.77-9.55-1.81-4.32-2.58-8.86-2.58-13.43 0-4.76.79-9.56 2.88-14.01 1.78-3.77 4.5-7.08 8.5-9.43 3.14-1.86 6.84-2.53 10.64-2.53 4.83 0 9.48 1.01 12.94 3.97 3.47 2.98 5.2 6.91 5.97 10.95l.03.18-9.27 1.98-.05-.2c-.53-2.13-1.56-4.18-3.42-5.74-1.71-1.44-3.81-2.08-6.21-2.08-3.9 0-6.86 1.44-9.03 4.12-2.78 3.43-3.38 8.35-3.38 12.38 0 4.26.57 9.62 3.42 13.29 2.11 2.7 4.97 4.37 8.9 4.37 1.93 0 3.77-.47 5.46-1.22 1.74-.77 3.32-1.74 4.68-2.94zm-65.17-5.31v-32.85h8.68v50.48h-9.26l-17.41-32.21v32.21h-8.68v-50.48h8.98zm-47.73-2.63-5.79-17.59-5.62 17.59z" fill="#0e1b2d" fill-rule="evenodd"/><path d="m438.72 199.08c2.19-25.99-2.39-46.17-5.8-71.04-2.46-17.94-5.78-32.46-10.1-49.51-.34-1.34-.82-2.02-2.21-2.9-27.82-17.55-61.49-31.48-94.61-39.32-8.07-1.91-26.04-5.52-33.96-5.77.17.11.19.16.54.29l3.14.62c1.2.22 2.21.41 3.33.69 13.73 2.27 36.48 11.3 49.18 17 12.77 5.73 26.15 12.5 38.32 19.42 2.94 1.67 2.43.9 4.02 4.06 10.12 20.07 15.49 71.48 17.84 97.68.44 4.96.62 10.29 1.22 15.18l22.92 11.05z" fill="#0e234b"/><path d="m365.08 167.16v38.34h20.65v8.47h-29.3v-46.81zm-37.03 0v38.34h20.65v8.47h-29.31v-46.81zm-41.88 37.16-2.88 9.65h-9.13l14.77-46.81h10.06l14.53 46.81h-9.35l-2.65-9.65zm2.31-8.09h10.62l-5.21-18.52zm-53.57 17.74v-46.81h20.21c4.52 0 7.9 1.39 10.14 4.18 1.69 2.12 2.53 4.72 2.53 7.8 0 2.92-.6 5.23-1.82 6.91-.74 1.01-1.82 1.88-3.24 2.61 2.38 1.06 4.08 2.65 5.12 4.77.91 1.78 1.36 3.99 1.36 6.6 0 1.91-.32 3.67-.93 5.3-.63 1.62-1.5 3.06-2.66 4.34-1.42 1.53-2.85 2.57-4.28 3.13-2.01.78-4.96 1.17-8.88 1.17zm8.31-20.6v12.51h10.63c2.17 0 3.84-.55 4.97-1.66 1.14-1.1 1.7-2.85 1.7-5.25 0-1.87-.59-3.27-1.79-4.2-1.19-.94-2.67-1.4-4.43-1.4zm0-18.14v10.18h10.15c1.85 0 3.3-.39 4.34-1.17 1.18-.92 1.77-2.26 1.77-4.05 0-1.82-.52-3.12-1.57-3.85-1.06-.74-2.65-1.11-4.77-1.11zm-27.68.15v38.59h-8.67v-38.59h-12.57v-8.22h33.7v8.22zm-63.23 15.13c0-6.67 1.31-12.04 3.91-16.12 2.05-3.23 4.84-5.54 8.37-6.97 2.54-1.04 5.11-1.56 7.7-1.56 2.61 0 5.13.5 7.55 1.5 3.53 1.47 6.33 3.79 8.37 6.98 2.61 4.07 3.92 9.46 3.92 16.17 0 6.64-1.31 12.03-3.92 16.17-2.04 3.2-4.84 5.55-8.37 7.04-2.49 1.03-5.01 1.55-7.55 1.55-2.67 0-5.22-.5-7.64-1.5-3.53-1.47-6.32-3.8-8.37-6.96-2.64-4.19-3.97-9.62-3.97-16.3zm8.65 0c0 5.9 1.29 10.28 3.86 13.15 1.98 2.18 4.47 3.28 7.47 3.28 2.91 0 5.36-1.1 7.33-3.28 2.57-2.87 3.85-7.25 3.85-13.15 0-5.88-1.28-10.24-3.85-13.05-1.97-2.18-4.42-3.25-7.33-3.25-2.94 0-5.4 1.07-7.41 3.25-2.62 2.85-3.92 7.21-3.92 13.05zm-52.27 0c0-6.67 1.31-12.04 3.91-16.12 2.05-3.23 4.84-5.54 8.37-6.97 2.54-1.04 5.11-1.56 7.7-1.56 2.61 0 5.12.5 7.55 1.5 3.53 1.47 6.33 3.79 8.36 6.98 2.62 4.07 3.93 9.46 3.93 16.17 0 6.64-1.31 12.03-3.93 16.17-2.03 3.2-4.83 5.55-8.36 7.04-2.49 1.03-5.01 1.55-7.55 1.55-2.67 0-5.22-.5-7.64-1.5-3.53-1.47-6.32-3.8-8.37-6.96-2.65-4.19-3.97-9.62-3.97-16.3zm8.64 0c0 5.9 1.29 10.28 3.87 13.15 1.97 2.18 4.46 3.28 7.47 3.28 2.91 0 5.35-1.1 7.33-3.28 2.56-2.87 3.85-7.25 3.85-13.15 0-5.88-1.29-10.24-3.85-13.05-1.98-2.18-4.42-3.25-7.33-3.25-2.94 0-5.4 1.07-7.41 3.25-2.62 2.85-3.93 7.21-3.93 13.05zm-35.08 3.78v19.68h-8.65v-46.81h29.56v8.22h-20.91v10.54h18.23v8.37z" fill="#0e1b2d" fill-rule="evenodd"/></g></svg>