<?xml version="1.0" encoding="UTF-8"?>
<svg width="252" height="352" viewBox="0 0 825 1151" xmlns="http://www.w3.org/2000/svg">
<defs>
<clipPath id="a">
<path d="m-261-88h1386v1350h-1386z"/>
</clipPath>
</defs>
<style>tspan { white-space:pre }
		.shp0 { fill: #00ab4f } 
		.shp1 { fill: #ffeb3d } 
		.shp2 { fill: #ffffff } 
		.shp3 { fill: #006d32 } 
		.shp4 { fill: none;stroke: #ffffff;stroke-width: 1.458 } 
		.shp5 { fill: #ff2e17 }</style>
<g clip-path="url(#a)">
<path class="shp0" d="m98.41 279.54v417.22c0 118.88 55.71 215.83 150.69 291.79 35.2 28.15 74.66 52.47 115.81 72.22 13.24 6.35 31.23 14.68 47.55 20.54 16.33-5.86 34.32-14.19 47.55-20.54 41.16-19.75 80.62-44.07 115.82-72.22 94.98-75.96 150.69-172.91 150.69-291.79v-417.22c-101.03-34.3-203.93-69.11-312.25-69.11s-214.83 34.81-315.86 69.11zm-70.16-103.62 386.02-93.43 382.4 93.43v520.84c0 322.19-348.95 445.82-383.53 453.56h-0.68-0.67c-34.59-7.74-383.54-131.37-383.54-453.56v-520.84z"/>
<path class="shp1" d="m54.62 696.76v-473.12l5.04-1.23 353.03-85.44 1.55-0.38 1.54 0.38 349.48 85.39 5.05 1.23v473.17c0 65.04-15.25 123.81-42.69 176.44-29.35 56.3-72.63 105.43-126.07 147.55-18.96 14.93-38.93 28.79-59.59 41.48-21.15 13-43.13 24.83-65.55 35.4-7.5 3.54-15.09 6.95-22.76 10.21-7.76 3.29-15.52 6.39-23.26 9.25l-1.37 0.51c-4.4 1.63-9.34 3.46-14.65 5.08l-1.91 0.59-1.9-0.59c-5.31-1.62-10.25-3.45-14.65-5.08l-1.37-0.51c-7.74-2.86-15.5-5.96-23.26-9.25-7.67-3.26-15.27-6.67-22.76-10.21-22.43-10.57-44.4-22.4-65.56-35.4-20.65-12.69-40.62-26.55-59.58-41.48-53.45-42.12-96.72-91.25-126.08-147.55-27.44-52.63-42.68-111.4-42.68-176.44zm13.18-462.8v462.8c0 62.9 14.69 119.64 41.14 170.36 28.43 54.54 70.51 102.25 122.58 143.28 18.5 14.58 38.06 28.15 58.34 40.6 20.87 12.83 42.41 24.43 64.27 34.74 7.36 3.47 14.8 6.82 22.3 10 7.41 3.14 14.96 6.16 22.64 8.99l1.37 0.51c3.87 1.43 8.14 3.02 12.02 4.28 3.88-1.26 8.16-2.85 12.03-4.28l1.37-0.51c7.67-2.83 15.22-5.85 22.64-8.99 7.49-3.18 14.94-6.53 22.3-10 21.86-10.31 43.4-21.91 64.27-34.74 20.27-12.45 39.84-26.02 58.34-40.6 52.07-41.03 94.14-88.74 122.58-143.28 26.44-50.72 41.14-107.46 41.14-170.36v-462.87l-342.9-83.77-346.43 83.84z" fill-rule="evenodd"/>
<path class="shp2" d="m506.92 19.8h-65.72l-28.74-30.08-28.74 30.08h-65.72l21.5 23.2-56.32 31.71h-43.23l63.11 47.46v91.06h-19.52v7.3 15.51l-191.61 46.37v9.01l209.64-50.74 4.4 18.2-214.04 51.8v385.54c0 121.19 58.6 217.15 151.33 291.06 35.78 28.52 75.64 52.92 116.91 72.64 13.99 6.69 33.1 15.53 50.06 21.39 16.97-5.86 36.07-14.7 50.07-21.39 41.27-19.72 81.13-44.12 116.91-72.64 92.73-73.91 151.33-169.87 151.33-291.06v-386.53l-209.95-50.81 4.4-18.2 205.55 49.75v-8.13l-187.15-45.73v-23.34h-19.52v-91.06l63.1-47.46h-43.23l-56.32-31.71 21.5-23.2z"/>
<path class="shp3" d="m522.37 272.99 4.01-12.23 202.15 48.93v386.53c0 121.19-58.59 217.15-151.32 291.06-35.78 28.52-75.64 52.92-116.92 72.64-13.99 6.69-33.1 15.53-50.06 21.39-16.96-5.86-36.07-14.7-50.06-21.39-41.27-19.72-81.13-44.12-116.91-72.64-92.73-73.91-151.33-169.87-151.33-291.06v-385.54l206.19-49.9 11.63 12.21h212.62zm20.02 2.94v13.11h-260.52v-13.22l-178.97 43.49v376.91c0 117.65 56.97 210.56 147.2 282.48 35.21 28.07 74.19 51.92 114.8 71.33 14.71 7.02 29.94 14.08 45.33 19.64 15.4-5.57 30.63-12.62 45.34-19.64 40.61-19.41 79.59-43.26 114.8-71.33 90.23-71.92 147.19-164.83 147.19-282.48v-377.9l-175.17-42.39z" fill-rule="evenodd"/>
<path class="shp0" d="m473.78 44.83 66.05 37.18h23.28l-48.54 36.52v102h19.52v60.28h-243.25v-60.28h19.52v-102l-48.55-36.52h23.29l66.05-37.18-16.42-17.72h52.12l25.61-26.82 25.62 26.82h52.12l-16.42 17.72zm5.06 166.74h24.36v-111.74h-24.36v111.74zm-93.66-84.28h-27.37v12.21h27.37v30.14h-27.37v12.21h27.37v27.37h12.21v-27.37h30.14v27.37h12.21v-27.37h27.38v-12.21h-27.38v-30.14h27.38v-12.21h-27.38v-27.37h-12.21v27.37h-30.14v-27.37h-12.21v27.37zm-72.26-45.28h199.09l-52.91-29.79h-93.28l-52.9 29.79zm99.54 52.7c11.59 0 20.99 9.39 20.99 20.99 0 11.59-9.4 20.99-20.99 20.99s-20.99-9.4-20.99-20.99c0-11.6 9.4-20.99 20.99-20.99zm-102.1 129.58h204.2v-31.47h-204.2v31.47zm11.37-52.72h24.36v-111.74h-24.36v111.74z" fill-rule="evenodd"/>
<path class="shp3" d="m32.98 760.01c252.8 62.75 506.26 64.01 758.95 0.08 0.61-4.02 1.16-8.08 1.65-12.17 13.74 0.16 27.42 0.33 30.83 3.7l-28.42 152.03c-258.82 61.84-508.29 61.87-767.05 0l-28.4-151.93 0.04 0.01-0.04-0.11c3.41-3.37 17.08-3.54 30.8-3.7 0.49 4.06 1.04 8.09 1.64 12.09z"/>
<path class="shp2" d="m15.31 765.74c264.21 68.16 530.21 69.55 794.3 0l2.21-0.58-24.37 130.34c-123.33 29.01-248.66 44.69-375.46 44.65-126.47-0.03-251.5-15.69-374.51-44.65l-24.36-130.32 2.19 0.56zm3.67 5.71 22.48 120.25c121.58 28.4 245.62 43.8 370.54 43.84 125.23 0.03 249.58-15.39 371.47-43.84l22.48-120.23c-261.37 67.97-525.48 66.6-786.97-0.02z" fill-rule="evenodd"/>
<path class="shp4" d="m728.59 812.6c8.08-1.7 16.23-3.62 24.46-5.56 4.92-1.16 8.53-1.8 10.8-1.9 2.35-0.1 4.34 0.32 5.95 1.32 1.62 0.99 2.89 2.51 3.67 4.63 0.77 2.09 0.94 4.64 0.37 7.62-0.61 3.19-2.03 6.32-4.04 9.39-1.96 2.99-4.48 5.54-7.27 7.49 3.45 0.38 5.95 1.82 7.35 4.32 1.39 2.5 1.76 5.73 1.02 9.73-0.58 3.15-1.86 6.34-3.67 9.61-1.79 3.24-3.92 5.97-6.54 8.3-2.45 2.19-5.36 3.94-8.67 5.06-2.05 0.7-6.75 1.96-14.47 3.71-6.75 1.53-13.37 3-20.05 4.3 1.83-11.33 3.64-22.68 5.51-34 1.87-11.36 3.74-22.68 5.58-34.02zm10.43 8.65c-0.88 5.24-1.76 10.47-2.64 15.71 2.57-0.6 5.21-1.21 7.93-1.83 4.78-1.11 7.79-1.89 8.96-2.31 2.13-0.75 3.94-1.99 5.36-3.59 1.52-1.69 2.49-3.53 2.87-5.77 0.35-2.09 0.13-3.69-0.73-4.78-0.84-1.05-2.21-1.52-4.27-1.3-1.1 0.11-4.55 0.85-10.43 2.22-2.34 0.54-4.63 1.08-7.05 1.65zm-4.56 27.05c-0.58 3.07-1.1 6.12-1.61 9.17-0.52 3.04-1.1 6.1-1.47 9.13 3.67-0.83 7.35-1.67 11.17-2.52 4.26-0.96 7.04-1.74 8.3-2.27 1.83-0.8 3.5-1.96 4.92-3.75 1.31-1.65 2.28-3.77 2.72-6.23 0.37-2.07 0.22-3.73-0.37-4.98s-1.69-2-3.23-2.28-5.07 0.22-10.65 1.49c-3.31 0.75-6.54 1.5-9.78 2.24zm-70.81-23.4c4.04-0.67 8.08-1.36 12.19-2.06-0.88 6.06-1.76 12.14-2.57 18.19-0.81 6.06-1.67 12.13-2.5 18.19-0.78 5.79-1.23 9.5-1.17 11.16 0.09 2.66 1.02 4.72 2.65 6.05 1.67 1.38 4.11 1.82 7.41 1.25 3.24-0.56 5.88-1.88 7.79-3.79s3.22-4.02 3.97-6.42c0.72-2.34 1.49-6.23 2.27-11.59 0.91-6.2 1.77-12.45 2.72-18.66 0.96-6.25 1.91-12.46 2.79-18.69 4.04-0.82 8.08-1.64 12.27-2.47-0.88 5.94-1.8 11.89-2.72 17.8-0.92 5.95-1.96 11.87-2.86 17.81-1.23 8.12-2.46 13.93-3.6 17.43-1.13 3.46-2.79 6.55-4.85 9.19-2.05 2.63-4.68 4.96-7.71 6.83-3.14 1.95-6.75 3.36-11.39 4.16-5.57 0.97-9.63 0.84-12.34-0.21-2.58-1-4.58-2.56-5.95-4.69-1.34-2.07-2-4.4-2.2-6.91-0.31-3.71 0-9.33 1.02-16.81 0.82-5.99 1.62-11.92 2.43-17.89 0.8-5.95 1.61-11.92 2.35-17.87zm-61.34 74.35c1.17-10.95 2.28-21.87 3.45-32.81 1.18-10.94 2.43-21.89 3.53-32.83 3.96-0.56 7.93-1.1 11.97-1.65-1.03 9.1-2.09 18.21-3.08 27.29-1 9.1-2.06 18.19-3.09 27.3 9.63-1.25 19.25-2.5 28.94-4.02-0.44 3.75-0.95 7.51-1.39 11.27-13.44 1.99-26.96 3.72-40.33 5.45zm-22.92-21.43c3.6 0.93 7.2 1.88 10.87 2.82-2.42 7.44-5.8 13.11-10.14 17.03-4.33 3.92-9.47 6.16-15.57 6.76-7.49 0.73-13.42-1.66-17.78-7.1-2.26-2.81-3.82-6.2-4.7-10.15-0.89-3.98-1.13-8.53-0.73-13.7 0.41-5.42 1.31-10.27 2.86-14.63 1.53-4.3 3.66-8.1 6.39-11.32 5.58-6.59 12.49-10.32 20.72-11.2 7.12-0.77 12.7 1.02 16.75 5.31 2.41 2.55 4.04 6.37 4.77 11.55-4.04 1.44-8 2.9-11.97 4.33-0.29-3.33-1.45-5.92-3.45-7.63-2.11-1.79-4.63-2.44-7.79-2.11-4.26 0.46-7.92 2.6-10.87 6.34-2.99 3.8-4.77 9.54-5.44 17.36-0.36 4.14-0.3 7.66 0.15 10.54 0.44 2.85 1.14 5.09 2.35 6.76 2.32 3.22 5.44 4.69 9.62 4.27 3.01-0.3 5.84-1.61 8.3-4.16 2.32-2.4 4.26-6.15 5.66-11.07zm-110.27 31.62c0.37-10.68 0.78-21.37 1.18-32.06 0.4-10.68 0.88-21.37 1.32-32.09 3.82-0.17 7.79-0.35 11.75-0.53-0.44 8.89-0.8 17.76-1.25 26.66-0.44 8.88-0.73 17.75-1.17 26.64 9.4-0.37 18.81-0.75 28.28-1.33-0.22 3.66-0.37 7.31-0.66 10.99-13.22 0.72-26.37 1.21-39.45 1.72zm-51.64 0.83c0.15-10.62 0.29-21.25 0.44-31.87 0.15-10.61 0.22-21.24 0.37-31.86 3.89-0.07 7.78-0.12 11.75-0.17-0.22 8.84-0.33 17.64-0.51 26.48-0.19 8.81-0.3 17.61-0.44 26.44 9.33-0.09 18.73-0.18 28.2-0.3-0.14 3.64-0.22 7.27-0.36 10.91-13.15 0.14-26.23 0.25-39.45 0.37zm-10.14-0.06c-4.11-0.09-8.15-0.17-12.19-0.25-1.62-4.88-3.31-9.77-4.93-14.67-7.56-0.14-15.13-0.3-22.62-0.44-1.54 4.81-3.01 9.58-4.48 14.35-3.97-0.19-7.94-0.38-11.9-0.55 3.37-10.5 6.83-20.96 10.28-31.43 3.46-10.49 7.05-21.06 10.73-31.66 4.04 0.05 8.22 0.12 12.41 0.2 3.89 10.73 7.71 21.44 11.46 32.19s7.49 21.49 11.24 32.26zm-20.86-25.81c-1.4-3.98-2.82-7.93-4.12-11.92-1.28-3.94-2.64-7.93-3.89-11.9-1.32 3.92-2.6 7.83-3.82 11.78-1.2 3.89-2.42 7.84-3.67 11.75 5.14 0.1 10.28 0.19 15.5 0.29zm-93.23-42.94c7.72 0.58 15.43 1.25 23.22 1.77 4.62 0.31 8.01 0.59 10.36 1.13 2.2 0.5 4.26 1.5 6.09 2.91 1.84 1.41 3.41 3.15 4.71 5.5 1.2 2.21 1.76 4.81 1.83 7.55 0.08 2.98-0.61 5.68-1.98 8.12-1.35 2.39-3.31 4.19-5.59 5.33 3.46 1.3 6.16 3.37 8.09 6.16 1.96 2.85 2.96 6.08 3.08 9.78 0.1 2.91-0.52 5.72-1.61 8.4-1.11 2.69-2.66 4.8-4.71 6.36-1.99 1.52-4.48 2.47-7.49 2.69-1.98 0.14-6.39 0.07-13.66-0.44-6.4-0.45-12.79-0.97-19.18-1.44-0.51-10.64-1.1-21.28-1.61-31.92-0.52-10.63-1.03-21.27-1.55-31.9zm12.2 11.5c0.22 4.9 0.44 9.8 0.66 14.69 2.5 0.18 5.07 0.38 7.64 0.57 4.48 0.34 7.2 0.45 8.37 0.34 1.92-0.16 3.46-0.83 4.56-2.04s1.58-2.83 1.54-4.88c-0.03-1.98-0.62-3.55-1.69-4.87-0.99-1.23-2.43-2.07-4.48-2.43-1.03-0.18-4.41-0.46-9.84-0.87-2.28-0.17-4.48-0.35-6.76-0.51zm1.1 25.29c0.15 2.86 0.33 5.69 0.44 8.55 0.11 2.84 0.15 5.71 0.3 8.55 3.52 0.26 7.05 0.54 10.65 0.8 4.04 0.3 6.76 0.29 7.78 0.12 1.77-0.3 3.07-1.09 4.04-2.38 1.01-1.33 1.48-3.08 1.4-5.34-0.07-1.93-0.5-3.61-1.32-4.95-0.87-1.4-2.13-2.43-3.67-3.1-1.62-0.7-5-1.14-10.29-1.53-3.09-0.22-6.17-0.48-9.33-0.72zm-49.44 23.45c-0.59-8.86-1.21-17.71-1.84-26.56-0.62-8.86-1.17-17.72-1.9-26.57-5.74-0.62-11.54-1.23-17.2-1.84-0.29-3.61-0.58-7.23-0.88-10.84 15.43 1.66 30.93 3.34 46.36 4.67 0.22 3.59 0.36 7.19 0.58 10.8-5.65-0.43-11.31-0.91-17.04-1.52 0.59 8.85 1.14 17.7 1.69 26.54 0.55 8.83 1.18 17.66 1.76 26.52-3.89-0.4-7.71-0.79-11.53-1.2zm-84.48-42.3c-0.7-6.62-0.43-12.02 0.88-16.22 0.97-3.08 2.46-5.67 4.56-7.96 2.01-2.18 4.41-3.79 7.05-4.69 3.38-1.16 7.57-1.44 12.34-0.77 8.74 1.23 15.96 5.1 21.67 11.74 2.82 3.27 5.11 7.12 6.69 11.34 1.58 4.24 2.75 8.96 3.16 14.2 0.4 5.19 0.07 9.72-0.81 13.63-0.88 3.89-2.46 7.1-4.78 9.75-4.51 5.16-10.8 7.29-19.25 6.2-8.44-1.08-15.6-5.02-21.22-11.62-2.9-3.4-5.22-7.16-6.91-11.42-1.69-4.25-2.83-8.99-3.38-14.18zm12.05 1.54c0.73 7.34 2.84 13.14 6.24 17.31 3.44 4.22 7.42 6.62 12.05 7.21 4.7 0.6 8.21-0.79 10.87-4.12 1.38-1.71 2.35-3.85 2.79-6.56 0.44-2.7 0.62-5.91 0.3-9.64-0.64-7.38-2.65-13.07-5.95-17.11-3.31-4.05-7.35-6.4-12.27-7.08-4.85-0.68-8.69 0.6-11.31 3.9-2.6 3.26-3.46 8.64-2.72 16.09zm-80.15-13.76c-1.03-6.8-0.82-12.34 0.37-16.6 0.87-3.13 2.25-5.81 4.26-8 2.04-2.24 4.41-3.67 6.98-4.4 3.45-0.98 7.63-0.9 12.56 0.08 8.88 1.76 16.39 5.93 22.33 12.83 2.95 3.42 5.41 7.38 7.13 11.73 1.73 4.37 3.08 9.22 3.67 14.54 0.59 5.28 0.41 9.82-0.37 13.76-0.77 3.93-2.18 7.2-4.33 9.76-4.39 5.22-10.87 7.11-19.32 5.57-8.67-1.58-16.02-5.78-21.97-12.79-2.94-3.48-5.5-7.47-7.34-11.87-1.84-4.39-3.16-9.28-3.97-14.61zm12.34 1.95c1.06 7.52 3.39 13.48 6.98 17.96 3.54 4.41 7.72 7.08 12.49 7.97 4.7 0.87 8.28-0.27 10.87-3.65 1.23-1.61 2.02-3.85 2.43-6.6 0.4-2.72 0.37-5.99-0.08-9.8-0.88-7.51-3.12-13.3-6.61-17.55-3.42-4.16-7.49-6.78-12.49-7.78-5.06-1.02-8.86 0.02-11.46 3.22-2.54 3.13-3.2 8.58-2.13 16.23zm-59.13 20.55c-1.99-11.47-3.93-22.96-5.88-34.46-1.95-11.47-3.82-22.96-5.8-34.45 13.95 3.41 27.99 6.79 42.02 10.18 0.58 3.78 1.17 7.56 1.69 11.34-9.77-2.31-19.54-4.64-29.46-6.95 0.95 5.41 1.83 10.82 2.72 16.22 8.44 1.9 16.75 3.82 25.19 5.74 0.59 3.78 1.11 7.58 1.69 11.38-8.37-1.87-16.75-3.72-25.12-5.56 0.88 4.83 1.61 9.68 2.42 14.51s1.55 9.67 2.43 14.51c-4.04-0.83-8.01-1.64-11.9-2.46z"/>
<path class="shp2" d="m57.74 869.69c-1.99-11.48-3.93-22.96-5.88-34.46-1.94-11.48-3.82-22.97-5.8-34.46 13.96 3.41 27.99 6.79 42.02 10.18 0.58 3.78 1.17 7.56 1.69 11.34-9.77-2.31-19.54-4.64-29.46-6.95 0.95 5.41 1.84 10.82 2.72 16.22 8.44 1.9 16.75 3.83 25.19 5.75 0.59 3.77 1.11 7.58 1.69 11.37-8.37-1.87-16.75-3.71-25.12-5.56 0.88 4.84 1.62 9.68 2.42 14.51 0.81 4.83 1.55 9.67 2.43 14.51-4.04-0.83-8.01-1.64-11.9-2.45zm46.79-22.51c-1.03-6.8-0.82-12.34 0.37-16.6 0.87-3.13 2.25-5.81 4.26-8 2.04-2.24 4.41-3.67 6.98-4.4 3.45-0.98 7.63-0.9 12.56 0.08 8.88 1.76 16.39 5.93 22.33 12.83 2.95 3.42 5.41 7.38 7.13 11.73 1.73 4.37 3.08 9.22 3.67 14.54 0.59 5.28 0.41 9.82-0.37 13.76-0.77 3.93-2.18 7.2-4.33 9.76-4.39 5.22-10.87 7.11-19.32 5.57-8.67-1.58-16.02-5.78-21.97-12.79-2.94-3.48-5.51-7.47-7.34-11.87-1.84-4.39-3.16-9.28-3.97-14.61zm12.34 1.95c1.06 7.52 3.39 13.48 6.98 17.96 3.54 4.41 7.72 7.08 12.49 7.97 4.7 0.87 8.28-0.27 10.87-3.65 1.23-1.61 2.02-3.85 2.43-6.6 0.4-2.72 0.37-5.99-0.08-9.8-0.88-7.51-3.12-13.3-6.61-17.55-3.42-4.16-7.49-6.78-12.49-7.78-5.06-1.02-8.86 0.02-11.46 3.22-2.54 3.13-3.2 8.58-2.13 16.23zm55.76 10.27c-0.7-6.61-0.43-12.01 0.88-16.21 0.97-3.09 2.46-5.68 4.56-7.96 2.01-2.18 4.41-3.8 7.05-4.7 3.38-1.16 7.57-1.44 12.34-0.76 8.74 1.22 15.97 5.09 21.67 11.73 2.82 3.27 5.11 7.12 6.69 11.35s2.75 8.95 3.16 14.19c0.4 5.19 0.07 9.72-0.81 13.63-0.88 3.89-2.46 7.1-4.78 9.75-4.51 5.16-10.8 7.29-19.25 6.21-8.44-1.09-15.6-5.03-21.22-11.63-2.9-3.4-5.22-7.16-6.91-11.42-1.69-4.25-2.83-8.99-3.38-14.18zm12.05 1.54c0.73 7.34 2.84 13.14 6.24 17.31 3.44 4.22 7.42 6.62 12.05 7.21 4.7 0.6 8.21-0.79 10.87-4.11 1.38-1.71 2.35-3.86 2.79-6.57 0.44-2.7 0.62-5.9 0.3-9.63-0.64-7.38-2.65-13.08-5.95-17.12-3.31-4.05-7.35-6.4-12.27-7.08-4.85-0.68-8.69 0.6-11.31 3.9-2.6 3.26-3.46 8.64-2.72 16.09zm72.43 40.76c-0.59-8.86-1.21-17.71-1.83-26.56-0.63-8.86-1.18-17.72-1.91-26.57-5.74-0.62-11.54-1.23-17.19-1.84-0.3-3.61-0.59-7.23-0.89-10.84 15.43 1.66 30.93 3.34 46.36 4.67 0.22 3.59 0.37 7.19 0.59 10.8-5.66-0.43-11.32-0.91-17.05-1.52 0.59 8.85 1.14 17.7 1.69 26.54 0.55 8.83 1.18 17.66 1.77 26.52-3.9-0.4-7.72-0.79-11.54-1.2zm36.14-60.24c7.72 0.58 15.43 1.25 23.22 1.77 4.62 0.31 8.01 0.59 10.36 1.13 2.2 0.5 4.26 1.5 6.09 2.91 1.84 1.41 3.41 3.15 4.71 5.51 1.2 2.2 1.76 4.8 1.83 7.54 0.08 2.98-0.61 5.68-1.98 8.12-1.35 2.39-3.31 4.19-5.59 5.33 3.46 1.3 6.16 3.37 8.09 6.16 1.96 2.85 2.96 6.08 3.08 9.78 0.1 2.91-0.52 5.72-1.61 8.4-1.11 2.69-2.66 4.8-4.71 6.36-1.99 1.52-4.48 2.48-7.49 2.69-1.98 0.14-6.39 0.07-13.66-0.44-6.4-0.45-12.79-0.97-19.18-1.44-0.51-10.64-1.1-21.28-1.61-31.91-0.52-10.64-1.03-21.28-1.55-31.91zm12.2 11.5c0.22 4.9 0.44 9.8 0.66 14.69 2.5 0.18 5.07 0.38 7.64 0.57 4.48 0.34 7.2 0.45 8.37 0.34 1.92-0.16 3.46-0.83 4.56-2.03 1.1-1.22 1.58-2.84 1.54-4.89-0.03-1.98-0.62-3.55-1.69-4.87-0.99-1.23-2.43-2.07-4.48-2.43-1.03-0.18-4.41-0.46-9.84-0.87-2.28-0.17-4.48-0.35-6.76-0.51zm1.1 25.29c0.15 2.86 0.33 5.69 0.44 8.55 0.11 2.84 0.15 5.71 0.3 8.56 3.52 0.25 7.05 0.53 10.65 0.79 4.04 0.3 6.76 0.29 7.78 0.12 1.77-0.3 3.07-1.08 4.04-2.38 1.01-1.33 1.48-3.08 1.4-5.34-0.07-1.93-0.5-3.61-1.32-4.94-0.87-1.41-2.13-2.44-3.67-3.11-1.62-0.7-5-1.14-10.29-1.53-3.09-0.22-6.17-0.48-9.33-0.72zm100.79 31.96c-4.11-0.09-8.15-0.17-12.19-0.25-1.62-4.88-3.31-9.77-4.92-14.67-7.57-0.14-15.14-0.3-22.63-0.44-1.54 4.81-3.01 9.58-4.48 14.35-3.97-0.19-7.94-0.38-11.9-0.55 3.38-10.5 6.83-20.96 10.28-31.43 3.46-10.49 7.05-21.06 10.73-31.66 4.04 0.05 8.22 0.13 12.41 0.21 3.9 10.72 7.72 21.43 11.46 32.18 3.75 10.75 7.5 21.5 11.24 32.26zm-20.86-25.81c-1.4-3.98-2.82-7.93-4.12-11.92-1.27-3.94-2.64-7.93-3.89-11.9-1.32 3.92-2.6 7.83-3.82 11.78-1.2 3.89-2.42 7.84-3.67 11.75 5.14 0.1 10.28 0.19 15.5 0.29zm31 25.87c0.15-10.62 0.29-21.25 0.44-31.87 0.15-10.61 0.22-21.24 0.37-31.86 3.89-0.07 7.78-0.12 11.75-0.17-0.22 8.84-0.33 17.64-0.51 26.48-0.19 8.81-0.3 17.61-0.44 26.44 9.33-0.09 18.73-0.18 28.2-0.3-0.14 3.64-0.22 7.27-0.36 10.91-13.15 0.14-26.23 0.25-39.45 0.37zm51.64-0.83c0.37-10.68 0.78-21.37 1.18-32.06 0.4-10.68 0.88-21.37 1.32-32.09 3.82-0.17 7.79-0.35 11.75-0.53-0.44 8.89-0.8 17.77-1.25 26.66-0.44 8.88-0.73 17.75-1.17 26.65 9.4-0.38 18.8-0.76 28.28-1.34-0.22 3.66-0.37 7.32-0.66 11-13.22 0.71-26.37 1.2-39.45 1.71zm110.27-31.62c3.6 0.93 7.2 1.88 10.87 2.82-2.42 7.44-5.8 13.11-10.14 17.03-4.33 3.92-9.47 6.16-15.57 6.76-7.5 0.73-13.42-1.66-17.78-7.1-2.25-2.81-3.82-6.2-4.7-10.15-0.89-3.98-1.13-8.53-0.73-13.7 0.41-5.42 1.31-10.27 2.86-14.63 1.53-4.3 3.66-8.1 6.39-11.32 5.58-6.59 12.49-10.32 20.72-11.2 7.12-0.77 12.7 1.02 16.75 5.31 2.41 2.55 4.04 6.37 4.77 11.55-4.04 1.44-8 2.9-11.97 4.33-0.29-3.33-1.45-5.92-3.45-7.63-2.11-1.79-4.63-2.44-7.79-2.11-4.26 0.46-7.92 2.6-10.87 6.34-2.99 3.8-4.77 9.54-5.44 17.36-0.36 4.14-0.3 7.66 0.15 10.54 0.44 2.85 1.14 5.09 2.35 6.76 2.32 3.22 5.44 4.69 9.62 4.27 3.01-0.3 5.84-1.61 8.3-4.16 2.32-2.4 4.26-6.15 5.66-11.07zm22.92 21.43c1.17-10.95 2.28-21.87 3.45-32.81 1.18-10.94 2.42-21.89 3.53-32.83 3.97-0.56 7.93-1.1 11.97-1.65-1.03 9.1-2.09 18.21-3.08 27.29-1 9.1-2.06 18.19-3.09 27.3 9.63-1.25 19.25-2.5 28.94-4.02-0.43 3.75-0.95 7.51-1.39 11.27-13.44 1.99-26.96 3.73-40.33 5.45zm61.34-74.35c4.04-0.67 8.08-1.36 12.2-2.06-0.89 6.06-1.77 12.14-2.58 18.19-0.81 6.06-1.67 12.13-2.49 18.19-0.79 5.79-1.24 9.5-1.18 11.16 0.09 2.66 1.02 4.72 2.65 6.05 1.67 1.38 4.11 1.82 7.41 1.25 3.24-0.56 5.88-1.88 7.79-3.79s3.22-4.02 3.97-6.42c0.72-2.34 1.49-6.23 2.27-11.59 0.91-6.2 1.77-12.45 2.72-18.66 0.96-6.25 1.91-12.46 2.79-18.69 4.04-0.82 8.08-1.64 12.27-2.47-0.88 5.94-1.8 11.89-2.72 17.8-0.92 5.95-1.96 11.87-2.86 17.81-1.23 8.12-2.45 13.93-3.6 17.44-1.13 3.45-2.79 6.54-4.85 9.17-2.05 2.64-4.68 4.97-7.71 6.84-3.14 1.95-6.75 3.36-11.39 4.16-5.57 0.97-9.63 0.84-12.34-0.21-2.58-1-4.57-2.56-5.95-4.69-1.35-2.07-2-4.4-2.2-6.91-0.31-3.71 0-9.33 1.02-16.81 0.82-5.99 1.62-11.92 2.43-17.89 0.81-5.95 1.61-11.92 2.35-17.87zm64.94-12.3c8.08-1.7 16.23-3.62 24.46-5.56 4.92-1.16 8.52-1.8 10.8-1.9 2.35-0.1 4.34 0.32 5.95 1.32 1.62 0.99 2.89 2.51 3.67 4.63 0.77 2.09 0.94 4.64 0.37 7.62-0.61 3.19-2.03 6.32-4.04 9.39-1.96 2.99-4.48 5.54-7.27 7.49 3.45 0.38 5.95 1.82 7.34 4.32 1.4 2.5 1.77 5.73 1.03 9.73-0.58 3.15-1.86 6.34-3.67 9.61-1.79 3.24-3.92 5.97-6.54 8.3-2.45 2.19-5.36 3.94-8.67 5.06-2.05 0.7-6.75 1.96-14.47 3.71-6.75 1.53-13.37 3-20.05 4.3 1.83-11.33 3.64-22.68 5.51-34 1.87-11.36 3.74-22.68 5.58-34.02zm10.43 8.65c-0.88 5.24-1.76 10.47-2.64 15.71 2.57-0.6 5.21-1.21 7.93-1.83 4.78-1.11 7.79-1.89 8.96-2.31 2.13-0.75 3.94-1.99 5.36-3.59 1.52-1.69 2.49-3.53 2.87-5.77 0.35-2.09 0.13-3.69-0.74-4.78-0.83-1.05-2.2-1.52-4.26-1.3-1.1 0.11-4.55 0.85-10.43 2.22-2.34 0.54-4.63 1.08-7.05 1.65zm-4.56 27.05c-0.58 3.07-1.1 6.12-1.61 9.17-0.52 3.04-1.1 6.1-1.47 9.13 3.67-0.83 7.35-1.67 11.17-2.52 4.26-0.96 7.04-1.74 8.3-2.27 1.83-0.8 3.5-1.96 4.92-3.75 1.31-1.65 2.28-3.77 2.72-6.23 0.37-2.07 0.22-3.73-0.37-4.98s-1.69-2-3.23-2.28-5.07 0.22-10.65 1.49c-3.31 0.75-6.54 1.5-9.78 2.24z" fill-rule="evenodd"/>
<path class="shp3" d="m557.35 358.83c0-11.28 3.33-20.49 9.99-27.66 6.72-7.11 15.34-10.66 25.92-10.66 10.57 0 19.2 3.55 25.91 10.66 6.62 7.17 9.94 16.38 9.94 27.66 0 11.3-3.32 20.51-9.94 27.68-6.78 7.14-15.41 10.72-25.91 10.72-10.51 0-19.14-3.58-25.92-10.72-6.66-7.17-9.99-16.38-9.99-27.68zm35.93-32.65c-5.72 0-10.15 2.84-13.25 8.51-3.17 5.78-4.76 13.84-4.76 24.18 0 10.33 1.59 18.35 4.76 24.06 3.1 5.75 7.53 8.62 13.25 8.62 5.69 0 10.14-2.84 13.3-8.51 3.07-5.75 4.61-13.81 4.61-24.17 0-10.41-1.59-18.47-4.75-24.18-3.1-5.67-7.5-8.51-13.16-8.51zm-105.14 7.8c0-1.67-0.17-2.91-0.48-3.7-0.36-0.88-0.85-1.56-1.49-2-0.39-0.28-0.71-0.51-0.97-0.72-1.44-0.96-2.15-2.08-2.15-3.38v-2.41h26.68v2.4c0 1.26-0.69 2.4-2.07 3.38-0.2 0.1-0.38 0.22-0.56 0.38s-0.33 0.27-0.46 0.34c-0.67 0.43-1.18 1.1-1.54 1.99-0.35 0.86-0.53 2.28-0.53 4.29v18.54h26.38v-19.15c0-1.8-0.13-3.03-0.37-3.68-0.34-0.82-0.86-1.49-1.6-1.99-0.06-0.04-0.39-0.29-0.96-0.72-1.38-0.95-2.07-2.09-2.07-3.38v-2.4h26.59v2.41c0 1.27-0.69 2.39-2.07 3.38-0.33 0.21-0.54 0.35-0.65 0.46-0.12 0.1-0.23 0.19-0.36 0.26-0.64 0.41-1.17 1.09-1.59 2-0.32 0.93-0.48 2.36-0.48 4.31v47.92c0 2.58 0.16 4.26 0.48 5.05 0.55 0.91 1.24 1.68 2.06 2.29 0.1 0.07 0.28 0.18 0.54 0.32 1.38 0.99 2.07 2.12 2.07 3.38v2.42h-26.59v-2.42c0-1.26 0.62-2.35 1.88-3.28 0.32-0.21 0.55-0.37 0.68-0.47 0.11-0.09 0.28-0.21 0.47-0.35 0.74-0.51 1.26-1.19 1.6-2 0.24-0.66 0.37-1.89 0.37-3.7v-23.1h-26.38v21.86c0 2.61 0.18 4.28 0.53 5.03 0.49 0.89 1.18 1.66 2.07 2.31 0.06 0.07 0.23 0.18 0.49 0.32 1.38 0.99 2.07 2.12 2.07 3.38v2.42h-26.68v-2.42c0-1.3 0.69-2.42 2.07-3.38 0.31-0.21 0.66-0.44 1.05-0.72 0.7-0.54 1.23-1.25 1.59-2.1 0.25-0.65 0.38-1.86 0.38-3.6v-49.77zm-53.87 61.99v-2.42c0-1.19 0.66-2.3 1.97-3.28 0.15-0.1 0.31-0.21 0.44-0.33 0.15-0.12 0.37-0.28 0.66-0.49 0.77-0.51 1.31-1.21 1.64-2.1 0.28-0.62 0.43-2.02 0.43-4.21v-55.28h-4.37c-2.27 0-4.03 0.41-5.28 1.23-1.18 0.72-2.21 2.12-3.08 4.22-0.03 0.1-0.28 0.89-0.76 2.4-0.87 2.68-2.44 4.01-4.7 4.01h-1.87v-19.65c1.59 0.52 3.42 0.94 5.47 1.29 1.66 0.27 3.7 0.41 6.11 0.41h33.3c2.47 0 4.54-0.14 6.2-0.41 1.85-0.31 3.65-0.73 5.38-1.29v19.65h-1.87c-2.21 0-3.72-1.24-4.53-3.75-0.21-0.82-0.51-1.72-0.87-2.66-0.85-2.1-1.89-3.5-3.06-4.22-1.27-0.82-3.02-1.23-5.31-1.23h-4.32v55.47c0 2.09 0.16 3.53 0.47 4.31 0.3 0.72 0.95 1.46 1.97 2.21 0.06 0.07 0.23 0.18 0.49 0.32 1.38 0.96 2.07 2.08 2.07 3.38v2.42h-26.58zm-45.84-74.2v2.41c0 1.27-0.69 2.39-2.07 3.38-0.19 0.11-0.37 0.23-0.55 0.39s-0.33 0.26-0.46 0.33c-0.67 0.44-1.18 1.12-1.54 2-0.35 0.86-0.53 2.29-0.53 4.31v61.38h-6.4l-36.41-61.28v47.82c0 2.47 0.18 4.15 0.52 5.05 0.49 0.87 1.16 1.64 2.07 2.29 0.06 0.07 0.23 0.18 0.47 0.32 1.38 0.96 2.09 2.08 2.09 3.38v2.42h-16.64v-2.42c0-1.3 0.69-2.42 2.07-3.38 0.31-0.21 0.66-0.44 1.05-0.72 0.71-0.54 1.23-1.25 1.59-2.1 0.25-0.65 0.38-1.86 0.38-3.6v-49.77c0-1.67-0.17-2.91-0.48-3.7-0.36-0.88-0.85-1.56-1.49-2-0.39-0.28-0.71-0.51-0.97-0.72-1.44-0.96-2.15-2.08-2.15-3.38v-2.41h22.15l25.75 43.1v-30.89c0-1.81-0.13-3.05-0.37-3.7-0.33-0.82-0.86-1.49-1.6-2-0.06-0.03-0.39-0.28-0.96-0.72-1.38-0.96-2.07-2.08-2.07-3.38v-2.41h16.55zm-91.76 53.6h-22.24l-2.59 7.51c-0.38 1.26-0.61 2.1-0.67 2.5-0.2 0.72-0.3 1.25-0.3 1.58 0 0.89 0.85 1.8 2.56 2.72 1.69 0.98 2.54 2.27 2.54 3.88v2.41h-19.07v-2.42c0-1.6 1.04-3.02 3.16-4.21h0.1c1.31-0.75 2.3-1.66 2.94-2.71 0.77-1.1 1.59-2.86 2.44-5.29l17.06-47.45-1.87-4.98c-0.07-0.07-0.1-0.21-0.1-0.42-0.06-0.07-0.1-0.22-0.1-0.51 0-0.27 0.17-0.57 0.48-0.92 0.39-0.48 0.82-0.84 1.31-1.07l8.74-5.24c0.07 0 0.13-0.04 0.19-0.11 0.64-0.43 1.21-0.66 1.68-0.66 0.32 0 0.61 0.14 0.87 0.4 0.38 0.72 0.66 1.26 0.81 1.6l22.01 61.46c0.87 2.29 1.59 3.87 2.17 4.73 0.6 0.75 1.39 1.28 2.34 1.59 0.1 0.04 0.18 0.06 0.25 0.07 0.07 0.02 0.16 0.06 0.3 0.13 1.62 0.75 2.44 1.96 2.44 3.59v2.42h-28.54v-2.41c0-1.43 0.75-2.59 2.26-3.48 1.49-0.81 2.25-1.79 2.25-2.91 0-0.54-0.04-0.96-0.08-1.28-0.17-0.71-0.3-1.19-0.4-1.43l-2.94-9.09zm-11.04-32.46-8.84 25.31h17.49l-8.65-25.31zm-32.16 39.81c-2.47 4.78-5.77 8.39-9.89 10.84-4.11 2.44-8.9 3.67-14.35 3.67-10.07 0-18.31-3.77-24.72-11.29-6.48-7.42-9.71-17-9.71-28.77 0-10.46 2.95-19.2 8.84-26.23 5.9-7.02 13.3-10.54 22.18-10.54 3.93 0 7.95 0.93 12.02 2.77 3.74 1.89 5.91 2.82 6.5 2.82 0.6 0 1.08-0.14 1.41-0.41 0.34-0.28 0.72-0.87 1.13-1.8h4.43v20.48h-2.36c-1.15 0-2-0.25-2.55-0.74-0.73-0.4-1.32-1.17-1.78-2.29-0.04-0.07-0.05-0.14-0.07-0.21s-0.05-0.14-0.11-0.23c-0.07-0.09-0.12-0.16-0.15-0.21s-0.08-0.14-0.15-0.28c-4.36-8.92-9.05-13.38-14.09-13.38-5.32 0-9.63 2.59-12.93 7.79-3.13 5.27-4.71 12.38-4.71 21.34 0 10.47 1.91 18.61 5.73 24.46 3.74 5.89 8.89 8.83 15.42 8.83 3.12 0 5.81-0.77 8.09-2.31 2.29-1.5 4.8-4.2 7.49-8.11l4.33 3.8z" fill-rule="evenodd"/>
<path class="shp0" d="m608.6 640.04c12.9-68.95-54.27-102.22-121.16-87.1-26.48 5.99-87.32 39.46-134.88 36.29-84.93-5.65-67.82-122.62 11.19-105.32 0.08-8.55 0.17-24.39 0.26-34.55h-47.92v-3.82h-0.09c0.02-2.98 0.06-8.58 0.09-11.56-41.3 7.13-103.08-5.16-139.88-17.79 9.56 16.23 52.82 50.95 89.26 52-1.53 2.24-3.06 4.49-4.59 6.74-23.11 1.49-43.51-6.78-63.53-16.45 9.82 12.08 41.28 24.4 58.11 26.5-0.7 1.47-1.41 2.94-2.11 4.42-12.94-0.35-24.61-4.28-35.63-10.03 9.9 8.44 21.44 13.75 34 17.11-13.44 57.37 17.59 129.22 93.82 134.82 81.35 5.97 209.54-78.56 263.06 8.74z"/>
<path class="shp3" d="m310.71 544.94c13.78 16.65 29.16 21.79 44.91 20.94 22.11-1.19 48.07-14.87 76.28-27.05 83.3-35.96 150.17-14.67 170 36.91-89.62-81.94-159.28-5.26-232.67 1.77-33.58 3.22-55.19-17.32-58.52-32.57z"/>
<path class="shp5" d="m550.2 441.54v-3.69h10.55v23.25h-9.73l-0.4-1.27c-0.77-2.48-1.94-4.88-3.65-6.86-1.55-1.78-3.42-3.11-5.62-3.98-2.53-1-5.31-1.35-8.03-1.35-4.07 0-8.02 0.83-11.55 2.9-3.35 1.97-5.84 4.72-7.58 8.18-1.98 3.93-2.7 8.29-2.7 12.66 0 4.35 0.81 8.6 2.84 12.48 1.85 3.5 4.46 6.28 7.9 8.28 3.55 2.07 7.43 2.98 11.54 2.98 8.97 0 14.61-4.49 17.81-12.69l0.45-1.16h11.42l-0.55 2.25c-0.83 3.33-2.11 6.53-3.93 9.46-1.72 2.76-3.86 5.17-6.45 7.15-2.62 1.99-5.56 3.45-8.7 4.45-3.37 1.08-6.87 1.56-10.41 1.56-4.68 0-9.26-0.82-13.6-2.59-4.18-1.7-7.89-4.14-11.03-7.36-3.13-3.2-5.49-6.95-7.12-11.12-1.72-4.38-2.49-8.99-2.49-13.69 0-4.66 0.78-9.22 2.45-13.57 1.61-4.18 3.93-7.95 7.04-11.19 3.07-3.19 6.68-5.66 10.77-7.39 4.25-1.81 8.77-2.61 13.39-2.61 2.68 0 5.35 0.28 7.96 0.86 2.44 0.55 4.85 1.36 7.05 2.56 0.83 0.45 1.62 0.95 2.37 1.5zm-98.17 53.4v-47.13h-6.93v-9.96h53v20.8h-11.17v-10.84h-22.85v16.56h21.69v10.58h-21.69v19.99h9.01v9.96h-27.99v-9.96h6.93zm-21.97-53.4v-3.69h10.54v23.25h-9.73l-0.39-1.27c-0.78-2.48-1.94-4.88-3.66-6.86-1.55-1.78-3.42-3.11-5.62-3.98-2.53-1-5.31-1.35-8.02-1.35-4.08 0-8.02 0.83-11.55 2.9-3.36 1.97-5.85 4.72-7.59 8.18-1.97 3.93-2.7 8.29-2.7 12.66 0 4.35 0.81 8.6 2.85 12.48 1.85 3.5 4.46 6.28 7.89 8.28 3.55 2.07 7.43 2.98 11.54 2.98 8.97 0 14.61-4.49 17.81-12.69l0.45-1.16h11.43l-0.56 2.25c-0.83 3.33-2.1 6.53-3.93 9.46-1.71 2.76-3.85 5.17-6.45 7.15-2.62 1.99-5.56 3.45-8.7 4.45-3.37 1.08-6.87 1.56-10.4 1.56-4.69 0-9.27-0.82-13.61-2.59-4.18-1.7-7.88-4.14-11.03-7.36-3.13-3.2-5.49-6.95-7.12-11.12-1.72-4.38-2.49-8.99-2.49-13.69 0-4.66 0.79-9.22 2.46-13.57 1.6-4.18 3.92-7.95 7.04-11.19 3.06-3.19 6.68-5.66 10.76-7.39 4.26-1.81 8.77-2.61 13.4-2.61 2.67 0 5.34 0.28 7.95 0.86 2.45 0.55 4.85 1.36 7.05 2.56 0.83 0.45 1.62 0.95 2.38 1.5z"/>
<path class="shp0" d="m579.66 718.46c-34.39 39.4-88.7 62.45-147.63 63.24-87.14 1.17-161.95-49.55-190.29-121.3 38.74 46.78 115.48 76.09 187.32 72 30.48-1.73 60.14-5.29 85.55-22.38 12.97-8.72 20.8-18.99 17.51-30.08-2.89-9.72-9.69-13.64-18.28-14.59-15.63-1.72-35.33 3.99-54.49 10.46-46.38 15.65-82.81 24.23-134.41 13.21-72.65-15.51-93.72-60.49-95.21-98.95 0.66-17.24 3.86-33.9 9.27-49.65 2.28 86.59 59.51 131.01 169.15 104.19 29.15-7.13 57.75-17.43 89-24.3 53.93-11.85 96.24-0.98 107.45 25.7 7.46 17.8 1.09 42.63-24.94 72.45z"/>
<path class="shp3" d="m432.03 781.7c-87.14 1.17-161.95-49.55-190.29-121.3 0.6 0.73 1.22 1.45 1.84 2.18 0.63 0.72 1.26 1.44 1.9 2.15 0.64 0.72 1.29 1.43 1.95 2.13s1.33 1.4 2.01 2.1c0.67 0.7 1.36 1.39 2.05 2.07 0.7 0.69 1.4 1.38 2.11 2.06 0.71 0.67 1.43 1.34 2.16 2.01 0.72 0.67 1.46 1.33 2.2 1.99 0.75 0.66 1.5 1.32 2.26 1.97 0.75 0.64 1.52 1.29 2.3 1.93 0.77 0.64 1.55 1.27 2.34 1.9s1.59 1.26 2.39 1.87v0.01c0.81 0.62 1.62 1.23 2.44 1.84s1.64 1.22 2.48 1.81c0.83 0.6 1.67 1.2 2.52 1.79 0.84 0.59 1.7 1.17 2.56 1.75s1.72 1.15 2.6 1.72c0.87 0.57 1.75 1.13 2.64 1.69 0.88 0.56 1.78 1.11 2.67 1.66 0.9 0.55 1.81 1.09 2.72 1.62 0.91 0.54 1.83 1.07 2.75 1.59 0.92 0.53 1.85 1.05 2.79 1.56 0.93 0.52 1.87 1.03 2.82 1.53 0.94 0.5 1.89 1 2.85 1.49s1.92 0.97 2.88 1.45c0.97 0.48 1.94 0.96 2.92 1.42v0.01c0.98 0.46 1.96 0.93 2.95 1.38 0.98 0.46 1.98 0.91 2.97 1.35 1 0.45 2 0.89 3 1.32 1.01 0.43 2.02 0.86 3.04 1.28 1.01 0.42 2.03 0.83 3.05 1.24 1.03 0.41 2.05 0.81 3.08 1.21 1.04 0.39 2.07 0.78 3.11 1.16v0.01c1.04 0.38 2.08 0.75 3.13 1.12v0.01c1.05 0.37 2.1 0.73 3.15 1.09 1.06 0.36 2.11 0.71 3.18 1.05 1.06 0.35 2.12 0.69 3.19 1.02s2.14 0.65 3.21 0.98c1.08 0.32 2.15 0.63 3.23 0.93 1.08 0.31 2.17 0.61 3.25 0.9 1.09 0.29 2.18 0.58 3.27 0.86s2.18 0.55 3.28 0.81c1.09 0.27 2.19 0.53 3.29 0.78s2.2 0.5 3.31 0.74c1.1 0.23 2.21 0.47 3.32 0.69s2.22 0.44 3.33 0.65c1.12 0.21 2.23 0.41 3.35 0.61 1.11 0.2 2.23 0.38 3.35 0.56s2.24 0.36 3.36 0.53c1.12 0.16 2.24 0.32 3.37 0.48 1.12 0.15 2.25 0.3 3.37 0.43 1.13 0.14 2.25 0.27 3.38 0.39 1.13 0.13 2.26 0.24 3.39 0.35s2.26 0.21 3.39 0.3 2.26 0.18 3.39 0.26 2.26 0.15 3.39 0.21 2.26 0.12 3.39 0.17c1.13 0.04 2.27 0.08 3.4 0.11 1.13 0.04 2.26 0.06 3.39 0.07 1.13 0.02 2.26 0.03 3.39 0.03s2.26-0.01 3.39-0.02c1.12-0.02 2.25-0.04 3.38-0.07 1.12-0.03 2.25-0.08 3.38-0.12 1.12-0.05 2.24-0.1 3.37-0.17 30.48-1.73 60.14-5.29 85.55-22.38 12.97-8.72 20.8-18.99 17.51-30.08-0.67-2.24-1.54-4.17-2.6-5.83 27.18 39.91-35.89 106.76-97.49 107.59zm51.16 240.28v-10.87h-22.12v-9.07l23.45-34.32h8.7v34.29h6.7v9.1h-6.7v10.87h-10.03zm0-19.97v-18.47l-12.42 18.47h12.42zm-44.79-34.29c5.25 0 9.33 1.88 12.28 5.61 3.51 4.42 5.27 11.75 5.27 22.01 0 10.22-1.77 17.56-5.31 22.04-2.92 3.68-6.99 5.52-12.24 5.52s-9.49-2.01-12.71-6.06c-3.22-4.04-4.83-11.25-4.83-21.62 0-10.17 1.78-17.49 5.31-21.96 2.92-3.69 7-5.54 12.23-5.54zm0 8.59c-1.25 0-2.36 0.41-3.35 1.2-0.98 0.8-1.74 2.24-2.29 4.3-0.7 2.68-1.07 7.19-1.07 13.53s0.33 10.69 0.96 13.06c0.64 2.38 1.45 3.95 2.42 4.74 0.98 0.78 2.08 1.18 3.33 1.18 1.26 0 2.38-0.4 3.36-1.2s1.75-2.23 2.29-4.3c0.7-2.65 1.07-7.14 1.07-13.48s-0.33-10.7-0.96-13.08c-0.64-2.36-1.44-3.95-2.41-4.75-0.98-0.79-2.09-1.2-3.35-1.2zm-41.98-8.59c5.24 0 9.33 1.88 12.28 5.61 3.51 4.42 5.27 11.75 5.27 22.01 0 10.22-1.78 17.56-5.31 22.04-2.92 3.68-7 5.52-12.24 5.52-5.25 0-9.49-2.01-12.71-6.06-3.22-4.04-4.83-11.25-4.83-21.62 0-10.17 1.77-17.49 5.31-21.96 2.92-3.69 6.99-5.54 12.23-5.54zm0 8.59c-1.25 0-2.37 0.41-3.35 1.2-0.98 0.8-1.75 2.24-2.29 4.3-0.7 2.68-1.07 7.19-1.07 13.53s0.33 10.69 0.96 13.06c0.64 2.38 1.44 3.95 2.41 4.74 0.99 0.78 2.09 1.18 3.34 1.18 1.26 0 2.38-0.4 3.36-1.2s1.74-2.23 2.29-4.3c0.7-2.65 1.07-7.14 1.07-13.48s-0.33-10.7-0.96-13.08c-0.64-2.36-1.45-3.95-2.42-4.75-0.98-0.79-2.08-1.2-3.34-1.2zm-24.51 36.05v9.62h-36.31c0.4-3.63 1.57-7.08 3.55-10.34 1.96-3.26 5.85-7.57 11.64-12.96 4.68-4.33 7.53-7.29 8.59-8.84 1.42-2.14 2.14-4.25 2.14-6.34 0-2.3-0.62-4.08-1.86-5.32-1.25-1.25-2.96-1.87-5.15-1.87-2.16 0-3.87 0.66-5.16 1.96-1.27 1.3-2.01 3.47-2.21 6.49l-10.32-1.04c0.62-5.69 2.54-9.78 5.79-12.27 3.25-2.48 7.3-3.73 12.16-3.73 5.34 0 9.53 1.45 12.57 4.32 3.05 2.88 4.57 6.45 4.57 10.73 0 2.43-0.44 4.74-1.31 6.94s-2.25 4.51-4.14 6.91c-1.26 1.6-3.52 3.9-6.78 6.89-3.27 3-5.35 5-6.21 5.98-0.87 0.98-1.59 1.94-2.13 2.87h20.57zm156.5-339.81-0.01-0.01 0.01 0.01z" fill-rule="evenodd"/>
</g>
</svg>
