<svg height="316.710926" viewBox="0 0 1086 1088" width="315.745344" xmlns="http://www.w3.org/2000/svg" xmlns:xlink="http://www.w3.org/1999/xlink"><clipPath id="a"><path d="m-64-216h1190v1684h-1190z"/></clipPath><g clip-path="url(#a)"><path d="m543.25.61c299.52 0 542.33 243.27 542.33 543.36 0 300.08-242.81 543.35-542.33 543.35s-542.33-243.27-542.33-543.35c0-300.09 242.81-543.36 542.33-543.36z" fill="#fff"/><g fill-rule="evenodd"><path d="m720.44 408.86v311.63h-147.33l-.64-1.97c38.19-27.77 58.89-50.68 67.76-70.22 8.76-19.31 5.91-35.34-3.03-49.54-5.13-8.17-12.25-15.76-20.33-23.04-8.13-7.31-17.21-14.3-26.23-21.24l-.01-.01c-18.02-13.86-35.77-27.52-44.82-43.27-7.43-12.93-9.06-27.19-.4-43.98 8.54-16.55 27.16-35.56 60.26-58.17l.62-.19zm-169.47 0 .63 1.97c-27.56 19.79-44.74 36.84-53.5 51.85-8.63 14.76-9.04 27.52-3.12 38.92v.01c8.18 15.78 25.36 29.59 42.8 43.62v.01h.01c8.46 6.8 16.99 13.67 24.62 20.89 7.64 7.25 14.31 14.82 18.99 22.98 8.9 15.55 12.23 32.99 1.45 54.34-10.66 21.12-35.21 46.07-82.04 76.86l-.6.18h-14.21l-.61-2c41.28-27.87 64.47-50.86 75.43-70.48 10.82-19.37 9.62-35.42 2.15-49.64-4.29-8.15-10.63-15.73-17.95-23-7.37-7.3-15.73-14.29-24.03-21.23-8.29-6.92-16.51-13.79-23.59-20.89-7.13-7.15-13.11-14.54-16.84-22.44-6.09-12.91-6.28-27.14 4.02-43.86 10.15-16.48 30.57-35.4 65.75-57.92l.59-.17zm-27.82 0 .61 1.99c-29.99 20.39-47.29 37.67-55.67 52.8-8.26 14.91-7.79 27.72-2.28 39.38 3.71 7.87 9.68 15.24 16.81 22.4 7.18 7.2 15.54 14.19 23.96 21.22 8.17 6.82 16.4 13.7 23.66 20.9 7.3 7.24 13.62 14.81 17.92 22.99 8.1 15.39 9.1 32.83-3.75 54.05-12.69 20.96-39 45.63-85.55 75.72l-.59.18h-87.48v-311.63zm22.22 311.63h-17.27l-.61-1.99c41.52-28.52 62.97-51.73 71.92-71.45 8.85-19.49 5.41-35.59-2.86-50.04l-.01-.01c-9.36-16.34-26.82-30.39-44.03-44.23l-.01-.01-.01-.01c-17.25-13.87-34.24-27.54-42.41-43.3-6.57-12.68-5.93-26.85 4.6-43.38 10.24-16.09 29.93-34.46 61.57-55.89.37-.26 1.64-1.03 2.01-1.28l1.25 1.77-.04.03-.01.01c-.31.23-1.53.99-1.84 1.22-27.21 20.04-42.41 37.06-49.13 51.97-6.71 14.88-4.92 27.69 1.77 39.35l.01.01.01.02c9.07 15.78 27.03 29.6 45.27 43.64l.02.01c8.86 6.82 17.79 13.7 25.79 20.89 8.03 7.23 15.12 14.79 20.26 22.96 9.65 15.35 12.44 32.75 1.81 53.93-10.49 20.94-34.16 45.56-77.44 75.58z" fill="#ff7d24"/><path d="m543.25 29.77c283.4 0 513.22 230.26 513.22 514.2 0 283.93-229.82 514.19-513.22 514.19s-513.22-230.26-513.22-514.19c0-283.94 229.82-514.2 513.22-514.2zm0 138.2c-207.23 0-375.29 168.37-375.29 376 0 207.62 168.06 375.99 375.29 375.99s375.29-168.37 375.29-375.99c0-207.63-168.06-376-375.29-376zm-234.57 603.56-60.45-20.61c-41.3-58.77-65.58-130.41-65.58-207.73 0-2.49.05-4.96.1-7.44l35.12-47.83c19.92 62.57 56.74 101.59 103.04 127.4-30.07 50.02-28.83 105.64-12.23 156.21zm134.93 118.95-42.08-56.1c53.14.07 106.28-16.05 144.38-60.24 38.89 36.06 87.36 58.98 152.9 58.48l-36.92 51.79c-37.16 12.98-77.07 20.06-118.64 20.06-34.56 0-67.99-4.89-99.64-13.99zm348.05-118.95c16.6-50.57 17.85-106.19-12.22-156.21 46.3-25.81 83.12-64.83 103.04-127.4l20.32 27.68c.69 9.11 1.05 18.31 1.05 27.59 0 80.09-26.05 154.09-70.09 213.99zm51.46-374.63c-42.93-31.38-95.36-49.66-152.12-36.37-10.28-52.08-36.02-99.18-89.32-137.41l61.75-20.62c73.43 26.01 135.96 75.15 178.83 138.72zm-344.46-173.78c-53.3 38.23-79.04 85.33-89.31 137.41-56.76-13.29-109.2 4.99-152.13 36.37l1.15-73.9-.35-.8c43.45-56.21 103.07-99.22 171.87-122.05z" fill="#102694"/><path d="m840.03 869.55c-2.3-2.21-4.85-3.01-7.64-2.36-1.11.31-2.31.82-3.58 1.52-1.07.67-2.32 1.61-3.77 2.82-1.9 1.6-3.24 3.5-4.01 5.69-.79 2.19-.92 4.51-.43 6.94.47 2.49 1.29 4.85 2.48 7.1 1.18 2.33 2.77 4.69 4.78 7.08 1.18 1.42 2.33 2.56 3.46 3.46 1.14.89 1.97 1.47 2.49 1.74.48.28 1.27.66 2.35 1.15 2.91 1.25 6.04 1.62 9.41 1.12 1.65-.31 3.25-.84 4.79-1.59 1.48-.71 3.04-1.75 4.67-3.12l3.14-2.99c.42-.41.9-.99 1.47-1.7.56-.7 1.09-1.41 1.59-2.13l-7.47-8.91-9.91 8.33-7.97-9.52 23.62-19.85 21.93 26.18c-4.08 4.98-8.11 9.56-12.09 13.76-1.48 1.55-3.21 3.25-5.18 5.14-1.95 1.89-3.7 3.48-5.23 4.77-2.49 2.09-5.05 3.74-7.68 4.92-2.62 1.28-5.42 2.2-8.34 2.74-5.2.88-10.39.39-15.59-1.48-2.28-.96-4.8-2.36-7.56-4.21-2.44-1.81-4.69-3.94-6.73-6.38-2.84-3.39-5.03-6.98-6.55-10.72-1.56-3.71-2.46-7.82-2.71-12.32-.23-8.84 4.25-17.13 13.44-24.85 3.7-3.11 7.07-5.56 10.12-7.35 3.1-1.76 6.22-2.95 9.38-3.58 6.14-1.32 11.77 1.07 16.89 7.19zm-80.79 35.99 43.95 28.4-.02-.39-25.8-39.8 13.37-8.71 34.87 53.8-20.66 13.45-44.78-29.38 26.53 41.25-13.54 8.81-34.87-53.8zm-44.14.11c.42 1.46.74 2.64.99 3.56.26 1 .23 2.06-.1 3.18.01 1.84-.36 3.64-1.09 5.42-.74 1.78-1.69 3.38-2.82 4.83-1.21 1.49-3.07 2.82-5.59 3.99-1.33.63-2.56 1.07-3.68 1.32-1.15.34-2.37.52-3.67.53-2.66.01-4.89-.16-6.67-.48-1.79-.34-3.57-1.05-5.37-2.12-1.36-.78-2.45-1.8-3.29-3.04-.89-1.22-1.36-1.87-1.38-1.92l10.77-5.21c1.01 1.61 2.15 2.52 3.39 2.71 1.3.24 2.89-.08 4.74-.95 1.51-.7 2.56-1.68 3.16-2.92.57-1.18.5-2.52-.2-4.02zm-27.23 6.18c-1.42-3.06-1.57-6.32-.44-9.78 1.12-3.46 3.19-5.88 6.19-7.28 1.92-.9 4.72-1.6 8.39-2.09l7.61-1.37c.18-.02.33-.08.5-.15.53-.25.9-.65 1.1-1.2.24-.64.24-1.72.05-3.26l6.42-3c1.05 3.1 1.05 6.46 0 10.09-.52 1.55-1.28 2.95-2.33 4.22-.44.47-.97.94-1.59 1.43-.62.48-1.28.89-1.99 1.22l-2.64.83-2.64.56-5.62.77-2.39.53-2.26.56c-1.13.53-1.82 1.21-2.08 2.05l-.17 3.02zm78.31 62.61-17.97 8.4-9.23-9.5-23.52 10.99 1.51 13.1-16.14 7.54-4.19-68.84 19.59-9.15zm-36.37-10.52-18.66-20.76-.32.15 3.5 27.84zm-113.02-3.16 24.01-6.9 33.74 40.03.09-.38-13.06-45.62 15.33-4.4 17.65 61.66-23.69 6.8-34.25-41.21 13.34 47.22-15.52 4.46zm-53.77-14.98 9.92 13.26-11.69.53-14.95-12.92zm-14.4 19.87 21.59-1.13 28.56 62.74-19.8 1.04-5.01-12.27-25.91 1.36-3.51 12.71-17.78.94zm20.36 38.2-9.53-26.25-.35.02-7.18 27.13zm-105.41-43.26 27.11 2.38c12.35 1.08 21.25 4.74 26.69 10.96 5.44 6.24 7.65 15.28 6.61 27.14-.46 5.23-1.79 9.69-4.01 13.36-2.28 3.72-5.28 6.51-9 8.38-7.19 3.59-15.46 4.97-24.81 4.15l-28.17-2.47 2.5-28.64-6.35-.56.62-7.08 6.35.55zm13.35 52.99 8.56.75c4 .35 7.52-.32 10.58-2.02 3.05-1.67 5.36-3.99 6.92-6.95 1.5-2.95 2.4-6.14 2.7-9.54.31-3.6-.2-6.85-1.55-9.76s-3.39-5.35-6.12-7.31-5.72-3.08-8.97-3.37l-8.72-.76-1.37 15.71 6.35.55-.62 7.09-6.35-.56zm-117.65-83.96 25.8 11.51c4.82 2.14 9.23 5.08 13.25 8.8 3.97 3.72 5.12 8.57 3.44 14.56l-.71 1.82c-1.28 2.87-3.31 5.04-6.1 6.52-3.26 1.66-7.4 1.96-12.44.94l2.66 2.08 1.75 1.75c1.48 1.44 2.6 2.98 3.36 4.61.88 1.56 1.33 3.44 1.36 5.66-.01 2.25-.48 4.4-1.4 6.47-4.77 10.74-14.88 12.67-30.32 5.79l-26.69-11.91zm6.01 30.55 8.5 3.78c4.64 2.07 7.86 1.05 9.68-3.04 1.68-3.79.11-6.76-4.75-8.92l-8.17-3.65zm-1.63 27.91c2.58 1.15 4.68 1.41 6.32.78 1.57-.58 2.78-1.68 3.69-3.28.46-1.03.71-2.21.72-3.56-.05-1.33-.43-2.53-1.11-3.61-.67-1.09-1.56-1.87-2.65-2.36l-10.34-4.62-5.62 12.64zm-39.35-79.55-13.84 21.35 18.13 11.8 13.84-21.35 14.93 9.71-34.88 53.8-14.93-9.71 14.33-22.11-18.27-11.89-14.33 22.11-14.87-9.68 34.87-53.8zm-89.98-11.93 14.03 10.98c-1.42 1.82-2.11 3.86-2.07 6.14 0 1.13.35 2.31 1.05 3.53.61 1.23 1.59 2.38 2.94 3.43 2.38 1.86 4.64 2.95 6.78 3.28 2.38.21 4.15-.43 5.32-1.92.91-1.18 1.32-2.36 1.2-3.56-.01-1.14-.38-2.44-1.1-3.92l-.91-1.6-1.37-1.97-2.71-3.59c-2.87-3.52-5.28-6.87-7.23-10.05-1.97-3.11-3.06-6.37-3.26-9.76-.22-3.4.93-6.7 3.44-9.92 4.14-5.32 9.21-7.77 15.18-7.36 5.99.39 12.28 3.18 18.89 8.35 4.75 3.72 8.18 7.53 10.29 11.43 1.9 3.54 2.66 7.07 2.3 10.61-.27 1.52-.79 3.06-1.58 4.62-.76 1.57-1.85 3.26-3.27 5.08l-13.89-10.87c.8-1.03 1.36-1.98 1.67-2.86.23-.88.25-1.87.07-2.98-.34-2.06-1.6-3.95-3.79-5.66-1.72-1.35-3.65-2.07-5.81-2.19-1.84.07-3.28.75-4.28 2.04-1.97 2.52-.64 6.63 3.96 12.34 4.56 5.67 7.53 9.61 8.89 11.8 1.74 2.49 2.7 5.45 2.93 8.93.16 1.71-.02 3.48-.56 5.31-.57 1.88-1.62 3.8-3.15 5.76-1.38 1.77-2.86 3.24-4.45 4.42-1.57 1.17-3.37 2.03-5.39 2.61-3.73.93-7.77.69-12.15-.71-4.47-1.38-8.86-3.76-13.18-7.15-7.31-5.71-11.76-11.45-13.34-17.19-.74-2.93-.72-5.84.06-8.76s2.27-5.8 4.49-8.64zm769.57-490.75-17.02-8.74-2.87-8.68 15.44 3.96zm-78.11-5.61-14.34-.08-4.57-13.79 69.99 1.59 5.03 15.2-55.33 42.69-4.68-14.13 11.58-8.28zm11.97-.09 5.31 16.04 22.18-16.06zm-33.04-82.7-1.88-3.77 10.18-5.1 1.89 3.77 22.82-11.44 13.08 26.11c4.45 8.88 4.41 17.02-.07 24.42-3.34 5.42-8.67 9.96-16 13.63-7.94 3.98-15.46 5.71-22.58 5.2-9.34-.75-16.19-5.47-20.55-14.19l-12.84-25.63zm28.94.71-12.66 6.34 6.83 13.64-10.19 5.1-6.83-13.63-15.77 7.9 6.01 11.99c2.33 4.65 6.17 7.08 11.48 7.28 4.41.2 9.44-1.11 15.08-3.94 7.59-3.81 12.08-8.04 13.45-12.7.88-3.06.39-6.43-1.47-10.15zm-79.07-59.39 8.55-7.25 17.81 21.02-27.21 23.05-5.94-7.01 5.37-6.43c-4.09-.11-7.25-.48-9.49-1.14-4.24-1.3-8.08-3.99-11.53-8.05-5.47-6.46-7.81-13.67-6.99-21.65.86-8.83 5.49-16.82 13.88-23.92 7.44-6.31 15.28-9.54 23.49-9.7 9.26-.11 17.28 3.81 24.05 11.8 5.94 7.01 8.7 14.25 8.3 21.73-.34 6.31-2.54 11.2-6.59 14.63l-8.91-10.51c1.44-1.22 2.29-3.46 2.57-6.75.38-4.18-.82-7.9-3.6-11.19-3.48-4.11-7.71-6.26-12.67-6.47-5.73-.21-11.62 2.25-17.63 7.35-6.3 5.33-9.61 10.75-9.92 16.27-.31 4.49 1.31 8.84 4.88 13.05 2.62 3.09 5.85 4.89 9.67 5.37 3.82.49 7.75-.37 11.77-2.57zm-10.27-69.5-41.3 51.41-10.74-8.63 8.57-53.47-29.62 36.56-10.03-8.06 41.3-51.41 11.33 9.1-8.46 52.13 28.91-35.69zm-68.05-72.71-18.27 5.57-8.14-4.26 13.89-7.87zm-63.07 26.73c4.36-8.32 9.72-14.07 16.06-17.23 5-2.51 10.44-3.34 16.35-2.51 4.27.57 8.23 1.81 11.88 3.73 3.69 1.93 6.9 4.4 9.67 7.44 4.02 4.44 6.44 9.41 7.24 14.89 1.02 7.02-.65 14.71-5.04 23.08-4.34 8.29-9.7 14.05-16.1 17.29-4.97 2.49-10.45 3.36-16.4 2.61-4.19-.55-8.09-1.76-11.67-3.64-3.75-1.96-7.02-4.47-9.79-7.51-4.01-4.45-6.42-9.41-7.25-14.87-.99-7.18.69-14.94 5.05-23.28zm12.2 6.38c-3.86 7.37-4.9 13.79-3.14 19.27 1.35 4.18 4.15 7.39 8.38 9.61 4.11 2.15 8.27 2.59 12.48 1.31 5.5-1.68 10.18-6.19 14.03-13.56 3.85-7.34 4.88-13.73 3.1-19.14-1.37-4.17-4.11-7.31-8.22-9.47-4.13-2.16-8.31-2.64-12.57-1.41-5.55 1.64-10.25 6.11-14.06 13.39zm-90.08 1.09 21.56-62.33 30.4 10.52c6.81 2.35 11.26 5.97 13.33 10.83 1.57 3.7 1.65 7.62.23 11.71-1.35 3.89-3.32 6.65-5.93 8.25-1.58.96-3.6 1.56-6.08 1.79 3.1 2.66 4.93 5.66 5.52 9.02.53 2.84.2 6.02-1 9.49-.89 2.55-2.17 4.73-3.85 6.58-1.69 1.83-3.67 3.3-5.99 4.39-2.85 1.3-5.47 1.95-7.88 1.94-3.39-.01-8.01-1.02-13.9-3.06zm22-23.12-5.77 16.67 15.99 5.54c3.27 1.13 6.03 1.25 8.25.37 2.21-.87 3.87-2.91 4.98-6.1.86-2.49.6-4.67-.76-6.53-1.36-1.87-3.38-3.26-6.02-4.18zm8.35-24.15-4.69 13.56 15.27 5.28c2.79.97 5.15 1.2 7.06.7 2.2-.6 3.72-2.09 4.54-4.46.84-2.43.64-4.43-.59-5.96-1.26-1.53-3.47-2.85-6.66-3.95zm-85.46-46.6 9.39 14.19-10.25-.8-5.28-7.97-6.47 7.06-10.25-.8 11.5-12.56zm-7 91.24-.83 10.61-11.54-.9.83-10.61zm-34.4-41.36c.73-9.36 3.39-16.76 7.97-22.16 3.61-4.28 8.29-7.19 14.05-8.75 4.14-1.15 8.27-1.57 12.38-1.25 4.15.32 8.08 1.33 11.82 3.04 5.44 2.49 9.63 6.11 12.52 10.83 3.71 6.05 5.19 13.78 4.46 23.2-.72 9.33-3.39 16.74-7.99 22.23-3.59 4.25-8.29 7.2-14.05 8.86-4.07 1.14-8.13 1.56-12.16 1.25-4.22-.33-8.21-1.34-11.95-3.05-5.44-2.51-9.62-6.12-12.52-10.82-3.74-6.2-5.26-14-4.53-23.38zm13.73 1.06c-.65 8.29.92 14.6 4.7 18.95 2.89 3.31 6.72 5.16 11.48 5.53 4.63.36 8.63-.88 11.99-3.7 4.4-3.72 6.92-9.71 7.56-18 .64-8.26-.92-14.54-4.69-18.81-2.9-3.29-6.66-5.11-11.28-5.47-4.66-.36-8.68.85-12.11 3.65-4.47 3.7-7.02 9.66-7.65 17.85zm-82.19 39.81-8.49-65.4 31.9-4.14c7.14-.93 12.73.32 16.76 3.75 3.06 2.61 4.87 6.08 5.43 10.38.53 4.09-.01 7.43-1.63 10.03-.99 1.57-2.53 3-4.65 4.31 3.96 1 6.94 2.87 8.96 5.62 1.75 2.3 2.87 5.29 3.34 8.93.35 2.68.17 5.2-.51 7.61-.69 2.39-1.81 4.59-3.4 6.6-1.97 2.43-4.03 4.18-6.19 5.25-3.03 1.5-7.63 2.66-13.8 3.46zm9.38-30.49 2.28 17.49 16.77-2.18c3.44-.45 5.96-1.56 7.55-3.34 1.59-1.77 2.17-4.33 1.74-7.69-.34-2.61-1.54-4.45-3.59-5.51s-4.48-1.41-7.25-1.05zm-3.29-25.35 1.85 14.23 16.02-2.08c2.93-.38 5.15-1.22 6.63-2.53 1.71-1.52 2.4-3.52 2.08-6.01-.33-2.55-1.4-4.25-3.19-5.07-1.81-.82-4.38-1.01-7.72-.57zm-75.07 28.64c-2.05-2.63-4-4.4-5.82-5.3-3.4-1.73-7.37-1.67-11.91.16-3.97 1.6-6.72 4.31-8.22 8.15-2.04 5.1-1.47 11.59 1.68 19.43 2.41 5.96 5.52 10.32 9.34 13.08 4.38 3.13 9.13 3.66 14.23 1.6 3.52-1.41 6.07-3.58 7.63-6.5 1.56-2.93 1.97-6.38 1.23-10.37l12.77-5.15c1.45 7.49.83 14.05-1.87 19.68-2.94 6.15-8.13 10.72-15.57 13.72-8.34 3.36-16.12 3.33-23.36-.12-7.57-3.58-13.42-10.53-17.57-20.81-4.17-10.36-4.69-19.52-1.57-27.53 2.91-7.48 8.46-12.89 16.64-16.19 8.41-3.39 16.11-3.62 23.08-.68 5.91 2.49 9.92 6.38 12.06 11.68zm-44.9 87.66-9.98 5.87-5.39-9.18 9.98-5.86zm-30.59-16.53 2.95 14.04-12.53 7.36-13.16-68.76 13.81-8.11 53.36 45.12-12.83 7.55-10.53-9.58zm-2.6-11.68 14.57-8.57-20.37-18.31zm-43.86 48.77 25.63-20.59 7.47 9.29-36.37 29.22-41.3-51.41 10.74-8.63zm-83.66 7.67 33.93 26.08c6.76 5.2 10.31 10.98 10.64 17.36.36 6.07-2.11 12.55-7.39 19.42-2.29 2.98-4.83 5.43-7.64 7.38-3.76 2.57-7.61 4.02-11.53 4.32-5.25.3-10.53-1.6-15.84-5.68l-34.64-26.63 8.6-11.19 33.93 26.08c3.43 2.64 6.73 3.76 9.85 3.38 3.13-.4 5.75-1.94 7.84-4.67 2.76-3.58 3.92-6.88 3.53-9.88-.42-3.01-2.26-5.78-5.57-8.32l-34.35-26.41zm-73.94 73.67 16.69-3.37-4.62 9.23-9.36 1.87 4.1 8.63-4.6 9.18-7.31-15.35zm66.82 58.61-6.51 13-48.43-50.56 7.17-14.32 69.32 8.86-6.66 13.3-14.05-2.31-10.95 21.85zm-11.08-33.68-27.05-4.29 19.48 19.4zm-40.53 38.73-4.33 13.07c-3.32-.14-5.94.21-7.8 1.01-3.52 1.48-6.04 4.55-7.58 9.2-1.34 4.06-1.05 7.91.91 11.54 2.57 4.86 7.89 8.62 15.91 11.27 6.11 2.02 11.44 2.47 16.01 1.33 5.23-1.32 8.7-4.6 10.43-9.82 1.19-3.6 1.19-6.95-.04-10.03-1.22-3.08-3.59-5.62-7.11-7.64l4.33-13.07c6.65 3.73 11.25 8.45 13.8 14.15 2.79 6.21 2.93 13.13.4 20.74-2.82 8.54-7.88 14.46-15.18 17.75-7.63 3.46-16.71 3.44-27.24-.04-10.59-3.51-17.93-9.04-22.02-16.6-3.83-7.06-4.37-14.78-1.59-23.16 2.84-8.6 7.64-14.63 14.39-18.05 5.72-2.9 11.29-3.45 16.71-1.65z" fill="#fff"/></g></g></svg>