<?xml version="1.0" encoding="UTF-8" standalone="no"?>
<svg
   xmlns:dc="http://purl.org/dc/elements/1.1/"
   xmlns:cc="http://creativecommons.org/ns#"
   xmlns:rdf="http://www.w3.org/1999/02/22-rdf-syntax-ns#"
   xmlns:svg="http://www.w3.org/2000/svg"
   xmlns="http://www.w3.org/2000/svg"
   xmlns:sodipodi="http://sodipodi.sourceforge.net/DTD/sodipodi-0.dtd"
   xmlns:inkscape="http://www.inkscape.org/namespaces/inkscape"
   width="223.89943pt"
   height="274.03964pt"
   viewBox="0 0 223.89943 274.03965"
   version="1.1"
   id="svg46"
   sodipodi:docname="Hoang Anh Gia Lai FC logo.svg"
   inkscape:version="1.0.1 (3bc2e813f5, 2020-09-07)">
  <metadata
     id="metadata50">
    <rdf:RDF>
      <cc:Work
         rdf:about="">
        <dc:format>image/svg+xml</dc:format>
        <dc:type
           rdf:resource="http://purl.org/dc/dcmitype/StillImage" />
        <dc:title></dc:title>
      </cc:Work>
    </rdf:RDF>
  </metadata>
  <sodipodi:namedview
     pagecolor="#ffffff"
     bordercolor="#666666"
     borderopacity="1"
     objecttolerance="10"
     gridtolerance="10"
     guidetolerance="10"
     inkscape:pageopacity="0"
     inkscape:pageshadow="2"
     inkscape:window-width="1366"
     inkscape:window-height="705"
     id="namedview48"
     showgrid="false"
     inkscape:snap-global="false"
     fit-margin-top="0"
     fit-margin-left="0"
     fit-margin-right="0"
     fit-margin-bottom="0"
     inkscape:zoom="0.68332332"
     inkscape:cx="115.51288"
     inkscape:cy="272.33284"
     inkscape:window-x="-8"
     inkscape:window-y="-8"
     inkscape:window-maximized="1"
     inkscape:current-layer="svg46" />
  <defs
     id="defs5">
    <clipPath
       id="clip1">
      <path
         d="M 0,33 H 407.10156 V 498.30078 H 0 Z m 0,0"
         id="path2" />
    </clipPath>
  </defs>
  <g
     id="surface1"
     transform="matrix(0.55,0,0,0.55,-0.00641784,0.00214844)">
    <g
       clip-path="url(#clip1)"
       clip-rule="nonzero"
       id="g9">
      <path
         style="fill:#008f33;fill-opacity:1;fill-rule:evenodd;stroke:none"
         d="m 210.10937,494.47266 3.19532,-1.71875 3.1914,-1.58204 3.1836,-1.45703 3.18359,-1.33593 3.18359,-1.23047 3.17969,-1.12891 3.17969,-1.03125 3.1875,-0.94922 3.1875,-0.86719 3.19922,-0.80078 3.20312,-0.74218 3.20313,-0.6875 3.21875,-0.64063 3.22265,-0.59766 3.23047,-0.57421 3.23828,-0.55079 3.25,-0.54296 3.25782,-0.53125 3.26562,-0.53907 3.27735,-0.54687 3.28515,-0.57422 3.29688,-0.59766 3.30078,-0.64062 3.30859,-0.6875 3.32031,-0.7461 3.33204,-0.80859 3.32812,-0.88672 3.34375,-0.96875 3.33984,-1.07031 3.35547,-1.16406 3.375,-1.29688 3.83594,-1.64453 3.79297,-1.72266 3.80469,-1.8164 3.79687,-1.92188 3.79688,-2.01562 3.78515,-2.12891 3.76563,-2.23437 3.73437,-2.34375 3.69922,-2.45313 3.65625,-2.5664 3.60938,-2.6875 3.54687,-2.80469 3.48438,-2.92188 3.40625,-3.05078 3.32812,-3.17578 3.22656,-3.29687 3.14454,-3.42579 3.03125,-3.5625 2.92187,-3.69921 2.78906,-3.82813 2.66407,-3.96094 2.52343,-4.10937 2.375,-4.2461 2.21094,-4.39062 2.05078,-4.52344 1.875,-4.66797 1.69531,-4.8125 1.5,-4.95703 1.30469,-5.09375 1.09766,-5.24219 0.88281,-5.38671 0.69922,-5.875 -0.22266,-6.95704 -0.50781,-6.33593 -0.76953,-6.0586 -0.99609,-5.80078 -1.19141,-5.5625 -1.35547,-5.33984 -1.48047,-5.14063 -1.57422,-4.95703 -1.6289,-4.79297 -1.66407,-4.66406 -3.26953,-8.99219 -1.54687,-4.37109 -1.45313,-4.32813 -1.33203,-4.29296 -1.1875,-4.29688 -1.01172,-4.31641 -0.8164,-4.36328 -0.59766,-4.45312 -0.35937,-4.5625 -0.0899,-4.70703 0.20703,-4.88672 0.53516,-5.10156 0.89062,-5.34375 1.28125,-5.625 1.70704,-5.92969 2.16406,-6.26172 2.65625,-6.62109 3.18359,-6.9961 3.74219,-7.40625 4.33594,-7.82812 7.57422,-12.64453 -4.98829,-4.96094 -1.36328,-1.42188 -1.33593,-1.44922 -1.30469,-1.48828 -1.27344,-1.51172 -1.24219,-1.54296 -1.20312,-1.57813 -1.17578,-1.60937 -1.13282,-1.63672 -1.09375,-1.67188 -1.05859,-1.70703 -1.02734,-1.73828 -0.98047,-1.76953 -0.94141,-1.80078 -0.89844,-1.83985 -0.85937,-1.86718 -0.81641,-1.90625 -0.76953,-1.94532 -0.72265,-1.97656 -0.6836,-2.01562 -0.6289,-2.04688 -0.58594,-2.08984 -0.53906,-2.12891 -0.48829,-2.16797 -0.4375,-2.19922 -0.38281,-2.23828 -0.32812,-2.28125 -0.27735,-2.32422 -0.22265,-2.36328 -0.16407,-2.41015 -0.10546,-2.44532 -0.17969,-8.89453 -13.12891,0.14063 -6.59375,-0.11328 -6.46094,-0.27344 -6.33203,-0.44531 -6.21093,-0.60547 -6.08985,-0.76563 -5.96094,-0.91797 -5.85156,-1.08203 -5.73437,-1.22656 -5.62891,-1.375 -5.51953,-1.515625 -5.41406,-1.664062 -5.3125,-1.796875 -5.21875,-1.9375 -5.1211,-2.0625 -5.03125,-2.199219 -4.9414,-2.320313 -4.85547,-2.445312 -4.76953,-2.570313 -4.69141,-2.683593 -4.60937,-2.808594 -4.54297,-2.917969 -4.46485,-3.019531 -4.39843,-3.144531 -4.32422,-3.234375 -4.26563,-3.347657 -4.20312,-3.441406 -4.14453,-3.542969 -4.08204,-3.636718 -4.03125,-3.726563 -3.98046,-3.8125 -8.46485,-8.40625 -8.45703,8.414063 -3.98047,3.804687 -4.02734,3.726563 -4.08594,3.636718 -4.14062,3.542969 -4.19922,3.441406 -4.26563,3.339844 -4.33203,3.242188 -4.39453,3.144531 -4.46484,3.023437 -4.53516,2.914063 -4.61719,2.808594 -4.6914,2.683593 -4.76954,2.570313 -4.85546,2.445312 -4.94532,2.320313 -5.02343,2.199219 -5.125,2.0625 -5.21485,1.9375 -5.3164,1.796875 -5.41407,1.664062 -5.519527,1.515625 -5.621094,1.375 -5.742188,1.22656 -5.851562,1.08203 -5.96875,0.91797 -6.078125,0.76563 -6.21875,0.60547 -6.332031,0.44531 -6.460938,0.27344 -6.59375,0.11328 -13.144531,-0.14063 -0.160156,8.89844 -0.105469,2.44531 -0.164063,2.40625 -0.222656,2.36328 -0.273437,2.32422 -0.332032,2.28125 -0.382812,2.23828 -0.4375,2.20313 -0.484375,2.16797 -0.539063,2.125 -0.582031,2.08984 -0.636719,2.04688 -0.679687,2.01562 -0.726563,1.97266 -0.769531,1.9414 -0.816406,1.91407 -0.859375,1.875 -0.898438,1.83203 -0.9375,1.80078 -0.984375,1.76953 -1.023437,1.73828 -1.058594,1.70313 -1.101562,1.67187 -1.132813,1.64063 -1.171875,1.61328 -1.203125,1.57031 -1.242187,1.54297 -1.273438,1.51562 -1.308594,1.48828 -1.332031,1.44922 -1.367187,1.41797 -4.9960942,4.95703 7.5859372,12.65235 4.332032,7.82812 3.742187,7.40625 3.1875,6.9961 2.660156,6.62109 2.164063,6.26172 1.707031,5.92969 1.273438,5.625 0.894531,5.34765 0.535156,5.09766 0.203125,4.88672 -0.08594,4.70703 -0.351563,4.5625 -0.601562,4.44922 -0.816407,4.36328 -1.019531,4.32031 -1.179687,4.29688 -1.332032,4.29687 -1.453125,4.32422 -1.554687,4.37109 -1.613281,4.45313 -1.652344,4.53906 -1.65625,4.66016 -1.636719,4.79297 -1.570312,4.96093 -1.484375,5.14063 -1.351563,5.33984 -1.195312,5.5625 -0.996094,5.80078 -0.769531,6.0586 -0.507813,6.33593 -0.226562,6.95704 0.703125,5.8789 0.882812,5.38281 1.097656,5.24219 1.304688,5.09375 1.503906,4.95703 1.6875,4.8125 1.882813,4.66797 2.042968,4.52344 2.21875,4.39062 2.375,4.2461 2.523438,4.10937 2.65625,3.96094 2.792969,3.83203 2.921875,3.69531 3.03125,3.5586 3.136718,3.42969 3.238282,3.30078 3.324218,3.17187 3.410157,3.05078 3.480468,2.92188 3.550782,2.80469 3.605468,2.6875 3.65625,2.5664 3.699219,2.45313 3.734375,2.34375 3.765625,2.23437 3.785156,2.12891 3.789063,2.02344 3.808594,1.91406 3.796875,1.8164 3.792968,1.72266 3.832032,1.64453 3.382812,1.29688 3.351563,1.16797 3.34375,1.0664 3.34375,0.96875 3.33594,0.88672 3.32422,0.80859 3.32031,0.7461 3.3086,0.6875 3.30468,0.64062 3.28906,0.59766 3.28907,0.57422 3.27734,0.54687 3.26563,0.53907 3.26171,0.53125 3.24219,0.54296 3.24219,0.55079 3.23047,0.57421 3.22265,0.59766 3.21875,0.64063 3.20313,0.6875 3.20312,0.74218 3.19922,0.80078 3.1875,0.86719 3.1875,0.94922 3.1836,1.03125 3.17968,1.12891 3.1836,1.23047 3.17578,1.33593 3.1875,1.45703 3.1875,1.58204 3.19531,1.71875 6.5,3.77734 z m 0,0"
         id="path7" />
    </g>
    <path
       style="fill:#ffffff;fill-opacity:1;fill-rule:evenodd;stroke:none"
       d="m 203.60547,490.86719 c 36.16797,-21.85938 71.14062,-16.29688 104.92578,-29.8086 38.94922,-16.29687 81.47656,-48.09375 87.03906,-104.92578 -0.48047,-55.58594 -35.07422,-76.86719 -18.59375,-131.29687 H 30.234375 c 16.476563,54.42968 -18.117187,75.71093 -18.597656,131.29687 5.566406,56.83203 48.09375,88.62891 87.042969,104.92578 33.781252,13.51172 68.757812,7.94922 104.925782,29.8086 z m 0,0"
       id="path11" />
    <path
       style="fill:#191717;fill-opacity:1;fill-rule:evenodd;stroke:none"
       d="m 203.60547,490.86719 c 34.43359,-20.8125 67.78906,-16.76172 100.05859,-27.98828 v -13 h -11.0039 c -2.42579,-12.80079 -7.51172,-24.66407 -14.66797,-34.98438 l 8.30859,-8.30859 -23.87109,-23.875 -8.4336,8.43359 c -10.20703,-6.92187 -21.88672,-11.83203 -34.46875,-14.17578 v -12.60156 h -33.75781 v 12.60156 c -12.44141,2.31641 -23.99219,7.14453 -34.12109,13.94141 l -9.17578,-9.17579 -23.875,23.8711 8.94922,8.94531 c -7.01954,10.03906 -12.08594,21.53516 -14.64063,33.95313 h -12.64844 v 13.17578 c 33.29297,12.73047 67.73828,7.66797 103.34766,29.1875 z m 0,0"
       id="path13" />
    <path
       style="fill:#ffffff;fill-opacity:1;fill-rule:evenodd;stroke:none"
       d="m 203.60547,490.86719 c 23.59375,-14.26172 46.67969,-16.84375 69.25781,-20.67578 0.0469,-1.04688 0.0742,-2.10157 0.0742,-3.16016 0,-38.80859 -31.47266,-70.27734 -70.28906,-70.27734 -38.8125,0 -70.28516,31.46875 -70.28516,70.27734 0,0.94922 0.0273,1.89453 0.0664,2.83203 23.1875,4.01953 46.91015,6.34375 71.17578,21.00391 z m 0,0"
       id="path15" />
    <path
       style="fill:#191717;fill-opacity:1;fill-rule:evenodd;stroke:none"
       d="m 258.42578,472.58594 3.42969,-0.57422 c 0.13672,-1.64063 0.21094,-3.29688 0.21094,-4.96875 h 0.008 v -0.0352 h -0.008 c -0.008,-16.39844 -6.65625,-31.24609 -17.40235,-41.98828 -10.74219,-10.74609 -25.59765,-17.39844 -42.0039,-17.40234 v -0.008 h -0.0391 v 0.008 c -16.39453,0.0117 -31.25,6.65625 -41.98828,17.39453 -10.74609,10.74609 -17.39844,25.60156 -17.39844,42.00781 h -0.008 v 0.0352 h 0.008 c 0,1.55859 0.0625,3.10547 0.17969,4.63281 l 3.42578,0.56641 c -0.15625,-1.71094 -0.24218,-3.44532 -0.24218,-5.19922 h 0.008 v -0.0352 h -0.008 c 0,-15.46484 6.28125,-29.47656 16.42578,-39.61719 10.13672,-10.13672 24.14062,-16.41406 39.59765,-16.41797 v 0.008 h 0.0391 v -0.008 c 15.46093,0 29.47656,6.27735 39.62109,16.42188 10.14062,10.14062 16.41406,24.14453 16.42187,39.60156 h -0.008 v 0.0352 h 0.008 c 0,1.86719 -0.0976,3.71875 -0.27734,5.54297 z m 0,0"
       id="path17" />
    <path
       style="fill:#191717;fill-opacity:1;fill-rule:evenodd;stroke:none"
       d="m 203.60547,490.86719 c 15.625,-9.44532 31.02344,-13.76563 46.20703,-16.72266 0.34375,-2.31641 0.53125,-4.69141 0.53125,-7.11328 0,-26.33594 -21.35547,-47.69141 -47.69531,-47.69141 -26.33594,0 -47.69532,21.35547 -47.69532,47.69141 0,2.28906 0.16797,4.53906 0.48047,6.73828 15.8125,2.96484 31.8711,7.24609 48.17188,17.09766 z m 0,0"
       id="path19" />
    <path
       style="fill:#7ad1f0;fill-opacity:1;fill-rule:evenodd;stroke:none"
       d="M 376.99219,224.76562 H 30.210938 C 26.214844,211.59375 19.246094,196.48828 8.0625,178.47266 24.160156,162.78125 35.289063,141.31641 35.484375,112.89453 109.72266,114.59375 161.1875,85.382813 203.60547,42.546875 c 42.41406,42.835938 93.88281,72.046875 168.12109,70.347655 0.1875,28.42188 11.32031,49.88672 27.42188,65.57813 -11.1875,18.01562 -18.16016,33.12109 -22.15625,46.29296 z m 0,0"
       id="path21" />
    <path
       style="fill:#008f33;fill-opacity:1;fill-rule:evenodd;stroke:none"
       d="m 127.07031,225.02734 c 34.32031,-42.67187 59.59375,-76.63281 82.10156,-120.79296 55.36719,26.5664 121.60547,58.42578 178.54297,94.39453 -4.03125,8.08203 -4.88672,9.21093 -8.41015,20.2539 L 257.08594,165.41016 c -13.41407,27.83203 -28.33985,41.01953 -46.64063,59.64453 z m 0,0"
       id="path23" />
    <path
       style="fill:#008f33;fill-opacity:1;fill-rule:evenodd;stroke:none"
       d="m 29.730469,224.57812 c 35.542969,-17.55859 72.039061,-41.00781 85.250001,-77.41796 l 40.27734,36.70312 -32.53125,40.88281 z m 0,0"
       id="path25" />
    <path
       style="fill:#008f33;fill-opacity:1;fill-rule:evenodd;stroke:none"
       d="m 212.39453,225.23828 c 27.70313,-20.67969 34.75391,-32.44141 46.79688,-54.69141 l 119.90625,51.40235 -0.89454,3.2539 z m 0,0"
       id="path27" />
    <path
       style="fill:#e30014;fill-opacity:1;fill-rule:evenodd;stroke:none"
       d="m 64.085938,138.97266 c 12.125,0 21.953125,9.83203 21.953125,21.95703 0,12.125 -9.828125,21.95703 -21.953125,21.95703 -12.125,0 -21.953125,-9.83203 -21.953125,-21.95703 0,-12.125 9.828125,-21.95703 21.953125,-21.95703 z m 0,0"
       id="path29" />
    <path
       style="fill:#e30014;fill-opacity:1;fill-rule:evenodd;stroke:none"
       d="m 303.89844,-0.00390625 7.5625,23.42968725 24.61718,-0.04687 -19.94531,14.429688 7.65235,23.402344 -19.88672,-14.511719 -19.88672,14.511719 7.65234,-23.402344 -19.94531,-14.429688 24.61719,0.04687 z m 0,0"
       id="path31" />
    <path
       style="fill:#e30014;fill-opacity:1;fill-rule:evenodd;stroke:none"
       d="m 103.30469,-0.00390625 7.5625,23.42968725 24.61718,-0.04687 -19.94531,14.429688 7.65235,23.402344 -19.88672,-14.511719 -19.890627,14.511719 7.652343,-23.402344 -19.945312,-14.429688 24.621094,0.04687 z m 0,0"
       id="path33" />
    <path
       style="fill:#009cde;fill-opacity:1;fill-rule:evenodd;stroke:none"
       d="m 154.95312,336.09375 v 0.91016 c -1.27734,0.11328 -2.08984,0.30859 -2.43359,0.58984 -0.49219,0.39453 -0.73828,1.26172 -0.73828,2.60937 v 4.38672 c -0.89063,0.58203 -2.34766,1.09375 -4.37891,1.54297 -2.03515,0.45703 -3.89843,0.67969 -5.60156,0.67969 -4.33594,0 -7.72266,-1.27344 -10.16016,-3.82813 -2.14453,-2.25 -3.21484,-5.05468 -3.21484,-8.41796 0,-3.52735 1.17969,-6.47266 3.54688,-8.83985 2.46484,-2.46094 5.64062,-3.6875 9.53515,-3.6875 1.10547,0 2.25391,0.17578 3.4336,0.51953 1.20703,0.41797 2.42968,0.82422 3.66015,1.21875 0.46875,0 0.83594,-0.16406 1.10938,-0.48828 0.14843,-0.16015 0.34375,-0.53125 0.58984,-1.11328 h 1.03516 v 8.14453 h -0.96485 c -0.73437,-1.83203 -1.79297,-3.39844 -3.17578,-4.69922 -1.67187,-1.60156 -3.47265,-2.40234 -5.39453,-2.40234 -2.51172,0 -4.33594,1.12891 -5.47266,3.37891 -0.92968,1.85546 -1.39843,4.49218 -1.39843,7.89843 0,3.57032 0.60937,6.32032 1.84765,8.2461 1.23047,1.92968 3.03125,2.88672 5.39453,2.88672 1.52735,0 2.57422,-0.23047 3.14063,-0.69532 0.46875,-0.37109 0.70312,-0.99609 0.70312,-1.8789 v -3.61719 c 0,-1.04688 -0.26953,-1.71094 -0.79687,-2.00391 -0.52734,-0.28906 -1.51953,-0.42968 -2.97266,-0.42968 v -0.91016 z m 15.08204,9.12109 v 0.90235 h -12.9336 v -0.90235 c 1.1836,0 2.00781,-0.125 2.47656,-0.38672 0.66407,-0.36718 0.9961,-1.05468 0.9961,-2.05078 v -16.84375 c 0,-1.01953 -0.35547,-1.70312 -1.07031,-2.05078 -0.42579,-0.21094 -1.21875,-0.35937 -2.40235,-0.45312 v -0.83594 h 12.9336 v 0.83594 c -1.10938,0 -1.89844,0.11718 -2.3711,0.34765 -0.73437,0.3711 -1.10156,1.08985 -1.10156,2.15625 v 16.84375 c 0,0.78907 0.18359,1.36719 0.55078,1.73828 0.46484,0.46485 1.44141,0.69922 2.92188,0.69922 z m 26.30859,0.0664 v 0.83594 h -11.97266 v -0.83594 c 1.16016,0 1.94141,-0.0859 2.34766,-0.26563 0.40234,-0.17578 0.60937,-0.53515 0.60937,-1.07421 0,-0.44532 -0.20703,-1.20313 -0.6289,-2.28516 -0.17188,-0.42188 -0.52735,-1.23438 -1.07031,-2.42969 h -8.35157 c -0.46875,1.17188 -0.85547,2.17188 -1.16406,2.99219 -0.30859,0.82812 -0.46094,1.35156 -0.46094,1.58594 0,0.46875 0.21875,0.83203 0.66407,1.08984 0.4414,0.26172 1.23046,0.38672 2.36718,0.38672 v 0.83594 h -7.46484 v -0.90235 c 0.91016,-0.14062 1.625,-0.52343 2.14062,-1.15234 0.34375,-0.41406 0.83985,-1.37891 1.48047,-2.88672 l 8.19922,-19.07031 h 1.03906 l 8.20313,18.30469 c 0.88281,1.94921 1.53906,3.20312 1.95703,3.76171 0.54297,0.73829 1.19531,1.10938 1.96094,1.10938 z m -18.45703,-7.375 h 7.15234 l -3.69531,-8.49219 z m 52.82422,0.27734 -1.47657,7.9336 h -21.36328 v -0.90235 c 1.23438,-0.11718 2.02344,-0.28125 2.36719,-0.48828 0.54297,-0.32422 0.8125,-0.97265 0.8125,-1.94922 v -16.84375 c 0,-1.01953 -0.31641,-1.70312 -0.95703,-2.05078 -0.37109,-0.21094 -1.10938,-0.35937 -2.22266,-0.45312 v -0.83594 h 12.86328 v 0.83594 c -1.42968,0 -2.36328,0.14843 -2.80859,0.45312 -0.58984,0.41797 -0.88672,1.33203 -0.88672,2.7461 v 16.42578 c 0,0.8125 0.22266,1.33984 0.66406,1.58203 0.44532,0.24609 1.3086,0.36719 2.58594,0.36719 2.58985,0 4.64453,-0.63672 6.17188,-1.91407 1.16015,-0.97265 2.23047,-2.60937 3.21484,-4.90625 z m 26.53515,7.09766 v 0.83594 h -11.97656 v -0.83594 c 1.16016,0 1.94141,-0.0859 2.34766,-0.26563 0.40625,-0.17578 0.60937,-0.53515 0.60937,-1.07421 0,-0.44532 -0.20703,-1.20313 -0.6289,-2.28516 -0.17188,-0.42188 -0.52735,-1.23438 -1.07032,-2.42969 h -8.35156 c -0.47266,1.17188 -0.85547,2.17188 -1.16406,2.99219 -0.3086,0.82812 -0.46094,1.35156 -0.46094,1.58594 0,0.46875 0.22266,0.83203 0.66406,1.08984 0.44532,0.26172 1.23047,0.38672 2.36328,0.38672 v 0.83594 h -7.46093 v -0.90235 c 0.91015,-0.14062 1.625,-0.52343 2.14062,-1.15234 0.34766,-0.41406 0.83985,-1.37891 1.48047,-2.88672 l 8.20313,-19.07031 h 1.03515 l 8.20313,18.30469 c 0.88672,1.94921 1.53906,3.20312 1.95703,3.76171 0.54297,0.73829 1.1914,1.10938 1.96094,1.10938 z m -18.46093,-7.375 h 7.15234 l -3.69531,-8.49219 z m 33.68359,7.30859 v 0.90235 h -12.93359 v -0.90235 c 1.18359,0 2.0039,-0.125 2.47656,-0.38672 0.66406,-0.36718 0.99609,-1.05468 0.99609,-2.05078 v -16.84375 c 0,-1.01953 -0.35547,-1.70312 -1.07031,-2.05078 -0.41797,-0.21094 -1.21875,-0.35937 -2.40234,-0.45312 v -0.83594 h 12.93359 v 0.83594 c -1.10938,0 -1.89844,0.11718 -2.36328,0.34765 -0.74219,0.3711 -1.10938,1.08985 -1.10938,2.15625 v 16.84375 c 0,0.78907 0.1836,1.36719 0.55469,1.73828 0.46875,0.46485 1.44141,0.69922 2.91797,0.69922 z m 0,0"
       id="path35" />
    <path
       style="fill:#e30014;fill-opacity:1;fill-rule:evenodd;stroke:none"
       d="m 113.72266,272.71484 c 0,5.82422 0,11.64063 0,17.46094 0,5.82813 0,11.64453 0,17.46094 -3.53516,0.9375 -7.04688,1.92969 -10.5586,2.95312 0,-2.44922 0,-4.89843 0,-7.34375 0,-2.44922 0,-4.90234 0,-7.35547 -1.07812,0.32032 -2.13281,0.64063 -3.187497,0.96875 0,2.45313 0,4.91407 0,7.35938 0,2.45312 0,4.90234 0,7.35156 -3.535157,1.13281 -7.046875,2.3086 -10.5625,3.53906 0,-5.85546 0,-11.70703 0,-17.55468 0,-5.85547 0,-11.70703 0,-17.5586 3.515625,-1.20703 7.027343,-2.34375 10.5625,-3.44531 0,2.08594 0,4.17969 0,6.25781 0,2.08985 0,4.17969 0,6.26172 1.054687,-0.32812 2.109377,-0.64453 3.187497,-0.96484 0,-2.08203 0,-4.16797 0,-6.25391 0,-2.08203 0,-4.16797 0,-6.2539 3.51172,-0.9961 7.02344,-1.96875 10.5586,-2.88282 z m 27.94921,14.64453 c 0,3.5 -0.11718,6 -0.30078,7.48438 -0.17968,1.51172 -0.79297,2.92187 -1.80859,4.27734 -1.04688,1.39063 -2.41406,2.55078 -4.10938,3.48828 -1.72656,0.96094 -3.74218,1.64844 -6.01171,2.11329 -2.11328,0.43359 -4.0625,0.5664 -5.85157,0.35156 -1.72265,-0.20703 -3.1289,-0.77344 -4.19921,-1.75391 -1.0625,-0.96875 -1.67579,-2.14844 -1.88282,-3.54297 -0.20703,-1.39062 -0.29687,-3.89453 -0.29687,-7.49609 0,-1.98438 0,-3.96875 0,-5.94531 0,-3.50782 0.10937,-6.01953 0.29687,-7.53516 0.17969,-1.46094 0.79297,-2.94141 1.8125,-4.40234 0.9961,-1.42969 2.35547,-2.70313 4.08594,-3.72657 1.75781,-1.03906 3.75781,-1.79296 6.03516,-2.25 2.13281,-0.42578 4.08984,-0.47656 5.84765,-0.16406 1.75,0.3086 3.16406,0.98828 4.20313,2.01172 1.07031,1.05078 1.6875,2.29688 1.8789,3.69531 0.19922,1.39063 0.30078,3.875 0.30078,7.46875 0,1.98047 0,3.95703 0,5.92578 z m -10.57812,-9.55078 c 0,-1.63672 -0.11328,-2.65625 -0.32031,-3.0625 -0.20703,-0.40234 -0.6211,-0.54687 -1.28516,-0.40625 -0.57422,0.1211 -0.98437,0.38282 -1.26172,0.79688 -0.29687,0.4414 -0.4375,1.54297 -0.4375,3.34765 0,2.70313 0,5.41407 0,8.1211 0,2.70703 0,5.41015 0,8.11719 0,2.03125 0.0937,3.25781 0.27735,3.6914 0.17968,0.45313 0.61718,0.60156 1.34765,0.44531 0.69141,-0.14453 1.17578,-0.51171 1.38281,-1.10156 0.20704,-0.59765 0.29688,-1.91406 0.29688,-3.97265 0,-2.65625 0,-5.32032 0,-7.98438 0,-2.65625 0,-5.32422 0,-7.99219 z m 32.72656,-13.53906 c 1.00781,5.67969 2.01953,11.36719 3.02735,17.05469 1.01171,5.70312 2.01953,11.39844 3.03125,17.10156 -3.63282,0.28906 -7.23047,0.63281 -10.83204,0.99609 -0.18359,-2.0664 -0.36718,-4.125 -0.53125,-6.18359 -1.26171,0.14844 -2.52343,0.29688 -3.78515,0.44922 -0.20703,2.10156 -0.41406,4.21094 -0.6211,6.31641 -3.64843,0.46484 -7.29687,0.98046 -10.94531,1.53125 0.8711,-5.92969 1.78906,-11.86329 2.66406,-17.77735 0.8711,-5.91015 1.78907,-11.82422 2.6836,-17.73828 5.09375,-0.66406 10.1875,-1.25781 15.30859,-1.75 z m -5.60156,22.87109 c -0.27344,-1.85937 -0.55469,-3.99218 -0.80469,-6.39453 -0.25,-2.39453 -0.55078,-5.0625 -0.80078,-8.00781 -0.55078,3.46094 -1.01172,6.43359 -1.33203,8.89844 -0.32031,2.46484 -0.57813,4.45312 -0.6875,5.93359 1.19141,-0.13672 2.41016,-0.28515 3.625,-0.42969 z m 37.60937,-24.55078 c 0,5.78125 0,11.55469 0,17.33203 0,5.78125 0,11.5586 0,17.33204 -3.09375,0.0664 -6.1914,0.13671 -9.26562,0.22265 -0.91797,-2.58594 -1.83594,-5.17578 -2.75391,-7.76172 -0.91797,-2.58203 -1.83593,-5.17578 -2.7539,-7.76562 0,2.6289 0,5.26172 0,7.88672 0,2.625 0,5.25 0,7.875 -2.96094,0.16015 -5.89844,0.33593 -8.83594,0.53515 0,-5.78125 0,-11.5625 0,-17.34375 0,-5.78125 0,-11.55859 0,-17.34375 2.9375,-0.1914 5.875,-0.36718 8.83594,-0.52734 0.98437,2.57031 1.97265,5.12891 2.95703,7.69141 0.98437,2.5625 1.97656,5.125 2.98437,7.6875 0,-2.60157 0,-5.19922 0,-7.80469 0,-2.60156 0,-5.20313 0,-7.8086 2.9375,-0.082 5.875,-0.15234 8.83203,-0.20703 z m 28.50782,13.27344 c -3.53516,-0.14844 -7.07032,-0.30078 -10.58203,-0.39844 0,-1.04297 0,-2.09765 0,-3.14843 0,-1.71875 -0.008,-2.61719 -0.0234,-2.69532 -0.19141,-1.1875 -0.75781,-1.78515 -1.69531,-1.8125 -0.89454,-0.0195 -1.46094,0.47266 -1.65235,1.50782 -0.0352,0.1875 -0.0469,0.98828 -0.0469,2.38671 0,2.77735 0,5.55079 0,8.32032 0,2.77343 0,5.54297 0,8.3164 0,1.25782 0.0508,2.03125 0.11328,2.33594 0.21094,0.98438 0.7539,1.49609 1.65234,1.51563 0.96485,0.0234 1.58985,-0.47657 1.83594,-1.51954 0.0977,-0.40234 0.14062,-1.24218 0.14062,-2.52343 0,-1.36719 0,-2.73828 0,-4.10157 -0.71484,-0.0273 -1.42578,-0.043 -2.13671,-0.0586 0,-1.75391 0,-3.51172 0,-5.26953 4.13281,0.0977 8.26171,0.25781 12.39453,0.44531 0,3.09766 0,6.20313 0,9.30469 0,3.09766 0,6.20312 0,9.29687 -2.22657,-0.10156 -4.45313,-0.19531 -6.65625,-0.28906 -0.34375,-0.83594 -0.66797,-1.67969 -0.98828,-2.51562 -1.44532,2.10156 -3.625,3.10156 -6.61329,3.04297 -1.66796,-0.0352 -3.27343,-0.38282 -4.8125,-1.07422 -1.58203,-0.71094 -2.82031,-1.65625 -3.67187,-2.80078 -0.86719,-1.16407 -1.42188,-2.58985 -1.65234,-4.27735 -0.11329,-0.82031 -0.1836,-2.32031 -0.1836,-4.5039 0,-1.71485 0,-3.4375 0,-5.14844 0,-1.71485 0,-3.4375 0,-5.15235 0,-3.18359 0.14063,-5.27734 0.38672,-6.28515 0.51172,-2.08594 1.80859,-3.79297 3.85156,-5.06641 1.9961,-1.23437 4.55078,-1.83594 7.69141,-1.76953 2.55078,0.0547 4.86328,0.55859 6.91016,1.47266 2.42968,1.08984 4.04296,2.54687 4.79687,4.40625 0.62109,1.53515 0.94141,3.71875 0.94141,6.55859 0,0.50391 0,1.00391 0,1.5 z m 31.89843,-9.74609 c 0.98438,5.91797 2.01954,11.85156 3.00391,17.77734 0.98828,5.94531 2.01953,11.90234 3.03125,17.85938 -3.60547,-0.57813 -7.20703,-1.08985 -10.80859,-1.57813 -0.1836,-2.10156 -0.36719,-4.20312 -0.55078,-6.30859 -1.26172,-0.14844 -2.52735,-0.29688 -3.78907,-0.44532 -0.20703,2.0586 -0.41015,4.10547 -0.61718,6.16797 -3.64844,-0.39453 -7.30079,-0.75 -10.94922,-1.0664 0.89843,-5.70703 1.79297,-11.41016 2.6875,-17.10938 0.89453,-5.6914 1.78906,-11.38281 2.68359,-17.07812 5.09375,0.50781 10.19141,1.10156 15.30859,1.78125 z m -5.625,21.58203 c -0.27343,-1.92578 -0.55078,-4.1211 -0.80078,-6.58203 -0.2539,-2.45313 -0.52734,-5.19141 -0.78125,-8.1875 -0.57422,3.32422 -1.03515,6.18359 -1.35547,8.57422 -0.32031,2.38671 -0.55078,4.3125 -0.66406,5.77343 1.19141,0.14453 2.38672,0.28125 3.60156,0.42188 z m 37.61329,-15.52735 c 0,5.81641 0,11.63672 0,17.45704 0,5.8125 0,11.625 0,17.4375 -3.10157,-0.73829 -6.19532,-1.47266 -9.26954,-2.15625 -0.91796,-2.83204 -1.85937,-5.67579 -2.7539,-8.5 -0.89453,-2.82422 -1.83594,-5.66407 -2.73047,-8.48438 0,2.63281 0,5.27344 0,7.91406 0,2.62891 0,5.27344 0,7.91407 -2.96094,-0.5586 -5.92188,-1.11719 -8.85938,-1.6211 0,-5.79297 0,-11.58594 0,-17.3789 0,-5.80079 0,-11.59375 0,-17.39454 2.9375,0.49219 5.89844,1.03125 8.85938,1.57032 0.98437,2.8164 1.97266,5.63672 2.96094,8.45312 0.98437,2.82813 1.97265,5.64063 2.95703,8.46094 0,-2.61328 0,-5.22266 0,-7.83984 0,-2.61329 0,-5.23438 0,-7.85157 2.9375,0.64844 5.875,1.32422 8.83594,2.01953 z m 28.57421,8.54688 c 0,5.85937 0,11.70703 0,17.5625 0,5.85547 0,11.71094 0,17.55859 -3.53515,-1.23047 -7.07031,-2.46875 -10.58203,-3.59765 0,-2.44532 0,-4.90235 0,-7.34766 0,-2.45312 0,-4.91016 0,-7.36328 -1.05468,-0.33984 -2.10937,-0.67188 -3.16797,-0.99609 0,2.44921 0,4.90234 0,7.35156 0,2.44922 0,4.90234 0,7.34765 -3.53125,-1.05468 -7.0664,-2.08984 -10.57812,-3.04296 0,-5.8125 0,-11.64063 0,-17.46094 0,-5.82422 0,-11.64063 0,-17.46875 3.51172,0.93359 7.04687,1.94922 10.57812,2.96875 0,2.08984 0,4.17578 0,6.26172 0,2.08203 0,4.17187 0,6.2539 1.0586,0.32422 2.11329,0.66016 3.16797,0.9961 0,-2.08594 0,-4.17578 0,-6.25782 0,-2.08593 0,-4.17968 0,-6.26562 3.51172,1.10156 7.04688,2.30078 10.58203,3.5 z m 0,0"
       id="path37" />
    <path
       style="fill:#ffffff;fill-opacity:1;fill-rule:evenodd;stroke:none"
       d="m 29.347656,221.63281 c 20.769532,-10.23828 38.6875,-21.41797 52.855469,-34.15234 14.0625,-12.63672 24.425785,-26.80078 30.191405,-43.07813 l 1.06641,-3.01172 2.36328,2.14844 43.91797,39.86719 -2.85547,3.14062 -41.59766,-37.76562 c -6.1875,15.75 -16.527341,29.52734 -30.249997,41.85547 -14.464844,13.0039 -32.707032,24.39453 -53.8125,34.79687 z m 0,0"
       id="path39" />
    <path
       style="fill:#ffffff;fill-opacity:1;fill-rule:evenodd;stroke:none"
       d="m 122.85938,223.63281 c 16.14453,-18.3789 31.39843,-37.6875 45.39843,-58.15234 13.98828,-20.44922 26.72266,-42.04297 37.83594,-65.01563 l 0.91016,-1.886715 1.89453,0.890625 c 32.64843,15.32813 63.90234,31.41406 93.88281,47.70312 29.96094,16.27735 58.67187,32.77344 86.25781,48.9375 l -2.14453,3.65235 c -27.53125,-16.13281 -56.19922,-32.60156 -86.14062,-48.8711 -29.34375,-15.9414 -59.89063,-31.67578 -91.75782,-46.69531 -11,22.47657 -23.51562,43.62891 -37.23047,63.67578 -14.08984,20.59375 -29.44921,40.03125 -45.71874,58.55078 z m 0,0"
       id="path41" />
    <path
       style="fill:#ffffff;fill-opacity:1;fill-rule:evenodd;stroke:none"
       d="m 210.03516,222.9375 c 11.02343,-8.26563 20.28515,-17.09766 27.93359,-26.44531 7.62109,-9.3125 13.625,-19.125 18.16016,-29.38672 l 0.84765,-1.91797 1.92578,0.82422 119.94532,51.16797 -1.66016,3.90625 -118.03516,-50.35938 c -4.58203,9.92578 -10.5039,19.42578 -17.89453,28.45703 -7.84375,9.57422 -17.34765,18.64063 -28.68359,27.14453 z m 0,0"
       id="path43" />
  </g>
</svg>
