<?xml version="1.0" encoding="UTF-8"?>
<svg width="250" height="291" viewBox="0 0 578 672" xmlns="http://www.w3.org/2000/svg">
<style>tspan { white-space:pre }
		.shp0 { fill: #443794 } 
		.shp1 { fill: #ffffff } 
		.shp2 { fill: #4d3f98 } 
		.shp3 { fill: #daa528 } 
		.shp4 { fill: #ffca05 }</style>
<path class="shp0" d="m560.22 400.08c0.12 149.73-121.15 271.21-270.88 271.34-149.73 0.12-271.21-121.15-271.34-270.88s121.15-271.21 270.88-271.34c149.72-0.13 271.21 121.15 271.34 270.88z"/>
<path class="shp1" d="m289.33 659.92c-35.05 0.03-69.05-6.81-101.07-20.32-30.93-13.05-58.71-31.74-82.57-55.56s-42.6-51.57-55.7-82.47c-13.57-32-20.46-65.99-20.49-101.04s6.8-69.05 20.31-101.07c13.05-30.92 31.75-58.7 55.57-82.57 23.82-23.86 51.57-42.6 82.47-55.7 32-13.57 65.99-20.46 101.04-20.49 35.04-0.03 69.05 6.8 101.07 20.32 30.92 13.05 58.7 31.74 82.56 55.56s42.61 51.57 55.71 82.47c13.56 32 20.46 65.99 20.49 101.04 0.03 35.04-6.81 69.05-20.32 101.07-13.05 30.92-31.74 58.7-55.56 82.56-23.82 23.87-51.57 42.61-82.48 55.71-31.99 13.56-65.99 20.46-101.03 20.49zm-0.44-512.38c-139.38 0.12-252.67 113.61-252.55 252.99 0.12 139.37 113.6 252.67 252.98 252.55s252.68-113.61 252.56-252.99-113.61-252.67-252.99-252.55zm245.99 252.56c0.11 135.73-109.83 245.86-245.56 245.98-135.74 0.11-245.86-109.83-245.98-245.56s109.82-245.86 245.56-245.98c135.73-0.11 245.86 109.83 245.98 245.56z" fill-rule="evenodd"/>
<path class="shp0" d="m444.54 401.57c0.07 85.84-69.46 155.49-155.3 155.56s-155.49-69.46-155.56-155.3c-0.08-85.84 69.45-155.49 155.3-155.56 85.84-0.07 155.49 69.46 155.56 155.3zm-366.77 7.39h10.6v4.59l-17.92 0.01 0.01-0.17c0.1-2.21 0.68-4.26 1.69-6.09 1.11-1.77 2.66-3.3 4.6-4.54 1.91-1.21 3.65-2.48 5.18-3.75 0.73-0.61 1.16-1.52 1.26-2.72 0.07-1.12-0.17-1.99-0.7-2.58-0.56-0.61-1.48-0.95-2.73-1.01-1.09 0.01-1.96 0.32-2.56 0.93-0.8 0.8-1.19 2.16-1.17 4.03l0.01 0.17h-2.89c-0.77 0-1.33-0.21-1.68-0.63-0.41-0.5-0.51-1.28-0.31-2.32 0.83-4.25 3.75-6.4 8.68-6.41 5.64 0 8.5 2.58 8.77 7.89-0.11 1.92-0.58 3.37-1.43 4.44-0.97 1.34-3.59 3.49-7.59 6.2-1 0.64-1.61 1.3-1.82 1.96z" fill-rule="evenodd"/>
<path class="shp0" d="m101.33 388.46c-6.06 0-9.15 4.26-9.18 12.67-0.08 4.86 0.92 8.39 2.97 10.46 1.5 1.53 3.6 2.3 6.23 2.3 2.65 0 4.77-0.78 6.28-2.32 2.04-2.07 3.04-5.56 2.98-10.39-0.12-8.45-3.24-12.73-9.28-12.72zm0.01 4.3c2.52-0.01 3.81 2.83 3.85 8.43 0.03 3.79-0.56 6.32-1.75 7.52-0.56 0.57-1.25 0.84-2.09 0.84s-1.51-0.27-2.06-0.83c-1.19-1.21-1.76-3.76-1.69-7.6 0-5.62 1.22-8.36 3.74-8.36zm377.03-4.63c-6.06 0.01-9.15 4.27-9.18 12.67-0.08 4.87 0.92 8.39 2.97 10.47 1.5 1.53 3.6 2.3 6.23 2.3 2.65 0 4.77-0.78 6.28-2.32 2.04-2.07 3.04-5.57 2.98-10.39-0.12-8.45-3.24-12.73-9.28-12.73zm0.01 4.31c2.52-0.01 3.81 2.83 3.85 8.43 0.03 3.79-0.56 6.32-1.75 7.52-0.56 0.57-1.25 0.84-2.09 0.84s-1.51-0.27-2.06-0.83c-1.19-1.21-1.76-3.76-1.69-7.6 0-5.63 1.22-8.36 3.74-8.36zm22.86 4.27c-1.77 0-3.31 0.51-4.59 1.49 0.23-3.99 1.46-5.85 3.86-5.86 1.34 0 2.33 0.51 3.02 1.54 0.36 0.56 0.84 0.83 1.46 0.83l3.83-0.01-0.01-0.17c-0.22-3.78-3.4-6.42-7.73-6.42-6.57 0.01-10.04 4.62-10.03 13.32 0 8.05 3.19 12.13 9.48 12.12 5.37 0 8.98-3.51 8.97-8.73 0-4.85-3.33-8.11-8.26-8.11zm-0.71 12.65c-2.53 0-3.78-1.46-3.82-4.45 0.1-2.51 1.3-3.79 3.67-3.9 2.36 0 3.57 1.3 3.71 3.95-0.1 2.96-1.27 4.4-3.56 4.4zm-345.96-111.87 10.35-9.74-19.22-20.41 18.14-17.08 19.21 20.41 10.35-9.74-44.15-46.89-10.34 9.74 16.21 17.22-18.14 17.08-16.21-17.23-5.21 4.9c-1.37 1.3-2.13 3.09-2.14 5.05 0 1.92 0.72 3.74 2.03 5.13l39.12 41.56z" fill-rule="evenodd"/>
<path class="shp0" d="m218.97 248.18-14.2 4.91 0.64-63.56c-0.04-3.18 1.57-5.36 4.8-6.48l10.21-3.53 42.91 53.3-14.03 4.86-8.19-10.86-22.41 7.75 0.27 13.61zm-0.54-25.98 15.06-5.22-15.63-20.66 0.57 25.88zm73.12 10.97-13.79-1.2 4.98-56.86c0.33-3.72 3.4-6.67 7-6.72 0.22 0 0.45 0.01 0.67 0.03l7.26 0.64 21.19 44.08 3.67-41.91 13.78 1.21-5.61 64.16-14.29-1.25-21.2-44.09-3.66 41.91zm64.3 3.48c-1.74-7.67-0.12-16.24 4.68-24.8 6.44-11.48 16.33-18.15 27.13-18.28 5.33-0.07 10.71 1.4 15.99 4.37 8.12 4.55 13.38 11.2 15.21 19.22 1.79 7.82 0.23 16.42-4.51 24.87-6.54 11.68-16.07 18.18-26.84 18.31-5.36 0.06-10.85-1.46-16.31-4.52-8.26-4.63-13.57-11.26-15.35-19.17zm13.08-2.69c0.61 4.9 3.34 8.74 8.12 11.42 2.83 1.59 5.66 2.38 8.41 2.34 6.25-0.07 12.17-4.53 16.66-12.54 6.5-11.58 4.85-21.23-4.5-26.47-2.8-1.57-5.6-2.35-8.33-2.32-6.25 0.08-12.12 4.45-16.53 12.32-3.06 5.46-4.39 10.74-3.83 15.25zm39.74 48.79 41.86-38.8c1.7-1.57 3.41-2.38 5.07-2.4 1.78-0.02 3.49 0.85 5.11 2.59l4.73 5.11-47.24 43.78-9.53-10.28zm-272.82 254.12c-0.64 0.56-1.48 0.87-2.35 0.88-1.15 0.01-2.24-0.48-2.99-1.34l-5.49-6.3-10.42 9.08-4.8-5.51 21.39-18.64c0.71-0.62 1.61-0.96 2.55-0.97 1.09-0.01 2.12 0.44 2.81 1.23l13.06 15-4.85 4.22-10.71-12.29-4.28 3.74 8.02 9.21-1.94 1.69z" fill-rule="evenodd"/>
<path class="shp0" d="m168.56 552.37c0.13 4.01-1.46 8.08-4.58 11.77-3.65 4.3-7.95 6.59-12.45 6.63-3.48 0.03-6.96-1.35-10.08-3.99-7.26-6.16-7.66-14.83-1.05-22.63 3.57-4.21 8.02-6.55 12.54-6.59 3.49-0.03 6.94 1.31 9.98 3.89 3.56 3.02 5.5 6.79 5.64 10.92zm-7.05 0.14c0.13-2.31-0.83-4.34-2.84-6.04-1.55-1.32-3.21-1.98-4.93-1.96-2.6 0.02-5.26 1.56-7.7 4.43-1.98 2.34-5.99 8.28-0.46 12.97 1.57 1.32 3.24 1.99 4.96 1.97 2.61-0.02 5.3-1.59 7.79-4.52 1.96-2.32 3.06-4.68 3.18-6.85z" fill-rule="evenodd"/>
<path class="shp0" d="m197.02 570.31c0.8 3.94-0.07 8.22-2.54 12.38-3.34 5.65-8.09 8.78-13.38 8.83-2.77 0.03-5.6-0.8-8.38-2.45-4.08-2.41-6.66-5.8-7.46-9.78-0.78-3.87 0.13-8.13 2.62-12.34 3.34-5.64 8.14-8.77 13.52-8.82 2.76-0.03 5.53 0.77 8.23 2.37 4.01 2.37 6.57 5.77 7.39 9.81zm-6.92 1.32c-0.26-2.29-1.55-4.13-3.82-5.47-1.36-0.81-2.74-1.22-4.08-1.21-2.94 0.03-5.77 2.08-7.95 5.76-1.55 2.62-2.25 5.15-2.03 7.33 0.23 2.34 1.5 4.2 3.75 5.53 1.39 0.82 2.78 1.23 4.13 1.22 2.94-0.02 5.79-2.11 8.01-5.87 1.55-2.61 2.24-5.13 1.99-7.29zm35.31 13.32-8.56-3.45-9.59 23.81-6.86-2.76 9.59-23.81-8.56-3.45 1.01-2.52c0.59-1.45 2.01-2.43 3.54-2.45 0.47 0 0.92 0.09 1.36 0.26l20.53 8.28-2.46 6.09z" fill-rule="evenodd"/>
<path class="shp0" d="m253.86 593.73c-0.68 2.86-2.17 4.67-4.55 5.51 2.51 2.08 3.26 4.65 2.41 8.19-1.15 4.8-4.53 7.47-9.52 7.52-1.36 0.01-2.83-0.17-4.38-0.54l-14.29-3.42 6.59-27.6c0.41-1.72 1.95-2.97 3.66-2.99 0.29 0 0.58 0.03 0.86 0.1l11.16 2.67c6.46 1.54 9.32 5.29 8.06 10.56zm-18.55-0.61 6.47 1.55c0.7 0.17 1.34 0.25 1.88 0.24 1.55-0.01 2.43-0.68 2.77-2.1 0.47-1.98-0.46-2.99-3.42-3.69l-6.38-1.53-1.32 5.53zm8.45 9.28c-0.59-0.67-1.63-1.17-3.26-1.56l-6.65-1.59-1.67 6.96 6.74 1.61c0.86 0.2 1.58 0.3 2.2 0.3 1.7-0.02 2.65-0.84 3.09-2.67 0.32-1.36 0.18-2.32-0.45-3.05z" fill-rule="evenodd"/>
<path class="shp0" d="m276.8 587.65 8.86 33.09-7.82-0.65-1.53-6.53-11.3-0.94-2.59 6.19-7.9-0.66 13.1-28.85c0.59-1.37 1.7-2.11 3.21-2.12 0.15 0 0.32 0 0.48 0.02l5.49 0.45zm-2.08 19.46-2.68-11.38-4.49 10.78 7.17 0.6zm40.23 5.15 0.44 6.74-22.6 1.46-1.83-28.32c-0.13-2.13 1.42-3.96 3.47-4.09l3.67-0.24 1.64 25.43 15.21-0.98zm27.84-5.08 1.3 6.63-22.23 4.33-5.43-27.86c-0.4-2.09 0.91-4.1 2.92-4.5l3.61-0.7 4.87 25.01 14.96-2.91zm52.69-26.26c2.68 6.89-0.12 13.14-7.48 16.73-2.42 1.18-4.78 1.78-7.02 1.8-5.64 0.06-10.35-3.47-13.62-10.18-2.28-4.69-2.9-8.94-1.84-12.65 1.1-3.82 3.93-6.87 8.43-9.06 2.46-1.2 4.83-1.82 7.02-1.84 0.97-0.01 1.93 0.1 2.86 0.32 2.96 0.84 5.39 2.8 7.24 5.84l0.29 0.48-3.97 1.93c-0.56 0.28-1.13 0.42-1.69 0.42-0.82 0.01-1.62-0.28-2.35-0.86-0.97-0.78-2.06-1.17-3.25-1.16-0.99 0.01-2.08 0.3-3.23 0.86-5.97 2.91-4.85 8.39-2.86 12.48 1.43 2.92 3.96 6.41 7.88 6.37 1.12-0.01 2.31-0.31 3.52-0.9 3.2-1.56 4.42-4.17 3.53-7.55l-0.11-0.41 6.45-3.14 0.2 0.52zm26.53-12.47 3.81 5.58-18.71 12.76-15.98-23.45c-1.18-1.73-0.77-4.15 0.9-5.29l3.03-2.07 14.36 21.06 12.59-8.59zm19.9-24.05c2.64 2.91 3.84 5.95 3.57 9.01-0.26 3-1.93 5.91-4.95 8.64-3.03 2.74-6.03 4.14-8.93 4.16-3.09 0.03-6.05-1.5-8.8-4.54l-11.18-12.37c-1.38-1.52-1.29-4.03 0.18-5.36l2.72-2.46 13.27 14.68c1.61 1.78 3.21 2.68 4.76 2.66 1.19-0.01 2.4-0.55 3.61-1.62 1.27-1.12 1.95-2.33 2.02-3.59 0.09-1.48-0.66-3.11-2.21-4.83l-13.28-14.68 5.46-4.93 13.76 15.23z" fill-rule="evenodd"/>
<path class="shp0" d="m465.71 522.07c4.42 4.59 3.82 10.22-1.63 15.46l-10.59 10.19-19.68-20.45c-0.69-0.72-1.08-1.68-1.09-2.69-0.01-1.03 0.38-1.98 1.1-2.67l8.27-7.96c2.87-2.76 5.66-4.01 8.29-3.73 1.78 0.19 3.44 1.08 4.96 2.65 2.03 2.12 2.75 4.35 2.18 6.8 1.13-0.36 2.18-0.48 3.18-0.38 1.75 0.19 3.4 1.1 5.01 2.78zm-11.57 15.78 4.99-4.8c2.38-2.29 2.62-3.9 0.86-5.73-0.76-0.78-1.48-1.2-2.2-1.28-1.04-0.11-2.21 0.5-3.69 1.91l-4.93 4.75 4.97 5.15zm-8.54-18.34-4.73 4.55 3.94 4.1 4.8-4.62c0.93-0.89 1.5-1.74 1.69-2.52 0.22-0.85-0.03-1.64-0.75-2.39-0.55-0.56-1.08-0.86-1.62-0.92-0.9-0.1-1.96 0.47-3.33 1.8z" fill-rule="evenodd"/>
<path class="shp2" d="m384.72 300.16-95.84-33.27 0.23 276.48 97.19-52.13c5.74-3.25 9.27-9.24 9.26-15.71l-0.13-158.95c-0.01-7.04-4.18-13.44-10.71-16.42z"/>
<path class="shp3" d="m377.51 351.03-19.03 8.24-138.53 0.12-19.04-8.21-3.91-4.39 18.64 35.02 25.34 9.54 24.44 0.1 47.65-0.04 24.44-0.02 25.33-9.71 18.57-35.05-3.9 4.4zm-153.03-16.94 3.33 13.65 61.08-0.07 61.57-0.01 3.46-13.68-129.44 0.11z"/>
<path class="shp4" d="m381.41 346.63-14.3 16.82-155.82 0.13-14.29-16.79 1.17-0.57c14.08 14.05 29.63 1.5 29.63 1.5l122.67-0.11s15.65 12.52 29.77-1.55l1.17 0.57zm-27.49-12.65s-2.09 2.57-4.6 5.21l-120.23 0.1c-2.52-2.64-4.61-5.2-4.61-5.2 15.04-0.02 17.3-15.74 17.3-15.74l-0.19-4.13 4.91 0.55 1.08 3.58 37.2-0.03c-2.51-1.47-4.2-4.19-4.2-7.3-0.01-4.66 3.78-8.46 8.45-8.46 4.66 0 8.45 3.78 8.46 8.45 0 3.11-1.69 5.83-4.19 7.3l37.49-0.03 1.07-3.58 4.91-0.56-0.19 4.13h0.01s2.29 15.72 17.33 15.71zm-68.46-22.96c0 1.97 1.61 3.57 3.58 3.56 1.96 0 3.56-1.6 3.56-3.57s-1.6-3.57-3.57-3.57c-1.97 0.01-3.57 1.61-3.57 3.58zm76.45 116.2 0.01 8.19-1.35 0.4-143.35 0.12-0.57-0.4-0.01-8.19h4.37l-0.01-10.38 20-0.02-0.03-47.21 96.53-0.08 0.03 47.21 20-0.02 0.01 10.38h4.37zm-96.14-11.88 7.48-5c-1.95-2.64-3.26-5.78-3.71-9.19h-3.78l0.01 14.19zm-0.01-18.51h3.69c0.31-3.59 1.58-6.91 3.55-9.7l-7.26-4.83 0.02 14.53zm23.48-13.83c-8.58 0.01-15.56 6.99-15.55 15.57s7 15.56 15.58 15.55 15.55-6.99 15.54-15.57-6.99-15.56-15.57-15.55zm-23.31-5.77 9.95 6.63c3.3-3.01 7.62-4.92 12.37-5.16v-0.02h0.99l0.98-0.01v0.03c4.75 0.23 9.07 2.13 12.38 5.13l9.93-6.64-46.6 0.04zm46.78 5.04-7.22 4.83c1.97 2.79 3.24 6.1 3.56 9.69h3.68l-0.02-14.52zm0.02 18.84h-3.76c-0.44 3.42-1.75 6.56-3.7 9.21l7.47 4.97-0.01-14.18zm-46.95 19.46 46.97-0.04v-0.04l-10.44-6.95c-3.26 2.84-7.45 4.65-12.06 4.88v0.02h-1.96v-0.02c-4.61-0.22-8.8-2.02-12.07-4.86l-10.44 6.98v0.03z" fill-rule="evenodd"/>
<path class="shp3" d="m216.65 435.53 4.68 5.74 135.92-0.12 4.67-5.74-145.27 0.12z"/>
<path class="shp4" d="m221.02 440.89 0.06 68 27.38 11.12-0.06-71.6 81.79 0.6 0.06 70.93 27.36-12.1-0.05-67.06-136.54 0.11z"/>
<path class="shp3" d="m245.39 447.62-0.1 73.02 8.35 2.74-0.06-69.1 71.44-0.06 0.36 69.41 8.04-3.69 0.1-72.39-88.13 0.07z"/>
<path class="shp4" d="m289.23 547.81-98.01-54.52c-7.22-4.02-11.71-11.54-11.72-19.64l-0.13-157.05c-0.01-8.78 5.27-16.84 13.45-20.55l0.26-0.12 0.28-0.08 95.51-29.9 96.08 29.82 0.27 0.12c8.19 3.69 13.48 11.74 13.49 20.52l0.13 157.06c0.01 8.09-4.47 15.62-11.68 19.65l-97.93 54.69zm-92.76-243.04c-4.67 2.22-7.66 6.83-7.66 11.82l0.13 157.06c0.01 4.67 2.64 9.03 6.87 11.38l93.41 51.97 93.33-52.13c4.23-2.36 6.85-6.73 6.85-11.4l-0.14-157.05c0-4.99-3.01-9.59-7.68-11.81l-92.7-28.77-92.41 28.93zm92.52-304.33 9.22 28.37h29.83l-24.13 17.53 9.21 28.37-24.13-17.53-24.13 17.53 9.22-28.37-24.13-17.53h29.82l9.22-28.37zm-152.34 30.31 19.37 22.68 27.56-11.42-15.59 25.44 19.37 22.68-29-6.97-15.59 25.44-2.34-29.74-29-6.96 27.56-11.42-2.34-29.73zm-129.16 86.29 26.58 13.55 21.09-21.1-4.67 29.47 26.58 13.54-29.46 4.66-4.66 29.47-13.55-26.58-29.46 4.66 21.09-21.09-13.54-26.58zm563.01 0-13.55 26.58 21.09 21.09-29.46-4.66-13.54 26.58-4.66-29.47-29.47-4.66 26.58-13.54-4.66-29.47 21.09 21.1 26.58-13.55zm-129.16-86.29-2.34 29.73 27.56 11.42-29.01 6.96-2.33 29.74-15.59-25.44-29.01 6.97 19.38-22.68-15.59-25.44 27.56 11.42 19.37-22.68z" fill-rule="evenodd"/>
</svg>
