<?xml version="1.0" encoding="UTF-8"?>
<svg width="250" height="237" version="1.2" viewBox="0 0 550 522" xmlns="http://www.w3.org/2000/svg">
<style>.s0{fill:#87070d}.s1{fill:#c61717}.s2{fill:#a10506}.s3{fill:#fcfafb}.s4{fill:#d1d9dc}</style>
<path class="s0" d="m23.2 292.2c12.1-17 24.7-34 37.4-50.8-15.8-13.8-32.1-27.6-48.4-41l-11.8-9.7 15.2-1.8c85.9-10.1 173.2-15.2 259.5-15.2 86.9 0 174.9 5.2 261.3 15.4l13.2 1.5-9.3 9.5c-13.5 14-27.1 28.2-40.3 42.4 9.9 16.7 19.7 33.7 29.2 50.5l6.3 11.1-12.7-1.5c-82-9.6-165.3-14.5-247.7-14.5-81.8 0-164.5 4.8-245.9 14.3l-14.7 1.8z"/>
<path class="s1" d="m480 336.1c-0.4 5.2-1.1 10.2-2.1 14.8q-0.6 2.4-1.2 4.7-1.8 6.3-4.5 12.4c-2 4.5-4.4 8.9-7.1 13.2-3.1 5-6.6 9.9-10.4 14.6-3 3.8-6.3 7.4-9.7 11-4 4.2-8.2 8.1-12.5 11.8-3.6 3.2-7.2 6.1-10.9 8.9-4.5 3.4-9.1 6.5-13.6 9.3-4 2.5-7.9 4.6-11.7 6.5q-0.4 0.2-0.8 0.4c-3.6 1.8-8.1 4-13.1 6.7-3.4 1.8-7.1 3.8-11 6-4.1 2.2-8.4 4.6-12.8 7.2q-5.2 3-10.6 6.2c-4.2 2.5-8.5 5.1-12.8 7.7q-5.5 3.4-10.9 6.9c-4.7 3-9.3 6-13.7 9-4.3 3-8.4 5.9-12.1 8.7-6.4 4.9-11.9 9.5-15.8 13.6q-2.5 2.5-4.1 4.7-0.2 0.3-0.5 0.6c-1.4 1.2-3.5 1-4.6-0.5-1.4-1.9-3.1-3.9-5.3-6-4-4-9.4-8.5-15.7-13.2-3.7-2.8-7.8-5.6-12-8.5-4.4-3-9-6-13.7-9q-5.3-3.5-10.8-6.9c-4.3-2.6-8.6-5.2-12.8-7.7q-5.4-3.2-10.7-6.1c-4.4-2.6-8.7-5-12.8-7.3-3.9-2.1-7.6-4.1-11.1-5.9-4.6-2.5-8.7-4.5-12.1-6.2q-0.9-0.4-1.8-0.9c-3.8-1.9-7.7-4.1-11.7-6.7-4.4-2.8-9-5.9-13.5-9.4-3.7-2.7-7.3-5.7-10.9-8.9-4.3-3.7-8.5-7.7-12.4-11.9-3.4-3.6-6.6-7.3-9.7-11.1-3.7-4.7-7.2-9.6-10.2-14.6-2.7-4.4-5-8.8-6.9-13.4q-2.5-5.5-4.1-11.2-0.7-2.8-1.4-5.9-0.9-4.9-1.5-10.3-0.3-2.2-0.4-4.5c-0.4-5.8-0.6-11.8-0.4-18 0.1-4.9 0.3-9.9 0.7-15q0-0.4 0.1-0.8c0.4-5.7 1-11.4 1.7-17 0.7-5.1 1.4-10.1 2.1-14.9 1-6.3 2.1-12.3 3.1-18 1-5.4 2.1-10.5 3.1-15.3 1.3-6.3 2.6-11.9 3.7-16.6q0.2-1 0.4-2.1c0.7-4.3 1-10.4 1.1-17.9 0.1-7.2 0-15.6-0.4-24.8-0.2-7.6-0.6-15.8-1.1-24.2-0.7-11.3-1.5-23.1-2.4-34.8-0.9-12.3-1.9-24.4-2.9-35.7-2.4-27.4-4.6-49.4-5.3-55.6v-0.1c-0.1-1 0.5-1.9 1.5-2.3 6.3-2.2 14.4-4.2 23.7-6.1 9.5-1.8 20.2-3.5 31.5-5 8.3-1 16.9-2 25.5-2.9 9.9-1 19.9-1.9 29.6-2.6 8.3-0.7 16.3-1.3 24-1.8 10.2-0.6 19.8-1.2 28.2-1.6 9.2-0.5 17.1-0.8 23.2-1.1 7.9-0.3 12.7-0.5 13.3-0.5h0.1q0.3 0 2 0.1c2.4 0.1 6.6 0.2 12.4 0.5 6.2 0.2 14.1 0.6 23.2 1 8.5 0.5 18.1 1 28.2 1.7 7.7 0.5 15.8 1.1 24 1.8 9.8 0.7 19.8 1.6 29.7 2.7 8.7 0.8 17.3 1.8 25.6 2.9 11.4 1.5 22.1 3.2 31.6 5.1 8.7 1.8 16.2 3.7 22.3 5.8 0.9 0.4 1.5 1.3 1.4 2.3q-0.1 1.2-0.3 3c-0.9 9-3 29.9-5.2 54.8-0.9 11.2-1.9 23.3-2.8 35.4-0.9 11.6-1.7 23.3-2.3 34.4-0.5 8.4-0.9 16.5-1.1 24-0.4 9.2-0.5 17.6-0.4 24.7 0.2 7.5 0.6 13.6 1.3 17.6q0.2 0.7 0.3 1.3c1.1 4.9 2.4 10.8 3.8 17.4 1 4.8 2.1 9.9 3.1 15.2 1 5.8 2.1 11.8 3 18 0.8 4.9 1.5 9.9 2.1 14.9 0.7 5.9 1.3 11.9 1.8 17.9 0.4 5 0.6 10 0.7 14.9 0.1 6.4 0 12.6-0.5 18.5z"/>
<path class="s2" d="m278.1 0.3v520.7c-1.4 1.2-3.5 1-4.6-0.5-1.4-1.9-3.1-3.9-5.3-6-4-4-9.4-8.5-15.7-13.2-3.7-2.8-7.8-5.6-12-8.5-4.4-3-9-6-13.7-9q-5.3-3.5-10.8-6.9c-4.3-2.6-8.6-5.2-12.8-7.7q-5.4-3.2-10.7-6.1c-4.4-2.6-8.7-5-12.8-7.3-3.9-2.1-7.6-4.1-11.1-5.9-4.6-2.5-8.7-4.5-12.1-6.2q-0.9-0.4-1.8-0.9c-3.8-1.9-7.7-4.1-11.7-6.7-4.4-2.8-9-5.9-13.5-9.4-3.7-2.7-7.3-5.7-10.9-8.9-4.3-3.7-8.5-7.7-12.4-11.9-3.4-3.6-6.6-7.3-9.7-11.1-3.7-4.7-7.2-9.6-10.2-14.6-2.7-4.4-5-8.8-6.9-13.4q-2.5-5.5-4.1-11.2-0.7-2.8-1.4-5.9-0.9-4.9-1.5-10.3v-38.3c0.4-5.7 1-11.4 1.7-17 0.7-5.1 1.4-10.1 2.1-14.9 1-6.3 2.1-12.3 3.1-18 1-5.4 2.1-10.5 3.1-15.3 1.3-6.3 2.6-11.9 3.7-16.6q0.2-1 0.4-2.1c0.7-4.3 1-10.4 1.1-17.9 0.1-7.2 0-15.6-0.4-24.8-0.2-7.6-0.6-15.8-1.1-24.2-0.7-11.3-1.5-23.1-2.4-34.8-0.9-12.3-1.9-24.4-2.9-35.7-2.4-27.4-4.6-49.4-5.3-55.6v-0.1c-0.1-1 0.5-1.9 1.5-2.3 6.3-2.2 14.4-4.2 23.7-6.1 9.5-1.8 20.2-3.5 31.5-5 8.3-1 16.9-2 25.5-2.9 9.9-1 19.9-1.9 29.6-2.6 8.3-0.7 16.3-1.3 24-1.8 10.2-0.6 19.8-1.2 28.2-1.6 9.2-0.5 17.1-0.8 23.2-1.1 7.9-0.3 12.7-0.5 13.3-0.5h0.1q0.3 0 2 0.1z"/>
<path class="s0" d="m347.5 281.8c0 39.8-32.3 72-72 72-39.8 0-72-32.2-72-72 0-39.7 32.2-72 72-72 39.7 0 72 32.3 72 72z"/>
<path class="s3" d="m276.1 5.2c1 0.1 6.2 0.2 14.2 0.6 5.3 0.2 13.4 0.5 23.1 1s19.2 1.1 28.2 1.7c8.3 0.6 16.3 1.1 23.9 1.7 10.1 0.9 20.1 1.8 29.6 2.7 8.8 0.9 17.4 1.9 25.4 3 12 1.6 22.6 3.3 31.3 5 7.7 1.6 14.3 3.2 19.5 4.9q0 0.4-0.1 0.8c-1.8 18.2-3.6 37.2-5.1 54.9-1.1 12.5-2.1 24.4-2.9 35.4-0.9 12.2-1.7 23.8-2.3 34.5-0.5 9.3-0.9 17.2-1.1 24.1-0.4 9.7-0.5 18.1-0.4 25 0.2 8.2 0.6 14.2 1.4 18.5q0.2 0.7 0.3 1.4c1.4 6 2.6 11.7 3.9 17.4 1 5.2 2 10.1 2.9 15 1.2 6.1 2.2 12.1 3.1 17.9 0.8 5 1.5 10 2.1 14.7 0.7 6 1.3 11.9 1.7 17.7 0.4 5 0.6 9.9 0.7 14.6 0.1 6.4-0.1 12.5-0.5 18-0.4 5.1-1.1 9.9-2 14.2-0.4 1.6-0.7 3-1.1 4.4-1.1 3.8-2.5 7.7-4.3 11.6-1.8 4.2-4.1 8.5-6.7 12.7-2.9 4.7-6.3 9.4-10 14-2.9 3.6-6.1 7.2-9.5 10.7-3.8 4-7.9 7.9-12.2 11.6-3.4 3-7 5.9-10.6 8.6-4.3 3.2-8.8 6.3-13.2 9-3.8 2.4-7.6 4.5-11.3 6.3l-0.2 0.1q-0.2 0.1-0.3 0.2l-0.3 0.1c-3.7 1.8-8.3 4.2-13.2 6.8-3.5 1.8-7.2 3.9-11.1 6-4.4 2.4-8.7 4.9-12.9 7.3-4 2.2-7.4 4.3-10.6 6.2-4.5 2.6-8.8 5.2-12.9 7.7-4 2.5-7.6 4.8-11 6.9-4.9 3.2-9.5 6.2-13.8 9.2-4.5 3.1-8.7 6.1-12.3 8.9-7 5.2-12.5 9.9-16.4 14q-0.9 0.9-1.6 1.7c-0.4 0.4-0.9 0.6-1.5 0.6-0.5 0-1.1-0.2-1.5-0.6q-1.2-1.4-2.8-2.9c-4-4-9.5-8.6-16.2-13.7-3.8-2.8-7.9-5.7-12.2-8.7-4.2-2.9-8.9-5.9-13.8-9.1-3.4-2.2-7.1-4.5-10.9-6.8-4.3-2.6-8.6-5.3-12.9-7.8-3.4-2-6.9-4-10.7-6.2-4.8-2.7-9-5.1-12.9-7.2-4.2-2.3-7.8-4.3-11.1-6-4.5-2.4-8.7-4.6-12.3-6.3q-0.8-0.4-1.7-0.8-5.6-2.9-11.3-6.5c-4.4-2.7-8.8-5.8-13.2-9.1-3.5-2.7-7.1-5.6-10.6-8.7-4.3-3.8-8.4-7.7-12.1-11.7-3.3-3.4-6.5-7-9.4-10.7-3.7-4.7-7-9.4-9.9-14.1-2.5-4.3-4.8-8.6-6.6-12.7-1.5-3.6-2.8-7.2-3.7-10.6q-0.8-2.6-1.4-5.6c-0.8-4.3-1.5-9.1-1.8-14.2-0.4-5.3-0.6-11.2-0.4-17.5 0.1-4.6 0.3-9.5 0.7-14.7 0.4-5.7 1-11.7 1.8-17.6 0.6-5.1 1.3-10 2.1-14.8 0.9-5.7 1.9-11.5 3-17.8 1-4.9 2-10 3.1-15.1 1.3-6.6 2.6-12.3 3.6-16.6q0.3-1 0.5-2.4c0.7-4.3 1.1-10.4 1.2-18.6 0.1-7 0-15.4-0.4-25.1-0.2-7.3-0.6-15.4-1.1-24.3-0.6-10.5-1.4-22.2-2.4-34.8-0.8-11.4-1.8-23.4-2.9-35.8-2-22.7-3.9-42-4.9-51.9-0.1-1 0.5-1.9 1.4-2.2 5.3-1.6 11.8-3.2 19.4-4.6 8.8-1.8 19.3-3.5 31.2-5 8.1-1 16.6-2 25.3-2.9 9.3-0.9 19.2-1.8 29.5-2.6 7.3-0.6 14.9-1.2 24-1.8 9.5-0.6 19-1.1 28.1-1.6 7.6-0.4 15.2-0.8 23.1-1.1 7.3-0.3 12.1-0.4 13.1-0.5t0.1 0zm-13 5.5c-7.9 0.3-15.5 0.7-23 1.1-9.2 0.4-18.6 1-28.1 1.6-9 0.6-16.6 1.2-23.9 1.7-10.3 0.9-20.1 1.7-29.4 2.7-8.7 0.8-17.1 1.8-25.2 2.9-11.7 1.5-22.1 3.1-30.9 4.9-6.3 1.2-11.8 2.5-16.5 3.8 1 10.3 2.8 28.5 4.7 49.5 1.1 12.4 2.1 24.5 2.9 35.9 1 12.7 1.8 24.4 2.4 34.9 0.5 8.9 0.9 17.1 1.1 24.4 0.4 9.8 0.5 18.3 0.4 25.4-0.1 8.4-0.5 14.7-1.3 19.3q-0.2 1.5-0.5 2.8c-1 4.2-2.3 9.9-3.6 16.4-1.1 5.1-2.1 10.1-3 15-1.2 6.2-2.2 12-3.1 17.7-0.7 4.7-1.4 9.6-2.1 14.6-0.7 5.9-1.3 11.7-1.7 17.4-0.4 5.1-0.6 9.9-0.7 14.4-0.2 6.1 0 11.8 0.3 17 0.4 4.9 1 9.5 1.8 13.6 0.4 1.8 0.8 3.6 1.3 5.2 0.9 3.3 2.1 6.6 3.5 10 1.7 3.9 3.9 8 6.3 12.1 2.7 4.5 6 9.1 9.6 13.6 2.8 3.5 5.8 7 9 10.4 3.7 3.8 7.6 7.7 11.8 11.3 3.4 3 6.9 5.9 10.3 8.5 4.3 3.2 8.6 6.2 12.8 8.9 3.7 2.3 7.4 4.4 11 6.2t0.1 0q0.7 0.4 1.5 0.8c3.6 1.8 7.9 4 12.4 6.3 3.4 1.8 7 3.8 11.2 6.1 3.9 2.1 8.2 4.5 13 7.3 3.8 2.2 7.3 4.2 10.7 6.2 4.3 2.6 8.7 5.2 13 7.8 3.8 2.4 7.5 4.7 11 6.9 5 3.2 9.7 6.3 13.9 9.2 4.4 3 8.6 6 12.4 8.8 6.9 5.2 12.6 10 16.7 14.1q0.4 0.4 0.8 0.8c4.1-4.2 9.6-8.9 16.5-14 3.7-2.9 7.9-5.9 12.4-9 4.4-3 9.1-6.1 14-9.3 3.4-2.1 7-4.4 11-6.9 4.2-2.6 8.5-5.2 13-7.8 3.3-2 6.8-4 10.7-6.3 4.2-2.4 8.5-4.8 13-7.3 3.9-2.1 7.6-4.2 11.1-6 5-2.7 9.6-5 13.4-6.9l0.3-0.1 0.4-0.2t0.1 0c3.5-1.8 7.2-3.9 10.9-6.1 4.3-2.7 8.6-5.7 12.8-8.8 3.5-2.7 7-5.5 10.4-8.4 4.1-3.6 8.1-7.4 11.8-11.3 3.3-3.4 6.4-6.9 9.2-10.3 3.6-4.5 6.8-9 9.6-13.5 2.5-4.1 4.7-8.1 6.5-12.1 1.6-3.7 3-7.4 4-11 0.3-1.3 0.7-2.6 1-4.1 0.9-4 1.5-8.6 1.9-13.5 0.4-5.4 0.6-11.2 0.5-17.5-0.1-4.6-0.3-9.4-0.7-14.4-0.4-5.6-1-11.5-1.7-17.4-0.6-4.7-1.3-9.6-2-14.6-0.9-5.7-1.9-11.6-3.1-17.6-0.9-4.9-1.9-9.8-2.9-15-1.2-5.7-2.5-11.3-3.9-17.3-0.1-0.5-0.2-1-0.3-1.6-0.8-4.5-1.3-10.9-1.5-19.4-0.1-6.9 0-15.4 0.4-25.2 0.2-6.9 0.6-14.9 1.1-24.1 0.6-10.8 1.4-22.4 2.3-34.6 0.8-11.1 1.8-23 2.9-35.5 1.4-16.7 3.1-34.5 4.8-51.7-4.3-1.2-9.4-2.4-15.1-3.6-8.6-1.7-19-3.4-30.9-5-8-1-16.5-2-25.3-2.9-9.5-1-19.4-1.9-29.5-2.7-7.6-0.6-15.6-1.2-23.8-1.7-9-0.6-18.5-1.2-28.1-1.7-9.8-0.5-17.9-0.8-23.1-1.1-7.3-0.3-12.2-0.4-14.1-0.5-1.4 0.1-6 0.2-12.9 0.5zm13-0.5z" fill-rule="evenodd"/>
<path class="s4" d="m451.2 368.4c-22.7 31.8-38 43.4-89.6 71-54.5 29-78.2 48.7-85.6 58.4v-372.5h23.5v15.3h38.3q-1.8 16.4-1.3 22-20.9-3.8-37-3.3l14.3 244.3q99.6-3.6 123.8-52.6-7.7 1.8-17.2 1.7 27.2-21 40.2-46.5 10.3 34.5-9.4 62.2z"/>
<path class="s3" d="m276 125.3v372.5c-7.4-9.7-31.1-29.4-85.5-58.4-51.7-27.6-67-39.2-89.6-71q-19.7-27.7-9.5-62.2 13 25.5 40.2 46.5-9.4 0.1-17.2-1.7 24.3 49 123.8 52.6l14.3-244.3q-16.1-0.5-37 3.3 0.5-5.6-1.3-22h38.3v-15.3z"/>
<path class="s4" d="m333.5 77.6c0 31.7-25.7 57.4-57.5 57.4v-114.9c31.8 0 57.5 25.7 57.5 57.5z"/>
<path class="s3" d="m276 20.1v114.9c-31.7 0-57.4-25.7-57.4-57.4 0-31.8 25.7-57.5 57.4-57.5z"/>
<path class="s2" d="m310.7 91.4c4.8 9.2 2.1 20.7-6.4 26.8-3.6 2.7-7.9 4.1-12.4 4.1-5.4 0-10.7-2.1-14.6-5.8-4 3.9-9.5 6.2-15.1 6.2-4.5 0-8.8-1.4-12.5-4-8.3-6.1-11.1-17.1-6.7-26.3-9.2-4.7-13.8-15.6-10.6-25.5 2.9-8.8 11-14.7 20.2-14.7q1.4 0 2.8 0.2c1.6-10.3 10.5-18 20.9-18s19 7.3 20.9 17.4q1.7-0.3 3.4-0.3c9.2 0 17.3 5.9 20.2 14.7 3.2 9.8-1.1 20.3-10.1 25.2z"/>
<path class="s2" d="m310.7 90.4c4.8 9.2 2.1 20.7-6.4 26.8-3.6 2.7-7.9 4.1-12.4 4.1-5.4 0-10.7-2.1-14.6-5.8-4 3.9-9.5 6.2-15.1 6.2-4.5 0-8.8-1.4-12.5-4-8.3-6.1-11.1-17.1-6.7-26.3-9.2-4.7-13.8-15.6-10.6-25.5 2.9-8.8 11-14.7 20.2-14.7q1.4 0 2.8 0.2c1.6-10.3 10.5-18 20.9-18s19 7.3 20.9 17.4q1.7-0.3 3.4-0.3c9.2 0 17.3 5.9 20.2 14.7 3.2 9.8-1.1 20.3-10.1 25.2z"/>
<path class="s2" d="m262.2 121.2c-4.4 0-8.6-1.4-12.2-3.9-8.3-6.1-10.9-17.1-6.3-26.2-9.3-4.4-14-15.2-10.8-25.1 2.8-8.5 10.7-14.3 19.7-14.3q1.6 0 3.2 0.2c1.3-10.1 10.2-18 20.5-18s18.9 7.4 20.5 17.4q1.9-0.3 3.8-0.3c9 0 16.9 5.7 19.7 14.3 3.2 9.8-1.2 20.2-10.2 24.9 4.9 9 2.3 20.5-6.1 26.6-3.5 2.6-7.7 4-12.1 4-5.5 0-10.8-2.2-14.7-6-3.9 4.1-9.3 6.4-15 6.4z"/>
<path class="s3" d="m308.7 89.7c5.3 8.7 3.1 20.2-5.3 26.3-8.2 6-19.5 4.7-26.2-2.7-6.6 7.8-18.2 9.3-26.6 3.2-8.2-6-10.5-17.2-5.5-25.8-9.4-3.9-14.4-14.5-11.2-24.3 3.1-9.7 13-15.3 22.8-13.3 0.8-10.1 9.3-18.2 19.6-18.2 10.2 0 18.6 7.7 19.7 17.6 9.9-2.3 20.1 3.3 23.3 13.1 3.2 9.7-1.6 20.1-10.6 24.1z"/>
<path class="s3" d="m308.7 89.7c5.3 8.7 3.1 20.2-5.3 26.3-8.2 6-19.5 4.7-26.2-2.7-6.6 7.8-18.2 9.3-26.6 3.2-8.2-6-10.5-17.2-5.5-25.8-9.4-3.9-14.4-14.5-11.2-24.3 3.1-9.7 13-15.3 22.8-13.3 0.8-10.1 9.3-18.2 19.6-18.2 10.2 0 18.6 7.7 19.7 17.6 9.9-2.3 20.1 3.3 23.3 13.1 3.2 9.7-1.6 20.1-10.6 24.1z"/>
<path class="s2" d="m294.4 75.3c-3.1 0.5-6.1 1.4-7.8 2q0.3 1.2 0.3 2.6 0 1-0.2 2 1.8 0.4 3.6 1c2.5 0.9 4.7 2 6.6 3.3-2.3-0.2-4.8-0.7-7.2-1.6q-1.8-0.6-3.3-1.4c-0.7 1.9-1.8 3.4-3.2 4.6 1.1 1.5 2.9 4 5.1 6.2 1.6 1.6 4.1 1.9 6.1 0.8 5-2.7 9.7-3.8 11.5-1.4 4.7 6.5 3.3 15.6-4.2 21s-16.5 4-21.2-2.5c-1.8-2.4 0.7-6.6 4.8-10.5 1.7-1.5 2.1-4 1.1-6-1.4-2.8-3.2-5.3-4.3-6.8-1.1 0.7-2.5 1.2-3.9 1.5q0.1 1.2 0.1 2.4c-0.1 2.6-0.5 5.1-1.1 7.3-0.6-2.2-0.9-4.7-0.8-7.3q0-1.2 0.2-2.3c-2.1 0-3.9-0.6-5.5-1.6-1.1 1.5-2.9 4-4.3 6.8-1 2-0.6 4.5 1.1 6 4.1 3.9 6.6 8.1 4.8 10.5-4.7 6.5-13.7 7.9-21.2 2.5s-8.9-14.5-4.2-21c1.8-2.4 6.5-1.3 11.5 1.4 2 1.1 4.5 0.8 6.1-0.8 2.2-2.2 4.1-4.7 5.1-6.2-1.4-1.1-2.4-2.6-3.1-4.3q-0.7 0.3-1.5 0.6c-2.5 0.7-5 1.1-7.3 1.2 2-1.2 4.3-2.3 6.8-3q0.8-0.3 1.6-0.4-0.2-1-0.2-2 0-1.4 0.3-2.6c-1.7-0.6-4.7-1.5-7.8-2-2.2-0.3-4.4 0.9-5.4 2.9-2.4 5.1-5.6 8.8-8.5 7.9-7.6-2.5-11.7-10.6-8.9-19.4 2.9-8.8 11-13 18.6-10.5 2.9 0.9 3.3 5.8 2.3 11.4-0.4 2.2 0.6 4.5 2.7 5.5 2.7 1.4 5.7 2.4 7.4 3 0.8-2 2.2-3.7 4-4.9q-0.8-0.9-1.5-2c-1.5-2.1-2.7-4.4-3.4-6.6 1.7 1.6 3.4 3.4 4.9 5.6q0.8 1.1 1.4 2.2 1.7-0.7 3.6-0.8c0-1.8-0.1-5-0.6-8-0.3-2.3-2.1-4-4.4-4.3-5.6-0.7-10.1-2.6-10.1-5.6 0-8 6.5-14.5 15.7-14.5s15.7 6.5 15.7 14.5c0 3-4.5 4.9-10.1 5.6-2.3 0.3-4.1 2-4.4 4.3-0.5 3-0.6 6.2-0.5 8 2 0.1 3.9 0.8 5.5 2q0.9-1.6 2-3.1c1.6-2.1 3.4-3.9 5.2-5.3-0.9 2.2-2.1 4.3-3.7 6.4q-1.2 1.6-2.5 2.9c1.1 1 1.9 2.2 2.4 3.6 1.7-0.6 4.7-1.6 7.4-3 2.1-1 3.2-3.3 2.7-5.5-1-5.6-0.6-10.5 2.3-11.4 7.6-2.5 15.7 1.7 18.6 10.5 2.8 8.8-1.3 16.9-8.9 19.4-2.9 0.9-6.1-2.8-8.5-7.9-1-2-3.2-3.2-5.4-2.9z"/>
<path class="s3" d="m28.4 296q20.2-28 41.1-55.5-26.2-22.9-53.1-45.1c172.6-20.3 346.6-20.2 519.3 0.2q-22.2 22.7-43.8 46.1 16.2 27 31.6 54.5c-164.6-19.5-330.4-19.5-495.1-0.2z"/>
<path class="s0" d="m513 289.2c-157.1-17.7-315.2-17.8-472.3-0.4q18-24.7 36.7-49-23.2-20.5-46.9-40.4c163.9-18.1 328.9-18 492.8 0.5q-19.5 20.3-38.6 41 14.4 24 28.3 48.3z"/>
<path class="s3" d="m181.1 231.3c-6.6 0.5-9.9 0.7-16.5 1.3-0.9 3.1-1.4 4.6-2.4 7.7-4.4 0.4-6.7 0.6-11.1 1q6.7-20.1 14-40c4.4-0.4 6.6-0.6 11-0.9q10.2 18.6 19.9 37.5c-4.5 0.3-6.8 0.4-11.4 0.7-1.4-2.9-2.1-4.4-3.5-7.3zm-3.8-7.8-6-12c-1.6 5.1-2.4 7.7-4.1 12.8 4.1-0.4 6.1-0.5 10.1-0.8z" fill-rule="evenodd"/>
<path class="s3" d="m196.9 199.1c4.5-0.3 6.8-0.4 11.3-0.6q0.9 19.3 1.9 38.6c-4.4 0.2-6.6 0.4-11 0.6q-1.1-19.3-2.2-38.6z"/>
<path class="s3" d="m312 197.2q-0.5 19.3-0.9 38.7c-4.4-0.1-6.6-0.2-11-0.3 0.1-6 0.2-9 0.3-15-6.1-0.1-9.1-0.2-15.1-0.2-0.1 6-0.1 9.1-0.1 15.1h-11q0-19.4-0.1-38.7h11.3c0 5.8-0.1 8.7-0.1 14.5 6.1 0.1 9.1 0.1 15.2 0.2 0.1-5.8 0.2-8.7 0.2-14.5 4.6 0 6.8 0.1 11.3 0.2z"/>
<path class="s3" d="m317.8 216.3c0.3-10.9 10.9-19.9 22.3-18.9 10.5 0.8 21.2 9.4 20.5 20.8-0.6 11.1-11.8 18.6-22.2 18.6-11.3-0.1-20.9-9.8-20.6-20.5zm31.8 1.3c0.4-6.6-4-11.1-9.9-11.4-5.9-0.2-10.6 3.9-10.9 10.5-0.2 6.5 4.2 10.9 10 11.2 5.7 0.2 10.5-3.8 10.8-10.3z" fill-rule="evenodd"/>
<path class="s3" d="m405.9 202.5q-1.8 19.3-3.5 38.5c-3.6-0.3-5.4-0.4-9-0.7q-7.7-11.1-15.6-21.9c-0.6 8.2-0.9 12.3-1.4 20.5-4.3-0.3-6.5-0.4-10.8-0.7q1.2-19.3 2.5-38.6c3.7 0.3 5.5 0.4 9.2 0.6q8.1 10.9 15.9 21.9c0.7-8.2 1-12.3 1.7-20.5 4.4 0.3 6.6 0.5 11 0.9z"/>
<path class="s3" d="m144.4 203.1q1.8 19.2 3.6 38.5c-4.4 0.4-6.6 0.6-10.9 1-0.7-6-1-9-1.6-15-6 0.6-9 1-15 1.6 0.7 6 1 9 1.7 15-4.4 0.5-6.6 0.8-10.9 1.3q-2-16.2-4-32.5c-3.3-2-5.1-3-8.5-4.9 3.1-0.4 4.7-0.6 7.8-1 4.5-0.5 6.8-0.8 11.2-1.3 0.7 5.8 1 8.7 1.7 14.4 6-0.7 9.1-1 15.1-1.6-0.6-5.8-0.9-8.7-1.5-14.4 4.5-0.5 6.8-0.7 11.3-1.1z"/>
<path class="s3" d="m268.7 211.1c0.1 9.4-8.6 14.7-17.2 14.5-2.7 0.1-4.1 0.1-6.8 0.2 0.1 4 0.1 6 0.2 10.1-4.3 0.1-6.5 0.1-10.9 0.3q-0.5-16.4-1.1-32.7c-3.2-2.3-4.8-3.5-8-5.7 3.1-0.1 4.7-0.2 7.9-0.3 7.2-0.2 10.9-0.3 18.2-0.5 8.6-0.5 17.7 4.6 17.7 14.1zm-11.2 0.2c-0.1-3.6-2.4-5.7-7.1-5.6-2.4 0-3.7 0.1-6.2 0.1 0.1 4.5 0.2 6.8 0.3 11.3 2.5 0 3.7 0 6.2-0.1 4.6-0.1 6.8-2.2 6.8-5.7z" fill-rule="evenodd"/>
<path class="s3" d="m455 226-8.5 5c-0.4 3.8-0.7 5.7-1.1 9.6-4.8 2.6-11.1 3.4-16.4 2.9-11-0.9-20-11-19-21.6 1-11 12.3-18.9 23.5-17.4 7 1 12.8 3.9 16.1 8.8-3.1 2.1-4.6 3.2-7.7 5.3-2.3-3.2-5.2-4.8-8.8-5.3-6.7-0.7-11.5 3.1-12.2 9.6-0.6 6.4 3.3 11.2 9.7 11.9 2 0.2 3.9 0.1 5.9-0.6 0.5-4.1 0.7-6.2 1.2-10.3 3.8 0.5 5.7 0.7 9.6 1.1 3 0.4 4.6 0.6 7.7 1z"/>
<path class="s3" d="m93.8 269.1-0.2-1.7c19.8-2.3 39.5-4.2 58.8-5.7l0.1 1.7c-19.2 1.5-39 3.4-58.7 5.7z"/>
<path class="s3" d="m460 269.1c-19.7-2.3-39.5-4.2-58.7-5.7l0.1-1.7c19.3 1.5 39 3.4 58.8 5.7z"/>
<path class="s3" d="m172 258.9c0.1 1 0.2 1.6 0.3 2.6-1.6 0.2-2.4 0.2-3.9 0.4 0.3 3.9 0.5 5.9 0.9 9.9-1.2 0.1-1.8 0.2-2.9 0.3-0.9-8.8-1.3-13.1-2.1-21.9 3-0.3 4.4-0.4 7.4-0.7 0.1 1.1 0.1 1.6 0.2 2.7-1.7 0.1-2.6 0.2-4.4 0.4 0.3 2.6 0.4 4 0.6 6.6 1.6-0.1 2.4-0.2 3.9-0.3z"/>
<path class="s3" d="m186.6 270.3q-3.5 0.3-3.8-3.4c-0.5-5.8-0.7-8.7-1.2-14.4q-0.3-3.8 3.3-4.1c1.2-0.1 1.7-0.1 2.9-0.2q3.6-0.2 3.8 3.5c0.5 5.8 0.7 8.7 1.1 14.4q0.2 3.8-3.3 4c-1.1 0.1-1.7 0.2-2.8 0.2zm0.5-2.7c0.6 0 0.9 0 1.5-0.1q1.2-0.1 1.1-1.4l-1-14q-0.1-1.3-1.5-1.2c-0.5 0.1-0.8 0.1-1.4 0.1q-1.3 0.1-1.2 1.4c0.5 5.6 0.7 8.4 1.1 14q0.1 1.3 1.4 1.2z" fill-rule="evenodd"/>
<path class="s3" d="m206.6 269q-3.6 0.2-3.8-3.5c-0.4-5.8-0.5-8.7-0.9-14.5q-0.2-3.7 3.3-4c1.2 0 1.8-0.1 2.9-0.1q3.6-0.2 3.8 3.5c0.3 5.8 0.5 8.7 0.8 14.5q0.2 3.7-3.4 3.9c-1.1 0.1-1.6 0.1-2.7 0.2zm0.5-2.7c0.6-0.1 0.9-0.1 1.5-0.1q1.2-0.1 1.1-1.4c-0.3-5.6-0.5-8.4-0.8-14q-0.1-1.3-1.4-1.2c-0.6 0-0.8 0-1.4 0.1q-1.3 0-1.2 1.3c0.3 5.6 0.5 8.4 0.8 14.1q0.1 1.2 1.4 1.2z" fill-rule="evenodd"/>
<path class="s3" d="m227 248.6c0.3 7.7 0.5 11.6 0.8 19.3-1.2 0-1.7 0.1-2.9 0.1-0.4-7.7-0.5-11.6-0.9-19.3-1.1 0.1-1.7 0.1-2.8 0.2-0.1-1.1-0.1-1.6-0.2-2.7 3.5-0.2 5.3-0.2 8.8-0.4 0 1.1 0 1.6 0.1 2.7-1.2 0-1.7 0-2.9 0.1z"/>
<path class="s3" d="m246.5 256q2.5 0.6 2.5 2.4c0.1 2.2 0.1 3.3 0.1 5.5q0.1 3.3-3.2 3.4c-2.4 0-3.6 0.1-5.9 0.1-0.3-8.7-0.4-13.1-0.7-21.9 2-0.1 3.1-0.1 5.1-0.2q4-0.1 4.1 3.9c0 1.7 0 2.5 0.1 4.2q0 1.9-2.1 2.4 0 0.1 0 0.2zm-4-1.3c0.6-0.1 0.9-0.1 1.4-0.1q1.7 0 1.7-1.6c0-1.4-0.1-2.1-0.1-3.4q0-1.6-1.4-1.6h-1.7c0 2.7 0.1 4 0.1 6.7zm0.3 10c0.9 0 1.4-0.1 2.2-0.1q1.2 0 1.2-1c-0.1-1.9-0.1-2.9-0.1-4.8q-0.1-1.6-1.8-1.5h-1.7c0.1 3 0.2 4.4 0.2 7.4z" fill-rule="evenodd"/>
<path class="s3" d="m262.1 266.9c-1.2 0.1-1.7 0.1-2.9 0.1-0.1-7.3-0.2-10.9-0.3-18.2q-0.1-3.8 3.5-3.8c0.9 0 1.4 0 2.3-0.1q3.6 0 3.6 3.8c0 7.3 0.1 10.9 0.1 18.2h-2.9c0-3.2-0.1-4.8-0.1-8h-3.4c0.1 3.2 0.1 4.8 0.1 8zm3.3-10.7c0-2.9-0.1-4.4-0.1-7.3q0-1.3-1.3-1.3h-0.8q-1.3 0-1.3 1.3c0 2.9 0 4.4 0.1 7.3h3.4z" fill-rule="evenodd"/>
<path class="s3" d="m285.7 266.9c-2.8 0-4.2 0-7-0.1v-21.9h3c0 7.7 0 11.6-0.1 19.3h4.1v2.7z"/>
<path class="s3" d="m302 267.1c-2.8 0-4.2-0.1-7-0.1 0.2-8.8 0.2-13.2 0.4-22 1.2 0 1.8 0 2.9 0.1-0.1 7.7-0.2 11.5-0.3 19.3h4.1c-0.1 1.1-0.1 1.6-0.1 2.7z"/>
<path class="s3" d="m332.9 263v1.4q-0.2 3.8-3.7 3.6c-0.8 0-1.2-0.1-1.9-0.1q-3.6-0.1-3.4-3.9c0.2-5.8 0.3-8.7 0.6-14.5q0.1-3.7 3.7-3.5h1.9q3.6 0.2 3.4 3.9c0 1 0 1.5-0.1 2.5-1.2 0-1.8-0.1-3-0.1 0.1-0.9 0.1-1.4 0.2-2.3q0-1.3-1.3-1.3c-0.3 0-0.4 0-0.6-0.1q-1.2 0-1.3 1.3l-0.5 14q-0.1 1.3 1.1 1.4h0.7q1.2 0.1 1.2-1.2c0-0.5 0.1-0.7 0.1-1.2 1.2 0 1.7 0.1 2.9 0.1z"/>
<path class="s3" d="m349.6 269.1c-2.8-0.2-4.2-0.3-7-0.4 0.5-8.8 0.8-13.2 1.3-22 1.1 0.1 1.7 0.1 2.9 0.2-0.4 7.7-0.6 11.6-1.1 19.3 1.6 0.1 2.5 0.1 4.1 0.2-0.1 1.1-0.1 1.6-0.2 2.7z"/>
<path class="s3" d="m370.2 248.5c-0.6 7.1-0.9 10.6-1.4 17.7q-0.3 4.2-3.9 3.9c-1-0.1-1.5-0.1-2.4-0.2q-3.6-0.2-3.3-4.4c0.5-7.1 0.8-10.6 1.3-17.7 1.2 0.1 1.8 0.1 2.9 0.2-0.5 7.1-0.7 10.7-1.2 17.8q-0.1 1.4 1.1 1.5c0.5 0.1 0.8 0.1 1.2 0.1q1.2 0.1 1.3-1.3c0.6-7.2 0.9-10.7 1.4-17.8 1.2 0 1.8 0.1 3 0.2z"/>
<path class="s3" d="m386.7 260.6q2.4 0.9 2.2 2.7l-0.5 5.5q-0.3 3.3-3.6 3c-2.4-0.2-3.6-0.4-5.9-0.6 0.7-8.7 1.1-13.1 1.9-21.8 2 0.1 3 0.2 5.1 0.4q3.9 0.4 3.6 4.3c-0.2 1.7-0.3 2.6-0.4 4.2q-0.2 1.9-2.4 2.2 0 0 0 0.1zm-3.8-1.7c0.6 0 0.9 0 1.4 0.1q1.7 0.1 1.9-1.5c0.1-1.3 0.1-2 0.3-3.4q0.1-1.6-1.2-1.7c-0.7 0-1.1-0.1-1.8-0.1-0.2 2.6-0.3 3.9-0.6 6.6zm-0.9 9.9c0.9 0.1 1.4 0.2 2.2 0.2q1.2 0.2 1.3-0.8c0.2-1.9 0.3-2.9 0.4-4.8q0.2-1.6-1.6-1.8c-0.6 0-1 0-1.6-0.1-0.3 2.9-0.4 4.4-0.7 7.3z" fill-rule="evenodd"/>
</svg>
