<?xml version="1.0" encoding="UTF-8"?>
<svg width="238" height="278" viewBox="0 0 665 776" xmlns="http://www.w3.org/2000/svg">
<defs>
<clipPath id="a">
<path d="m-20 0h705v776h-705z"/>
</clipPath>
</defs>
<style>tspan { white-space:pre }
		.shp0 { fill: #ffffff } 
		.shp1 { fill: #d9212e } 
		.shp2 { fill: #0a1c66 } 
		.shp3 { fill: #fed631 } 
		.shp4 { fill: #fcd431 } 
		.shp5 { fill: #0c1e66 } 
		.shp6 { fill: #fbd431 } 
		.shp7 { fill: #0b1d67 } 
		.shp8 { fill: #6195d5 } 
		.shp9 { fill: #1c3b6b } 
		.shp10 { fill: #d90326 } 
		.shp11 { fill: #f29e9e } 
		.shp12 { fill: #081752 } 
		.shp13 { fill: #4f78ab } 
		.shp14 { fill: #cccccc } 
		.shp15 { fill: #af1515 } 
		.shp16 { fill: #e63838 }</style>
<g clip-path="url(#a)">
<path class="shp0" d="m68.74 49.66v362.14h527.42v-362.14s-144.62 111.43-263.96-33.43c0 0-88.89 125.91-263.46 33.43z"/>
<path class="shp1" d="m95.79 531.37s28.19 179.37 236.1 224.71c0 0 224.56-58.75 237.23-224.71h-473.33z"/>
<path class="shp2" d="m55.31 510.1v-483.54l34.74 14.56c34.77 14.58 68.21 21.97 99.39 21.97 29.69 0 57.89-6.63 83.82-19.7 15.54-7.84 29.92-17.46 42.75-28.61l16.44-14.3 16.44 14.3c12.83 11.15 27.22 20.77 42.76 28.61 25.92 13.07 54.12 19.7 83.81 19.7 31.18 0 64.62-7.39 99.39-21.97l34.75-14.56v483.54c0 48.17-30.3 105.51-83.12 157.33-52.71 51.7-121.26 90.75-188.07 107.11l-5.96 1.46-5.96-1.46c-66.8-16.36-135.35-55.41-188.07-107.11-52.82-51.82-83.11-109.16-83.11-157.33zm25.06 0c0 84.64 117.58 207.15 252.08 240.1 134.5-32.95 252.09-155.46 252.09-240.1v-445.87c-37.92 15.9-74.43 23.91-109.08 23.91-33.64 0-65.64-7.52-95.09-22.37-16.61-8.37-32.99-19.11-47.92-32.08-14.92 12.97-31.31 23.71-47.91 32.08-29.46 14.85-61.45 22.37-95.1 22.37-34.64 0-71.16-8.01-109.07-23.91v445.87z" fill-rule="evenodd"/>
<path class="shp3" d="m80.44 510.1-0.15-445.87c37.92 15.89 74.58 23.91 109.23 23.91 33.64 0 65.64-7.52 95.09-22.38 16.6-8.36 32.84-19.1 47.77-32.08 14.92 12.98 31.46 23.72 48.07 32.08 29.45 14.86 61.44 22.38 95.09 22.38 34.65 0 71.01-8.02 108.92-23.91l0.15 445.87c0 84.64-117.58 207.15-252.08 240.1-134.5-32.95-252.09-155.46-252.09-240.1zm11.14 0c0 37.94 27.01 87.1 72.27 131.48 47.51 46.61 108.84 81.9 168.68 97.14 59.84-15.24 121.17-50.53 168.68-97.14 45.25-44.38 72.27-93.54 72.27-131.48v-429.52c-33.8 12.42-66.68 18.7-97.94 18.7-35.41 0-69.09-7.93-100.11-23.57-15.34-7.73-29.73-16.97-42.9-27.52-13.17 10.55-27.57 19.79-42.9 27.52-31.03 15.64-64.71 23.57-100.11 23.57-31.27 0-64.14-6.28-97.94-18.7v429.52z" fill-rule="evenodd"/>
<path class="shp1" d="m674.73 262.37-36-48.08 36.07-47.56h-684.63l36 48.08-36.06 47.56h684.62z"/>
<path class="shp0" d="m-9.66 253.25 29.16-38.45-29.19-38.99-10.18-13.59h704.78l-10.35 13.63-29.15 38.45 29.19 38.99 10.17 13.59h-704.77l10.34-13.63zm9.87 4.61h664.48l-32.63-43.59 32.63-43.03h-664.48l32.64 43.58-32.64 43.04z" fill-rule="evenodd"/>
<path class="shp4" d="m341.18 638.15h-18.04s-43.92 34.57-12.26 106.27l20.99 8.94 19.56-7.63s37.24-55.03-10.25-107.58z"/>
<path class="shp5" d="m329.05 641.94s-48.44 32.38-6.24 107.84l-16.45-6.71s-37.96-59.9 13.58-108.03l9.11 6.9z"/>
<path class="shp2" d="m336.18 641.94s48.43 32.38 6.24 107.84l16.05-6.08s38.36-60.53-13.18-108.66l-9.11 6.9z"/>
<path class="shp6" d="m305.81 607.44-89.42 89.66 18.84 12.51s76.58-37.61 70.58-102.17z"/>
<path class="shp5" d="m322.33 580.61s4.79 80.37-76.81 137.44l-12.6-7.56s54.71-20.6 72.37-98.27c0 0-36.28 53.35-91.81 86.93l-10.45-7.52s43.07-27.46 60.03-47.84c0 0-75.34 65.77-136.29-12.95 0 0 100.21 22.55 195.56-50.23z"/>
<path class="shp6" d="m160.09 646.64s60.88 1.13 103.3-19.52c0 0-49.84 53.68-103.3 19.52zm199-39.2 89.43 89.66-18.85 12.51s-76.57-37.61-70.58-102.17z"/>
<path class="shp5" d="m342.58 580.61s-4.8 80.37 76.81 137.44l12.6-7.56s-54.72-20.6-72.37-98.27c0 0 36.28 53.35 91.81 86.93l10.44-7.52s-43.06-27.46-60.02-47.84c0 0 75.34 65.77 136.29-12.95 0 0-100.22 22.55-195.56-50.23z"/>
<path class="shp6" d="m504.82 646.64s-60.88 1.13-103.31-19.52c0 0 49.84 53.68 103.31 19.52z"/>
<path class="shp7" d="m107.58 418.12-4.91 107.44 267.37 24-20.99-122.89-121.57-147.35-119.9 138.8z"/>
<path class="shp8" d="m120.97 511.57 2.92-88.12 103.55-119.49 104.23 125.55 18.89 102.11-229.59-20.05z"/>
<path class="shp7" d="m319.26 414.77-4.91 107.44 247.89 13.92-1.51-112.81-121.57-147.35-119.9 138.8z"/>
<path class="shp8" d="m332.65 508.22 2.92-88.12 103.55-119.49 104.23 125.55 18.88 102.11-229.58-20.05z"/>
<path class="shp7" d="m215.58 404.69-4.91 107.44 267.37 24-20.99-122.89-121.57-147.35-119.9 138.8z"/>
<path class="shp8" d="m228.97 498.14 2.92-88.12 103.55-119.49 104.23 125.55 18.89 102.11-229.59-20.05z"/>
<path class="shp2" d="m283.35 458.11c-1.43-0.62-2.86-1.23-4.25-1.81-1.3-0.79-2.68-1.37-4.13-1.73-6.02-2.49-11.62-4.79-16.45-7.1-4.05-1.94-7.57-3.88-10.45-5.86-2.15-1.49-3.95-2.98-5.42-4.5-2.21-2.31-3.75-4.62-4.91-7.6-1.06-2.73-1.77-6.19-1.9-10.78 0.37-0.16 0.71-0.27 1.09-0.45 2.88-1.36 6.22-3.4 9.21-7.02 1.47-1.8 2.79-4.01 3.68-6.48 0.9-2.47 1.36-5.18 1.36-7.8 0-3-0.56-5.88-1.47-8.56-0.34-1.03-0.68-1.77-1.22-2.71-1.63-2.81-3.5-5.14-5.49-7.32-3.75-4.06-8-7.63-12.73-11.42-8.26-6.58-18.01-13.69-28.13-22.24-15.18-12.82-31.02-28.71-43.07-49.66-6.02-10.48-11.13-22.24-14.75-35.66-3.63-13.42-5.78-28.51-5.78-45.7 0-12.28 1.1-25.63 3.58-40.17 1.09-6.43-2.13-12.87-7.92-15.85-5.8-2.98-12.91-1.86-17.5 2.77-0.69 0.71-9 9.16-17.36 24.2-4.18 7.52-8.36 16.7-11.51 27.38-0.48 1.62-0.93 3.29-1.35 4.98-1.97-1.73-4.39-2.99-7.11-3.51-6.4-1.21-12.82 1.83-15.94 7.55-0.36 0.66-3.52 6.54-6.64 16.36s-6.21 23.6-6.22 39.99c0 0.85 0.02 1.72 0.04 2.58-3.01-2.35-6.87-3.54-10.84-3.12-6.44 0.69-11.73 5.47-13.07 11.8-0.17 0.8-1.62 7.94-1.63 19.12 0 8.94 0.94 20.49 4.33 33.38 0.39 1.49 0.82 3 1.28 4.53-3.06-0.76-6.37-0.56-9.44 0.74-6 2.54-9.66 8.63-9.08 15.13 0.07 0.84 0.82 8.54 4.39 19.84 2.68 8.48 6.96 19 13.83 30.08 1.18 1.9 2.44 3.83 3.78 5.76-2.68 0.4-5.27 1.49-7.45 3.34-5.01 4.24-6.68 11.19-4.14 17.24 0.27 0.65 2.44 5.69 7.11 13.02 6.47 10.12 17.82 24.69 35.72 37.56-2.26 1.32-4.2 3.2-5.54 5.6-3.21 5.78-2.26 12.97 2.34 17.72 0.73 0.75 9.82 10.03 26.44 19.34 8.31 4.64 18.51 9.28 30.47 12.77 1.68 0.49 3.4 0.95 5.15 1.39l-0.07 0.21c-1.33 6.19 1.36 12.54 6.74 15.89 15.55 9.67 30.22 16.37 44.1 20.64 13.87 4.27 26.94 6.09 39.07 6.08 4.95 0 9.71-0.31 14.32-0.85-0.52 0.74 26.95-5.48 26.44-4.76l9.75-22.96c-30.2 13.23-69.88 21.9-125.76-12.86 53.61-7.09 90.56-24.7 116.84-45.97-110.91 72.84-182.72-1.33-182.72-1.33 58.58 12.72 102.82 6.19 136.84-7.83-133.4 33.92-173.42-61.44-173.42-61.44 64.51 40.79 118.61 43.31 161.22 34.4-160.42 7.84-170.52-106.19-170.52-106.19 47.16 54.55 95.96 72.64 138.18 76.75-146.85-36.74-123.91-145.22-123.91-145.22 32.02 71.32 78.84 100.85 121.29 114.32-142.5-74.45-86.06-177.85-86.06-177.85 11.06 87.17 55.86 127.86 97.03 150.62-137.8-115.6-46.28-207.84-46.28-207.84-26.35 154.72 92.74 195.44 108.16 222.18 4.4 13.06-13.93 13.56-13.93 13.56-5.58 41.2 20.01 50.17 49.75 62.52v-0.21l0.39 0.38c5.05 2.1 10.21 4.3 15.36 6.78l4.91 1.42m113.66-61.99c-7.92-17.29-33.66-28.63-47.52-30.97-13.87-2.34-28.99-7.92-37.09-14.05-8.1-6.14-17.82-15.83-18 2.35s17.1 33.85 17.1 33.85c-26.28 16.56-35.64 50.04-37.08 53.64l2.2 6.28c-1.97 7.24-2.39 12.12-2.2 12.58h96.74c3.2 4.32 0-4.13 0-4.13l1.73-14.73c-16.74-27.36 1.98-33.48 13.86-27.72s18.18 0.18 10.26-17.1zm-25.85 59.64c4.5-2.11 9-4.02 13.41-5.86l0.38-0.37v0.21c29.74-12.35 55.34-21.32 49.75-62.52 0 0-18.33-0.5-13.93-13.56 15.43-26.74 134.51-67.46 108.16-222.18 0 0 91.52 92.24-46.27 207.84 41.17-22.76 85.97-63.45 97.03-150.62 0 0 56.44 103.4-86.07 177.85 42.46-13.47 89.27-43 121.29-114.32 0 0 22.95 108.48-123.9 145.22 42.22-4.11 91.02-22.2 138.18-76.75 0 0-10.11 114.03-170.52 106.19 42.61 8.91 96.7 6.39 161.21-34.4 0 0-40.01 95.36-173.42 61.44 34.02 14.03 78.27 20.55 136.85 7.83 0 0-71.81 74.17-182.73 1.33 26.29 21.27 63.23 38.88 116.85 45.97-48.49 30.16-84.77 27.62-113.25 17.78l0.45 20.1c3.01 0.24 34.4 3.55 37.54 3.55 12.14 0.01 25.21-1.81 39.08-6.09 13.88-4.26 28.55-10.96 44.09-20.63 5.39-3.35 8.08-9.7 6.74-15.89l-0.06-0.21c1.74-0.44 3.47-0.9 5.14-1.39 17.95-5.23 31.92-13.05 41.51-19.61 9.6-6.58 14.86-11.93 15.41-12.5 4.6-4.75 5.54-11.94 2.33-17.71-1.33-2.41-3.28-4.29-5.54-5.61 1.76-1.27 3.48-2.55 5.12-3.84 13.49-10.67 22.76-22.05 28.73-30.88 5.98-8.83 8.68-15.13 8.98-15.85 2.54-6.06 0.87-13.01-4.14-17.25-2.18-1.85-4.77-2.94-7.45-3.34 7.82-11.28 12.88-22.28 16.14-31.43 4.86-13.68 5.78-23.31 5.87-24.25 0.57-6.5-3.09-12.59-9.09-15.13-3.06-1.3-6.37-1.5-9.43-0.74 4.43-14.7 5.6-27.93 5.6-37.91 0-11.18-1.46-18.32-1.62-19.11-1.34-6.34-6.63-11.12-13.07-11.81-3.98-0.42-7.85 0.78-10.86 3.14 0.01-0.86 0.05-1.74 0.05-2.6 0-16.39-3.09-30.17-6.21-39.99-3.13-9.81-6.28-15.7-6.64-16.36-3.13-5.72-9.54-8.76-15.94-7.55-2.72 0.52-5.14 1.78-7.11 3.51-0.43-1.69-0.87-3.36-1.35-4.98-4.74-16.02-11.77-28.66-17.65-37.41-5.91-8.75-10.7-13.64-11.22-14.17-4.59-4.62-11.7-5.75-17.5-2.77-5.8 2.99-9.02 9.42-7.92 15.85 2.47 14.54 3.58 27.89 3.58 40.16-0.02 27.96-5.65 50.35-14.18 69.03-6.41 14.01-14.5 25.93-23.31 36.32-13.21 15.58-28.04 27.61-41.01 37.65-6.5 5.03-12.52 9.55-17.8 14.02-2.65 2.24-5.12 4.47-7.41 6.86-2.27 2.41-4.41 4.97-6.24 8.13-0.55 0.94-0.88 1.68-1.22 2.71-0.91 2.68-1.47 5.55-1.47 8.56-0.01 3.12 0.64 6.34 1.89 9.15 1.09 2.46 2.57 4.58 4.15 6.28 2.79 2.98 5.75 4.73 8.37 5.95 0.33 0.14 0.62 0.24 0.94 0.38-0.15 5.54-1.17 9.35-2.6 12.37-1.17 2.43-2.66 4.47-4.73 6.5-3.06 3.04-7.55 5.99-13.38 8.89-5.28 2.64-11.6 5.24-18.47 8.09-1.42 0.36-2.78 0.92-4.05 1.69-1.77 0.74-3.55 1.49-5.38 2.28m-63.58 180-0.02 0.01h-0.02l0.04-0.01z"/>
<path class="shp3" d="m467.3 464.45c160.42 7.84 170.52-106.19 170.52-106.19-47.16 54.55-95.96 72.64-138.18 76.75 146.85-36.74 123.9-145.22 123.9-145.22-32.01 71.32-78.83 100.85-121.29 114.32 142.51-74.45 86.07-177.85 86.07-177.85-11.06 87.17-55.86 127.86-97.03 150.62 137.8-115.6 46.28-207.84 46.28-207.84 26.34 154.72-92.74 195.44-108.17 222.18-4.4 13.06 13.93 13.56 13.93 13.56 5.59 41.2-20.01 50.17-49.75 62.52v-0.21l-0.38 0.37c-4.41 1.84-8.91 3.75-13.41 5.86l-0.25-0.08 0.25-0.01c-4.77-5.24-20.69-24.52-14.84-40.87 7.02-19.62 30.6-13.51 30.6-13.51s-7.74-17.28-35.46-24.84c0 0-28.81-4.5-45.01-16.02 0 0-1.08 12.6 24.3 27.72 0 0-20.7 6.48-32.58 26.29 0 0-13.36 21.88-19.73 42.25-5.15-2.48-10.31-4.68-15.36-6.78l-0.39-0.38v0.21c-29.74-12.35-55.33-21.32-49.75-62.52 0 0 18.33-0.5 13.94-13.56-15.43-26.74-134.52-67.46-108.17-222.18 0 0-91.52 92.24 46.28 207.84-41.17-22.76-85.97-63.45-97.03-150.62 0 0-56.44 103.4 86.07 177.85-42.46-13.47-89.28-43-121.29-114.32 0 0-22.95 108.48 123.9 145.22-42.22-4.11-91.02-22.2-138.18-76.75 0 0 10.1 114.03 170.52 106.19-42.61 8.91-96.71 6.39-161.22-34.4 0 0 40.02 95.36 173.42 61.44-34.02 14.02-78.26 20.55-136.84 7.83 0 0 71.81 74.17 182.72 1.33-26.28 21.27-63.23 38.88-116.84 45.97 55.88 34.76 95.56 26.09 125.76 12.86h142.11l6.09 4.92c28.48 9.84 64.76 12.37 113.25-17.78-53.61-7.09-90.56-24.7-116.85-45.97 110.92 72.84 182.73-1.33 182.73-1.33-58.58 12.72-102.83 6.19-136.85-7.83 133.41 33.92 173.42-61.44 173.42-61.44-64.5 40.79-118.6 43.31-161.21 34.4z"/>
<path class="shp0" d="m350.91 656.87c41.55-10.28 66.9-52.3 56.62-93.86-10.28-41.55-52.3-66.9-93.86-56.62-41.55 10.28-66.9 52.31-56.62 93.86s52.3 66.9 93.86 56.62z"/>
<path class="shp9" d="m297.56 638.46c8.03 2.23 17.91 2.93 28.59 2 0.18-0.02 0.36-0.05 0.54-0.09 1.33-0.33 2.37-1.4 2.66-2.74 1.83-8.43 3.44-16.33 4.64-22.86 0.29-1.55-0.46-3.09-1.86-3.82-9.51-4.97-18.61-10.78-24.36-15.52-0.89-0.73-2.07-1.01-3.17-0.74-0.42 0.11-0.81 0.28-1.16 0.53-5.7 3.91-15.22 10.6-19.04 13.29-1.29 0.91-1.84 2.51-1.36 4 2.48 7.73 7.13 18.3 12.75 24.82 0.46 0.54 1.08 0.93 1.77 1.13zm-4.94-85.28c3.95 3.2 8.02 6.51 12.22 10 0.88 0.73 2.07 1 3.19 0.73 0.36-0.09 0.7-0.23 1.01-0.42 8.45-5.13 16.31-9.05 26.26-13.12 1.5-0.61 2.42-2.15 2.25-3.76-0.87-7.85-1.67-14.96-2.78-22.4-0.22-1.49-1.36-2.7-2.84-3.03-7.49-1.65-19.18-2.62-28.43-1.04l-0.27 0.05c-0.6 0.15-1.13 0.44-1.58 0.85-6.29 5.78-12.57 15.29-15.62 23.67-0.52 1.43-0.07 3.04 1.12 4.01 1.74 1.42 3.57 2.91 5.47 4.46zm69.54 47.08c5.69 2.62 13.91 6.53 19.98 9.5 0.76 0.37 1.63 0.46 2.46 0.26 0.74-0.18 1.4-0.59 1.89-1.17 6.57-7.82 11.28-15.48 14.38-23.41 0.32-0.8 0.33-1.69 0.05-2.51-3.29-9.53-6.28-16.68-11.82-24.99-0.84-1.26-2.39-1.87-3.85-1.5l-0.25 0.07c-6.61 2.14-17.07 5.89-21.26 7.4-1.46 0.53-2.41 1.94-2.36 3.51 0.34 10.08-0.06 19.34-1.27 29.13-0.2 1.57 0.63 3.06 2.05 3.71zm-97.27-39.09c-2.1-2.04-3.65-4.82-4.49-8.47-5.89 14.59-7.42 31.1-3.35 47.55 0.27 1.08 0.57 2.15 0.88 3.21 0.77-3.59 2.98-6.76 5.6-8.98 0.43-0.36 0.63-0.9 0.52-1.45-2.2-10.34-1.11-22.59 1.26-30.33 0.17-0.56 0-1.13-0.42-1.53zm92.88-45.77c7.74 3.05 18.07 8.88 25.49 16.51 0.35 0.35 0.85 0.47 1.33 0.35 2.61-0.71 4.93-0.51 8.19 0.92-10.52-13.12-25.06-22.48-41.27-26.65 2.58 2.06 4.53 4.57 5.47 7.97 0.11 0.41 0.39 0.74 0.79 0.9zm30.53 119.79c-2.94 0.71-6.01 0.61-8.45-0.35-0.42-0.17-0.89-0.11-1.25 0.17-8.42 6.73-18.77 11.2-27.47 14.17-0.33 0.12-0.58 0.36-0.72 0.68-1.26 2.86-3.18 5.64-6.49 8.39 2.33-0.35 4.66-0.8 6.99-1.38 14.83-3.67 27.58-11.39 37.39-21.68zm-123.61-69.24c6.91-7.45 15.8-13.9 25.03-18.19 1.12-0.52 1.61-1.85 1.09-2.96-0.52-1.13-1.84-1.61-2.97-1.09-9.74 4.52-19.13 11.34-26.42 19.2-0.84 0.9-0.79 2.32 0.11 3.16 0.43 0.39 0.98 0.59 1.52 0.59 0.6 0 1.2-0.24 1.64-0.71zm19.61 47.37c0.29 0.12 0.59 0.19 0.89 0.19 0.86 0 1.68-0.51 2.05-1.35 0.5-1.13-0.02-2.45-1.15-2.94-7.72-3.36-18.96-13.46-23.14-20.77-0.61-1.07-1.98-1.44-3.05-0.83s-1.44 1.97-0.83 3.05c4.72 8.26 16.51 18.85 25.23 22.65zm23.77-54.33c-1.2-0.31-2.41 0.41-2.72 1.6-2.66 10.35-3.31 25.05-1.71 38.35 0.14 1.14 1.11 1.97 2.22 1.97l0.27-0.02c1.23-0.14 2.1-1.26 1.95-2.48-1.54-12.8-0.93-26.86 1.6-36.71 0.3-1.19-0.42-2.41-1.61-2.71zm-17.3 90.33c0.74 0 1.46-0.37 1.89-1.03l1.78-2.78c1.76-2.76 3.93-6.16 5.77-9.05 0.66-1.04 0.35-2.43-0.69-3.09s-2.42-0.35-3.08 0.69c-1.84 2.89-4 6.28-5.77 9.04l-1.78 2.78c-0.66 1.05-0.36 2.43 0.69 3.09 0.37 0.24 0.78 0.35 1.19 0.35zm38.02-32.5c0.25 0 0.51-0.05 0.77-0.14 11.88-4.36 25.85-11.48 35.58-18.15 1.02-0.69 1.28-2.09 0.58-3.1-0.69-1.02-2.08-1.28-3.1-0.58-9.46 6.47-23.04 13.4-34.6 17.63-1.16 0.43-1.75 1.71-1.33 2.87 0.33 0.91 1.19 1.47 2.1 1.47zm25.57 35.92c1.1 0 2.06-0.8 2.21-1.92 0.17-1.22-0.68-2.36-1.9-2.53-9.43-1.31-21.08-7.26-26.88-12.26-0.94-0.8-2.35-0.69-3.15 0.24-0.81 0.93-0.7 2.35 0.23 3.15 6.21 5.35 18.55 11.82 29.18 13.3l0.31 0.02zm22.33-12.16c0.36 0.21 0.75 0.3 1.13 0.3 0.76 0 1.51-0.39 1.93-1.09 5.81-9.88 7.52-23.8 6.63-33.2-0.12-1.23-1.23-2.15-2.44-2.02-1.22 0.12-2.13 1.21-2.01 2.44 0.79 8.41-0.75 21.54-6.03 30.51-0.63 1.07-0.27 2.43 0.79 3.06zm-13.51-71.42c0.42 0.37 0.95 0.56 1.48 0.56 0.62 0 1.23-0.26 1.67-0.75 0.82-0.93 0.73-2.34-0.19-3.15-10.45-9.27-22.59-16.31-30.94-20.58-1.09-0.56-2.45-0.13-3 0.97-0.57 1.1-0.14 2.45 0.96 3.01 8.12 4.15 19.92 10.98 30.02 19.94zm-32.3-42.6c0.4 0 0.8-0.11 1.16-0.32 9.85-5.96 20.51-9.17 30.01-8.99 1.25-0.01 2.25-0.96 2.27-2.2 0.02-1.23-0.96-2.25-2.19-2.27-13.28-0.23-24.93 5.11-32.4 9.63-1.06 0.64-1.4 2.02-0.76 3.07 0.42 0.7 1.16 1.08 1.91 1.08zm55.58 35.83 0.23 0.01c1.13 0 2.1-0.85 2.22-2.01 1.47-14.38-2.52-28.86-4.31-34.42-0.37-1.18-1.62-1.82-2.8-1.45-1.18 0.38-1.83 1.64-1.45 2.81 3.54 11.02 5.07 23.22 4.11 32.61-0.13 1.23 0.77 2.32 2 2.45zm-81.14-34.62c0.36 0 0.73-0.09 1.07-0.28 1.08-0.59 1.48-1.95 0.89-3.03-2.78-5.07-5.35-9.3-8.09-13.3-0.69-1.02-2.08-1.27-3.1-0.58-1.02 0.7-1.28 2.09-0.58 3.11 2.65 3.87 5.14 7.97 7.85 12.91 0.4 0.75 1.17 1.17 1.96 1.17zm104.22 59.47 0.21 0.01c1.14 0 2.11-0.88 2.22-2.04 0.11-1.23-0.8-2.31-2.03-2.43l-11.21-1.01c-1.21-0.09-2.32 0.8-2.43 2.02-0.11 1.23 0.8 2.32 2.03 2.43l11.21 1.02z"/>
<path class="shp1" d="m284.84 543.57c2.9-7.6 8.27-15.98 13.96-21.82-1.56-2.62-3.06-4.97-4.56-7.17-0.57-0.82-0.78-1.81-0.59-2.79 0.18-0.97 0.73-1.82 1.56-2.38 0.61-0.43 1.34-0.66 2.1-0.66 1.23 0 2.38 0.61 3.07 1.62 1.7 2.47 3.37 5.11 5.08 8.02 2.62-0.32 5.48-0.49 8.52-0.49 5.94 0 12.32 0.63 17.61 1.74 7.51-4.15 15.1-6.77 22.59-7.8-0.87-1.5-2.08-2.85-3.64-4.09l-5.47-4.34 6.77 1.73c16.48 4.24 31.41 13.88 42.06 27.15l3.78 4.71-5.54-2.41c-1.51-0.66-2.8-1.03-3.99-1.15 1.47 6.33 2.9 15.12 2.43 24.14 5.13 7.78 8.08 14.66 11.03 23.01l8.43 0.76c2.04 0.19 3.55 2 3.37 4.04-0.18 1.94-1.77 3.39-3.7 3.39l-0.34-0.01-7.99-0.72c-3.09 7.22-7.48 14.21-13.38 21.31 0.32 8.36-1.14 17.46-3.97 24.84l0.46 0.01c1.14 0 2.29-0.14 3.42-0.42l4.94-1.21-3.51 3.68c-10.36 10.86-23.54 18.5-38.12 22.11-2.26 0.56-4.59 1.02-7.12 1.4l-5.3 0.81 4.12-3.42c1.67-1.39 3.04-2.84 4.14-4.41-7.43-2.19-15.59-6.25-21.42-10.71-2.86 0.24-5.71 0.35-8.46 0.35-6.47 0-12.45-0.63-17.79-1.89l-5.51 8.64c-0.69 1.08-1.87 1.72-3.15 1.72-0.71 0-1.4-0.2-2-0.58-1.73-1.11-2.24-3.42-1.14-5.15l5.53-8.64c-6.01-7.92-9.93-18.63-11.26-22.63-6.45-3.29-14.05-9.54-19.54-16.01-1.49 1.82-2.53 3.9-2.97 5.97l-1.24 5.75-1.65-5.65c-0.32-1.08-0.62-2.16-0.9-3.26-4.01-16.22-2.83-32.98 3.42-48.47l1.77-4.39 1.06 4.62c0.49 2.14 1.29 4.02 2.37 5.62 6.09-5.74 13.2-10.71 20.66-14.47zm95.74 67.16c-5.56-2.72-12.77-6.15-18.12-8.63-8.04 5.1-17.88 10.16-27.23 14-1.12 5.99-2.57 13.1-4.2 20.66 5.44 3.93 14.53 8.51 22.74 9.93 8.4-3.1 15.59-6.78 21.39-10.95 4.16-7.77 5.51-18.08 5.42-25.01zm-44.17-85.2c0.99 6.76 1.74 13.34 2.48 20.03 6.79 3.64 16.41 9.36 25.25 16.66 4.25-1.53 12.88-4.61 19.05-6.65 0.17-7.62-1.05-16.4-3.46-24.87-4.96-4.49-11.36-8.71-18.12-11.91h-0.3c-7.9 0-16.49 2.32-24.9 6.74zm-27.26 69.19c5.55 4.5 14.04 9.9 22.96 14.61 9.04-3.69 18.87-8.75 26.57-13.65 1.09-9.17 1.48-17.88 1.2-27.31-8.55-7.14-17.99-12.76-24.66-16.32-9.25 3.8-16.71 7.52-24.66 12.29-1.82 8.49-2.35 19.74-1.41 30.38zm-21.98-43.98c-7.93 4.15-15.51 9.9-21.43 16.27l-0.03 0.03c-1.44 6.8-1.79 14.83-0.93 21.65 3.93 6.19 12.63 14.21 19.55 18.06 3.96-2.78 11.96-8.39 17.34-12.1-0.88-10.82-0.37-21.97 1.41-30.91-3.92-3.25-7.74-6.35-11.43-9.36-1.55-1.25-3.05-2.47-4.48-3.64z" fill-rule="evenodd"/>
<path class="shp1" d="m337.49 546.51c-0.84-7.63-1.63-14.57-2.7-21.8 8.81-4.79 18.09-7.42 26.52-7.42 0.21 0 0.43 0.01 0.65 0.01 6.21 2.92 13.27 7.24 19.08 12.58 2.63 9.07 3.93 18.68 3.6 26.78-6.55 2.14-16.6 5.74-20.81 7.26-8.95-7.51-18.8-13.42-26.34-17.41zm0.55-20.14c0.87 6.14 1.56 12.16 2.24 18.25 6.64 3.59 15.69 9.04 24.14 15.92 4.22-1.51 11.58-4.14 17.29-6.05 0.03-7.04-1.14-15.25-3.3-22.97-4.73-4.23-10.77-8.18-17.14-11.24-7.36 0-15.35 2.1-23.23 6.09z" fill-rule="evenodd"/>
<path class="shp10" d="m382.05 609.79c0.26 8.05-1.35 18.96-5.75 26.96-7.04 5.11-15.11 8.82-22.38 11.47-8.49-1.36-18.55-6.28-24.55-10.84 1.79-8.22 3.35-15.94 4.54-22.35 9.69-3.92 20.19-9.33 28.43-14.62 5.67 2.61 13.72 6.45 19.71 9.38zm-2.95 1.87c-5.19-2.52-11.56-5.55-16.54-7.87-7.75 4.87-17.07 9.66-26.02 13.38-1.05 5.59-2.37 12.07-3.84 18.94 5.4 3.72 13.74 7.71 20.93 9.05 7.98-2.98 14.82-6.49 20.38-10.43 3.72-7.15 5.05-16.45 5.09-23.07z" fill-rule="evenodd"/>
<path class="shp1" d="m283.66 542.49c2.87-7.26 7.89-15.17 13.28-20.94-1.33-2.21-2.63-4.23-3.93-6.13-0.79-1.15-1.08-2.53-0.82-3.9 0.25-1.37 1.03-2.56 2.17-3.35 0.87-0.6 1.89-0.91 2.95-0.91 1.72 0 3.33 0.85 4.3 2.27 1.55 2.26 3.08 4.65 4.65 7.27 2.4-0.26 4.99-0.39 7.72-0.39 5.84 0 12.1 0.6 17.38 1.66 6.71-3.65 13.48-6.1 20.2-7.32-0.56-0.64-1.21-1.25-1.94-1.83l-10.94-8.69 13.53 3.47c16.79 4.31 32 14.13 42.85 27.66l7.56 9.42-11.07-4.82c-0.52-0.23-0.99-0.41-1.44-0.56 1.26 6.04 2.34 13.79 1.98 21.76 4.87 7.46 7.77 14.12 10.61 22.03l7.47 0.68c2.86 0.26 4.98 2.79 4.73 5.66-0.25 2.7-2.48 4.74-5.2 4.74l-0.47-0.02-6.92-0.62c-3.05 6.85-7.26 13.51-12.8 20.24 0.22 7.61-0.99 15.76-3.33 22.73 0.46-0.06 0.92-0.14 1.37-0.26l9.9-2.42-7.03 7.38c-10.55 11.05-23.98 18.84-38.84 22.52-2.31 0.57-4.68 1.03-7.26 1.42l-10.61 1.63 8.26-6.86c0.97-0.8 1.83-1.63 2.59-2.49-6.82-2.28-13.99-5.94-19.36-9.95-2.72 0.21-5.41 0.31-8.02 0.31-6.17 0-11.91-0.57-17.1-1.69-1.09 1.71-2.19 3.43-3.16 4.96l-1.79 2.79c-0.96 1.51-2.6 2.41-4.39 2.41-1 0-1.97-0.28-2.81-0.82-2.42-1.55-3.13-4.78-1.59-7.2l1.79-2.79 0.26-0.42c0.91-1.42 1.92-2.99 2.92-4.57-5.53-7.63-9.21-17.36-10.67-21.65-6-3.18-12.89-8.75-18.2-14.67-0.79 1.25-1.35 2.58-1.64 3.9l-2.47 11.49-3.3-11.28c-0.28-0.97-0.61-2.13-0.91-3.33-4.09-16.53-2.89-33.6 3.48-49.37l3.54-8.8 2.12 9.24c0.31 1.33 0.73 2.54 1.27 3.61 5.74-5.17 12.28-9.69 19.13-13.2zm2.37 2.15c-7.97 3.94-15.64 9.37-22.02 15.62-1.66-1.93-2.93-4.38-3.65-7.51-5.89 14.59-7.42 31.1-3.35 47.55 0.27 1.08 0.57 2.15 0.88 3.2 0.66-3.05 2.37-5.81 4.49-7.93 5.39 6.76 13.82 13.87 20.7 17.24 2.38 7.32 6.66 17.09 11.86 23.59-1.46 2.28-2.99 4.68-4.3 6.74l-1.79 2.79c-0.66 1.05-0.35 2.42 0.68 3.09 0.38 0.23 0.79 0.35 1.21 0.35 0.73 0 1.46-0.37 1.88-1.03l1.78-2.79c1.32-2.06 2.85-4.46 4.31-6.75 5.46 1.39 11.72 2.1 18.47 2.1 2.89 0 5.87-0.13 8.92-0.39 5.52 4.34 14.59 9.13 23.3 11.33-1.24 2.19-2.97 4.34-5.52 6.46 2.32-0.35 4.66-0.8 6.99-1.38 14.82-3.67 27.57-11.39 37.39-21.68-1.25 0.31-2.53 0.46-3.78 0.46-0.88 0-1.75-0.08-2.58-0.23 3.69-8.51 4.97-18.75 4.59-26.62 6.28-7.49 10.84-14.82 13.94-22.38l9.07 0.82h0.2c1.15 0 2.12-0.87 2.23-2.03 0.11-1.23-0.8-2.32-2.03-2.43l-9.37-0.85c-3.15-9.02-6.13-15.98-11.47-24 0.6-9.83-1.15-19.45-2.8-26 0.37-0.04 0.73-0.07 1.11-0.07 1.62 0 3.3 0.41 5.37 1.32-10.52-13.12-25.05-22.48-41.27-26.65 2.19 1.75 3.92 3.83 4.97 6.49-9.74 0.96-18.33 4.62-24.61 8.15-4.82-1.06-11.35-1.83-17.85-1.83-3.18 0-6.34 0.18-9.3 0.6-1.84-3.16-3.65-6.03-5.53-8.78-0.43-0.63-1.13-0.97-1.84-0.97-0.44 0-0.88 0.13-1.26 0.39-1.02 0.7-1.28 2.09-0.58 3.11 1.76 2.58 3.46 5.28 5.2 8.25-5.94 5.8-11.72 14.72-14.64 22.65z" fill-rule="evenodd"/>
<path class="shp1" d="m264.36 566.25 0.29-0.25c6.33-6.82 14.32-12.78 22.7-17.03 1.67 1.36 3.42 2.78 5.23 4.26 3.92 3.18 7.97 6.47 12.14 9.94-1.94 9.14-2.49 20.97-1.49 32.21-5.67 3.91-14.95 10.42-18.79 13.12-7.33-3.81-16.94-12.55-21.09-19.29-1.05-7.91-0.44-16.41 1.01-22.96zm1.86 21.92c3.74 5.74 11.55 12.99 18.04 16.82 3.96-2.79 10.85-7.62 15.86-11.08-0.77-10.33-0.3-20.91 1.33-29.58-3.69-3.06-7.27-5.97-10.74-8.79-1.28-1.04-2.51-2.04-3.72-3.02-7.35 3.97-14.35 9.32-19.9 15.23-1.32 6.45-1.64 13.96-0.87 20.42zm41.51 7.31c-1.06-11.26-0.5-23.15 1.52-32.09 8.36-5.05 16.16-8.95 26.01-12.97l0.04-0.02c7.45 3.95 17.25 9.81 26.05 17.26 0.33 9.99-0.08 19.18-1.28 28.9-8.09 5.21-18.48 10.56-28.04 14.41-9.48-4.96-18.56-10.75-24.3-15.49zm2.85-1.52c5.36 4.25 13.26 9.28 21.61 13.73 8.55-3.54 17.74-8.26 25.09-12.89 1-8.61 1.36-16.86 1.13-25.72-8.05-6.64-16.84-11.92-23.27-15.39-8.7 3.61-15.78 7.14-23.25 11.59-1.65 8.11-2.13 18.64-1.31 28.68z" fill-rule="evenodd"/>
<path class="shp11" d="m330.78 524.13c-4.96-1.06-11.22-1.69-16.85-1.69-3.68 0-7.05 0.25-9.99 0.75l-0.34 0.17c-5.97 5.48-11.93 14.52-14.84 22.49-0.08 0.23 0 0.52 0.21 0.69 1.72 1.4 3.54 2.88 5.42 4.41 3.35 2.72 6.8 5.53 10.3 8.42 0 0-7.08-8.9-11.84-14.07 2.84-7.05 7.78-14.31 12.97-19.24 10.41-1.81 24.96-1.93 24.96-1.93zm-1.09 89.05c-9.31-4.94-18.18-10.62-23.88-15.33l-0.43-0.15-0.13 0.01-0.19 0.09c-5.66 3.89-15.18 10.58-19.01 13.27-0.23 0.16-0.32 0.4-0.23 0.66 1.6 4.99 4.13 11.2 7.23 16.62 0 0-2.06-9.62-3.55-15.55 4.02-2.83 10.89-7.64 16.01-11.17 6.99 4.19 24.18 11.55 24.18 11.55zm33.65-15.5c3.88 1.78 8.91 4.15 13.65 6.43 0 0-6.06-4.52-11.15-8.23 0 0 2.11-12.16 2.24-26.12 8.93-2.92 17.11-7.25 17.11-7.25 3.47 4.52 9.77 12.21 9.77 12.21-2.05-4.68-6.14-11.62-8.4-15.01-0.11-0.16-0.31-0.27-0.52-0.27l-0.14 0.01-0.07 0.02c-6.54 2.13-16.96 5.87-21.14 7.37-0.24 0.09-0.4 0.33-0.39 0.61 0.34 10.23-0.07 19.64-1.3 29.59-0.03 0.27 0.1 0.53 0.34 0.64zm-103.69-37.56c-2.61 9.54-2.68 20.1-0.3 29.75 0 0-2.27-14.47 2.43-26.6-1.02-1.05-1.79-2.24-2.13-3.15zm98.27-49.11c1.08 1.43 1.65 2.8 1.65 2.8 5.63 1.72 12.23 5.29 17.3 8.62-5.3-4.55-10.57-7.71-18.95-11.42z"/>
<path class="shp12" d="m408.69 568.57c0.3 1.74 0.54 3.47 0.72 5.2l0.3 0.45c-0.17-1.86-0.4-3.71-0.71-5.54-0.1-0.03-0.2-0.07-0.31-0.11z"/>
<path class="shp13" d="m409.41 573.77c0.21 2.03 0.34 4.05 0.38 6.06l0.23 0.02c-0.03-1.89-0.14-3.77-0.31-5.63l-0.3-0.45zm-12.98-35.69c5.02 7.39 8.83 15.77 11.1 24.93 0.46 1.86 0.84 3.71 1.16 5.56 0.1 0.04 0.21 0.07 0.31 0.11-1.82-11.09-6-21.38-12.01-30.35l-0.56-0.25z" fill-rule="evenodd"/>
<path class="shp12" d="m401.3 616.93c-1.87 3.64-4.02 7.13-6.43 10.43 0.01 0.01 0.01 0.02 0.02 0.03 2.42-3.28 4.6-6.75 6.49-10.41-0.03-0.01-0.06-0.03-0.08-0.05z"/>
<path class="shp13" d="m394.87 627.36c-0.89 1.23-1.82 2.43-2.79 3.61 0.97-1.17 1.9-2.36 2.81-3.58l-0.02-0.03zm14.47-37.1c-1.05 9.39-3.82 18.42-8.04 26.67 0.02 0.02 0.05 0.04 0.08 0.06 4.23-8.17 7.06-17.18 8.15-26.72l-0.19-0.01z"/>
<path class="shp14" d="m300.08 642.19c-1.09 1.71-2.19 3.43-3.17 4.96l-1.45 2.28c11.01 6.01 23.64 9.43 37.07 9.43 2.12 0 4.23-0.09 6.32-0.26l3.12-2.59c0.97-0.8 1.83-1.63 2.58-2.49-6.81-2.28-13.98-5.94-19.35-9.95-2.72 0.21-5.41 0.32-8.02 0.32-6.17 0-11.91-0.58-17.1-1.7zm-34-20.93c5.31 8.82 12.32 16.49 20.58 22.57l1.47-2.3 0.26-0.41c0.91-1.42 1.92-3 2.92-4.57-2.56-3.53-4.72-7.51-6.45-11.2-6.5-0.68-12.78-2.07-18.78-4.09zm96.48-17.47c-7.75 4.86-17.07 9.65-26.02 13.38-1.05 5.59-2.37 12.07-3.84 18.94 5.4 3.71 13.74 7.7 20.93 9.04 7.97-2.97 14.82-6.48 20.38-10.42 3.72-7.15 5.05-16.45 5.09-23.07-5.19-2.52-11.56-5.55-16.54-7.87zm39.75-14.16c-3.05 6.85-7.26 13.51-12.8 20.24 0.22 7.61-0.99 15.76-3.33 22.73 0.46-0.06 0.92-0.14 1.37-0.26l4.24-1.03c0.1-0.12 0.19-0.23 0.29-0.34 0.96-1.18 1.9-2.38 2.79-3.61 2.42-3.3 4.56-6.79 6.43-10.43 4.22-8.26 6.99-17.29 8.04-26.67l-0.11-0.01-6.92-0.62zm-21-42.92c-0.28 2.82-0.68 5.6-1.22 8.33 0.55-0.19 1.09-0.37 1.62-0.55 0.01-2.47-0.13-5.09-0.4-7.78zm8.79-11.32c1.27 6.05 2.35 13.8 1.99 21.77 4.87 7.46 7.77 14.12 10.61 22.03l7.09 0.64c-0.05-2.01-0.17-4.03-0.38-6.06-0.18-1.73-0.42-3.46-0.72-5.2-0.32-1.85-0.7-3.7-1.16-5.55-2.27-9.17-6.08-17.55-11.1-24.94l-4.88-2.12c-0.52-0.23-0.99-0.42-1.45-0.57z"/>
<path class="shp15" d="m379.96 520.62c0.71 3.51 1.22 7.1 1.5 10.75 2.34 8.62 3.49 17.63 3.18 25.29-1.6 0.52-3.4 1.13-5.28 1.78-0.28 1.19-0.59 2.36-0.92 3.53 2.65-0.91 5.23-1.8 7.39-2.5l0.07-0.02 0.14-0.01c0.21 0 0.41 0.11 0.52 0.27 2.26 3.38 6.35 10.33 8.4 15.01 0 0-6.29-7.69-9.77-12.21 0 0-3.35 1.77-8.1 3.81-2.46 7.26-5.85 14.1-10.03 20.37-0.59 5.56-1.22 9.19-1.22 9.19 5.09 3.7 11.15 8.23 11.15 8.23-4.74-2.28-9.77-4.65-13.65-6.44-0.23-0.1-0.37-0.36-0.34-0.63 0.23-1.86 0.44-3.7 0.61-5.53-1.11 1.44-2.25 2.84-3.44 4.2-0.03 0.28-0.06 0.56-0.1 0.85-0.49 0.32-1 0.64-1.51 0.95-4.84 5.25-10.31 9.91-16.28 13.86 7.09-3.32 14.16-7.16 20.06-10.96 5.67 2.61 13.72 6.44 19.71 9.38 0.26 8.05-1.35 18.96-5.74 26.95-7.05 5.12-15.12 8.82-22.39 11.49-8.49-1.37-18.54-6.29-24.55-10.85 1.66-7.65 3.13-14.87 4.29-20.99-11.91 6.03-25.38 9.44-39.64 9.44-0.51 0-1.01 0-1.52-0.01 0.34 1.54 0.55 2.52 0.55 2.52-0.47-0.83-0.94-1.68-1.39-2.54-1.12-0.03-2.24-0.08-3.35-0.15 1.94 3.91 4.18 7.69 6.63 10.75-1.46 2.28-2.99 4.68-4.3 6.74l-1.54 2.41c1.23 0.84 2.49 1.64 3.77 2.4l1.53-2.4c1.32-2.06 2.85-4.46 4.31-6.75 5.46 1.39 11.72 2.11 18.47 2.11 2.89 0 5.87-0.14 8.92-0.4 5.52 4.33 14.6 9.13 23.3 11.33-1.18 2.08-2.79 4.12-5.14 6.14 17.15-2.61 32.45-10.83 43.97-22.74-1.24 0.31-2.51 0.46-3.74 0.46-0.89 0-1.76-0.08-2.59-0.23 3.69-8.51 4.97-18.75 4.59-26.63 6.28-7.48 10.84-14.81 13.93-22.37l9.08 0.81 0.2 0.01h0.11c0.11-1.47 0.18-2.95 0.21-4.44-0.04-0.01-0.08-0.01-0.12-0.02l-9.37-0.84c-3.15-9.03-6.12-15.99-11.47-24 0.6-9.83-1.15-19.46-2.8-26.01 0.37-0.04 0.74-0.07 1.11-0.07 1.62 0 3.3 0.41 5.37 1.32-3.78-4.72-8.07-8.94-12.78-12.61zm1.5 10.75c0.17 2.23 0.26 4.48 0.26 6.76 0 2.89-0.14 5.76-0.41 8.58 0.27 2.69 0.41 5.31 0.4 7.78-0.53 0.18-1.07 0.36-1.62 0.55-0.22 1.14-0.46 2.27-0.73 3.39 1.88-0.64 3.68-1.25 5.28-1.77 0.31-7.65-0.84-16.67-3.18-25.29z"/>
<path class="shp15" d="m382.05 609.79c0.26 8.05-1.35 18.96-5.74 26.96-7.05 5.11-15.12 8.82-22.39 11.48-8.49-1.37-18.55-6.29-24.55-10.85 1.66-7.65 3.14-14.86 4.29-21 2.97-1.51 5.85-3.18 8.62-5.01 7.09-3.32 14.16-7.17 20.06-10.96 5.67 2.61 13.72 6.45 19.71 9.38zm-8.04 24.94c3.72-7.15 5.05-16.45 5.09-23.07-5.18-2.53-11.56-5.55-16.54-7.87-7.75 4.87-17.07 9.66-26.02 13.38-1.05 5.59-2.36 12.07-3.84 18.94 5.4 3.72 13.74 7.71 20.94 9.05 7.97-2.98 14.81-6.49 20.37-10.43zm-56.83 6.18c2.89 0 5.87-0.14 8.92-0.4 5.52 4.34 14.59 9.13 23.3 11.33-1.18 2.08-2.79 4.12-5.14 6.14-1.78 0.27-3.59 0.48-5.41 0.62l3.12-2.59c0.97-0.8 1.83-1.63 2.59-2.49-6.82-2.27-13.98-5.94-19.36-9.95-2.72 0.21-5.41 0.31-8.02 0.31-6.17 0-11.91-0.57-17.1-1.69-1.09 1.72-2.19 3.43-3.16 4.96l-1.46 2.28c-0.88-0.48-1.74-0.97-2.59-1.48l1.53-2.4c1.32-2.06 2.85-4.46 4.31-6.75 5.46 1.39 11.72 2.11 18.47 2.11zm-28.87-15.26c1.94 3.91 4.18 7.69 6.63 10.75-1.46 2.28-2.99 4.69-4.3 6.74l-1.54 2.41c-0.83-0.56-1.64-1.13-2.44-1.72l1.47-2.3 0.26-0.41c0.91-1.42 1.92-3 2.92-4.57-2.56-3.53-4.72-7.51-6.45-11.2 1.14 0.12 2.29 0.22 3.45 0.3zm121.19-38.36h0.2 0.11c-0.07 1-0.17 1.99-0.28 2.97h-0.19l-0.11-0.01-6.92-0.62c-3.05 6.85-7.26 13.51-12.8 20.24 0.22 7.61-0.99 15.76-3.33 22.73 0.46-0.06 0.92-0.14 1.37-0.26l4.24-1.03c-1.14 1.35-2.33 2.67-3.56 3.94-1.24 0.3-2.51 0.45-3.74 0.45-0.89 0-1.76-0.08-2.58-0.23 3.68-8.51 4.96-18.75 4.58-26.63 6.28-7.48 10.84-14.81 13.93-22.37l9.08 0.82zm-12.5-48.96-0.57-0.24-4.88-2.13c-0.52-0.23-0.99-0.41-1.45-0.57 1.27 6.05 2.35 13.8 1.99 21.78 4.86 7.45 7.77 14.11 10.61 22.02l7.09 0.64 0.23 0.02c0.01 0.5 0.02 1 0.02 1.5s-0.01 1-0.02 1.5c-0.04-0.01-0.08-0.01-0.12-0.01l-9.37-0.85c-3.15-9.03-6.12-15.98-11.47-24 0.6-9.83-1.15-19.46-2.8-26.01 0.37-0.04 0.74-0.06 1.11-0.06 1.62 0 3.3 0.41 5.37 1.31-3.78-4.72-8.07-8.94-12.78-12.61-0.04-0.22-0.09-0.44-0.13-0.65 6.67 5.14 12.47 11.35 17.17 18.36zm-36.93 58.23c-0.5 0.32-1 0.64-1.52 0.96 0.55-0.6 1.09-1.2 1.62-1.81-0.03 0.28-0.06 0.56-0.1 0.85z" fill-rule="evenodd"/>
<path class="shp13" d="m291.66 625.8c0.45 0.86 0.92 1.71 1.39 2.55 0 0-0.21-0.99-0.55-2.53-0.28 0-0.56-0.01-0.84-0.02z"/>
<path class="shp16" d="m367.06 586.69c-1.1 1.65-2.25 3.26-3.45 4.83-0.18 1.82-0.38 3.66-0.61 5.52-0.03 0.27 0.1 0.52 0.34 0.63 3.88 1.79 8.91 4.16 13.64 6.44 0 0-6.05-4.53-11.14-8.23 0 0 0.63-3.63 1.22-9.19zm18.98-27.25-0.14 0.01-0.07 0.02c-2.16 0.7-4.75 1.58-7.39 2.5-0.41 1.47-0.86 2.92-1.35 4.35 4.75-2.04 8.1-3.81 8.1-3.81 3.47 4.52 9.77 12.21 9.77 12.21-2.05-4.68-6.14-11.62-8.4-15.01-0.11-0.17-0.32-0.27-0.52-0.27z"/>
<path class="shp0" d="m364.47 604.7-1.91-0.9c-4.03 2.56-8.16 4.93-12.38 7.1-2.12 1.09-4.25 2.14-6.4 3.14-1.08 0.5-2.16 0.99-3.24 1.46s-2.18 0.94-3.25 1.37l-0.7 0.39-0.1 0.54-3.79 18.31 1.63-0.41 5.38-15.85s16.81-8.43 24.76-15.15zm38.23-25.51 6.11 0.54-5.72-1.8-0.39 1.26zl1.32 0.12s-2.9-12.11-8.72-22.5c-0.74-12.23-3.63-20.81-3.63-20.81l-1.57-0.6c1.28 6.04 2.35 13.79 1.99 21.76 4.86 7.46 7.77 14.12 10.61 22.03zm-12.6-43.79c0.39 0.62 0.97 1.3 0.97 1.3l3.91 0.74s-3.63-1.63-4.88-2.04zm2.21 75.36c6.47-9.05 10.02-21.28 10.02-21.28-3.06 6.86-7.26 13.51-12.81 20.25 0.23 7.61-1 15.9-3.34 22.87 0 0 5.84-9.64 6.13-21.84zm-67.58 35.34c3.49 1.64 7.71 3.08 10.41 3.52-3.6-1.8-7.02-3.86-9.92-6.02-2.72 0.21-5.41 0.31-8.02 0.31-6.17 0-11.91-0.57-17.1-1.7-1.09 1.72-5.7 8.89-5.7 8.89l6.41-6.35c5.98 1.27 16.3 2.17 23.92 1.35zm-33.42-9.55c-5.53-7.63-9.21-17.36-10.67-21.64-6-3.19-12.89-8.76-18.21-14.67-0.78 1.25-1.34 2.57-1.63 3.9l-0.86 3.99-1.4 7.07 4.96-9.59c4.63 4.56 9.87 8.61 14.73 11.34 2.51 6.63 6.36 14.45 11.01 20.18l-2.58 6.71s3.65-5.71 4.65-7.29zm41.39-0.44c1.98 1.33 5.07 3.27 9.17 5.12-4.06-3.11-8.72-7.29-8.72-7.29l-0.45 2.17zm28.95-30.73 12.37 3.84-11.46-5.42-0.91 1.58z"/>
<path class="shp2" d="m332.51 496.25v0.01-0.01c18.7 0 37.19 6.33 52.07 17.82 15.34 11.86 25.91 28.09 30.58 46.95 5.47 22.09 2 44.99-9.76 64.48-11.75 19.49-30.4 33.23-52.49 38.7-6.74 1.67-13.65 2.52-20.53 2.52-18.7 0-37.2-6.33-52.08-17.83-15.34-11.85-25.91-28.08-30.58-46.94-11.28-45.61 16.64-91.9 62.25-103.18 6.74-1.67 13.65-2.52 20.54-2.52zm-0.01 7.86c-6.15 0-12.4 0.74-18.64 2.28-41.47 10.26-66.77 52.2-56.51 93.67 8.72 35.24 40.29 58.8 75.03 58.8 6.15 0 12.4-0.74 18.64-2.29 41.47-10.26 66.78-52.19 56.51-93.67-8.71-35.23-40.29-58.79-75.03-58.79z" fill-rule="evenodd"/>
<path class="shp0" d="m198.78 195.62v44.32h-10.04v-18.2h-19.2v18.2h-10.04v-44.32h10.04v17h19.2v-17h10.04zm48.66 44.32h-10.96l-3.4-10.16h-15.62l-3.38 10.16h-10.5l16.54-44.32h11.1l16.22 44.32zm-16.74-17.94-5.4-16.76-5.52 16.76h10.92zm69.44-26.38v8.84h-14.28v35.48h-10.1v-35.48h-14.36v-8.84h38.74zm5.72 0h10.04v44.32h-10.04v-44.32zm57.36 0v44.32h-9.1l-19.68-29.3v29.3h-9.9v-44.32h9.58l19.2 28.78v-28.78h9.9zm47.94 0v44.32h-10.04v-18.2h-19.22v18.2h-10.04v-44.32h10.04v17h19.22v-17h10.04zm30.7 8.84v10.02h15.02v8.58h-15.02v16.88h-10.04v-44.32h29.78v8.84h-19.74zm63.54 27.32c-3.72 5.1-10.76 9.3-18.94 9.3-13.5 0-22.8-9.7-22.8-23.14 0-13.08 9.3-23.46 22.94-23.46 8.24 0 14.42 3.12 18.46 8.78l-6.84 6.58c-2.66-3.72-6.18-6.18-11.24-6.18-7.96 0-12.88 6.3-12.88 14.02 0 7.78 4.98 13.82 12.68 13.82 6.38 0 9.04-2.92 11.78-5.98l6.84 6.26z" fill-rule="evenodd"/>
<path class="shp1" d="m237.52 121.02v31.1h-7.04v-12.78h-13.48v12.78h-7.04v-31.1h7.04v11.94h13.48v-11.94h7.04zm37.22 15.52c0 9.24-6.98 16.38-16.18 16.38-9.18 0-16.18-7.14-16.18-16.38 0-9.28 7-16.36 16.18-16.36 9.2 0 16.18 7.08 16.18 16.36zm-7.36-0.08c0-5.38-3.36-9.76-8.82-9.76-5.5 0-8.86 4.38-8.86 9.76 0 5.3 3.36 9.84 8.86 9.84 5.46 0 8.82-4.54 8.82-9.84zm39.36-15.44v31.1h-6.38l-13.8-20.56v20.56h-6.96v-31.1h6.72l13.48 20.18v-20.18h6.94zm34.14 13.98v13.48c-3.2 2.8-7.5 4.38-13.04 4.38-10.22 0-16.24-6.66-16.24-16.22 0-9.28 6.58-16.42 16.1-16.42 5.64 0 9.92 2.2 12.72 5.92l-4.76 4.54c-2-2.38-4.2-4.02-7.68-4.02-5.74 0-9.06 4.52-9.06 9.98 0 5.96 3.96 9.84 9.34 9.84 2.46 0 4.52-0.56 6.14-1.86v-3.92h-5.5v-5.7h11.98zm36.02 10.88v6.24h-21.92v-31.1h7.04v24.86h14.88zm4.16-24.86h7.04v31.1h-7.04v-31.1zm40.24 0v31.1h-6.38l-13.8-20.56v20.56h-6.96v-31.1h6.72l13.48 20.18v-20.18h6.94zm33.64 0v31.1h-7.04v-12.78h-13.48v12.78h-7.04v-31.1h7.04v11.94h13.48v-11.94h7.04z" fill-rule="evenodd"/>
<path class="shp2" d="m350.24 401.67s0.61-0.46 0.85-0.59c0.32-0.17 0.67-0.31 1.04-0.36 0.73-0.1 1.49 0.14 1.94 0.75 1.03 1.4-1.63 1.8-2.41 1.92-1.49 0.23-3.01 0.35-4.43 0.87-0.81 0.3-1.58 0.71-2.28 1.23-1.33 1-2.43 2.26-3.46 3.55 0.18-0.23 0.55-0.41 0.8-0.56 0.78-0.49 1.62-0.89 2.48-1.23 1.74-0.69 3.57-1.19 5.44-1.37 1.36-0.13 2.9-0.19 4.24 0.11 0.08 0.02 0.26 0.11 0.32 0.11 0 0-2.5 0.34-4.46 2.43 0 0 3.56-1.82 6.35 0.05 0.7 0.51 1.46 0.96 2.22 1.35 1.12 0.56 2.35 1.08 3.62 1.09 1.25 0.01 2.62-0.35 3.67-1.05 0.78-0.53 1.5-1.13 2.39-1.51 0.74-0.32 1.65-0.46 2.47-0.54 0.89-0.08 1.85-0.05 2.65 0.36-0.18-0.43-0.6-0.81-0.94-1.12-2.07-1.84-5.01-2.98-7.69-3.52-1.44-0.29-2.77-0.7-4.13-1.28-0.92-0.39-1.82-0.81-2.63-1.41-0.15-0.11-0.29-0.21-0.44-0.32-0.73-0.5-1.5-0.96-2.35-1.23-0.84-0.26-1.62-0.27-2.47-0.04-0.61 0.16-1.12 0.44-1.58 0.87-0.55 0.49-1.21 1.44-1.21 1.44z"/>
<path class="shp0" d="m365.83 407.27s-0.84 3.35-3.97 2.71c0 0-3.08-0.45-2.69-4.6 0 0 0.82-0.32 1.94-0.39 0.74-0.04 1.61 0.03 2.46 0.39h0.01c0.16 0.07 0.32 0.14 0.48 0.23 0.04 0.02 0.07 0.04 0.11 0.06l0.01 0.01c0.59 0.34 1.16 0.86 1.65 1.59z"/>
<path class="shp1" d="m363.04 408.13c-1.55 0.36-2.15-0.96-2.15-0.96-0.49-1.22 0.03-1.97 0.22-2.18 0.91-0.05 2.03 0.07 3.06 0.68 0.54 1.87-1.13 2.46-1.13 2.46z"/>
<path class="shp0" d="m364 406.47c-0.05 0.04-0.11 0.08-0.19 0.1-0.28 0.11-0.65 0.01-0.72-0.32-0.15-0.69 0.43-0.86 0.49-0.87 0.16 0.06 0.32 0.14 0.48 0.23 0.03 0 0.09 0.14 0.1 0.16 0.02 0.05 0.04 0.1 0.04 0.16 0.01 0.1 0 0.2-0.04 0.29-0.04 0.1-0.09 0.19-0.16 0.25z"/>
</g>
</svg>
