<svg height="330.454233" viewBox="0 0 1509 1648" width="302.613766" xmlns="http://www.w3.org/2000/svg" xmlns:xlink="http://www.w3.org/1999/xlink"><linearGradient id="a"><stop offset="0" stop-color="#ffc333"/><stop offset="1" stop-color="#ffed59"/></linearGradient><linearGradient id="b" gradientUnits="userSpaceOnUse" x1="389.924" x2="482.775" xlink:href="#a" y1="956.578" y2="956.578"/><linearGradient id="c" gradientUnits="userSpaceOnUse" x1="390.007" x2="464.619" xlink:href="#a" y1="1022.022" y2="1022.022"/><linearGradient id="d" gradientUnits="userSpaceOnUse" x1="562.968" x2="641.796" xlink:href="#a" y1="1299.918" y2="1299.918"/><linearGradient id="e" gradientUnits="userSpaceOnUse" x1="402.758" x2="459.373" xlink:href="#a" y1="1088.025" y2="1088.025"/><linearGradient id="f" gradientUnits="userSpaceOnUse" x1="463.786" x2="508.549" xlink:href="#a" y1="1209.439" y2="1209.439"/><linearGradient id="g" gradientUnits="userSpaceOnUse" x1="428.372" x2="467.365" xlink:href="#a" y1="1151.259" y2="1151.259"/><linearGradient id="h" gradientUnits="userSpaceOnUse" x1="514.618" x2="665.787" xlink:href="#a" y1="718.38" y2="718.38"/><linearGradient id="i" gradientUnits="userSpaceOnUse" x1="404.292" x2="514.148" xlink:href="#a" y1="894.007" y2="894.007"/><linearGradient id="j" gradientUnits="userSpaceOnUse" x1="320.778" x2="433.977" xlink:href="#a" y1="1175.007" y2="1175.007"/><linearGradient id="k" gradientUnits="userSpaceOnUse" x1="309.574" x2="400.672" xlink:href="#a" y1="1093.877" y2="1093.877"/><linearGradient id="l" gradientUnits="userSpaceOnUse" x1="317.401" x2="383.105" xlink:href="#a" y1="1010.16" y2="1010.16"/><linearGradient id="m" gradientUnits="userSpaceOnUse" x1="350.562" x2="484.412" xlink:href="#a" y1="1250.465" y2="1250.465"/><linearGradient id="n" gradientUnits="userSpaceOnUse" x1="662.018" x2="899.157" xlink:href="#a" y1="-1741.785" y2="-1741.785"/><linearGradient id="o" gradientUnits="userSpaceOnUse" x1="434.264" x2="558.865" xlink:href="#a" y1="836.299" y2="836.299"/><linearGradient id="p" gradientUnits="userSpaceOnUse" x1="464.428" x2="631.314" xlink:href="#a" y1="1369.702" y2="1369.702"/><linearGradient id="q" gradientUnits="userSpaceOnUse" x1="398.474" x2="550.328" xlink:href="#a" y1="1316.699" y2="1316.699"/><linearGradient id="r" gradientUnits="userSpaceOnUse" x1="511.124" x2="567.457" xlink:href="#a" y1="1259.65" y2="1259.65"/><linearGradient id="s" gradientUnits="userSpaceOnUse" x1="339.076" x2="383.255" xlink:href="#a" y1="927.231" y2="927.231"/><linearGradient id="t" gradientUnits="userSpaceOnUse" x1="456.114" x2="564.759" xlink:href="#a" y1="730.102" y2="730.102"/><linearGradient id="u" gradientUnits="userSpaceOnUse" x1="477.933" x2="622.15" xlink:href="#a" y1="778.776" y2="778.776"/><linearGradient id="v" gradientUnits="userSpaceOnUse" x1="402.36" x2="458.287" xlink:href="#a" y1="777.4" y2="777.4"/><linearGradient id="w" gradientUnits="userSpaceOnUse" x1="364.225" x2="404.08" xlink:href="#a" y1="848.582" y2="848.582"/><linearGradient id="x" gradientUnits="userSpaceOnUse" x1="854.96" x2="966.305" xlink:href="#a" y1="706.774" y2="706.774"/><linearGradient id="y" gradientUnits="userSpaceOnUse" x1="1071.955" x2="1115.382" xlink:href="#a" y1="1060.95" y2="1060.95"/><linearGradient id="z" gradientUnits="userSpaceOnUse" x1="904.228" x2="1001.725" xlink:href="#a" y1="756.364" y2="756.364"/><linearGradient id="A" gradientUnits="userSpaceOnUse" x1="1007.92" x2="1084.1" xlink:href="#a" y1="861.173" y2="861.173"/><linearGradient id="B" gradientUnits="userSpaceOnUse" x1="1063.65" x2="1116.262" xlink:href="#a" y1="991.81" y2="991.81"/><linearGradient id="C" gradientUnits="userSpaceOnUse" x1="1042.049" x2="1106.23" xlink:href="#a" y1="924.262" y2="924.262"/><linearGradient id="D" gradientUnits="userSpaceOnUse" x1="961.489" x2="1049.892" xlink:href="#a" y1="805.321" y2="805.321"/><linearGradient id="E" gradientUnits="userSpaceOnUse" x1="1122.602" x2="1172.912" xlink:href="#a" y1="1066.549" y2="1066.549"/><linearGradient id="F" gradientUnits="userSpaceOnUse" x1="947.491" x2="1020.346" xlink:href="#a" y1="714.061" y2="714.061"/><linearGradient id="G" gradientUnits="userSpaceOnUse" x1="1080.719" x2="1117.715" xlink:href="#a" y1="830.821" y2="830.821"/><linearGradient id="H" gradientUnits="userSpaceOnUse" x1="1125.368" x2="1164.622" xlink:href="#a" y1="984.143" y2="984.143"/><linearGradient id="I" gradientUnits="userSpaceOnUse" x1="1111.273" x2="1150.221" xlink:href="#a" y1="904.515" y2="904.515"/><linearGradient id="J" gradientUnits="userSpaceOnUse" x1="993.245" x2="1030.915" xlink:href="#a" y1="1244.909" y2="1244.909"/><linearGradient id="K" gradientUnits="userSpaceOnUse" x1="1037.929" x2="1071.341" xlink:href="#a" y1="1190.237" y2="1190.237"/><linearGradient id="L" gradientUnits="userSpaceOnUse" x1="1061.958" x2="1099.53" xlink:href="#a" y1="1127.747" y2="1127.747"/><linearGradient id="M" gradientUnits="userSpaceOnUse" x1="1012.476" x2="1109.096" xlink:href="#a" y1="1286.798" y2="1286.798"/><linearGradient id="N" gradientUnits="userSpaceOnUse" x1="1062.73" x2="1146.828" xlink:href="#a" y1="1220.959" y2="1220.959"/><linearGradient id="O" gradientUnits="userSpaceOnUse" x1="1100.879" x2="1168.494" xlink:href="#a" y1="1146.224" y2="1146.224"/><linearGradient id="P" gradientUnits="userSpaceOnUse" x1="1569.244" x2="1633.396" xlink:href="#a" y1="3761.237" y2="3761.237"/><linearGradient id="Q" gradientUnits="userSpaceOnUse" x1="937.661" x2="985.288" xlink:href="#a" y1="1288.028" y2="1288.028"/><linearGradient id="R" gradientUnits="userSpaceOnUse" x1="806.093" x2="807.083" xlink:href="#a" y1="1381.011" y2="1381.011"/><linearGradient id="S" gradientUnits="userSpaceOnUse" x1="882.327" x2="994.373" xlink:href="#a" y1="1371.02" y2="1371.02"/><linearGradient id="T" gradientUnits="userSpaceOnUse" x1="952.348" x2="1058.217" xlink:href="#a" y1="1340.118" y2="1340.118"/><linearGradient id="U" gradientUnits="userSpaceOnUse" x1="1022.713" x2="1074.568" xlink:href="#a" y1="766.213" y2="766.213"/><g fill="#fff"><path d="m754.5 321c-228.11 0-412.5-46.26-412.5-103.5s184.39-103.5 412.5-103.5 412.5 46.26 412.5 103.5-184.39 103.5-412.5 103.5z"/><path d="m748.5 171c-70.51 0-127.5-28.83-127.5-64.5s56.99-64.5 127.5-64.5 127.5 28.83 127.5 64.5-56.99 64.5-127.5 64.5z"/><path d="m765 693c-295.3 0-534-50.96-534-114s238.7-114 534-114 534 50.96 534 114-238.7 114-534 114z"/><path d="m1110 630c-111.15 0-201-66.38-201-148.5s89.85-148.5 201-148.5 201 66.38 201 148.5-89.85 148.5-201 148.5z"/><path d="m1218 465c-81.29 0-147-66.38-147-148.5s65.71-148.5 147-148.5 147 66.38 147 148.5-65.71 148.5-147 148.5z"/><path d="m321 381c-112.81 0-204-40.9-204-91.5s91.19-91.5 204-91.5 204 40.9 204 91.5-91.19 91.5-204 91.5z"/><path d="m280.5 750c-47.28 0-85.5-106.61-85.5-238.5s38.22-238.5 85.5-238.5 85.5 106.61 85.5 238.5-38.22 238.5-85.5 238.5z"/><path d="m426 555c-69.68 0-126-32.18-126-72s56.32-72 126-72 126 32.18 126 72-56.32 72-126 72z"/><path d="m250.5 423c-55.58 0-100.5-32.18-100.5-72s44.92-72 100.5-72 100.5 32.18 100.5 72-44.92 72-100.5 72z"/><path d="m264 1299c-91.25 0-165-146.17-165-327s73.75-327 165-327 165 146.17 165 327-73.75 327-165 327z"/><path d="m135 942c-43.13 0-78-46.26-78-103.5s34.87-103.5 78-103.5 78 46.26 78 103.5-34.87 103.5-78 103.5z"/><path d="m1248 1329c-59.72 0-108-185.73-108-415.5s48.28-415.5 108-415.5 108 185.73 108 415.5-48.28 415.5-108 415.5z"/><path d="m1351.5 1068c-32.35 0-58.5-76.44-58.5-171s26.15-171 58.5-171 58.5 76.44 58.5 171-26.15 171-58.5 171z"/><path d="m1396.5 876c-27.37 0-49.5-18.77-49.5-42s22.13-42 49.5-42 49.5 18.77 49.5 42-22.13 42-49.5 42z"/><path d="m750 1473c-228.94 0-414-26.82-414-60s185.06-60 414-60 414 26.82 414 60-185.06 60-414 60z"/><path d="m1122 1407c-66.36 0-120-34.87-120-78s53.64-78 120-78 120 34.87 120 78-53.64 78-120 78z"/><path d="m438 1413c-102.86 0-186-38.22-186-85.5s83.14-85.5 186-85.5 186 38.22 186 85.5-83.14 85.5-186 85.5z"/><path d="m735 1524c-132.72 0-240-24.14-240-54s107.28-54 240-54 240 24.14 240 54-107.28 54-240 54z"/><path d="m757.5 1590c-43.96 0-79.5-19.44-79.5-43.5s35.54-43.5 79.5-43.5 79.5 19.44 79.5 43.5-35.54 43.5-79.5 43.5z"/><path d="m1330.5 1143c-34.01 0-61.5-29.5-61.5-66s27.49-66 61.5-66 61.5 29.5 61.5 66-27.49 66-61.5 66z"/></g><path d="m1495.72 857.9-74.3 68.27s8.04 236.95-132.52 398.26c0 0-152.61 202.14-416.33 212.85l-95.05 99.07s-25.77 29.78-60.24-8.03l-84.34-90.37s-549.87-39.49-547.52-609.77l-75.64-70.28s-25.1-31.13 7.36-52.88c0 0 142.24-62.58 160.31-225.24 0 0 28.12-170.68-110.44-273.09l124.77-154.21s164.32 12.42 299.83-30.49c0 0 125.26-34.51 247.09-117.51 0 0 15.39-10.7 32.12 1.35 16.74 12.05 99.4 72.95 225.91 110.1 0 0 157.63 51.2 320.28 38.15l123.49 151.61s-125.5 93.37-114.46 245.98c0 0-4.01 171.69 161.65 253.01 0 0 40.16 22.09 8.03 53.22zm-62.25-19.42s-149.92-97.72-163.31-266.39c0 0-17.42-149.94 93.7-269.08l-72.29-89.69s-314.58 6.69-538.15-149.93c0 0-208.83 156.62-538.82 149.93l-72.29 89.36s103.42 95.38 92.37 272.08c0 0-2.01 155.63-163.65 263.06l68.27 65.26s-27.11 217.87 119.48 386.54c0 0 138.55 185.75 397.59 191.77l70.28 76.3s25.1 29.12 54.21-4.01l68.28-71.29s223.89 0 364.45-154.62c0 0 170.36-159.96 150.28-422.35zm-1163.15-390.22c-6.52-49.2-58.73-133.03-58.73-133.03-8.53-10.54-1.51-28.12-1.51-28.12l23.09-25.09c10.05-9.04 25.61-6.03 25.61-6.03 103.74 9.2 245.65-32.63 245.65-32.63 119.14-33.47 226.9-95.38 226.9-95.38 14.73-9.04 22.76-7.03 22.76-7.03 9.71 0 21.42 7.37 21.42 7.37 94.38 54.88 212.85 89.69 212.85 89.69 143.9 46.85 259.03 38.48 259.03 38.48 20.76-2.34 25.11 5.02 25.11 5.02l23.75 28.11c9.38 14.06-5.34 31.46-5.34 31.46-38.82 47.19-58.24 140.9-58.24 140.9-2.67 19.42-23.43 21.76-23.43 21.76l-909.8-.34c-29.62 0-29.12-35.14-29.12-35.14zm21.25 80.99h323.97v53.55h-323.97zm599.73 0h323.97v53.55h-323.97zm-220.74 51.64v-42.19h-6.56c-.62 0-1.13-.51-1.13-1.13v-8.91c0-.63.51-1.14 1.13-1.14h18.65c.63 0 1.14.51 1.14 1.14v52.23c0 .62-.51 1.13-1.14 1.13h-10.95c-.63 0-1.14-.51-1.14-1.13z" fill="#fa2d18" fill-rule="evenodd"/><path d="m703.72 581.39c.19.39.59.63 1.01.63h12.88c.35 0 .69-.16.9-.44l16.17-20.92c2.07-2.73 3.59-5.13 4.52-7.11.95-2.06 1.43-4.46 1.43-7.15 0-5.64-2.07-10.38-6.18-14.07-1.33-1.19-2.89-2.23-4.65-3.12-1.75-.87-3.63-1.55-5.59-2.01-5.18-1.2-10.35-.78-14.68.84-2.7 1.02-5.07 2.45-7.05 4.27-1.99 1.83-3.54 3.97-4.61 6.39-1.06 2.42-1.6 5.03-1.6 7.77 0 3.24.85 6.28 2.51 9.05 1.67 2.77 4.05 4.98 7.07 6.57 2.92 1.56 6.29 2.36 10.01 2.4l-12.03 15.7c-.26.35-.3.81-.11 1.2zm10.05-28.87c-1.37-.71-2.4-1.64-3.15-2.85-.76-1.21-1.12-2.54-1.12-4.06 0-2.01.82-3.74 2.5-5.29 1.72-1.57 3.74-2.34 6.17-2.34 1.72 0 3.3.35 4.7 1.06 1.38.68 2.48 1.63 3.28 2.79.79 1.16 1.17 2.42 1.17 3.85s-.36 2.71-1.11 3.9c-.76 1.21-1.8 2.16-3.18 2.9-2.92 1.55-6.61 1.41-9.26.04zm73.55-24.36c-.19-.39-.59-.64-1.02-.64h-12.92c-.35 0-.69.17-.91.45l-17.38 22.74c-3.12 4.03-4.7 8.33-4.7 12.78 0 2.69.57 5.29 1.69 7.73 1.13 2.44 2.74 4.59 4.77 6.39s4.42 3.22 7.09 4.21c2.68.99 5.63 1.48 8.77 1.48 4.04 0 7.8-.89 11.18-2.66 3.41-1.79 6.12-4.21 8.07-7.21 1.96-3.02 2.95-6.35 2.95-9.87 0-5.36-1.94-9.82-5.76-13.26-1.74-1.61-3.78-2.9-6.09-3.85-2.31-.94-4.76-1.42-7.38-1.42h-.02l-.51.04 12.05-15.72c.27-.34.32-.8.12-1.19zm-10.2 28.97c1.39.74 2.49 1.75 3.29 3 .8 1.26 1.2 2.57 1.2 4.02 0 1.37-.38 2.61-1.17 3.79-.79 1.2-1.85 2.13-3.24 2.84-2.81 1.43-6.51 1.4-9.26-.06-1.38-.74-2.45-1.74-3.2-2.97-.75-1.24-1.12-2.57-1.12-4.05 0-1.47.38-2.74 1.15-3.89.79-1.17 1.87-2.1 3.21-2.77 1.36-.69 2.89-1.04 4.55-1.04 1.68 0 3.18.37 4.59 1.13zm55.19 13.63c-2.55 1.29-6.2 1.53-8.9.18-1.22-.6-2.18-1.39-2.95-2.4-.73-1-1.2-2.12-1.38-3.32-.09-.56-.57-.97-1.13-.97h-10.96c-.3 0-.6.13-.82.35s-.33.52-.32.83c.12 3.16 1.26 6.19 3.38 8.97 2.08 2.72 4.83 4.91 8.17 6.52 3.33 1.58 6.84 2.38 10.45 2.38 3.93 0 7.64-.88 11.03-2.61 3.41-1.73 6.14-4.12 8.13-7.09 2-3 3.01-6.29 3.01-9.77 0-2.53-.52-5-1.54-7.35-1.03-2.32-2.48-4.39-4.3-6.15-1.83-1.76-4.04-3.18-6.57-4.22-4.29-1.77-9.51-2.12-14.37-.67l1.32-6.74h18.48c.63 0 1.14-.51 1.14-1.13v-8.91c0-.63-.51-1.14-1.14-1.14h-27.55c-.54 0-1 .38-1.11.9l-5.81 27.34c-.12.61.26 1.2.85 1.34l9.83 2.35c.41.11.81-.02 1.09-.32.94-.99 2.05-1.76 3.28-2.31 2.74-1.21 5.91-1.07 8.51.26 1.41.72 2.54 1.69 3.37 2.88.81 1.17 1.21 2.4 1.21 3.74 0 1.52-.37 2.87-1.14 4.13s-1.84 2.21-3.26 2.93zm407.39 83.32s-1.01-24.09-28.11-25.1l-918.86-.4s-17.47-2.3-23.9 14.71c0 0-19.75 94.64-107.51 181.94 0 0-14.24 15.62-3.67 32.61l30.78 29.41s-25.03 161.41 66.33 319.04c0 0 125.5 226.91 409.64 231.93 0 0 83.83 2.18 179.28-1.84 130.65-5.5 227.99-46.83 297.75-99.62 40.06-30.31 84.36-78.99 120.9-151.21 0 0 70.67-136 55.68-297.53l28.11-29.12s14.06-13.05-2-34.13c0 0-76.31-72.29-104.42-170.69z" fill="#fa2d18" fill-rule="evenodd"/><path d="m1208.57 458.97s26.11-111.78 68.28-155.29l-18.74-24.09s-273.1 4.68-505.36-137.22c0 0-183.4 133.87-502.68 135.21l-20.74 23.42s58.89 93.71 65.59 158.64zm119.98 384.37s-78.81-67.77-111.94-190.26h-926.71s-37.15 130.52-114.46 189.76l38.15 36.14s-43.17 210.84 108.44 378.51c0 0 102.97 138.73 312.3 156.05 0 0 152 9.34 273.34-7.99 0 0 162.2-15.96 277.33-145.34 0 0 127.99-135.25 105.9-380.22z" fill="#f6e440"/><path d="m433.46 321.46v97.13c0 4.78-3.88 8.65-8.65 8.65h-29.61c-2.72 0-5.28-1.28-6.92-3.45l-27.95-37.17v31.97c0 4.78-3.87 8.65-8.65 8.65h-29.6c-4.78 0-8.65-3.87-8.65-8.65v-97.13c0-4.77 3.87-8.65 8.65-8.65h33.64c2.67 0 5.2 1.24 6.83 3.35l24 30.95v-25.65c0-4.77 3.87-8.65 8.65-8.65h29.61c4.77 0 8.65 3.88 8.65 8.65zm-8.65 0h-29.61v50.92l-39.48-50.92h-33.64v97.13h29.6v-57.87l43.52 57.87h29.61zm496.97 0v97.13c0 4.78-3.88 8.65-8.65 8.65h-37.64c-4.78 0-8.65-3.87-8.65-8.65v-97.13c0-4.77 3.87-8.65 8.65-8.65h37.64c4.77 0 8.65 3.88 8.65 8.65zm-8.65 0h-37.64v97.13h37.64zm278.73 0v97.13c0 4.78-3.87 8.65-8.65 8.65h-37.64c-4.77 0-8.65-3.87-8.65-8.65v-28.95h-11.83v28.95c0 4.78-3.87 8.65-8.65 8.65h-37.63c-4.78 0-8.66-3.87-8.66-8.65v-97.13c0-4.77 3.88-8.65 8.66-8.65h37.63c4.78 0 8.65 3.88 8.65 8.65v28.29h11.83v-28.29c0-4.77 3.88-8.65 8.65-8.65h37.64c4.78 0 8.65 3.88 8.65 8.65zm-8.65 0h-37.64v36.94h-29.13v-36.94h-37.63v97.13h37.63v-37.6h29.13v37.6h37.64z" fill="#fa2d18" fill-rule="evenodd"/><path d="m1056.95 321.46v97.13c0 4.78-3.87 8.65-8.65 8.65h-29.61c-2.72 0-5.28-1.28-6.92-3.45l-27.95-37.17v31.97c0 4.78-3.87 8.65-8.65 8.65h-29.6c-4.78 0-8.65-3.87-8.65-8.65v-97.13c0-4.77 3.87-8.65 8.65-8.65h33.64c2.68 0 5.2 1.24 6.84 3.35l23.99 30.94v-25.64c0-4.77 3.87-8.65 8.65-8.65h29.61c4.78 0 8.65 3.88 8.65 8.65zm-8.65 0h-29.61v50.92l-39.48-50.92h-33.64v97.13h29.6v-57.87l43.52 57.87h29.61zm-328.06.8v96.88c0 4.78-3.87 8.66-8.65 8.66h-35.14c-4.78 0-8.66-3.88-8.66-8.66v-12.48l-4.51 14.17c-1.15 3.59-4.48 6.02-8.25 6.02h-24.42c-3.68 0-6.96-2.32-8.17-5.8l-6.62-18.97v17.06c0 4.78-3.87 8.66-8.65 8.66h-28.11c-4.78 0-8.65-3.88-8.65-8.66v-96.88c0-4.78 3.87-8.66 8.65-8.66h49.24c3.7 0 6.99 2.36 8.19 5.87l9.44 27.71 9.13-27.64c1.18-3.54 4.49-5.94 8.22-5.94h48.31c4.78 0 8.65 3.88 8.65 8.66zm-8.65 0h-48.31l-16.33 49.41h-1.82l-16.83-49.41h-49.24v96.88h28.11v-68.1l23.44 67.16h24.42l21.42-67.16v68.1h35.14zm-213.36 28.02 10.07 27.48h-20.3z" fill="#fa2d18" fill-rule="evenodd"/><path d="m567.45 415.12c1.07 2.67.75 5.68-.87 8.07-1.6 2.38-4.29 3.8-7.16 3.8h-36.9c-3.7 0-6.98-2.35-8.19-5.84l-4.7-13.65h-22.33l-5.65 14.07c-1.32 3.27-4.49 5.42-8.02 5.42h-29.87c-2.87 0-5.56-1.42-7.16-3.79-1.61-2.38-1.95-5.4-.89-8.06l38.51-96.81c1.31-3.3 4.49-5.46 8.04-5.46h38.34c3.53 0 6.71 2.15 8.03 5.44zm-8.03 3.22-38.82-96.81h-38.34l-38.5 96.81h29.87l7.83-19.49h34.35l6.71 19.49zm253.2-47.77c-.88 22.59-19.33 26.23-19.33 26.23h-12.55l.12-53.71h11.8c22.21 2.63 19.96 27.48 19.96 27.48zm-20.52-18.83h-2.61l-.08 36.41h2.84c2.48-.74 11.2-4.32 11.74-18.31.21-2.73.63-16.29-11.89-18.1z" fill="#fa2d18" fill-rule="evenodd"/><path d="m852.08 340.58c16.52 30.73 1.62 56.47.9 57.67-14.74 23.87-49.86 28.3-51.35 28.48-.33.04-.67.06-1.02.06h-57.23c-4.78 0-8.65-3.87-8.65-8.65v-96.05c0-4.76 3.84-8.63 8.6-8.65l57.57-.34h.04c.14 0 .28.01.42.01 31.74 1.52 49.38 25.49 50.11 26.51.22.3.43.63.61.96zm-7.63 4.1s-15.56-21.59-43.51-22.93l-57.56.34v96.05h57.23s32.3-3.85 45.01-24.43c0 0 13.22-22.26-1.17-49.03z" fill="#fa2d18" fill-rule="evenodd"/><path d="m395.2 372.38-39.48-50.92h-33.64v97.13h29.6v-57.87l43.52 57.87h29.61v-97.13h-29.61zm480.29 46.21h37.64v-97.13h-37.64zm270.08-97.13v36.94h-29.13v-36.94h-37.63v97.13h37.63v-37.6h29.13v37.6h37.64v-97.13zm-126.88 50.92-39.48-50.92h-33.64v97.13h29.6v-57.87l43.52 57.87h29.61v-97.13h-29.61zm-371.74-.71h-1.82l-16.83-49.41h-49.24v96.88h28.11v-68.1l23.44 67.16h24.42l21.42-67.16v68.1h35.14v-96.88h-48.31z" fill="#fff"/><path d="m520.6 321.53 38.82 96.81h-36.9l-6.72-19.49h-34.34l-7.83 19.49h-29.87l38.5-96.81zm-12.3 56.23-10.07-27.48-10.23 27.48zm336.15-33.08c14.4 26.77 1.17 49.03 1.17 49.03-12.71 20.58-45 24.43-45 24.43h-57.24v-96.05l57.56-.34c27.95 1.34 43.51 22.93 43.51 22.93zm-51.79-1.59h-11.8l-.12 53.71h12.55s18.45-3.64 19.33-26.23c0 0 2.26-24.85-19.96-27.48z" fill="#fff" fill-rule="evenodd"/><path d="m474.97 914.1c-7.2 4.21-14.36 8.59-21.92 12.07-1.87.86-3.81 1.52-5.71 2.27-.27.11-.61.19-.84.08-4.69-2.19-9.7-1.36-14.74.45-7.43 2.67-14.23 7.56-20.43 13.84-7.74 7.85-14.23 17.4-18.39 29-2.11 5.87-3.55 12.02-3.24 18.43.3 6.34 2.3 11.24 6.98 13.14 3 1.22 6.05.7 9.06-.43 5.2-1.93 9.84-5.32 14.2-9.37 11.22-10.41 20.35-22.74 26.98-36.17 2.43-4.94 4.35-10.04 5-15.63.05-.47.17-.98.1-1.42-.25-1.68.54-2.93 1.47-4.19 4.36-5.91 9.48-10.9 14.85-15.43 4.33-3.65 8.84-6.98 13.36-10.22.36-.25.72-.5 1.08-.75-.02-.06-.04-.12-.06-.18-2.59 1.46-5.16 3-7.75 4.51z" fill="url(#b)"/><path d="m453.71 977.63c-5.46 4.96-10.94 9.95-17.01 14.06-.25.17-.51.33-.75.5-1.34.92-2.63 1.39-4.26 1.1-3.46-.61-6.85.52-10.11 2.15-6.58 3.3-12.15 8.8-17.01 15.29-7 9.32-12.53 22.71-14.21 33.95-.9 6.09-1.31 12.49.04 18.82.42 1.99 1.03 3.99 1.82 5.8 2.52 5.76 6.71 8.26 11.51 7.36 4.33-.82 7.84-3.57 11.12-6.86 5.92-5.95 10.52-13.22 14.61-21.1 4.71-9.09 8.53-18.44 10.79-28.78 1.11-5.09 1.9-10.21.99-15.43-.39-2.18.02-3.9.89-5.73 3.32-6.97 7.56-13.17 12.15-18.94 3.03-3.8 6.24-7.37 9.47-10.88.29-.31.58-.62.87-.92-.03-.03-.06-.06-.09-.09-3.65 3.12-7.21 6.43-10.82 9.7z" fill="url(#c)"/><path d="m562.97 1244.54c1.11 4.66 2.48 9.34 3.8 14.03 2.01 7.12 4.1 14.25 5.09 21.41.04.3.07.59.12.89.24 1.58.05 2.9-1.02 4.11-2.27 2.57-2.83 5.97-2.84 9.52-.02 7.16 2.61 14.61 6.63 21.95 5.86 10.7 16.74 22.06 27.22 28.83 5.8 3.75 12.24 7.25 19.56 9.2 2.3.61 4.71 1.07 7.01 1.28 7.35.67 12.11-1.64 13.49-6.07 1.24-4.01.01-8.25-1.89-12.57-3.44-7.79-8.87-15.15-15.04-22.42-7.12-8.39-14.76-16.22-23.94-23.31-4.52-3.5-9.18-6.75-14.7-8.65-2.32-.79-3.79-2-5.14-3.66-5.14-6.33-8.98-13.06-12.2-19.85-2.12-4.48-3.9-9.01-5.59-13.51-.15-.4-.29-.8-.44-1.2-.04.01-.08.01-.12.02z" fill="url(#d)"/><path d="m454.08 1035.67c-4.8 6.63-9.52 13.41-14.97 19.53-1.35 1.52-2.84 2.87-4.28 4.3-.22.22-.54.41-.81.4-4.01-.13-7.48 1.57-10.71 4.03-4.89 3.73-8.73 8.99-11.91 14.89-6.76 12.55-8.64 26.41-8.64 39.76 0 5.25 1.12 10.96 3.05 16.31 1.21 3.36 2.8 6.5 5.08 9.05 3.27 3.62 6.76 4.78 10.34 3.84 3.73-.98 6.48-3.63 8.9-6.82 5.09-6.68 8.28-14.75 10.86-23.33 3.06-10.18 5.07-20.49 5.37-31.5.15-5.46-.15-10.83-1.85-16.16-.16-.49-.28-1.03-.53-1.45-.84-1.38-.69-2.75-.38-4.2 1.42-6.61 3.76-12.76 6.52-18.58 2.63-5.54 5.59-10.82 8.62-15.99.21-.35.42-.71.63-1.06-.05-.04-.09-.07-.14-.11-1.74 2.33-3.43 4.72-5.15 7.09z" fill="url(#e)"/><path d="m483.71 1160.82c-1.47 7.16-2.93 14.36-5.39 21.16-.1.28-.21.56-.3.84-.53 1.51-1.3 2.62-2.8 3.3-3.17 1.45-5.24 4.3-6.9 7.48-3.35 6.42-4.54 14.1-4.56 22.17-.02 11.54 3.68 25.7 9.31 35.91 3.04 5.51 6.7 10.99 11.78 15.41 1.6 1.4 3.35 2.69 5.14 3.72 5.69 3.29 10.7 2.97 14.02-.48 2.99-3.12 4.09-7.35 4.66-11.9 1.04-8.21.18-16.77-1.42-25.53-1.85-10.12-4.51-19.95-8.98-29.72-2.2-4.82-4.67-9.47-8.56-13.24-1.63-1.58-2.34-3.22-2.74-5.22-1.51-7.6-1.77-15.09-1.49-22.42.18-4.83.66-9.57 1.19-14.27.05-.42.1-.83.16-1.25-.04-.01-.09-.01-.13-.02-1.11 4.62-2.02 9.34-2.99 14.06z" fill="url(#f)"/><path d="m463.13 1096.96c-3.32 7.46-6.52 15.05-10.58 22.14-1 1.76-2.18 3.38-3.28 5.07-.15.23-.38.49-.63.53-5.11.86-8.68 4.36-11.69 8.67-4.45 6.37-7.06 14.2-8.36 22.84-1.62 10.79-1.2 22.28 2.35 34.15 1.8 6.01 4.31 11.87 8.42 16.97 4.05 5.03 8.63 7.93 13.56 6.85 3.17-.69 5.33-2.84 7.09-5.46 3.05-4.53 4.76-9.94 5.86-15.73 2.83-14.82 2.9-30.06.28-44.91-.96-5.42-2.44-10.67-5.23-15.6-.24-.42-.44-.9-.76-1.22-1.2-1.24-1.31-2.7-1.3-4.26.03-7.27 1.2-14.22 2.86-20.92 1.33-5.41 2.99-10.64 4.71-15.79.14-.41.28-.82.42-1.22-.05-.04-.1-.08-.15-.11-1.22 2.63-2.38 5.32-3.57 8z" fill="url(#g)"/><path d="m663.82 683.82c-13.17 2.48-26.39 5.29-39.55 8.09-6.32 1.34-12.53 2.66-18.63 3.44-.59.07-1.25.05-1.67-.11-2.4-.87-5.22-1.25-8.33-1.24-7.18 0-15.02 1.4-22.18 3.93-14.03 4.96-25.79 11.22-37.69 20.06-6.77 5.04-12.67 11.31-16.9 17.79-2.06 3.15-3.71 6.3-4.34 9.34-.35 1.7.01 3.19.93 4.26.76.89 1.15 1.33 1.91 2.22.92 1.07 2.36 1.69 4.12 1.72 3.15.06 6.57-.7 10.08-1.68 7.24-2.03 14.45-5.04 21.56-8.54 11.67-5.74 23.02-12.04 33.95-19 5.92-3.76 11.58-7.92 16.28-12.6 2.04-2.03 3.69-4.11 4.76-6.27.19-.38.63-.81 1.11-1.13 4.89-3.26 10.55-6.11 16.34-8.41 12.43-4.93 25.16-8.69 38.28-11.76.64-.14 1.3-.26 1.94-.44-.67.07-1.32.21-1.97.33z" fill="url(#h)"/><path d="m505.39 858.92c-8.11 2.7-16.2 5.57-24.45 7.49-2.04.47-4.09.73-6.14 1.09-.32.05-.7.03-.92-.14-3.17-2.37-7.06-2.94-11.21-2.76-6.28.28-12.66 2.41-18.86 5.43-13.21 6.42-23.13 16.7-31.15 27.56-3.15 4.28-5.66 9.57-7.28 15.01-1.01 3.43-1.59 6.88-1.23 10.25.51 4.79 2.68 7.71 6.16 8.96 3.65 1.31 7.48.71 11.35-.51 8.14-2.57 15.57-7.33 22.82-12.87 8.59-6.56 16.42-13.83 23.36-22.65 3.44-4.37 6.47-8.94 8.37-14.25.17-.49.41-1 .45-1.48.16-1.61 1.14-2.64 2.29-3.65 5.24-4.6 10.97-8.3 16.87-11.5 5.62-3.04 11.36-5.67 17.12-8.18.41-.18.81-.35 1.21-.52-.02-.05-.04-.11-.05-.16-2.91.91-5.81 1.91-8.71 2.88z" fill="url(#i)"/><path d="m320.78 1120.52c.34.49.7.97 1.04 1.45 4.39 6.15 8.95 12.05 13.53 17.98 5.69 7.36 11.41 14.72 16.88 22.71 1.17 1.71 2.2 3.36 2.28 5.56.02.58.24 1.24.4 1.87 1.85 7.34 5.19 14.33 9.4 20.12 10.89 14.96 24.01 28.14 42.47 36.12 6.23 2.69 12.36 4.13 18.06 3.68 3.31-.27 6.26-1.21 8.23-3.73 3.07-3.92 2.27-9.23-.33-15.23-2.65-6.06-6.47-11.32-10.51-16.37-7.37-9.23-16.69-18.33-26.03-25.8-7.4-5.92-14.88-11.22-22.73-14.47-5.31-2.2-10.5-3.59-15.09-1.17-.22.12-.58-.01-.86-.16-2.04-1.09-4.08-2.11-6.08-3.43-8.07-5.34-15.66-12.6-22.92-20.52-2.6-2.84-5.14-5.84-7.67-8.84-.02.08-.05.16-.07.23z" fill="url(#j)"/><path d="m309.57 1030.37c.23.52.47 1.04.7 1.57 3.31 7.57 6.89 14.9 10.49 22.26 3.79 7.72 7.55 15.51 10.97 23.78.76 1.82 1.35 3.56 1.02 5.62-.1.62-.03 1.35-.01 2.04.27 7.49 2.09 14.91 4.92 21.38 5.3 12.1 12.18 24.02 22.12 33.89 7.57 7.5 15.66 13.46 24.2 16.09 4.06 1.26 7.99 1.65 11.47.02 3.34-1.57 5.13-4.75 5.32-9.67.14-3.46-.56-6.94-1.59-10.43-1.65-5.55-3.97-10.7-6.63-15.7-6.82-12.81-15.3-24.85-25.3-35.68-5.04-5.45-10.27-10.21-16.04-13.41-3.8-2.1-7.61-3.43-11.47-2.31-.27.08-.63-.09-.9-.31-1.77-1.47-3.56-2.87-5.25-4.56-6.8-6.82-12.72-15.42-18.2-24.61-1.96-3.29-3.82-6.71-5.68-10.13z" fill="url(#k)"/><path d="m317.4 939.77c.12.57.25 1.13.37 1.69 1.33 6.38 2.88 12.62 4.42 18.91 2.33 9.55 4.76 19.07 6.73 29.04.53 2.62.64 4.96-.05 7.83-1.64 6.85-1.18 14-.27 20.83 1.61 12.13 6.65 26.17 13.12 36.79 5.5 9.04 11.87 16.78 19.34 21.81 4.13 2.79 8.38 4.67 12.77 4.26 4.87-.45 8.01-4.18 8.95-10.51.29-1.98.39-4.1.35-6.17-.13-6.59-1.58-12.87-3.3-19.02-3.38-12.16-8.84-25.04-15.14-36.12-4.37-7.67-9.06-14.75-14.93-19.94-2.9-2.58-5.98-4.72-9.5-4.7-1.66 0-2.83-.86-3.93-2.35-.2-.28-.41-.54-.61-.82-4.99-6.71-8.86-14.96-12.21-23.73-2.2-5.77-4.13-11.82-5.99-17.88-.04.03-.08.05-.12.08z" fill="url(#l)"/><path d="m350.56 1206.72c.44.39.87.78 1.3 1.18 4.89 4.47 9.87 8.72 14.87 13.02 7.59 6.52 15.25 12.97 22.86 20.04 2 1.86 3.5 3.72 4.68 6.47 2.81 6.56 7.51 12.18 12.41 17.28 8.67 9.03 21.48 17.76 33.29 22.79 10.09 4.31 20.15 7.05 29.41 6.95 5.12-.06 9.77-.92 13.07-3.74 3.67-3.12 3.83-7.94.59-13.65-1.02-1.79-2.28-3.58-3.61-5.25-4.25-5.33-9.35-9.65-14.55-13.73-10.22-8.01-22.5-15.53-34.41-21.12-8.19-3.84-16.26-7-24.13-7.96-3.91-.48-7.69-.5-10.53 1.5-1.34.94-2.81.89-4.6.29-.33-.11-.66-.21-.99-.32-8.07-2.7-16.15-7.3-24.09-12.6-5.24-3.5-10.4-7.37-15.52-11.29-.02.05-.03.09-.05.14z" fill="url(#m)"/><path d="m780.59-1735.71c-40.05-1.56-78.15-7.01-116.6-17.75-.79 2.12-1.18 3.17-1.97 5.29 39 10.9 77.65 16.43 118.27 18.03v.03c.1 0 .2-.01.3-.01s.2.01.3.01c0-.01 0-.02 0-.03 40.61-1.6 79.27-7.13 118.27-18.03-.79-2.12-1.19-3.17-1.98-5.29-38.45 10.74-76.55 16.19-116.59 17.75z" fill="url(#n)"/><path d="m479.97 811.04c-11.8 3.85-25.07 12.02-33.5 20.65-4.48 4.59-8.66 9.73-11.2 15.78-2.5 6-2.72 11.29.83 14.82 2.23 2.23 5.24 2.91 8.46 3.05 6.1.25 12.34-1.38 18.56-3.59 13.6-4.81 25.88-12.22 37.17-20.29 4.38-3.13 8.55-6.91 12.04-11.29 1.29-1.61 2.28-3.43 3.5-5.11.45-.62.99-1.31 1.61-1.68 5.38-3.23 11.08-5.55 16.84-7.36 7.66-2.4 15.39-4.27 23.12-5.92.49-.11.98-.19 1.46-.28l-.02-.11c-5.26.46-10.53 1.15-15.8 1.79-7.85.95-15.66 1.9-23.32 1.8-.14-.01-.28-.01-.42-.01-1.95.06-3.48-.39-4.77-1.65-2.65-2.59-6.48-3.53-10.55-3.96-1.4-.15-2.82-.22-4.26-.22-6.38 0-13.08 1.4-19.75 3.58z" fill="url(#o)"/><path d="m527.12 1351.12c-3.91 1.1-7.46 2.56-9.16 5.5-.8 1.39-2.21 1.92-4.17 2.07-.37.03-.73.07-1.09.1-8.87.71-18.64-.3-28.55-2.03-6.53-1.14-13.15-2.66-19.72-4.25 0 .06.01.1.02.15.58.19 1.17.38 1.76.57 6.61 2.18 13.24 4.11 19.94 6.07 10.18 2.98 20.45 5.85 31.06 9.3 2.79.9 5.12 2 7.58 4.04 5.88 4.85 13.19 8.45 20.37 10.78 13.81 4.49 28.53 7.59 43.66 7.4 12.04-.16 23.31-1.72 32.33-5.53 4.99-2.11 9.09-4.75 10.81-8.62 1.9-4.27-.59-8.66-6.84-12.5-1.96-1.2-4.15-2.3-6.35-3.28-6.99-3.09-14.24-5.12-21.35-6.57-14.2-2.89-28.89-5.08-43.62-5.48-1.81-.05-3.6-.08-5.37-.08-7.68 0-14.91.54-21.31 2.36z" fill="url(#p)"/><path d="m398.51 1285.16c.52.32 1.05.62 1.58.93 6.67 3.96 13.42 7.6 20.22 11.27 8.45 4.55 16.96 9.08 25.58 14.28 1.84 1.11 3.53 2.22 4.6 4.21.28.52.78 1.05 1.21 1.56 5.02 6.01 11.32 10.77 17.85 14.76 16.53 10.11 36.99 16.23 56.69 16.34 7.11.04 13.64-1.11 18.8-3.77 2.99-1.54 5.3-3.57 5.92-6.63.96-4.78-2.41-9.29-7.78-13.72-5.43-4.49-11.53-7.78-17.69-10.8-11.22-5.51-24.01-10.18-36.19-13.41-9.56-2.54-18.84-4.48-27.52-4.4-5.89.05-11.28.8-14.42 4.82-.15.19-.54.21-.87.18-2.36-.21-4.7-.34-7.12-.78-9.79-1.75-19.94-5.47-30.04-9.93-3.63-1.6-7.25-3.37-10.86-5.14z" fill="url(#q)"/><path d="m518.91 1208.05c.18 8.15.57 16.37-.02 24.47-.15 2.01-.52 3.95-.78 5.93-.03.28-.13.61-.34.74-4.32 2.78-6.06 7.38-6.9 12.52-1.25 7.58 0 15.85 2.6 24.2 3.26 10.44 10.3 22.3 18.09 30.32 4.53 4.67 9.7 9.14 16.03 12.17 6.25 2.99 12 3.82 16.13.89 2.65-1.88 3.62-4.68 3.99-7.77.64-5.32-.41-10.9-2.19-16.62-4.58-14.66-11.75-28.56-21-41.11-3.38-4.59-7.15-8.82-11.95-12.25-.41-.3-.81-.66-1.25-.83-1.66-.66-2.41-1.96-3.11-3.39-3.23-6.69-5.22-13.53-6.63-20.34-1.15-5.49-1.89-10.95-2.53-16.36-.05-.43-.09-.86-.14-1.29-.06-.01-.12-.02-.19-.04.01 2.9.12 5.83.19 8.76z" fill="url(#r)"/><path d="m344.55 852.81c-.01.59-.01 1.18-.02 1.77-.14 7.5.04 14.89.22 22.32.24 9.22.52 18.45.23 28.03-.06 2.06-.2 3.98-1.45 5.81-.33.49-.54 1.15-.78 1.75-2.86 7.02-3.96 14.43-4.28 21.65-.79 18.11 3.71 37.38 13.25 53.13 3.43 5.65 7.63 10.26 12.55 13.09 2.86 1.64 5.84 2.54 8.96 1.62 4.85-1.44 7.38-6.15 8.83-12.45 1.47-6.38 1.48-12.77 1.18-19.12-.55-11.7-2.77-24.29-5.97-35.58-2.55-8.99-5.51-17.53-9.99-24.6-3.03-4.8-6.45-8.87-11.65-9.48-.25-.03-.47-.34-.61-.62-1.01-2.04-2.08-4.03-2.92-6.23-3.41-8.91-5.26-19.12-6.42-29.69-.41-3.79-.68-7.67-.93-11.55-.06.05-.13.1-.2.15z" fill="url(#s)"/><path d="m543.49 687.68c-7.67 5.89-15.17 11.83-22.9 17.7-2.35 1.78-4.55 3.09-7.47 4.02-7.05 2.23-13.59 6.37-19.64 10.9-8.55 6.41-15.58 13.83-21.47 21.22-6.66 8.4-13.21 20.01-15.49 30.23-1.09 4.87-1.38 9.45.27 13.03 1.38 2.96 3.94 4.42 8.28 3.55 2.99-.59 5.95-2.15 8.9-4.13 6.3-4.22 11.68-9.39 16.93-14.78 7.89-8.1 15.44-17.12 22.05-26.12 5.3-7.22 10.16-14.36 13.14-21.5 1.68-4.04 2.69-7.85 1.3-10.91-.12-.28.03-.74.27-1.14 1.19-1.93 2.37-3.87 3.81-5.81 5.63-7.56 13.06-14.92 21.34-22.05 3.73-3.2 7.67-6.34 11.95-9.65-7.65 5.16-14.54 10.26-21.27 15.44z" fill="url(#t)"/><path d="m532.22 754.65c-11.53 3.05-24.45 9.15-33.89 16.09-6.62 4.86-12.79 10.41-17.06 17.18-2 3.17-3.37 6.38-3.46 9.53-.14 4.57 2.28 7 6.07 8.18 4.57 1.41 9.73.97 15.08-.01 10.8-1.98 21.33-5.93 32.08-10.71 8.09-3.6 15.96-7.65 23.63-12.62 5.42-3.52 10.73-7.22 14.59-12.16 1.59-2.04 3.49-3.21 5.91-4.17 7.98-3.17 16.22-5.39 24.55-7.05 7.31-1.45 14.67-2.55 22.43-3.52-4.69.19-9.1.5-13.49.79-9.75.64-19.4 1.42-28.79 1.42-2.41 0-4.74-.18-7.09-.3-.47-.02-1-.17-1.24-.43-2.7-3.01-6.99-4.33-11.84-4.95-2.06-.26-4.18-.39-6.34-.39-6.78 0-13.95 1.22-21.14 3.12z" fill="url(#u)"/><path d="m457.19 705.26c-5.23 9.02-9.84 18.09-14.25 27.22-3.33 6.86-6.8 13.77-10.88 20.71-.48.81-1.33 1.63-2.1 2.34-2.07 1.91-4.28 3.67-6.2 5.72-5.21 5.55-9.12 11.76-12.26 18.11-7.49 15.17-11.43 32.08-9.98 48.81.63 7.19 2.43 13.63 5.99 18.56 1.88 2.6 4.19 4.59 7.4 5 5.1.66 9.51-2.64 13.65-7.9 4.18-5.32 7.03-11.22 9.61-17.22 5.17-12.06 9.11-25.78 11.36-38.59 1.54-8.75 2.51-17.22 1.41-24.88-.58-4.09-1.58-7.92-4.61-10.12-1.47-1.07-1.96-2.59-1.76-4.71.02-.15.02-.3.03-.45.41-8.24 2.8-17.11 6.08-26.1 2.2-6.03 4.85-12.12 7.61-18.18l-.14-.02c-.32.56-.63 1.13-.96 1.7z" fill="url(#v)"/><path d="m391.37 772.81c-.15.56-.3 1.12-.45 1.68-2.15 8.06-3.89 16.07-5.57 24.12-1.77 8.46-3.57 16.96-5.89 25.65-.51 1.92-1.1 3.67-2.63 5.16-.47.46-.87 1.1-1.27 1.67-4.38 6.27-7.44 13.37-9.05 20.24-3.03 12.93-4.58 26.57-2.36 40.16 1.7 10.39 4.76 19.82 10.18 26.78 2.58 3.31 5.56 5.85 9.39 6.49 3.66.62 7.02-.96 10.11-4.86 2.17-2.74 3.68-5.96 4.92-9.39 1.97-5.44 3.16-10.96 3.98-16.54 2.14-14.37 2.5-28.98 1-43.43-.76-7.31-2.09-14.16-4.8-20.03-1.79-3.88-4.07-7.12-7.9-8.39-.27-.08-.46-.43-.54-.76-.53-2.2-1.12-4.36-1.44-6.7-1.28-9.42-.7-19.8.68-30.41.5-3.79 1.16-7.65 1.85-11.49-.07.02-.14.03-.21.05z" fill="url(#w)"/><path d="m893.12 703.73c4.83 3.32 9.54 6.83 14.33 10.2 5.42 3.82 10.86 7.63 17.39 10.24 2.05.81 4.2 1.46 6.28 1.99 10.58 2.72 20.73 4.74 30.54 5.25 2.46.12 3.98-.04 4.67-.74.51-.81.2-2.18-.79-4.27-3.94-8.32-10.54-16.34-19.08-23.78-1.69-1.46-3.55-2.91-5.58-4.16-6.42-3.96-13.65-6.08-20.83-7.74-6.35-1.47-12.8-2.62-19.11-3.41-15.28-1.92-30.87-3.2-45.98-5.12 13.83 6.14 25.61 12.92 38.16 21.54z" fill="url(#x)"/><path d="m1075.42 1066.98c4.35 14.4 11.2 28.63 21.65 41.51 1.27 1.57 2.71 2.8 4.65.67 8.07-8.82 14.05-23.97 13.85-36.28-.11-6.55-2.72-11.43-6.08-15.27-4.79-5.45-10.05-10.06-15.11-14.93-4.91-4.73-9.95-9.2-14.7-14.05-4.02-4.12-6.53-9.54-7.39-16.05-1.85 17.85-2.09 37.14 3.13 54.4z" fill="url(#y)"/><path d="m960.53 738.72c-7.12.93-13.72 2.65-20.49 4.11-5.96 1.27-11.79 2.74-17.9 3.8-5.45.95-11.46.14-17.91-2.47 16.11 9.93 32.43 19.54 51.27 25.65 13.98 4.54 29.05 5.88 44.11 4.79 2.04-.15 3.53-.77 2.47-3.5-4.36-11.18-15.2-23.5-25.86-29.38-4.32-2.38-8.44-3.23-12.23-3.23-1.19 0-2.35.09-3.46.23z" fill="url(#z)"/><path d="m1041.37 871.52c11.28 9.35 24.37 17.33 39.53 22.03 2.96.91 3.58.35 3.88-3.07 1-11.41-2.85-26.68-9.76-36.33-3.92-5.48-8.82-8.04-13.69-9.27-7.51-1.89-14.88-2.78-22.26-4.04-5.58-.96-11.18-1.87-16.76-3.18-5.25-1.22-10.12-4.11-14.39-8.73 8.97 15.34 19.71 31.2 33.45 42.59z" fill="url(#A)"/><path d="m1096.63 1027.41c3.24 3.25 6.71 6.17 10.07 9.28 1.53 1.42 2.85.92 3.95-.99 5.94-10.25 8.82-26.21 6.25-38.25-1.16-5.4-3.72-9.59-7.17-12.28-6.42-4.97-13.08-9.12-19.64-13.43-5.61-3.68-11.3-7.09-16.77-10.94-4.43-3.1-7.65-7.79-9.67-14.09 2.44 28.02 10.75 58.45 32.98 80.7z" fill="url(#B)"/><path d="m1065.93 933.81c8.13 11.28 22.1 22.78 34.84 29.73 2.13 1.16 3.51.76 4.33-1.82 3.52-11.16 3.1-27.21-1.77-38.39-2.46-5.63-6.33-9.13-10.52-11.2-7.23-3.55-14.55-6.12-21.79-8.92-5.29-2.05-10.59-3.93-15.8-6.23-5.29-2.34-9.77-6.27-13.17-12.07 5.39 17.04 13.09 33.93 23.88 48.9z" fill="url(#C)"/><path d="m1013.27 820.66c11.27 5.28 22.53 7.76 33.72 9.02 2.44.27 3.53-.64 3.14-3.43-1.62-11.42-8.83-25.52-17.66-33.45-4.37-3.92-9.08-5.81-13.49-6.05-8.76-.48-17.2-.1-25.64.2-4.32.16-8.63.38-13.02.3-6.3-.12-12.52-1.7-18.83-6.11 14.64 15.48 31.57 30.06 51.78 39.52z" fill="url(#D)"/><path d="m1165.95 1034.94c-5.09 5.29-10.64 9.61-16.16 13.87-5.66 4.36-11.56 7.97-17.22 12.21-3.95 2.96-7.37 6.95-8.96 13.37-3.07 12.27-2.48 28.61.82 41.53.8 3.13 2.59 2.88 4.43 2.09 15.96-6.84 28.77-18.77 35.86-33.9 9.74-20.79 12.5-45.44 8.53-69.01-.31 8.52-2.95 15.32-7.3 19.84z" fill="url(#E)"/><path d="m962.8 685.79c2.7 5.93 4.35 11.77 5.91 17.59 1.76 6.62 2.69 13.09 4.2 19.72.99 4.34 2.99 9.18 7.94 13.24 10.47 8.59 22.41 16.11 36.21 20.89 3.12 1.09 3.78-.3 3.87-2.26.73-15.81-4.36-31.32-14.21-43.6-15.58-19.43-36.47-30.76-59.23-40.16 7.77 4.18 12.88 9.28 15.31 14.58z" fill="url(#F)"/><path d="m1090.85 795.69c-.43 6.17-1.63 11.95-3.03 17.56-1.85 7.39-4.49 14.24-6.63 21.46-1.39 4.66-1.73 9.91.77 16.23 4.47 11.33 13.63 23.94 22.96 32.68 2.78 2.61 3.68 2.79 5.25.12 8.4-14.33 11.37-31.14 8.09-47.3-4.52-22.21-16.88-43.45-33.61-59.71 4.65 6.61 6.6 13.16 6.2 18.96z" fill="url(#G)"/><path d="m1158.08 949.35c-3.74 6.27-8.13 11.7-12.52 17.05-5.1 6.21-10.59 11.78-15.86 17.7-2.81 3.17-4.47 7.63-4.73 13.2-.57 12.55 3.12 28.37 8.69 40.39 1.04 2.24 2.34 3.03 3.96 1.79 3.59-2.73 7.25-5.41 10.59-8.66 26.49-25.78 25.02-68.5 12.29-101.95 1.58 8.44.62 15.38-2.42 20.48z" fill="url(#H)"/><path d="m1132.43 869.79c-1.96 5.86-4.6 11.15-7.28 16.35-3.66 7.07-7.89 13.55-11.74 20.44-2.22 3.98-3.39 8.86-2.4 14.99 1.98 12.28 8.6 26.84 16.17 37.49 1.75 2.44 3.23 2.6 4.88.83 11.52-12.4 18.24-28.36 18.64-45.04.56-22.84-6.81-46.52-19.8-66.32 3.28 8.04 3.53 15.28 1.53 21.26z" fill="url(#I)"/><path d="m996.85 1243.65c-4.02 13.73-5.84 28.6-3.95 44.35.23 1.92.79 3.67 3.58 3.18 11.68-2.06 25.03-10.28 31.44-19.78 3.46-5.13 3.89-10.43 3.09-15.35-1.14-7.02-3.15-13.68-4.86-20.43-1.66-6.57-3.58-13.02-5.04-19.61-1.24-5.6-.49-11.37 2.29-17.05-11.28 13.22-21.75 28.32-26.55 44.69z" fill="url(#J)"/><path d="m1036.34 1224.91c1.03 4.44 2.42 8.76 3.61 13.16.55 2 1.95 2.38 3.94 1.52 10.8-4.67 21.98-15.72 26.28-26.62 1.96-4.97 2.07-9.82.55-13.99-2.82-7.75-6.32-14.99-9.65-22.31-2.85-6.26-5.91-12.36-8.55-18.68-2.14-5.12-2.36-10.83-.62-17.12-13.6 24.45-22.57 53.78-15.56 84.04z" fill="url(#K)"/><path d="m1061.11 1131.76c1.67 14.87 5.78 30.07 13.81 44.6 1.21 2.18 2.63 2.67 4.78 1.08 9.42-7.01 18.05-20.28 20.13-32.07 1.07-6.02-.31-11.17-2.81-15.33-4.3-7.18-9.25-13.6-14-20.18-3.47-4.8-7.04-9.48-10.28-14.44-3.29-5.05-4.94-10.91-4.52-17.65-5.29 17.19-9.12 36.06-7.11 53.99z" fill="url(#L)"/><path d="m1091.81 1271.13c-7.29 1.16-14.43 1.3-21.51 1.41-3.89.06-7.73-.09-11.55-.24-3.29-.13-6.56-.26-9.86-.26-4.98.01-10.07 1.12-14.92 5.15-9.37 7.78-17.67 20.54-21.89 32.12-1.03 2.81.63 3.65 2.61 4.11 17.23 4.01 34.7 2.37 49-5.07 19.93-10.36 35.84-27.94 45.41-48.48-5 6.49-11.05 10.26-17.29 11.26z" fill="url(#M)"/><path d="m1132.94 1198.75c-6.85 2.82-13.75 4.58-20.6 6.28-7.94 1.96-15.82 3.18-23.69 4.81-4.21.88-8.11 3.45-11.41 7.74-7.49 9.76-12.9 24.37-14.68 36.93-.34 2.35.34 3.73 2.42 3.71 4.58-.06 9.2-.03 13.85-.63 37.69-4.88 60.04-40.26 68-73.86-3.49 7.71-8.32 12.73-13.89 15.02z" fill="url(#N)"/><path d="m1156.92 1119.11c-5.26 3.61-10.75 6.35-16.21 8.99-7.42 3.58-14.95 6.34-22.35 9.65-4.26 1.91-8.12 5.18-10.77 10.74-5.35 11.23-7.76 26.88-7.14 39.82.15 2.99 1.35 4 3.79 3.55 17.18-3.2 32.16-12.15 42.12-25.26 13.92-18.33 21.47-41.91 22.13-65.76-2.02 8.51-6.2 14.58-11.57 18.27z" fill="url(#O)"/><path d="m1573.36 3779.5c-1.63 3.66-2.9 7.44-4.37 11.14-.67 1.69.33 2.75 2.53 3.33 11.81 3.06 27.63 2.01 37.6-3.25 4.48-2.36 7.26-5.73 8.29-9.56 1.92-7.13 2.95-14.33 4.16-21.51 1.04-6.18 1.79-12.37 3-18.52.99-4.99 3.93-9.32 8.83-13-24.85 10.4-48.79 26.24-60.04 51.37z" fill="url(#P)"/><path d="m950.18 1284.59c-6.65 12.07-11.45 25.61-12.66 40.76-.18 2.27.77 3.44 3.47 3.51 11.79.32 26.46-4.43 34.66-11.99 4.2-3.86 5.82-8.48 5.97-13.02.24-7.85-.48-15.53-.97-23.23-.35-5.64-.87-11.26-.97-16.92-.09-5.76 1.65-11.23 5.61-16.21-13.77 10.35-27.08 22.57-35.11 37.1z" fill="url(#Q)"/><path d="m806.98 1383.1.1-4.17c-2.59 1.15-1.6 2.68-.1 4.17z" fill="url(#R)"/><path d="m916.58 1356.01c-11.9 2.55-24.66 9.39-33.47 16.92-1.64 1.39-1.83 2.71-.03 3.9 3.97 2.62 7.94 5.35 12.26 7.6 33.94 17.69 73.54 7.82 99.03-12.76-7.19 3.56-14.06 4.4-20.05 2.86-7.34-1.89-14.16-4.57-20.91-7.28-7.81-3.13-15.18-6.78-22.79-10.13-2.57-1.13-5.41-1.72-8.47-1.72-1.78 0-3.65.2-5.57.61z" fill="url(#S)"/><path d="m980.52 1323.61c-10.72 5.29-21.27 15.27-27.92 24.94-1.53 2.23-1.07 3.63 1.25 4.7 16.23 7.48 33.87 9.64 49.56 5.75 21.87-5.43 41.28-18.68 54.81-36.26-6.38 5.28-13.25 7.45-19.84 7.14-6.43-.3-12.58-1.38-18.66-2.53-8.23-1.55-16.11-3.8-24.2-5.56-1.65-.35-3.34-.56-5.07-.56-3.18 0-6.5.69-9.93 2.38z" fill="url(#T)"/><path d="m1034.32 736.35c.68 4.56.77 8.96.76 13.31 0 8.46-.74 16.66-1.19 25.02-.23 4.2 1.12 8.84 4.48 13.7 7.02 10.16 18.7 20.49 29.7 27.22 2.68 1.64 4.06 1.14 4.78-1.14 3.32-10.51 4.33-22.42.77-35.91-6.83-25.88-28.39-47.74-50.91-62.01 7.4 6.46 10.63 13.25 11.61 19.81z" fill="url(#U)"/><path d="m834.03 1203.12v-26c16-2.75 28.5-18.5 28.5-18.5-12.5 1-31.25-2-31.25-2l-.26-30.78c21.25-8.5 28.5-18.06 28.5-18.06-17.08 1.64-29.65-1.64-29.65-1.64l-.84-27.02c20-9 22.05-20.4 22.05-20.4-12.33 1.83-24.58-.58-24.58-.58l-.72-24.02c13.75-4.75 19.25-17.25 19.25-17.25-8.75.5-21.15-1.65-21.15-1.65l-.63-23.75c15.25-5 17.95-18.34 17.95-18.34-14.25 1.25-21.03-.57-21.03-.57l-.71-19.78c12.54-3.31 14.99-13.6 14.99-13.6-14.7.04-19.45-2.96-19.45-2.96l-.57-21.84c14-1 15.1-12.59 15.1-12.59-10.78.68-17.7-1.42-17.7-1.42l-.9-19.1c18.25-5 16.41-16.72 16.41-16.72-10 1.75-20.38.08-20.38.08l-.93-18.07c11.5-2.5 17.6-15.59 17.6-15.59-10.5 2.13-19.85.03-19.85.03l-.92-15.54c10.17-2 15.5-10.34 15.5-10.34-11.71.27-17.45-1.02-17.45-1.02l-.78-12.88c8.75-2.75 12.33-9.23 12.33-9.23-6.93.64-13.52-.76-13.52-.76l-.58-11.22c7.25-3.25 9.97-9.29 9.97-9.29-5.83 1-12.33-.08-19.33-2.16-.72-9.69-8.09-17.22-18.93-21.18 1.13-2.8 1.77-5.96 1.77-9.32 0-6.9-2.67-12.98-6.74-16.67.73-1.92 1.15-4.11 1.15-6.44 0-3.83-1.13-7.29-2.95-9.78-.5-.76-1.06-1.36-1.65-1.82-1.53-1.35-3.34-2.14-5.29-2.14-5.46 0-9.89 6.15-9.89 13.74 0 2.13.36 4.14.98 5.94-4.4 3.62-7.32 9.95-7.32 17.17 0 2.37.33 4.63.91 6.75.25 1.43.49 2.31.49 2.31-4.81.87-8.57 3.56-11.48 6.75-4.47 3.97-7.39 9-8.04 14.54-.06.2-.1.33-.1.33-10 .25-17.13-2.62-17.13-2.62 2.75 8 8.25 10.62 8.25 10.62v12.25c-8.5 1-16.75-1.87-16.75-1.87 2.5 7.25 12.25 11.25 12.25 11.25l-.7 14.02c-4.5.5-17.8-2.02-17.8-2.02 1.92 11.22 14.81 13.95 14.81 13.95l-.59 17.53c-15.5-.75-19.22-2.48-19.22-2.48 2.98 6.52 11.17 11.64 16.17 13.84l-1 20.74s-5.7-.23-10.53-1.06c-4.89-.84-9.5-2.33-9.5-2.33 3 8.33 11.85 13.36 19.1 15.01l-.45 22.62c-16.39-.1-24.29-2.82-24.29-2.82 7.1 9.35 14.47 13.56 21.42 15.96l-.64 22.54s-4.74.02-11.2-.74c-4.02-.46-10.51-1.65-10.51-1.65 7.51 11.56 15.88 14.8 20.78 15.35l-1.18 24.12c-16.95.52-24.67-3.67-24.67-3.67 2.25 12 22.83 17.67 22.83 17.67l-.83 27-24.75-3.33c6.5 12.75 23.97 18.42 23.97 18.42l-.89 29.24s-10.2-.79-14.36-1.22c-4.15-.44-10.72-1.44-10.72-1.44 3.89 14.94 23.5 20 23.5 20l.72 30.1-31.47-2.6c6.22 16.1 29.97 20.6 29.97 20.6l.5 30.25c-10 .75-33.47-2.85-33.47-2.85 7.75 15.25 32.75 20.75 32.75 20.75l.25 31.5-36.53 16.75-22.5 2.25.25 10s5.63 4.4 9.09 6.37c3.45 1.97 10.91 4.13 10.91 4.13l.25 106.25 131.01 1.85 90.99-4.1v-103.75c9.2 1.32 18.4-6.94 18.4-6.94l-.07-9.62-29.66-6.34zm-281.24 177.93 4.92.64 1.87-14.28 11.95 1.59.56-4.26-11.94-1.57 1.27-9.74 11.95 1.56.57-4.34-16.86-2.22z" fill="#fa2d18"/><path d="m615 1367.9c.58 2.15.69 4.37.34 6.69-.33 2.32-1.04 4.39-2.07 6.23-1.05 1.81-2.43 3.4-4.16 4.73-2.04 1.56-4.22 2.63-6.54 3.23s-4.75.71-7.3.33c-2.57-.39-4.87-1.19-6.89-2.46-2.03-1.26-3.77-2.95-5.21-5.05-1.23-1.76-2.07-3.66-2.53-5.73s-.52-4.22-.19-6.47c.34-2.26 1.11-4.36 2.33-6.28 1.2-1.89 2.81-3.53 4.8-4.92 1.89-1.3 3.9-2.2 6.05-2.7 2.15-.48 4.38-.55 6.72-.22 2.39.35 4.55 1.09 6.47 2.19 1.92 1.09 3.62 2.57 5.07 4.39 1.49 1.89 2.53 3.9 3.11 6.04zm-4.96 1.46c-.37-1.44-1.02-2.82-1.94-4.13-1.1-1.52-2.34-2.71-3.73-3.55-1.38-.87-2.98-1.42-4.77-1.69-1.62-.24-3.19-.17-4.73.18-1.54.38-2.96 1.02-4.25 1.96-1.34.97-2.46 2.17-3.34 3.59-.89 1.42-1.44 2.93-1.68 4.51-.25 1.7-.19 3.34.18 4.94s1.03 3.04 1.97 4.3c1.01 1.35 2.22 2.44 3.66 3.31s2.96 1.42 4.55 1.66c3.53.53 6.67-.23 9.4-2.26 2.74-2.04 4.37-4.85 4.9-8.38.21-1.52.15-2.98-.22-4.44zm45.03 2.27c.7 2.11.93 4.34.72 6.67-.22 2.33-.8 4.43-1.74 6.32-.94 1.88-2.23 3.54-3.89 4.95-1.95 1.67-4.07 2.86-6.36 3.59-2.28.72-4.7.97-7.27.72-2.58-.24-4.92-.93-7.01-2.08-2.09-1.16-3.92-2.74-5.48-4.76-1.32-1.68-2.27-3.53-2.84-5.59-.57-2.04-.75-4.18-.53-6.44.21-2.29.87-4.42 1.98-6.39 1.1-1.97 2.61-3.69 4.53-5.18 1.81-1.4 3.78-2.41 5.89-3.03 2.12-.6 4.35-.8 6.7-.58 2.41.22 4.6.84 6.58 1.83 1.98 1 3.74 2.37 5.3 4.12 1.59 1.8 2.73 3.74 3.42 5.85zm-4.41 6.16c.15-1.52-.01-2.99-.45-4.43-.44-1.42-1.17-2.76-2.16-4.03-1.18-1.45-2.49-2.56-3.92-3.35-1.43-.77-3.05-1.24-4.85-1.41-1.63-.15-3.2 0-4.72.45-1.51.44-2.9 1.17-4.14 2.17-1.29 1.05-2.33 2.3-3.14 3.77-.8 1.46-1.27 2.99-1.43 4.59-.15 1.71 0 3.35.45 4.94.45 1.57 1.19 2.96 2.21 4.18 1.07 1.28 2.34 2.31 3.83 3.11 1.48.79 3.02 1.26 4.62 1.41 3.57.33 6.66-.6 9.28-2.79 2.62-2.18 4.1-5.06 4.42-8.61zm12.83-14.87 19.09.65-.17 4.61-6.88-.21-1.06 29.7-5.33-.17 1.06-29.72-6.88-.24zm50.09 21.07c1.16 1.45 1.7 3.16 1.63 5.13-.05 1.61-.48 3.1-1.27 4.47-.78 1.39-1.84 2.53-3.17 3.42-1.31.83-2.78 1.43-4.41 1.78-1.64.32-3.92.45-6.87.38l-9.76-.23 1.21-34.24 9.09.24c4.52.12 7.91 1 10.2 2.64 2.29 1.67 3.39 4.04 3.27 7.08-.04 1.41-.47 2.64-1.27 3.71-.81 1.06-1.96 1.93-3.45 2.6 2.05.54 3.65 1.55 4.8 3.02zm-17.07-4.79 1.94.05c3.16.08 5.43-.25 6.8-1 1.37-.74 2.09-2 2.15-3.79.06-1.58-.5-2.76-1.7-3.56-1.2-.79-3.05-1.21-5.56-1.28l-3.3-.08zm12.66 10.33c.07-1.93-.57-3.43-1.94-4.47-1.35-1.03-3.39-1.58-6.1-1.65l-4.83-.13-.39 11.15 4.83.14c2.83.06 4.92-.31 6.29-1.12 1.36-.82 2.08-2.13 2.14-3.92zm35.48-23.2 15.3 34.74-6.3-.03-4.29-10.12-15.39-.07-4.52 10.07-6.07-.03 15.69-34.59zm2.67 19.69-5.5-13.18-5.77 13.12zm38.31 9.65.08 4.73-19.33.29-.64-34.37 5.94-.08.54 29.63zm26.09-.73.2 4.73-19.32.57-1.32-34.35 5.93-.18 1.11 29.62zm56.16-8.19 6.73-.44c-1.42 3.02-3.52 5.41-6.28 7.14-2.76 1.75-6.04 2.73-9.83 2.98-2.84.18-5.47-.13-7.92-.96-2.45-.79-4.7-2.08-6.72-3.85-1.73-1.48-3.05-3.2-4.03-5.13-.98-1.97-1.56-4.09-1.74-6.38-.17-2.31.18-4.55 1.01-6.69.84-2.16 2.17-4.15 3.97-5.98 1.7-1.72 3.64-3.03 5.82-4.01 2.16-.95 4.51-1.52 7.07-1.68 3.86-.24 7.3.35 10.34 1.78 3.05 1.43 5.4 3.58 7.08 6.43l-6.37.42c-1.32-1.4-2.87-2.41-4.69-3.05s-3.82-.88-6.04-.73c-1.78.11-3.44.51-5 1.2-1.55.72-2.91 1.65-4.06 2.87-1.2 1.25-2.11 2.69-2.71 4.3-.6 1.59-.85 3.2-.73 4.83.13 1.72.58 3.35 1.35 4.86.76 1.51 1.8 2.79 3.11 3.83 1.36 1.11 2.94 1.95 4.66 2.49 1.72.55 3.47.77 5.23.65 2.15-.14 4.07-.62 5.74-1.46 1.68-.84 3.03-1.96 4.01-3.42zm34.08-.21.49 4.75-19.22 1.59-2.91-33.76 5.9-.49 2.41 29.01zm37.51-13.26c.31 2.34.41 4.13.23 5.42-.15 1.27-.58 2.4-1.24 3.4-1.13 1.67-2.62 3.02-4.44 3.94-1.84.93-4.07 1.54-6.7 1.76-2.88.27-5.36.11-7.43-.45-2.09-.56-3.96-1.59-5.61-3.03-.92-.85-1.63-1.83-2.16-2.93-.5-1.1-.94-2.94-1.3-5.53l-3.03-21.86 6.51-.57 3.03 21.89c.46 3.13 1.35 5.23 2.73 6.34 1.37 1.1 3.56 1.53 6.44 1.26 2.79-.24 4.66-1.04 5.63-2.39.99-1.34 1.27-3.53.83-6.62l-3.03-21.9 6.52-.57zm33.95.28c-.42 1.42-1.12 2.64-2.13 3.66-.97.99-2.15 1.75-3.52 2.28-1.34.54-3.33.98-5.92 1.3l-8.56 1.08-5.28-32.6 7.97-1.01c3.97-.5 7.1-.12 9.4 1.14s3.71 3.35 4.17 6.26c.21 1.35.06 2.57-.44 3.69-.49 1.11-1.35 2.08-2.52 2.93 1.9.26 3.48.98 4.75 2.2 1.28 1.23 2.06 2.79 2.37 4.66.24 1.52.16 3-.29 4.41zm-17.87-11.29 1.71-.23c2.78-.33 4.68-.94 5.76-1.84 1.05-.89 1.44-2.2 1.17-3.89-.24-1.5-.97-2.56-2.15-3.15-1.19-.6-2.88-.74-5.1-.45l-2.89.36zm12.96 8.08c-.3-1.85-1.13-3.17-2.52-3.97-1.37-.8-3.25-1.05-5.63-.74l-4.22.53 1.7 10.65 4.23-.54c2.49-.33 4.26-.95 5.31-1.92 1.02-.97 1.4-2.3 1.13-4.01z" fill="#fa2d18" fill-rule="evenodd"/><path d="m884.39 1233.17-87.06-11.28 1-6.34c47 5.67 85.12 11.25 85.93 11.42zm-254.17-10.18 164.11-7.43-.79 6.11-163.32 7.79zm156.72-23.01 7.06 11.91-136.33 6 31.33-13.33zm67.02 18.64-55.63-7.06-8.32-11.11 42.92 5.19zm-51.96-20.57-15.67-2.83-45.5 3.33-.83-21.59c-2.5-5.75-7.5-5-7.5-5-6.5.25-9.33 7.08-9.33 7.08l.33 20.01-33.17 1.34-.5-30.5c14.5-.5 94.42-9.18 94.42-9.18l46.58 16.18.08 25.53-12.91-2.36-.5-14.84c-.14-6.75-6.08-8.25-6.08-8.25-8.84-.17-9.17 6.25-9.17 6.25zm52.83-34.66c-32.52 3.39-69.85-22.02-69.85-22.02-49.48 25.1-123.03 14.18-123.03 14.18l-3.96-3.39c28.66 4.33 70.42 1.13 70.42 1.13 31.96-3.68 57.65-15.92 57.65-15.92 30.69 26.6 67.23 24.49 71.94 23.84zm-40.16-61-.42-14.51c-.04-6.72-6.34-7.38-6.34-7.38-7.53-1.28-7.78 5.87-7.78 5.87l.16 9.74s-4.29-1.64-8.54-4.64c-5.15-3.64-6.55-5.01-6.55-5.01s-7.44 3.88-25.95 8.51c-10 2.5-18.41 4.41-18.41 4.41l-.17-18.17c-1.34-6.17-9.17-6.17-9.17-6.17-4.67.67-6.83 7.83-6.83 7.83l-.33 19.51s-8.5.66-18 1.5c-7.03.61-14.59-.17-14.59-.17l-1-29.5c14.5-.5 92.75-8.74 92.75-8.74l42.5 13.33.87 26.94zm-145.17-43.84-2.67-2.51c28.67 4.34 53.84 1.67 53.84 1.67 36-3.67 63.6-13.97 63.6-13.97 21.73 17.98 63.06 17.31 63.06 17.31l-1.5 2c-37.33-.28-61.67-16.74-61.67-16.74-61.82 23.24-114.66 12.24-114.66 12.24zm37.5 93.17c-7.05.32-16.25.25-16.25.25l-1-29.75c14.5-.5 93.25-10.5 93.25-10.5l45 14.08.35 30.05-12.43-4.21-.42-14.67c0-5.75-6.6-6.88-6.6-6.88-6.5-.75-7.65 5.05-7.65 5.05l.01 10.18s-5.01-2.85-8.87-6.13c-3.8-3.24-6.14-5.97-6.14-5.97s-3 2.25-22 9c-17.98 6.39-23.25 6.49-23.25 6.49l-.17-18.5c-1.5-6.67-8.16-6.34-8.16-6.34-6.5.25-9.17 6.43-9.17 6.43v20.42s-9.17.67-16.5 1zm148.87-41.87-4.25 2.5c-38.37 2.12-67.25-19.25-67.25-19.25-48.37 23.71-121.04 13.29-121.04 13.29l-1.95-2.6c28.66 4.33 62.29.43 62.29.43 31-3 61.03-14.64 61.03-14.64 30.8 24.39 71.17 20.27 71.17 20.27zm-114.17-57.81v-16.69c-2.54-7.07-8.87-6.48-8.87-6.48-6 .5-7.58 9.1-7.58 9.1v16.5s-8.63 1.2-16.91 1.68c-6.82.4-16.57.19-16.57.19l.23-29.63c14.05-.47 89.71-7.7 89.71-7.7l41.79 14.88.25 23.7s-3.72-.2-6.75-1.12c-3.29-1-5.58-1.75-5.58-1.75l-.59-10.83c.34-7-5.83-8.34-5.83-8.34-6.3-.7-6.83 3.84-6.83 3.84l.5 10.83s-2.42-.75-7.42-4c-3.14-2.04-6.91-5.16-6.91-5.16s-5.41 2.01-23.34 6.66c-13.5 3.5-19.3 4.32-19.3 4.32zm-65.53-37.49-6.42-2.58c27.78 4.06 53.94 1.83 53.94 1.83 31.69-2.13 59.8-17.96 59.8-17.96 23.01 25.55 58.38 22.7 58.38 22.7l-1.7 1.51c-37.8 0-57.17-21.17-57.17-21.17-39.41 24.72-106.83 15.67-106.83 15.67zm120.45-19.2.31 9.72s-3.05-2.1-6.68-5.47c-3.85-3.59-6.25-6.55-6.25-6.55s-5.63 3.51-21.39 9.59c-16.7 6.43-21.78 6.74-21.78 6.74v-15.5c-.66-6.01-6.99-5.67-6.99-5.67-6.3.18-8.34 6.26-8.34 6.26v16.34s-11.87.84-18.67 1.4c-6.79.56-13.08-.75-13.08-.75v-26.25c14.05-.36 86.96-6.4 86.96-6.4l40.29 12.74.5 23.17s-1.88-.15-6.6-1.6c-4.77-1.46-5.27-1.96-5.27-1.96l-.88-14.19c-.37-4.25-5.25-5.37-5.25-5.37-5.63-1.13-6.88 3.75-6.88 3.75zm-119.95-20.31-3.2-2.95c27.78 3.14 58.43-.33 58.43-.33 37.15-6.27 51.1-14.72 51.1-14.72 30.05 23.4 54.75 17.81 54.75 17.81l-3.42 2.37c-32 0-51.5-17.01-51.5-17.01-47.33 21.17-90.83 16-106.16 14.83zm129.83-6.57-.21-7.54c-.42-7.08-5.04-7.71-5.04-7.71-6.42-1.17-6.13 5.25-6.13 5.25v4.75s-2.8-1.97-5.95-4.16c-3.83-2.66-6.32-4.5-6.34-4.51 0 0 .08.22-17.92 6.87-12.52 4.62-14.85 4.85-24.15 6.57l-.09-12.95c-1.34-4-5.84-4.33-5.84-4.33-6.03.16-8.72 5.51-8.72 5.51l.14 13.25s-7.75 1-14.25 1.5-15.67.07-15.67.07l.78-24.43c13.45-.32 82.57-5.72 82.57-5.72s14.29 5.91 20.1 7.52c5.81 1.6 17.72 4.69 17.72 4.69l.54 19.08zm-125.15-30.4-2.79-2.79c21.02 1.15 25.42 2.66 55.47.52 35.55-5.63 46.8-14.45 46.8-14.45 23.21 20.16 53.5 18.84 50.67 19.37l-2 1.5c-28.98-.14-49.01-17.28-48.99-17.26-33.67 18.89-90.45 13.67-99.16 13.11zm116.65-8.35c-4.57-2.12-17-11-17-11s-5.75 5.1-18.23 8.71c-15.05 4.34-22.17 5.09-22.17 5.09l.07-12.48c-.56-5.97-6.41-5.37-6.41-5.37-6.03.17-6.93 6.04-6.93 6.04l-.28 13.02s-7.21 1.06-15.46.91c-6.53-.12-13.82-.76-13.82-.76l.49-22.96c13.45-.36 78.96-5.01 78.96-5.01l21.03 6.06 13.92 2.09.33 21.66s-5.33-1.75-14.5-6zm-116.36-30.2-2.17-1.46c25.44 3.07 48.36 2.32 48.36 2.32 35-2.5 50.05-12.04 50.05-12.04 14.12 10.01 35.08 16.3 49.37 16.01l-4 1.25c-22.12-1.5-44.98-14.48-45.25-14.71-42.18 17.67-90.5 9.69-96.36 8.63zm.03.02c-.84-.18-.82-.16-.03-.02zm113-4.15c-5.17-2.17-16.79-10.04-16.79-10.04s-14.21 8.04-38.54 12.04c-12.81 2.1-38.13.71-38.13.71l.46-22.21c11.33-.34 73.83-8.67 73.83-8.67l33.64 13.87.66 18.88s-3.26.4-15.13-4.58zm-108.25-29.2-1.92-2.3c18.54 4.23 49.17.2 49.17.2 17.04-2.42 42.92-11.73 42.92-11.73 22.74 19.86 48.62 13.65 48.62 13.65l-1.63 2.13c-27.83 4.68-46.98-14.26-46.98-14.26-45.95 19.22-90.18 12.31-90.18 12.31zm112.09-3.62-.45-8.92c0-3.94-3.81-4.3-3.81-4.3-4.8-.52-4.87 4.25-4.87 4.25l.25 5.62s-2.76-1.38-5.88-3.62c-3.58-2.59-6.81-5.98-6.81-5.98s-13.91 7.41-39.48 11.63c-20.42 3.36-34.79 2.92-34.79 2.92l.79-20.47c12.36.29 71.04-7.48 71.04-7.48l29.75 10 .75 18zm-109.01-29.23-1.75-1.99c19.37 3.12 46.13.12 46.13.12 20.75-2.44 41.76-8.95 41.76-8.95 15.5 9.18 35.61 11.45 45.61 9.95l-.88 1.25c-12.25 2.37-33.37-3.25-44.37-9.25-52.62 14.75-86.5 8.87-86.5 8.87zm83.25-25.12 28.5 7.25.63 15s-8.53-1.64-16.5-4.88c-3.35-1.36-9.77-5.08-9.77-5.08s-5.75 2.49-17.36 5.21c-11.75 2.75-18 3.75-18 3.75l-.25-9.34c-1.58-2.99-5.36-3.02-5.36-3.02-4.1.13-5.37 4-5.37 4v9.62s-4.64.37-11.77.87c-4.44.31-11.59.1-11.59.1l.59-17.23c18.25 1.37 66.25-6.25 66.25-6.25zm-79.08-4.33-1.5-1.84c18.09 2.26 33.33 2.67 33.33 2.67 20.83-1 48.42-7.08 48.42-7.08 20.42 9.75 41.75 8.75 41.75 8.75l-2.5 1.5c-18.84-.5-39.17-8.67-39.17-8.67-50 12-80.33 4.67-80.33 4.67zm9.83-23.01-4.25-1.25c16.06 1.9 40.42-.42 40.42-.42 18.77-2.32 21.83-3.24 32.33-7.74 15.16 11.96 38.73 11.63 38.73 11.63l-1.01 1.06c-22.19-.05-38.06-10.88-38.06-10.88-26.63 10.64-68.16 7.6-68.16 7.6zm80.81-7.47.13 3.56s-4.44-1.94-7.25-3.46c-2.16-1.17-5.03-3.45-5.03-3.45-5.66 1.86-3.4 1.97-14.49 4.66-11 2.67-14.55 2.66-14.55 2.66l-.18-6.52c-.66-3.33-3.91-3.36-3.91-3.36-4.16.29-4.16 4.29-4.16 4.29l-.09 6.5s-4.48.3-7.78.43c-4.25.17-12.67.33-12.67.33l.34-12c6.78-.24 55.58-5.33 55.58-5.33l26.38 8.38.75 10.62s-2.17-.46-3.75-.88c-1.59-.41-2.69-.93-2.69-.93l-.38-4.13c0-2.83-2.7-3.31-2.7-3.31-3.45-.49-3.55 1.94-3.55 1.94zm-72.93-12.45-2.75-1.83c9.88 3.01 32.14.65 32.14.65 16.02-1.35 30.98-6.43 30.98-6.43 16.58 9.2 33.92 9.37 33.92 9.37l-1.17 1.17c-18.5-1.5-32.83-8.34-32.83-8.34-36.3 9.46-60.29 5.41-60.29 5.41zm125.34 528.23-.24 44.76-28.95 2v-47.47c4.07-11.48 13.4-11.96 13.4-11.96 12.44.23 15.79 12.67 15.79 12.67zm-185.5-48.23 128.28-6.25-1.15 102.67-35.72-.54-1.13-42.88s-4-19.5-22.75-19.75c0 0-19.25 2.5-20.75 19.25l-.92 42.58-44.36-.33z" fill="#fff" fill-rule="evenodd"/><path d="m795.88 829.6-8.63-2.41-.37-7.3s.49-3.08 3.62-3.25c0 0 4.14.45 4.47 3.63zm6.33 69.5-10.54-2.91-.46-8.8s.6-3.71 4.43-3.92c0 0 5.06.55 5.46 4.38zm1.95 34.36-10.75-4.71.03-8.37s.25-3.62 3.65-3.86c0 0 5.78.33 6.69 4.95z" fill="#fa2d18"/><path d="m710 788.22 61.5-5.25 27 8.25.68 12.69s-14.45-1.58-25.3-8.02c0 0-16.88 5-35.55 6.5 0 0-19.33 1.41-28.33.33z" fill="#fff"/><path d="m731.88 793.73c.4-3.45 5.32-4.21 5.32-4.21 3.74.19 4.45 4.01 4.45 4.01l.08 8.74-9.85 1.59zm-3.33 57.32c.48-4.58 6.54-5.6 6.54-5.6 4.6.26 5.48 5.34 5.48 5.34l.1 11.62-12.12 2.12zm-1.38 34.77c.83-6.48 7.29-7.1 7.29-7.1 4.98.28 5.93 5.78 5.93 5.78l.11 13.36-13.67 1.69zm66.37-82.34-8.29-1.89-.08-6.51s.69-2.21 3.57-2.36c0 0 3.8.61 4.1 3.37z" fill="#fa2d18" fill-rule="evenodd"/></svg>