<?xml version="1.0" encoding="UTF-8"?>
<svg width="246" height="278" viewBox="0 0 3947 4453" xmlns="http://www.w3.org/2000/svg">
<defs>
<clipPath id="a">
<path d="m-2374-398h8504v5102h-8504z"/>
</clipPath>
</defs>
<style>tspan { white-space:pre }
		.shp0 { fill: #b7251b } 
		.shp1 { fill: #ffffff } 
		.shp2 { mix-blend-mode: multiply;fill: #cdd2cf } 
		.shp3 { fill: #d8dedd } 
		.shp4 { fill: #d9dedc } 
		.shp5 { fill: #a0a9a8 } 
		.shp6 { mix-blend-mode: multiply;fill: #d9dedc }</style>
<g clip-path="url(#a)">
<path class="shp0" d="m3574.8 2395.5c0 212.53-37.49 424.73-115.52 620.12-77.99 195.45-196.68 374.18-358.82 519.03v0.06c-170.34 151.75-336.12 267.25-511.86 363.33-175.79 96.07-361.5 172.69-572.11 247.04l0.14-0.05-33.15 11.87c-6.41 2.34-13.43 2.34-19.84 0l-33.05-11.83c-210.57-74.35-396.29-150.96-572.07-247.03-175.8-96.08-341.48-211.58-511.83-363.33l-0.02-0.06c-162.15-144.85-280.85-323.58-358.88-519.03-78.04-195.39-115.49-407.59-115.49-620.12v-0.13c0.58-222.66 37.57-424.5 107.16-633.8 24.73-74.71 53.57-148.75 80.64-222.56 27.07-73.82 52.31-147.29 69.94-220.77 15.64-64.96 24.43-129.37 24.48-194.99-0.05-11.21-0.3-22.44-0.83-33.8-4.57-96.8-24.51-179.8-60.51-254.84-36.1-75.05-88.45-142.62-159.43-207.54l-0.17-0.16c-35.71-33.17-54.62-79.09-54.62-125.52 0-23.43 4.77-46.98 14.6-69.25l0.08-0.11c13.87-30.85 36.08-55.89 63.05-73.14 26.91-17.38 58.67-26.89 91.63-26.89 5.89 0 11.78 0.27 17.77 0.95h-0.13c78.01 7.89 157.53 11.45 237.25 11.45 87.88 0 175.94-4.34 262.32-12.13 87.16-7.9 201.14-22.99 318.29-47.7 117.17-24.66 237.52-58.95 336.98-104.38 66.29-30.28 123.08-65.46 163.48-104.81l68.79-66.92c11.35-11.07 29.45-11.07 40.9-0.05l69.39 66.91 0.1 0.06c40.34 39.35 97.17 74.53 163.47 104.81 66.25 30.22 141.85 55.62 219.65 76.44 155.49 41.69 319.43 65.17 435.54 75.64 86.11 7.79 174.09 12.19 261.87 12.19 79.61 0 159.08-3.62 237.13-11.51h-0.06c5.96-0.68 11.98-0.95 17.88-0.95 33.13-0.05 64.92 9.51 91.74 26.89 26.82 17.25 48.99 42.35 62.78 73.08 10.15 22.32 14.93 45.93 14.93 69.42 0 46.64-19.28 92.41-54.89 125.52l-0.09 0.16c-71.07 64.92-123.43 132.49-159.45 207.54-36.09 75.04-55.99 158.04-60.57 254.84-0.56 11.36-0.76 22.59-0.76 33.8 0 65.62 8.79 129.97 24.35 194.88 35.98 147.17 101.22 294.04 151.22 443.38l0.09 0.17c68.93 209.19 106.56 411.03 106.51 633.82zm-1644.2 1749.6-0.14-0.05 0.1 0.04c0.01 0 0.02 0 0.04 0.01zm1622.8-3713v-0.06c-0.05-0.05-0.05-0.05-0.1-0.05l0.1 0.11zm-3074 1329.6 0.02-0.11-0.02 0.11z" fill-rule="evenodd"/>
<path class="shp0" d="m3127.3 3853c5.19 12.43 1.29 26.73-9.43 34.79-41.9 31.57-83.6 62.35-125.89 93.69l-0.05 0.11c-33.23 24.6-71.66 36.69-109.39 36.65-31.58 0-62.68-8.36-90.42-24.34-27.71-15.99-51.98-39.59-69.91-69.64l-1-1.79-0.17-0.32c-0.23-0.45-0.61-1.07-1.15-1.9-1.02-1.85-2.7-4.63-4.2-8.47-4.05-10.11-2.16-21.88 5.07-30.18 6.51-7.56 16.48-11.11 26.17-9.8-1.5-2.99-2.54-6.22-2.97-9.62-1.33-10.52 3.2-20.98 11.65-27.26l88.51-65.42-0.1 0.13c33.38-24.94 72.02-37.31 109.99-37.26 31.52 0 62.56 8.35 90.17 24.34 27.66 15.9 51.78 39.51 69.7 69.46l0.11 0.23c5.13 8.79 9.57 17.7 13.31 26.6zm344.19-264.42c7.39 12.15 5.17 27.74-5.39 37.25-45.49 41.03-90.4 81.44-135.91 122.46l-0.09 0.07c-40.42 36.35-90.31 54.6-139.73 54.53-64.92 0.12-129.2-31.27-172.22-89.71-0.74-1.01-0.95-1.34-1.51-2.36-0.56-0.87-1.19-1.9-2.17-3.32-0.95-1.47-2.23-3.23-3.62-5.65-5.84-9.72-5.64-21.86 0.67-31.33 6.17-9.46 17.24-14.47 28.51-12.9 3.15 0.37 6.28 0.76 9.39 1.11-6.29-4.18-10.9-10.69-12.57-18.26-2.35-10.3 1.1-21.09 9.03-28.17l96.18-86.6c40.47-36.42 90.28-54.62 139.76-54.57 64.97-0.11 129.2 31.3 172.26 89.79l0.47 0.72c6.68 9.73 12.11 19.16 16.94 26.94zm-134.28-2463.1c0-30.42 8.26-60.01 23.23-85.62 14.96-25.61 37.08-47.32 64.97-60.69 1.09-0.48 2.2-0.99 3.44-1.31 1.61-0.56 3.9-1.46 7.05-2.7 3.2-1.21 7.31-2.77 12.55-3.9 14.36-3.21 28.87 4.79 33.97 18.66 12.79 35.24 25.6 70.52 38.38 105.71 6.81 18.43 9.92 37.52 9.92 56.29 0 27.89-6.89 55.04-19.73 79.15-12.77 24.04-31.71 45.03-55.86 59.57-10.47 6.29-23.8 5.38-33.35-2.17-1.61-1.3-3.08-2.8-4.36-4.36-4.28 1.8-8.83 2.67-13.63 2.29-11.57-0.89-21.41-8.4-25.39-19.2l-31.39-85.95c-6.67-18.26-9.8-37.19-9.8-55.77zm213.76 146.5 0.36-0.17c8.79-4.39 18.13-8.27 28.14-11.4 14.1-4.33 29.29 2.45 35.41 15.92 23.76 51.98 47.49 104.53 71.15 156.41l0.11 0.12c14.38 31.73 21.13 65.19 21.13 97.98 0 36.01-8.22 71.2-24.02 102.41-15.85 31.23-39.31 58.58-69.53 78.17-9.91 6.39-22.65 6.23-32.45-0.34-4.96-3.33-8.58-8.01-10.76-13.36-5.27 5.68-12.67 9.19-20.75 9.41-11.82 0.27-22.61-6.41-27.47-17.2l-59.59-130.15h-0.07c-14.43-31.74-21.32-65.14-21.32-97.86 0-39.25 9.81-77.49 28.41-110.66 18.59-33.13 46.15-61.35 81.25-79.28zm210.76 417.16 0.78-0.16c10.68-1.4 21.09-2.17 31.39-2.17 14.42 0 26.6 10.34 29.06 24.49 10.24 60.73 21.12 121.64 31.4 182.7 2.44 14.48 3.68 28.85 3.68 42.98 0 48.54-14.15 94.4-39.26 132.04-25.1 37.51-61.56 66.8-105.52 81.04-11.42 3.68-23.89 0.13-31.57-9.05-7.68-9.15-9.03-22.01-3.45-32.58-3.25 3.9-6.47 7.69-9.88 11.48-7.49 8.39-19.19 11.78-29.99 8.67-10.79-3.11-18.92-12.19-20.86-23.26l-26.23-152.54c-2.56-14.59-3.77-29.11-3.77-43.35 0-53.83 17.47-104.44 47.98-143.91 30.37-39.51 74.49-68.08 126.24-76.38zm184.58 513.15c-7.12 64.68-14.13 130.15-21.85 195.17l0.05-0.29c-6.47 59.51-32.73 111.28-71.38 148.25-38.53 36.95-89.72 59.11-144.73 59.11-12.03 0-24.33-1.1-36.63-3.23l-3.79-0.67c-11.24-1.89-20.32-9.96-23.48-20.87-3.13-10.91 0.27-22.6 8.79-30.11 12.24-10.93 23.59-21.93 34.18-33.18-5.34 4-10.68 7.78-16.14 11.57-9.52 6.35-21.92 6.69-31.73 0.78-9.73-5.9-15.24-17.02-13.98-28.39l14.76-133.98c6.46-59.52 32.71-111.29 71.3-148.23 38.58-36.98 89.75-59.15 144.81-59.15 12.18 0 24.54 1.14 36.94 3.36l0.25 0.05c11.62 2.18 22.8 5.12 33.28 8.85 12.79 4.62 20.8 17.43 19.35 30.96zm-10.73 498.48c-24.33 63.24-48.06 127.32-72.44 191l-0.06 0.1h0.03c-17.98 47.38-48.29 85.81-85.58 112.18-37.28 26.44-81.7 40.86-127.56 40.86-29.65 0-59.87-6.07-88.86-18.6-10.19-4.39-17.04-14.19-17.69-25.21-0.68-11.08 4.99-21.61 14.52-27.16 21.42-12.53 41.14-25.72 58.94-39.53-17.58 9.24-35.96 17.3-54.87 23.99-10.75 3.85-22.84 1.06-30.78-7.12-7.96-8.18-10.54-20.28-6.53-31.01l54.5-144.23 0.07-0.05c17.92-47.32 48.19-85.62 85.6-111.9 37.41-26.32 81.83-40.69 127.65-40.69 33.57 0 67.92 7.73 100.36 23.82l0.12 0.07c11.18 5.55 21.7 11.57 32.17 19.04 10.91 7.79 15.21 21.92 10.41 34.44zm-72.47 191.1c0.01-0.04 0.02-0.07 0.03-0.1 0 0 0 0.08-0.03 0.1zm-66.69 267.88c8.72 10.23 9.52 25.17 1.6 36.19-41.07 57.77-82.09 114.82-122.42 171.78l-0.05 0.1c-23.54 32.83-53.33 58.18-86.27 75.09-33.03 16.98-69.24 25.55-105.76 25.55-57.12 0.07-115.06-21.02-162.88-62.95l-1.47-1.27c-1.72-1.78-4.87-4.41-9.62-9.02-8.07-8.09-10.74-20.26-6.75-30.95 3.97-10.75 13.88-18.26 25.29-19.15 18.64-1.45 36.46-3.84 53.6-6.9h-2.11c-10.3 0-20.54-0.39-30.88-1.12-10.58-0.85-19.99-7.35-24.5-16.92-4.47-9.58-3.35-21.04 2.77-29.61l87.3-121.14-0.17 0.12c23.32-32.9 52.99-58.23 85.89-75.16 32.89-17.03 69.14-25.61 105.65-25.61 56.95-0.05 114.8 21 162.6 62.75l0.07 0.05c0 0.06 0.09 0.11 0.14 0.17 10.03 8.63 19.33 17.99 27.97 28zm-2570.2 721.86c7.21 8.3 9.15 20.07 5.05 30.18-1.34 3.4-2.72 5.9-3.79 7.68-1.06 1.79-1.67 2.91-1.73 3.01l-0.99 1.79c-17.93 30.05-42.18 53.65-69.9 69.64-27.68 15.98-58.86 24.34-90.39 24.34-37.77 0.04-76.18-12.05-109.38-36.65l-0.25-0.11c-41.45-31.28-83.76-62.02-125.74-93.69-10.67-8.06-14.58-22.36-9.43-34.79 3.73-8.9 8.21-17.81 13.29-26.6l0.16-0.23c17.89-29.95 42.06-53.56 69.69-69.46 27.61-15.99 58.65-24.34 90.16-24.34 38.01-0.05 76.6 12.32 109.96 37.26l-0.16-0.18 89.15 65.4c8.62 6.35 13.09 16.75 11.77 27.33-0.44 3.4-1.48 6.58-2.92 9.48 9.5-0.96 19.09 2.61 25.45 9.94zm-469.57-78.71c-49.48 0.07-99.34-18.18-139.8-54.53l-0.06-0.07c-45.49-41.02-90.35-81.43-135.89-122.46-10.53-9.51-12.82-25.18-5.35-37.25 4.68-7.62 10.2-17.35 17.97-27.6h-0.02c0.07-0.06 0.16-0.18 0.26-0.35 0.02-0.04 0.1-0.11 0.16-0.2h0.01c42.74-58.24 106.88-89.41 171.67-89.3 49.53-0.05 99.49 18.15 139.96 54.57l0.09 0.08 95.55 86.58c7.85 7.07 11.23 17.86 8.92 28.16-1.7 7.63-6.33 14.19-12.72 18.32 3.39-0.46 6.81-0.77 10.22-1.22 11.95-1.69 23.6 4.12 29.57 14.59 5.92 10.5 4.92 23.42-2.64 32.88-2.32 2.9-3.12 4.06-4.18 5.73-0.61 1.02-0.81 1.35-1.56 2.36-43 58.44-107.28 89.83-172.16 89.71zm-320.47-2572.3c-12.67-24.18-19.56-51.49-19.58-79.43 0-18.49 3.01-37.2 9.46-55.23l0.25-0.67c13.31-34.97 26.11-70.14 38.93-105.38 5.16-14.2 20.1-22.1 34.73-18.47 4.55 1.16 8.24 2.5 11.45 3.71 3.18 1.24 5.83 2.3 7.81 3.02l2.21 0.99c28.15 13.27 50.29 34.97 65.29 60.46 14.98 25.6 23.06 55.23 23.08 85.39 0 18.82-3.12 37.86-9.78 56.23l-31.47 85.95c-3.95 10.8-13.87 18.31-25.33 19.2-4.75 0.38-9.45-0.49-13.66-2.29-1.32 1.63-2.78 3.12-4.43 4.41-9.63 7.58-22.96 8.41-33.43 2.06-24.08-14.71-42.8-35.74-55.53-59.95zm-172.42 402.62c-15.82-31.21-24.09-66.4-24.09-102.41-0.02-32.79 6.83-66.25 21.22-97.98l0.03-0.12c23.78-52.04 48.13-104.64 71.85-156.41 6.23-13.69 21.82-20.43 36.04-15.7 9.08 3 18.06 6.79 26.92 11.18l0.22 0.17c35.2 17.93 62.77 46.15 81.32 79.28 18.57 33.17 28.33 71.41 28.36 110.66 0 32.72-6.88 66.12-21.27 97.86h-0.05l-59.62 130.15c-4.89 10.79-15.64 17.47-27.48 17.2-8.09-0.22-15.44-3.73-20.73-9.41-2.18 5.35-5.79 10.03-10.8 13.36-9.73 6.57-22.48 6.73-32.38 0.34-30.27-19.59-53.78-46.94-69.54-78.17zm-174.79 303.4c0-14.04 1.16-28.34 3.64-42.65 10.33-61.06 21.19-121.97 31.4-182.7 2.39-14.15 14.65-24.49 28.98-24.49 10.42 0 21.25 0.73 31.76 2.23l0.52 0.1c51.77 8.3 95.81 36.87 126.25 76.38 30.54 39.47 47.99 90.08 48.01 143.91 0 14.24-1.25 28.76-3.82 43.35l-26.23 152.54c-1.91 11.07-10.07 20.15-20.88 23.26-10.8 3.11-22.48-0.28-30.01-8.67-2.89-3.24-5.7-6.59-8.48-9.97 4.65 10.24 3.18 22.32-4.12 31-7.69 9.25-20.2 12.8-31.59 9.12-44.02-14.24-80.59-43.53-105.84-81.15-25.28-37.53-39.59-83.61-39.59-132.26zm3.61-42.6c0-0.05 0-0.05 0.03-0.05l-0.03 0.05zm-70.1 503.12c-7.02-64.57-14.74-129.98-21.83-194.88-1.47-13.81 6.79-26.73 19.94-31.06 10.75-3.63 21.56-6.51 32.42-8.69l0.59-0.11c12.44-2.22 24.86-3.36 37.06-3.36 55.2 0 106.42 22.17 144.94 59.15 38.6 36.94 64.87 88.71 71.67 148.05v0.13l14.73 134.03c1.3 11.37-4.22 22.49-13.98 28.39-9.78 5.91-22.2 5.57-31.65-0.78-6.24-4.22-12.28-8.62-18.26-13.2 10.98 11.74 22.77 23.39 35.64 34.81 8.46 7.51 11.84 19.2 8.65 30.11-3.08 10.91-12.17 18.98-23.39 20.87l-3.86 0.67c-12.25 2.13-24.5 3.23-36.57 3.23-55 0-106.22-22.16-144.74-59.11-38.6-36.97-64.89-88.74-71.36-148.25zm147.03 606.88c-37.43-26.38-67.69-64.85-85.68-112.28l-0.05-0.12c-23.67-63.39-48.01-127.46-72.35-190.88-4.8-12.52-0.57-26.65 10.35-34.44 11.08-7.91 21.89-13.53 31.47-18.72l0.82-0.39c32.5-16.09 66.86-23.82 100.44-23.82 45.81 0 90.26 14.37 127.63 40.69 37.31 26.28 67.65 64.58 85.59 111.9v0.05l54.51 144.23c4.07 10.73 1.54 22.83-6.47 31.01-8 8.18-20.02 10.97-30.8 7.12-18.32-6.39-36-14.2-53.02-23.09 17.55 13.52 36.76 26.39 57.73 38.63 9.56 5.55 15.22 16.13 14.55 27.16-0.68 11.07-7.55 20.88-17.75 25.26-29.18 12.48-59.45 18.55-89.19 18.55-45.96 0-90.39-14.42-127.78-40.86zm294.04 464.41c-36.51 0-72.72-8.57-105.64-25.55-32.95-16.97-62.53-42.26-85.89-75.19l0.15 0.17c-41.08-57.05-82.14-114.18-123.25-171.95-7.79-11.02-7.13-25.96 1.65-36.19 8.62-10.01 17.95-19.37 27.99-28 0.05-0.06 0.08-0.11 0.13-0.17 0.03 0 0.03-0.05 0.05-0.05 47.85-41.75 105.65-62.8 162.61-62.75 36.54 0 72.74 8.58 105.66 25.61 32.92 16.93 62.52 42.26 85.86 75.16l-0.09-0.12 87.21 121.14c6.16 8.57 7.24 19.98 2.75 29.61-4.48 9.57-13.85 16.07-24.42 16.92-10.25 0.73-20.49 1.12-30.77 1.12h-2.24c17.15 3.06 34.95 5.45 53.6 6.9 11.4 0.89 21.3 8.4 25.3 19.15 3.92 10.69 1.31 22.86-6.76 30.95-3.06 2.99-6.51 6.45-11.11 10.29-0.02 0.05-0.08 0.11-0.13 0.16-0.12 0.12-0.28 0.23-0.36 0.35-47.77 41.53-105.47 62.51-162.3 62.44zm2212.6 615.85c0.43 12.73-7.44 24.34-19.45 28.68l-45.87 16.41 1.83 48.43c0.47 12.74-7.28 24.31-19.3 28.66-12.05 4.42-25.4 0.56-33.31-9.53l-29.83-38.29-45.3 16.44c-12.04 4.33-25.4 0.55-33.18-9.59-7.89-10.06-8.36-23.98-1.17-34.51l27.11-40.08-29.85-38.3c-7.77-9.97-8.23-23.94-1.1-34.45 7.07-10.52 20.21-15.3 32.39-11.8l46.88 13.36 27.16-40.1c7.14-10.63 20.32-15.29 32.63-11.73 12.23 3.55 20.75 14.65 21.04 27.39l1.34 48.42 46.64 13.32c12.31 3.44 20.92 14.47 21.34 27.27zm-271.96 116.95c0.48 12.8-7.34 24.39-19.36 28.67l-45.81 16.47 1.73 48.39c0.43 12.8-7.26 24.31-19.28 28.73-12.03 4.4-25.44 0.56-33.28-9.58l-29.84-38.26-45.3 16.42c-12.02 4.34-25.39 0.51-33.21-9.56-7.87-10.07-8.33-23.95-1.14-34.57l27.1-40.04-29.79-38.23c-7.8-10.03-8.31-23.99-1.23-34.51 7.15-10.52 20.23-15.32 32.47-11.85l46.88 13.41 27.16-40.15c7.11-10.55 20.28-15.24 32.56-11.67 12.3 3.55 20.78 14.57 21.16 27.38l1.31 48.38 46.6 13.31c12.32 3.55 20.94 14.58 21.27 27.26zm-895.44-138.89-29.82 38.3 27.13 40.02c7.18 10.59 6.69 24.49-1.15 34.52-7.84 10.13-21.22 13.98-33.21 9.58l-45.34-16.42-29.83 38.36c-7.85 10.02-21.21 13.85-33.22 9.44-12.01-4.33-19.81-15.92-19.32-28.64l1.78-48.44-45.84-16.42c-12.05-4.36-19.88-15.86-19.47-28.74 0.44-12.74 9.05-23.7 21.36-27.28l46.59-13.23 1.34-48.39c0.36-12.73 8.87-23.81 21.11-27.44 12.3-3.56 25.42 1.18 32.58 11.76l27.19 40.12 46.85-13.46c12.22-3.45 25.33 1.33 32.47 11.8 7.11 10.59 6.6 24.55-1.2 34.56zm262.17 107.33-29.81 38.23 27.14 40.04c7.17 10.62 6.7 24.5-1.16 34.57-7.85 10.07-21.21 13.9-33.22 9.56l-45.32-16.42-29.84 38.26c-7.84 10.14-21.24 13.98-33.25 9.58-12-4.42-19.76-15.93-19.3-28.73l1.76-48.39-45.85-16.47c-12.01-4.28-19.85-15.87-19.39-28.67 0.43-12.68 8.99-23.71 21.28-27.26l46.59-13.31 1.39-48.38c0.32-12.81 8.88-23.83 21.11-27.38 12.27-3.57 25.45 1.12 32.57 11.67l27.17 40.15 46.9-13.41c12.2-3.47 25.32 1.33 32.42 11.85 7.14 10.52 6.62 24.48-1.19 34.51zm341.46 181.42c-3.94 12.13-15.22 20.37-27.99 20.37h-63.3l-19.68 60.45c-3.93 12.08-15.22 20.26-27.96 20.26-12.69 0-24-8.18-27.94-20.26l-19.7-60.45h-63.26c-12.81 0-24.09-8.24-28-20.37-3.95-12.25 0.43-25.44 10.78-32.96l51.26-36.84-19.7-61.02c-3.94-12.19 0.44-25.43 10.79-32.95 10.35-7.47 24.36-7.36 34.63 0.23l51.14 37.73 51.16-37.73c10.29-7.59 24.24-7.7 34.6-0.23 10.43 7.52 14.79 20.76 10.83 32.95l-19.71 61.02 51.24 36.84c10.34 7.52 14.71 20.71 10.81 32.96zm1478.8-2398.3-0.05-0.1 0.05 0.1zm263.08-58.78v0.05-0.05zm-3498.6 58.68-0.03 0.1 0.03-0.1z" fill-rule="evenodd"/>
<path class="shp1" d="m1973.5 4422.8 26.29-80.78h84.65l-68.61-49.39 26.3-81.38-68.63 50.61-68.6-50.61 26.31 81.38-68.61 49.39h84.6l26.3 80.78zm-337.92-126.93 42.93-55.11 65.43 23.73-39.11-57.79 42.94-55.11-67.3 19.25-39.14-57.72-1.87 69.86-67.36 19.26 66.04 23.72-2.56 69.91zm-262.19-107.31 42.97-55.13 65.42 23.73-39.14-57.68 42.96-55.2-67.32 19.24-39.06-57.73-1.98 69.92-67.3 19.2 66.03 23.72-2.58 69.93zm938.05 107.31-42.89-55.11-65.48 23.73 39.09-57.79-42.92-55.11 67.36 19.25 39.07-57.72 1.92 69.86 67.3 19.26-65.99 23.72 2.54 69.91zm271.82-117-42.91-55.16-65.4 23.76 39.08-57.73-42.92-55.15 67.34 19.24 39.16-57.72 1.89 69.86 67.34 19.27-66.08 23.7 2.5 69.93zm-1966.6-804.44c-3.2 3.17-5.75 5.74-9.58 8.96-97.48 85.29-237.29 71.14-311.04-32.74-41.05-56.98-82.05-114.11-123.11-171.77 7.71-9.01 16.07-17.37 25.02-25.06 97.45-85.26 237.29-71.15 311.01 32.75l87.18 121.12c-93.6 7.14-186.57-20.5-278.92-83.95 67.96 90.4 168.01 140.38 299.44 150.69zm-241.75-375.13c-104.53 44.86-221.22-6.41-263.51-118.03-23.74-63.46-48.11-127.57-72.45-191.03 8.91-6.45 18.56-11.58 28.21-16.7 106.42-52.55 229.55-1.89 273.16 112.89l54.52 144.27c-96.22-33.99-173.17-103.85-230.23-209.07 19.85 114.8 90.39 207.76 210.3 277.67zm-100.66-427.74-3.85 0.68c-107.07 19.25-205.84-60.92-218.64-178.26-7.1-64.79-14.76-130.15-21.8-194.94 9.59-3.23 19.21-5.79 28.83-7.68 107.75-19.26 205.86 60.9 219.33 178.22l14.75 134.07c-75.03-50.67-130.21-126.37-165.46-228.34 1.29 111.61 50 210.4 146.84 296.25zm-30.78-449.46c-85.25-27.62-139.15-122.51-121.85-223.11 10.26-61.01 21.17-121.91 31.45-182.8 8.97 0 18.6 0.66 27.56 1.9 99.41 16.03 165.43 119.33 146.23 229.56l-26.32 152.64c-60.28-67.36-89.11-153.86-85.9-260.3-33.4 89.73-23.75 183.97 28.83 282.11zm105.82-435.42c-74.38-48.1-101.99-152.64-61.58-241.76 23.74-51.94 48.11-104.49 71.82-156.43 7.72 2.57 15.39 5.74 23.1 9.65 84 42.9 118 155.19 75.01 249.37l-59.65 130.14c-26.26-66.01-30.11-140.39-12.82-223.09-40.39 68.57-52.59 146.17-35.88 232.12zm157.76-421.28c-50.72-30.8-74.42-99.98-53.22-159.65 13.4-35.29 26.28-70.58 39.08-105.83 5.12 1.28 10.9 3.84 16.05 5.78 58.34 27.57 86.56 101.95 63.44 165.4l-31.38 85.95c-23.74-42.98-33.37-94.24-28.82-153.25-21.21 51.33-23.11 105.19-5.15 161.6zm404.58 2421.3c-2.52 3.23-4.48 5.79-6.41 9.02-66.69 90.4-187.22 103.87-268.68 30.79-45.51-41.08-90.36-81.46-135.9-122.47 5.14-8.35 10.24-17.31 16.64-25.67 66.06-90.39 187.24-103.87 268.69-30.77l95.55 86.54c-77.59 23.73-161.58 17.33-250.73-19.24 74.37 63.45 167.98 87.21 280.84 71.8zm292.43 214.21c-1.29 3.23-3.22 5.78-4.48 8.35-49.37 82.72-151.35 104.53-227 48.7-41.68-31.45-84-62.17-125.68-93.63 3.18-7.68 7.02-15.37 11.53-23.09 49.36-82.73 151.34-104.5 227-48.04l89.11 65.4c-64.74 26.27-136.55 28.15-216.1 4.45 68.68 48.1 150.68 60.96 245.62 37.86zm2126.3-526.44c3.18 3.17 6.4 5.74 9.62 8.96 97.43 85.29 237.27 71.14 311.63-32.74 40.41-56.98 81.43-114.11 122.48-171.77-7.68-9.01-16.04-17.37-24.94-25.06-97.54-85.26-237.37-71.15-311.08 32.75l-87.17 121.12c94.17 7.14 187.21-20.5 278.88-83.95-67.9 90.4-167.98 140.38-299.42 150.69zm242.42-375.13c103.87 44.86 220.55-6.41 262.86-118.03 24.4-63.46 48.1-127.57 72.48-191.03-9.01-6.45-17.98-11.58-28.27-16.7-106.42-52.55-229.59-1.89-273.12 112.89l-54.53 144.27c96.18-33.99 173.12-103.85 230.23-209.07-19.88 114.8-89.74 207.76-209.65 277.67zm100-427.74 3.83 0.68c107.03 19.25 205.86-60.92 218.64-178.26 7.75-64.79 14.78-130.15 21.84-194.94-8.95-3.23-18.59-5.79-28.89-7.68-107.03-19.26-205.86 60.9-218.61 178.22l-14.75 134.07c74.99-50.67 130.17-126.37 164.74-228.34-0.64 111.61-49.94 210.4-146.8 296.25zm31.38-449.46c85.28-27.62 138.5-122.51 121.24-223.11-10.25-61.01-21.15-121.91-31.44-182.8-8.95 0-17.99 0.66-27.55 1.9-99.44 16.03-165.44 119.33-146.19 229.56l26.29 152.64c60.21-67.36 89.09-153.86 85.92-260.3 33.3 89.73 23.73 183.97-28.27 282.11zm-106.44-435.42c74.36-48.1 102-152.64 61.58-241.76-23.72-51.94-47.44-104.49-71.2-156.43-8.3 2.57-15.99 5.74-23.78 9.65-83.94 42.9-117.88 155.19-74.93 249.37l59.58 130.14c26.34-66.01 30.83-140.39 12.91-223.09 40.98 68.57 52.55 146.17 35.84 232.12zm-157.7-421.28c51.26-30.8 74.98-99.98 53.16-159.65-12.8-35.29-25.59-70.58-38.45-105.83-5.74 1.28-10.88 3.84-16.66 5.78-57.72 27.57-86.56 101.95-63.45 165.4l31.39 85.95c23.71-42.98 33.35-94.24 28.84-153.25 21.82 51.33 23.1 105.19 5.17 161.6zm-403.97 2421.3c1.89 3.23 3.8 5.79 5.74 9.02 66.68 90.4 187.18 103.87 268.71 30.79 45.54-41.08 90.4-81.46 135.94-122.47-5.14-8.35-10.29-17.31-16.04-25.67-66.69-90.39-187.27-103.87-268.64-30.77l-96.21 86.54c77.61 23.73 161.56 17.33 250.68-19.24-74.38 63.45-167.34 87.21-280.18 71.8zm-293.08 214.21c1.28 3.23 3.15 5.78 4.51 8.35 49.34 82.72 151.29 104.53 227.01 48.7 42.29-31.45 83.95-62.17 125.68-93.63-3.22-7.68-7.07-15.37-11.55-23.09-49.33-82.73-151.37-104.5-227.03-48.04l-88.52 65.4c64.14 26.27 136 28.15 215.5 4.45-68.58 48.1-150.71 60.96-245.6 37.86zm-2060-2812.9c-9.39-200.07-83.15-348.86-229.47-482.68-44.38-41.19-57.52-106.32-33.13-161.33 25.03-55.61 82.54-88.18 142.57-81.88 166.29 16.88 338.85 14.41 505.19-0.62 235.08-21.26 660.86-94.41 836.57-265.07l68.76-66.93 69.42 66.93c175.74 170.66 601.47 243.81 836.61 265.07 165.66 15.03 338.22 17.5 504.56 0.62 60.62-6.3 117.5 26.27 142.5 81.88 25.04 55.01 11.27 120.14-33.11 161.33-146.37 133.82-220.11 282.61-229.54 482.68-3.7 80.66 5.69 158.82 24.46 236.96 36.91 150.7 102.49 298.26 151.91 445.79 68.15 206.96 105.11 405.19 105.11 624.68 0 418.28-147.6 834-464.66 1117.2-337.57 300.77-654.59 456.47-1074.1 604.66l-33.15 11.92-33.1-11.92c-419.59-148.19-736.57-303.89-1074.2-604.66-317.02-283.22-464.59-698.94-464.59-1117.2 0.68-219.49 36.95-417.72 105.71-624.68 48.77-147.53 115.04-295.09 151.27-445.79 18.8-78.14 28.19-156.3 24.42-236.96z"/>
<path class="shp2" d="m818.02 1096.8c-10.93-228.07-99.46-393.12-253.54-534.41-13.38-12.12-17-30.27-9.7-46.08 7.28-15.76 23.02-25.5 40.61-23.65 475.57 49.14 1141.6-54 1378.1-283.84 237.16 229.84 902.58 332.98 1378.1 283.84 17.59-1.85 33.42 7.89 40.65 23.65 7.29 15.81 3.67 33.96-9.04 46.08-154.12 141.29-243.26 306.34-254.2 534.41-18.77 412.43 272.98 670.78 272.98 1273.2 0.61 367.55-124.97 750.31-418.56 1011.8-334.78 298.96-634.44 435.51-1009.9 568.33-374.84-132.82-674.49-269.37-1009.9-568.33-292.92-261.44-418.51-644.2-418.51-1011.8 0.62-602.37 292.37-860.72 272.96-1273.2z"/>
<path class="shp0" d="m1973.5 3763.5c348.81-126.76 616.22-261.46 903.14-517.41 252.34-225.02 365.17-560.46 365.17-892.24 0-185.02-30.95-350.58-89.12-525.26-49.71-151.02-115.28-297.81-152.86-452.47-23.7-100.08-35.18-199.61-31.01-302.7 7.97-160.7 48.61-300.26 123.25-425.17-370.62-2.47-837.12-72.22-1118.6-252.96-281.4 180.74-747.87 250.49-1118.5 252.96 74.6 124.91 115.24 264.47 123.11 425.17 4.87 103.09-6.65 202.62-30.92 302.7-37.61 154.66-102.51 301.45-152.84 452.47-58.26 174.68-89.19 340.24-89.19 525.26 0 331.78 112.86 667.22 365.17 892.24 287.52 255.95 554.38 390.65 903.15 517.41z"/>
<path class="shp3" d="m1265.5 1300.8c-6.22 0-12.05-1.12-17.37-3.4-5.36-2.28-9.99-5.4-13.91-9.31-3.87-3.95-6.89-8.57-9.09-13.92-2.21-5.33-3.31-11.06-3.31-17.14v-0.27c0-6.07 1.1-11.74 3.31-17.08 2.2-5.35 5.22-9.91 9.09-13.93 3.92-4.07 8.57-7.24 14.01-9.52 5.45-2.34 11.41-3.49 18.04-3.49 3.94 0 7.55 0.32 10.84 0.99 3.32 0.67 6.3 1.51 8.96 2.67 2.69 1.11 5.12 2.5 7.45 4.13 2.23 1.65 4.35 3.45 6.31 5.34l-11.95 13.81c-3.32-3.03-6.7-5.42-10.13-7.15-3.44-1.65-7.33-2.54-11.62-2.54-3.6 0-6.9 0.72-9.96 2.11-3.03 1.34-5.65 3.23-7.81 5.68-2.17 2.45-3.87 5.23-5.12 8.46-1.2 3.23-1.81 6.63-1.81 10.29v0.23c0 3.67 0.61 7.13 1.81 10.36 1.25 3.28 2.92 6.07 5.04 8.52 2.17 2.43 4.79 4.34 7.79 5.78 3.05 1.46 6.4 2.12 10.06 2.12 4.83 0 8.98-0.9 12.33-2.68 3.37-1.78 6.7-4.22 10.06-7.28l11.92 12.02c-2.24 2.4-4.48 4.51-6.81 6.34-2.36 1.84-4.98 3.45-7.74 4.73-2.78 1.41-5.85 2.45-9.21 3.11-3.31 0.69-7.05 1.02-11.18 1.02zm82.69-87.18h17.31l36.47 85.73h-19.55l-7.81-19.09h-36.01l-7.74 19.09h-19.12l36.45-85.73zm-0.09-25.83h17.51l14.96 19.09h-14.25l-9.54-8.01-9.68 8.01h-13.95l14.95-19.09zm19.8 75.81-11.29-27.61-11.31 27.61h22.6zm83.34 37.08c-11.44 0-20.44-3.12-27-9.47-6.54-6.35-9.86-15.81-9.86-28.37v-48.66h18.74v48.19c0 6.96 1.64 12.25 4.91 15.72 3.19 3.55 7.71 5.33 13.46 5.33s10.27-1.73 13.48-5.12c3.27-3.44 4.87-8.51 4.87-15.35v-48.77h18.76v48.1c0 6.45-0.87 12.13-2.65 16.91-1.74 4.74-4.21 8.8-7.48 11.97-3.16 3.17-7.16 5.51-11.79 7.18-4.59 1.56-9.76 2.34-15.44 2.34zm100.22-86.51h18.71v68.14h42.48v17.04h-61.19v-85.18zm107.16 93.3h17.42v16.09h-17.42v-16.09zm0.99-93.86h17.27l36.5 85.75h-19.57l-7.79-19.1h-36.02l-7.77 19.1h-19.14l36.52-85.75zm19.7 50-11.28-27.61-11.36 27.61h22.64zm90.74 37.19c-6.25 0-12.07-1.12-17.39-3.4-5.37-2.28-9.97-5.4-13.85-9.31-3.92-3.95-6.98-8.57-9.14-13.92-2.2-5.33-3.28-11.06-3.28-17.14v-0.27c0-6.07 1.08-11.74 3.28-17.08 2.16-5.35 5.22-9.91 9.14-13.93 3.88-4.07 8.53-7.24 13.95-9.52 5.46-2.34 11.45-3.49 18.01-3.49 3.98 0 7.62 0.32 10.89 0.99 3.3 0.67 6.24 1.51 8.96 2.67 2.65 1.11 5.11 2.5 7.41 4.13 2.24 1.65 4.37 3.45 6.31 5.34l-11.89 13.81c-3.35-3.03-6.72-5.42-10.2-7.15-3.45-1.65-7.28-2.54-11.59-2.54-3.56 0-6.86 0.72-9.94 2.11-3 1.34-5.66 3.23-7.83 5.68-2.21 2.45-3.86 5.23-5.11 8.46-1.18 3.23-1.81 6.63-1.81 10.29v0.23c0 3.67 0.63 7.13 1.81 10.36 1.25 3.28 2.9 6.07 5.06 8.52 2.14 2.43 4.74 4.34 7.78 5.78 3 1.46 6.39 2.12 10.04 2.12 4.85 0 8.98-0.9 12.37-2.68 3.34-1.78 6.7-4.22 10-7.28l11.92 12.02c-2.16 2.4-4.44 4.51-6.82 6.34-2.34 1.84-4.91 3.45-7.71 4.73-2.79 1.41-5.83 2.45-9.19 3.11-3.34 0.69-7.03 1.02-11.18 1.02zm93.67-86.62h39.45c9.78 0 17.2 2.55 22.22 7.56 3.93 3.9 5.81 8.74 5.81 14.48v0.22c0 2.45-0.28 4.55-0.91 6.46-0.56 1.88-1.37 3.55-2.39 5.06-1.01 1.5-2.16 2.83-3.51 3.94-1.34 1.14-2.74 2.14-4.26 2.92 4.89 1.88 8.75 4.39 11.6 7.55 2.83 3.24 4.24 7.7 4.24 13.38v0.21c0 3.9-0.73 7.36-2.27 10.24-1.45 2.9-3.6 5.36-6.4 7.3-2.84 1.95-6.14 3.39-10.1 4.39-3.95 1.01-8.27 1.47-13.06 1.47h-40.42v-85.18zm35.5 34.45c4.15 0 7.46-0.73 9.89-2.18 2.41-1.39 3.63-3.66 3.63-6.77v-0.24c0-2.88-1.05-5.06-3.16-6.56-2.11-1.51-5.18-2.29-9.1-2.29h-18.55v18.04h17.29zm5.02 34.24c4.1 0 7.37-0.67 9.71-2.17 2.37-1.51 3.48-3.85 3.48-7.03v-0.21c0-2.83-1.06-5.12-3.27-6.78-2.14-1.63-5.67-2.45-10.55-2.45h-21.68v18.64h22.31zm83.79 24.6h17.4v16.09h-17.4v-16.09zm-0.15-120.13h17.57l14.93 19.04h-14.26l-9.56-8.02-9.62 8.02h-14l14.94-19.04zm8.68 113.45c-6.56 0-12.66-1.11-18.16-3.45-5.48-2.34-10.24-5.46-14.29-9.35-4.01-3.97-7.12-8.58-9.36-13.92-2.24-5.23-3.36-10.91-3.36-17.04v-0.28c0-6.05 1.12-11.73 3.44-17.07 2.23-5.3 5.41-9.92 9.4-13.94 4.03-4.06 8.81-7.23 14.37-9.52 5.54-2.33 11.59-3.49 18.17-3.49 6.62 0 12.62 1.16 18.11 3.49 5.58 2.29 10.32 5.41 14.33 9.31 3.99 3.96 7.1 8.58 9.38 13.91 2.22 5.34 3.31 11.03 3.31 17.09v0.22c0 6.08-1.11 11.81-3.4 17.16-2.26 5.28-5.44 9.95-9.44 13.97-4 4-8.79 7.12-14.32 9.46-5.54 2.34-11.61 3.45-18.18 3.45zm0.21-17.26c3.73 0 7.18-0.66 10.37-2.05 3.12-1.41 5.82-3.28 8.06-5.73 2.23-2.45 4-5.25 5.26-8.48 1.26-3.22 1.87-6.57 1.87-10.24v-0.28c0-3.61-0.61-7.06-1.87-10.3-1.26-3.22-3.06-6.1-5.37-8.56-2.32-2.39-5.07-4.34-8.19-5.74-3.21-1.38-6.63-2.15-10.34-2.15-3.85 0-7.26 0.7-10.42 2.1-3.11 1.34-5.81 3.22-8.05 5.69-2.19 2.43-3.94 5.22-5.17 8.45-1.34 3.22-1.94 6.67-1.94 10.29v0.22c0 3.63 0.6 7.19 1.94 10.36 1.23 3.28 2.98 6.08 5.29 8.52 2.31 2.46 5.04 4.34 8.15 5.78 3.15 1.46 6.6 2.12 10.41 2.12zm105.6-69.35h39.44c9.77 0 17.2 2.55 22.22 7.56 3.88 3.9 5.86 8.74 5.86 14.48v0.22c0 2.45-0.33 4.55-0.95 6.46-0.56 1.88-1.41 3.55-2.41 5.06-0.99 1.5-2.19 2.83-3.47 3.94-1.36 1.14-2.76 2.14-4.32 2.92 4.93 1.88 8.79 4.39 11.63 7.55 2.8 3.24 4.22 7.7 4.22 13.38v0.21c0 3.9-0.73 7.36-2.23 10.24-1.51 2.9-3.63 5.36-6.44 7.3-2.78 1.95-6.16 3.39-10.04 4.39-4.03 1.01-8.31 1.47-13.09 1.47h-40.42v-85.18zm35.47 34.45c4.17 0 7.45-0.73 9.9-2.18 2.43-1.39 3.64-3.66 3.64-6.77v-0.24c0-2.88-1.09-5.06-3.15-6.56-2.14-1.51-5.2-2.29-9.13-2.29h-18.53v18.04h17.27zm5 34.24c4.15 0 7.38-0.67 9.75-2.17 2.36-1.51 3.55-3.85 3.55-7.03v-0.21c0-2.83-1.1-5.12-3.3-6.78-2.21-1.63-5.73-2.45-10.59-2.45h-21.68v18.64h22.27zm92.27-98.08 15.85 6.9-15.73 14.64h-13.71l13.59-21.54zm0.12 116c-6.62 0-12.72-1.12-18.15-3.45-5.59-2.34-10.29-5.46-14.37-9.35-4.01-3.97-7.07-8.58-9.36-13.92-2.22-5.23-3.32-10.91-3.32-17.04v-0.28c0-6.05 1.1-11.73 3.44-17.07 2.22-5.3 5.45-9.92 9.48-13.94 3.93-4.06 8.74-7.23 14.27-9.52 5.53-2.33 11.65-3.49 18.2-3.49 6.59 0 12.61 1.16 18.1 3.49 5.53 2.29 10.31 5.41 14.31 9.31 4.02 3.96 7.12 8.58 9.36 13.91 2.22 5.34 3.34 11.03 3.34 17.09v0.22c0 6.08-1.12 11.81-3.44 17.16-2.23 5.28-5.34 9.95-9.37 13.97-4.05 4-8.79 7.12-14.35 9.46-5.57 2.33-11.58 3.45-18.14 3.45zm0.19-17.25c3.7 0 7.15-0.67 10.36-2.06 3.11-1.4 5.81-3.28 8.02-5.73 2.27-2.45 4.04-5.25 5.25-8.48 1.29-3.22 1.9-6.57 1.9-10.24v-0.28c0-3.6-0.61-7.07-1.9-10.3-1.21-3.22-3.01-6.1-5.34-8.56-2.29-2.39-5-4.34-8.19-5.73-3.17-1.39-6.62-2.16-10.29-2.16-3.9 0-7.36 0.7-10.48 2.1-3.11 1.34-5.78 3.22-8.03 5.69-2.22 2.43-3.99 5.22-5.23 8.45-1.21 3.22-1.89 6.67-1.89 10.29v0.22c0 3.63 0.68 7.19 1.89 10.36 1.24 3.28 3.08 6.07 5.37 8.52 2.33 2.46 4.99 4.34 8.11 5.78 3.16 1.46 6.62 2.13 10.45 2.13zm65.44-69.37h17.23l39.91 52.44v-52.44h18.5v85.18h-15.93l-41.19-54.11v54.11h-18.52v-85.18zm140.7 86.63c-6.63 0-12.74-1.06-18.2-3.23-5.4-2.24-10.13-5.3-14.06-9.14-3.96-3.9-6.97-8.56-9.21-13.92-2.15-5.33-3.29-11.18-3.29-17.48v-0.27c0-6.07 1.19-11.74 3.37-17.08 2.21-5.35 5.34-9.91 9.27-13.93 3.95-4.07 8.69-7.24 14.16-9.52 5.46-2.34 11.33-3.49 17.82-3.49 3.88 0 7.33 0.32 10.46 0.82 3.11 0.49 5.98 1.28 8.69 2.22 2.64 0.96 5.17 2.18 7.55 3.63 2.33 1.45 4.59 3.12 6.8 5.01l-11.81 14.24c-1.61-1.39-3.22-2.65-4.82-3.66-1.63-1.01-3.35-1.96-5.09-2.67-1.78-0.66-3.68-1.35-5.68-1.73-2-0.4-4.21-0.61-6.66-0.61-3.4 0-6.58 0.77-9.59 2.16-2.94 1.4-5.52 3.3-7.79 5.68-2.21 2.4-3.9 5.18-5.23 8.41-1.25 3.23-1.84 6.63-1.84 10.29v0.23c0 3.95 0.59 7.51 1.84 10.79 1.33 3.29 3.11 6.13 5.39 8.53 2.29 2.45 5.08 4.34 8.18 5.67 3.11 1.35 6.59 1.99 10.42 1.99 6.92 0 12.79-1.65 17.6-5.11v-12.12h-18.86v-16.2h36.95v37c-4.35 3.68-9.57 6.92-15.59 9.53-6.03 2.67-12.99 3.96-20.78 3.96zm101.84-36.02h-9.12v-16.54h9.12v-34.07h33.15c6.68 0 12.81 1.13 18.39 3.24 5.56 2.16 10.29 5.12 14.29 8.96 4.06 3.78 7.14 8.29 9.3 13.4 2.23 5.19 3.34 10.75 3.34 16.77v0.22c0 6.07-1.11 11.65-3.34 16.82-2.16 5.17-5.24 9.68-9.3 13.52-4 3.79-8.73 6.79-14.29 8.97-5.58 2.17-11.71 3.27-18.39 3.27h-33.15v-34.56zm33.15 17.65c3.9 0 7.37-0.58 10.55-1.78 3.15-1.3 5.81-3.02 8.05-5.25 2.24-2.29 3.95-5.01 5.23-8.06 1.23-3.07 1.89-6.51 1.89-10.31v-0.27c0-3.72-0.66-7.13-1.89-10.31-1.28-3.21-2.99-5.89-5.23-8.17-2.24-2.27-4.9-4.07-8.05-5.28-3.18-1.24-6.65-1.89-10.55-1.89h-14.68v17.13h18.48v16.54h-18.48v17.65h14.68zm108.33-97.64 15.92 6.9-15.8 14.64h-13.69l13.57-21.54zm-13.57 28.82h17.31l36.45 85.75h-19.54l-7.83-19.1h-35.96l-7.79 19.1h-19.05l36.41-85.75zm19.76 50-11.31-27.61-11.34 27.61h22.65z" fill-rule="evenodd"/>
<path class="shp0" d="m3187.9 727.68v49.78c0 5.41-0.44 11.35-1.89 17.82-1.41 6.46-3.8 13.47-7.46 20.27-2.38 4.51-5.42 8.9-8.79 13.01-1.8 2.13-3.8 4.12-5.8 6.02v235.92c0 6.24-0.66 13.19-2.6 20.47-1.85 7.35-5.07 14.98-9.54 22.05-2.99 4.64-6.42 8.97-10.29 12.81-0.02 0.01-0.03 0.02-0.05 0.06-4.91 5.06-11.02 9.73-18.03 13.52-6.9 3.8-14.65 6.45-22.17 7.91-5 0.88-9.92 1.34-14.52 1.34h-100.87c-7.41 0-15.58-1.11-23.64-3.68-8.04-2.56-15.78-6.67-22.28-11.47-2.78-2.12-5.47-4.4-7.75-6.67-5.22 5.05-11.39 9.68-18.19 13.12-7.26 3.79-14.93 6.24-22.16 7.47-4.85 0.88-9.51 1.23-13.9 1.23h-108.84c-6.97 0-14.54-0.96-22.11-3.19-0.91-0.28-1.77-0.65-2.72-0.93-3.41 1.16-6.85 2.11-10.31 2.78-4.99 0.88-9.96 1.34-14.58 1.34h-242.54c-7.29 0-15.26-1.11-23.05-3.57-3.22 1-6.4 1.78-9.51 2.34-4.9 0.88-9.56 1.23-13.91 1.23h-108.83c-6.92 0-14.54-0.96-22.12-3.19-0.53-0.28-1.21-0.44-1.82-0.65-3.06 1.04-6.24 1.89-9.34 2.5-5.02 0.88-9.92 1.34-14.54 1.34h-108.89c-6.5 0-13.82-0.78-21.5-2.96-7.62-2.12-15.56-5.74-22.57-10.69-0.35-0.17-0.59-0.38-0.91-0.61-2.87 2-5.9 3.96-9.05 5.56-7.21 3.79-14.91 6.24-22.16 7.47-4.83 0.88-9.5 1.23-13.84 1.23h-108.87c-6.92 0-14.54-0.96-22.05-3.19-7.57-2.26-14.96-5.79-21.33-10.19-4.28-2.83-8.01-6-11.33-9.34-0.02-0.03-0.05-0.05-0.07-0.08l0.06 0.03c-0.03-0.05-0.06-0.06-0.09-0.06-5.72-5.77-10.68-12.74-14.28-20.05-3.64-7.33-5.91-14.97-7.04-22.04-0.77-4.67-1.09-9.12-1.09-13.24v-49.78c0-5.56 0.53-11.69 2.04-18.31 1.55-6.62 4.08-13.69 7.89-20.43 2.57-4.57 5.6-8.91 9.08-12.91 1.57-1.78 3.22-3.45 4.92-5.01v-129.42c-1.62-1.5-3.15-3.07-4.63-4.78-3.53-3.95-6.58-8.37-9.18-12.87-3.35-6.01-5.77-12.18-7.34-18.03-2.09-7.86-2.78-15.09-2.78-21.5v-49.78c0-6.56 0.83-13.68 2.81-20.91 1.95-7.23 5.05-14.42 9.08-20.82 2.65-4.23 5.72-8.13 8.94-11.64h0.02c4.79-5.18 10.78-10.29 17.84-14.43 7.02-4.12 15.08-7.1 23.02-8.79 5.29-1.05 10.55-1.55 15.51-1.55h108.87c6.96 0 14.73 0.95 22.57 3.34 7.77 2.29 15.57 6.08 22.27 10.86 0.13 0.05 0.28 0.17 0.41 0.33 2.01-1.5 4.08-2.84 6.26-4.19 7.02-4.12 15.08-7.1 23.04-8.79 5.27-1.05 10.54-1.55 15.48-1.55h108.89c7.4 0 15.53 1.13 23.5 3.66 0.12 0.07 0.31 0.13 0.43 0.24 2.8-0.95 5.56-1.79 8.35-2.35 5.35-1.05 10.55-1.55 15.54-1.55h108.83c4.54 0 9.4 0.5 14.35 1.33 0.12-0.43 0.21-0.99 0.34-1.55 2.11-8.24 5.89-17.14 11.45-25.16 5.64-8.13 12.92-15.14 20.4-20.15l0.95-0.61 75.52-49.27h0.07c4.79-3.11 10.4-6.17 16.86-8.46 7.57-2.67 16.25-4.34 24.87-4.22 8.64-0.07 16.99 1.5 24.11 3.88 7.2 2.51 13.33 5.77 18.31 9.09l-0.27-0.18 0.33 0.22c-0.02-0.02-0.04-0.03-0.06-0.04l31.46 20.65c3.57-5.8 7.95-11.14 13.01-15.83 7.6-6.84 16.82-12.34 27.18-15.57 6.91-2.18 14.26-3.28 21.59-3.28h58.7c7.5 0 14.89 1.15 21.81 3.39 6.88 2.17 13.23 5.34 19.05 9.25 11.32 7.84 20.13 18.69 25.58 31.06 4.17 9.62 6.12 19.59 6.12 29.39 0 7.78-1.22 15.47-3.67 22.92-1.38 4.47-3.44 8.86-5.78 13.14h41.21c7.45 0 15.8 1.13 24.15 3.9 8.28 2.68 16.36 7.01 23.04 12.36 2.45 1.89 4.65 3.95 6.8 6 4.35-4.28 9.47-8.45 15.45-11.92 7.03-4.12 15.04-7.1 22.95-8.79 5.34-1.05 10.59-1.55 15.59-1.55h108.78c7.01 0 14.83 0.95 22.92 3.46 8.02 2.38 16.09 6.4 23.05 11.56 4.68 3.47 8.72 7.37 12.24 11.43l0.13 0.16c6.04 7.02 11.23 15.81 14.41 24.89 3.16 9.06 4.5 18.36 4.5 26.64zm-46.42 398.26v-0.05c0.01-0.02 0.03-0.04 0.05-0.06h0.06l-0.11 0.11zm-208.26-0.11c-0.05 0-0.05 0-0.05 0.06v0.05l0.05-0.11zm-218.81 0.06c-0.04-0.06-0.12-0.06-0.12-0.06l0.12 0.06zm0.01 0.05h0.08l-0.09-0.05c0 0.01 0.01 0.03 0.01 0.05zm-228.74-0.11c-0.08 0-0.08 0.06-0.08 0.06l0.08-0.06zm-65.3-2s0.04 0.04 0.04 0.09h0.05l-0.09-0.09zm-153.56 2.04c-0.03-0.04-0.09-0.04-0.09-0.04l0.09 0.04zm0.02 0.07h0.13l-0.15-0.07c0.01 0.02 0.02 0.04 0.02 0.07zm-136.81 0 0.03-0.05v-0.06l-0.03 0.11zm-21.73-1.72c-0.03-0.04-0.03-0.06-0.04-0.06-0.03 0-0.05-0.05-0.12-0.11l0.16 0.17zm0.05 0.06-0.05-0.06c0.01 0.01 0.03 0.04 0.05 0.06zm-197.11 1.61c0 0.01 0.01 0.03 0.01 0.05h0.07l-0.08-0.05zm-0.09-0.06 0.03 0.03-0.06-0.03h0.03zm-52.22-323.48c1.88 15.08 2.74 30.9 2.74 47.71v92.46c0 16.86-0.8 32.67-2.59 47.81-1.74 15.04-4.53 29.4-8.73 43.31-4.27 13.82-9.97 27.22-17.62 39.74-7.59 12.6-17.13 24.16-28.33 34.08h-0.02c-10.78 9.58-22.98 17.47-35.77 23.61-12.86 6.12-26.35 10.46-40.17 13.35-24.39 5.11-50.58 7.24-79.32 7.24-29.2 0-55.36-2-79.66-6.9-13.62-2.79-27-6.91-39.8-12.93-3.08-1.45-6.09-2.93-9.04-4.57-4.75 4.46-10.31 8.76-16.63 12.15-6.93 3.8-14.64 6.45-22.13 7.91-5 0.88-9.95 1.34-14.55 1.34h-108.85c-6.49 0-13.87-0.78-21.55-2.96-7.63-2.12-15.55-5.74-22.57-10.69-0.3-0.17-0.62-0.38-0.87-0.61-2.87 2-5.93 3.96-9.1 5.56-7.19 3.79-14.87 6.24-22.14 7.47-4.83 0.88-9.48 1.23-13.83 1.23h-108.87c-6.91 0-14.53-0.96-22.07-3.19-7.52-2.26-14.94-5.79-21.32-10.19-4.21-2.83-8.03-6.06-11.33-9.34l-0.1-0.1 0.09 0.06c-0.03-0.07-0.05-0.07-0.1-0.07-5.69-5.77-10.71-12.74-14.31-20.05-3.62-7.33-5.87-14.97-7-22.04-0.76-4.63-1.1-9.12-1.1-13.24v-43.2c-6.19 2.06-12.5 3.68-18.84 4.9-13.02 2.45-26.52 4.06-40.63 4.94v33.36c0 6.24-0.68 13.19-2.57 20.47-1.89 7.35-5.09 14.98-9.56 22.05-3 4.66-6.53 9.02-10.32 12.87-5.36 5.39-12.02 10.4-19.19 14.07-7.22 3.79-14.93 6.24-22.2 7.47-4.8 0.88-9.5 1.23-13.83 1.23h-108.85c-6.95 0-14.54-0.96-22.07-3.19-7.55-2.26-14.97-5.79-21.35-10.19-4.22-2.82-7.98-6.03-11.29-9.35 0.02 0.01 0.04 0.01 0.05 0.01l-0.09-0.05c-0.01-0.03-0.03-0.05-0.05-0.05-5.74-5.74-10.73-12.72-14.34-20.06-3.63-7.33-5.89-14.97-7.04-22.04-0.75-4.63-1.06-9.12-1.06-13.24v-49.78c0-5.56 0.56-11.69 2.08-18.31 1.48-6.62 4.08-13.69 7.83-20.43 2.56-4.57 5.64-8.91 9.14-12.91 1.53-1.78 3.18-3.45 4.88-5.01v-129.42c-1.61-1.5-3.18-3.07-4.61-4.78-3.53-3.95-6.63-8.37-9.16-12.87-3.43-6.01-5.81-12.18-7.34-18.03-2.11-7.86-2.82-15.05-2.82-21.5v-49.78c0-6.56 0.81-13.73 2.82-20.91 1.93-7.23 5.04-14.42 9.07-20.82 2.67-4.23 5.71-8.13 8.86-11.64h0.05c4.82-5.18 10.81-10.24 17.93-14.43 7.01-4.12 15.02-7.1 22.97-8.79 5.33-1.05 10.6-1.55 15.54-1.55h159.52c13.33 0 25.74 0.5 37.52 1.55 11.79 1.13 22.95 2.74 34.03 5.47l1.81 0.44c12.47 3.45 24.62 8.02 36.28 14.15 0.17 0.1 0.31 0.22 0.53 0.33 4.22-4.17 9.27-8.25 15.02-11.6 7.02-4.12 15.04-7.1 22.99-8.79 5.32-1.05 10.57-1.55 15.53-1.55h108.87c6.97 0 14.73 0.95 22.52 3.34 7.8 2.29 15.61 6.08 22.32 10.86 0.18 0.05 0.29 0.17 0.43 0.33 1.98-1.5 4.07-2.84 6.24-4.19 7-4.12 15.08-7.1 23.01-8.79 5.28-1.05 10.58-1.55 15.54-1.55h108.85c7.43 0 15.6 1.13 23.46 3.66 1.84 0.58 3.64 1.24 5.46 2.02 0.35-2.02 0.76-4 1.26-5.9 2.1-8.24 5.89-17.2 11.45-25.16 5.63-8.13 12.86-15.14 20.38-20.15l0.94-0.61 75.52-49.27h0.02c4.78-3.11 10.48-6.17 16.91-8.46 7.56-2.72 16.26-4.34 24.88-4.22 8.57-0.07 16.91 1.5 24.11 3.88 7.21 2.52 13.3 5.79 18.39 9.13l-0.33-0.22 28.27 18.55c3.25-4.86 7.16-9.49 11.56-13.55 7.59-6.84 16.82-12.34 27.16-15.57 6.87-2.18 14.2-3.28 21.62-3.28h58.59c7.56 0 15 1.15 21.88 3.39 6.94 2.17 13.31 5.34 19.02 9.25 11.38 7.84 20.2 18.69 25.6 31.06h0.03c4.19 9.62 6.13 19.59 6.13 29.39 0 7.78-1.22 15.42-3.66 22.92-2.47 7.46-6.1 14.82-11.26 21.55l-40.85 53.84c-4.83 6.39-10.83 12.06-17.74 16.68 5.4 9.69 9.83 19.89 13.26 30.28 4.64 14.04 7.61 28.45 9.56 43.6zm-557.19 321.7c0.01 0.05 0.03 0.08 0.06 0.1l-0.06-0.1zm0.06 0.1 0.08 0.13c-0.02-0.06-0.05-0.12-0.05-0.12-0.01 0-0.02 0-0.03-0.01zm220.29 1.68h-0.02v0.11l0.02-0.11zm-417.29 0.07c0 0.01 0 0.02 0.01 0.04h0.04l-0.05-0.04zm-0.1-0.07 0.01 0.01-0.02-0.01h0.01zm-323.15 0.06c0.01 0.01 0.03 0.02 0.04 0.04-0.02-0.01-0.03-0.02-0.04-0.04zm-0.05-0.05 0.05 0.05-0.11-0.06c0.01 0 0.03 0 0.06 0.01zm715.95-476.4s0-0.12 0.04-0.12l-0.04 0.12zm947.64 0v-0.12 0.12zm329.29 213.97v-0.05 0.05zm-0.18 262.48v-0.06 0.06zm-445.7 0.05v-0.05-0.06 0.11zm-1004.9-0.05v-0.06 0.06zm-323.25-0.06v0.06-0.06zm569.13 18.93h-0.04 0.04z" fill-rule="evenodd"/>
<path class="shp2" d="m1859.4 627.04c1.14 2.52 0.77 5.46-0.85 7.64l-40.78 53.83c-1.3 1.67-3.14 2.62-5.13 2.62h-41.8c-2.26 0-4.4-1.29-5.6-3.4-1.22-2.05-1.33-4.68-0.35-6.9l23.94-53.83c1.08-2.52 3.38-4.07 5.96-4.07h58.61c2.59 0 4.94 1.55 6 4.11zm951.66 7.64-40.78 53.83c-1.26 1.67-3.13 2.62-5.07 2.62h-41.8c-2.3 0-4.41-1.29-5.65-3.4-1.21-2.05-1.33-4.68-0.31-6.9l23.86-53.83c1.19-2.52 3.45-4.07 5.96-4.07h58.7c2.54 0 4.88 1.55 5.99 4.11 1.1 2.52 0.78 5.46-0.9 7.64zm327.32 109.6v49.78c0 6.45-2.78 10.47-8.46 12.18l-15.47 4.07v276.77c0 3.74-1.1 6.68-3.21 8.91-2.23 2.17-4.91 3.23-8.04 3.23h-100.87c-4.44 0-7.79-2.13-10.34-6.58l-114-243.25 3.76 171.67 16 4.56c2.5 0.68 4.49 2.12 6.04 4.35 1.58 2.17 2.36 4.68 2.36 7.34v49.77c0 3.74-1.12 6.68-3.35 8.91-2.11 2.17-4.95 3.23-8.41 3.23h-108.82c-3.11 0-5.77-1.06-8.01-3.23-2.12-2.23-3.22-5.17-3.22-8.91v-49.77c0-6.12 2.78-10.01 8.46-11.69l15.47-4.56v-210.75l-15.47-4.07c-5.68-1.71-8.46-5.73-8.46-12.18v-49.78c0-3.33 1.1-6.24 3.22-8.62 2.24-2.4 4.9-3.51 8.01-3.51h124.81c4.39 0 7.69 2.17 9.85 6.56l114.95 242.71-3.78-171.11-15.94-4.07c-5.61-1.71-8.45-5.73-8.45-12.18v-49.78c0-3.33 1.12-6.24 3.29-8.62 2.15-2.4 4.85-3.51 7.96-3.51h108.88c3.39 0 6.14 1.11 8.18 3.51 2.01 2.38 3.06 5.29 3.06 8.62zm-612.22-53.32c-1.22-2.68-1.49-5.57-0.71-8.64 0.77-3.04 2.38-5.38 4.95-7.07l75.48-49.31c3.78-2.67 7.69-2.67 11.75 0l75.08 49.31c5.29 4.03 6.68 9.48 4.18 16.27l-10.72 22.82c-1.3 2.67-3.36 4.67-6.13 5.84-2.84 1.17-5.46 1.12-7.98-0.27l-60.55-26.95-60.51 26.95c-1.88 0.66-3.45 1-4.66 1-4.7 0-8.05-2.34-9.84-7.07l-10.34-22.88zm217.68 305.22c2.21 2.4 3.28 5.23 3.28 8.64v82.26c0 3.74-1.07 6.68-3.28 8.91-2.25 2.17-4.85 3.23-7.92 3.23h-242.59c-3.13 0-5.85-1.11-7.96-3.56-2.24-2.33-3.3-5.24-3.3-8.58v-49.77c0-6.12 2.79-10.01 8.42-11.69l15.45-4.56v-210.75l-15.45-4.57c-2.5-0.66-4.56-2.11-6.07-4.28-1.55-2.23-2.35-4.74-2.35-7.4v-49.78c0-2.66 1.06-5.57 3.3-8.62 2.11-2.4 4.83-3.51 7.96-3.51h241.14c3.13 0 5.8 1.11 7.96 3.51 2.17 2.38 3.28 5.29 3.28 8.62v82.27c0 3.41-1.11 6.24-3.28 8.64-2.16 2.39-4.83 3.5-7.96 3.5h-45.98c-2.55 0-4.83-0.78-6.84-2.43-2.03-1.69-3.36-3.9-3.96-6.64l-4.23-16.8h-83.99v60.95h74.13c3.44 0 6.19 1.22 8.18 3.55 2.12 2.35 3.06 5.25 3.06 8.69v53.78c0 3.72-0.94 6.8-3.06 9.13-1.99 2.44-4.74 3.56-8.18 3.56h-74.13v66.02h85.37l4.31-16.76c0.55-2.73 1.87-4.84 3.94-6.61 1.99-1.67 4.28-2.51 6.78-2.51h46.05c3.07 0 5.67 1.16 7.92 3.56zm-288.61-260.52c2.25 2.38 3.36 5.29 3.36 8.62v49.78c0 2.66-0.79 5.22-2.35 7.67-1.57 2.34-3.61 3.79-6.09 4.51l-15.93 4.07v210.75l15.93 4.56c2.48 0.68 4.52 2.12 6.09 4.35 1.56 2.17 2.35 4.68 2.35 7.34v49.77c0 3.74-1.11 6.68-3.36 8.91-2.11 2.17-4.89 3.23-8.39 3.23h-108.83c-3.11 0-5.78-1.06-8.01-3.23-2.11-2.23-3.24-5.17-3.24-8.91v-49.77c0-6.12 2.8-10.01 8.41-11.69l15.54-4.56v-210.75l-15.54-4.07c-5.61-1.71-8.41-5.73-8.41-12.18v-49.78c0-3.33 1.13-6.24 3.24-8.62 2.23-2.4 4.9-3.51 8.01-3.51h108.83c3.5 0 6.28 1.11 8.39 3.51zm-157.08 0c2.18 2.38 3.22 5.29 3.22 8.62v49.78c0 6.45-2.76 10.47-8.39 12.18l-15.53 4.07v210.75l15.53 4.56c5.63 1.68 8.39 5.57 8.39 11.69v49.77c0 3.74-1.04 6.68-3.22 8.91-2.2 2.17-4.88 3.23-7.99 3.23h-108.85c-3.45 0-6.17-1.06-8.18-3.23-2.02-2.23-3.08-5.17-3.08-8.91v-49.77c0-6.12 2.84-10.01 8.47-11.69l15.43-4.56v-68.03h-115.36v68.03l15.95 4.56c2.5 0.68 4.52 2.12 6.09 4.35 1.59 2.17 2.36 4.68 2.36 7.34v49.77c0 3.74-1.11 6.68-3.3 8.91-2.21 2.17-5 3.23-8.45 3.23h-108.81c-3.14 0-5.79-1.06-7.99-3.23-2.2-2.23-3.28-5.17-3.28-8.91v-49.77c0-6.12 2.82-10.01 8.42-11.69l15.48-4.56v-210.75l-15.48-4.07c-5.6-1.71-8.42-5.73-8.42-12.18v-49.78c0-3.33 1.08-6.24 3.28-8.62 2.2-2.4 4.85-3.51 7.99-3.51h108.81c3.45 0 6.24 1.11 8.45 3.51 2.19 2.38 3.3 5.29 3.3 8.62v49.78c0 2.66-0.77 5.22-2.36 7.67-1.57 2.34-3.59 3.79-6.09 4.51l-15.95 4.07v61.96h115.36v-61.96l-15.43-4.07c-5.63-1.71-8.47-5.73-8.47-12.18v-49.78c0-3.33 1.14-6.24 3.32-8.62 2.14-2.4 4.83-3.51 7.94-3.51h108.85c3.11 0 5.79 1.11 7.99 3.51zm-494.93 60.39c5.96 17.99 8.92 41.53 8.92 70.58v92.42c0 29.51-2.82 53.43-8.46 71.93-5.66 18.47-14.47 32.95-26.57 43.62-12.07 10.71-27.27 17.95-45.8 21.83-18.51 3.91-40.4 5.91-65.74 5.91-26.05 0-48.2-1.91-66.52-5.63-18.34-3.73-33.37-10.75-45.12-21.04-11.74-10.35-20.3-24.77-25.63-43.48-5.3-18.59-7.97-42.97-7.97-73.14v-92.42c0-29.38 2.81-53.2 8.46-71.3 5.63-18.09 14.43-32.01 26.34-41.64 11.87-9.61 26.91-16.08 45.06-19.3 18.2-3.23 39.96-4.8 65.38-4.8 24.72 0 46.26 1.67 64.58 5.08 18.32 3.37 33.59 9.96 45.82 19.76 12.19 9.84 21.29 23.71 27.25 41.62zm-74.58 65.58c0-6.13-0.46-13.37-1.38-21.61-0.99-8.29-3.48-14.79-7.53-19.52-2.84-2.74-6.57-4.85-11.26-6.4-4.68-1.51-9.62-2.51-14.76-3.01-5.21-0.56-10.33-0.78-15.5-0.78h-25.11c-5.02 0-10.09 0.35-15.26 0.99-5.15 0.67-9.99 1.79-14.52 3.34-4.55 1.51-8.08 3.63-10.55 6.37-2.21 2.34-3.95 5.44-5.14 9.34-1.29 3.89-2.14 8.07-2.63 12.47-0.46 4.39-0.78 8.69-0.96 12.91-0.12 4.24-0.21 8.08-0.21 11.47v91.85c0 15.3 0.71 27.17 2.14 35.62 1.41 8.46 4.21 14.63 8.44 18.5 4.2 3.87 10.4 6.27 18.53 7.11 8.14 0.91 18.9 1.28 32.37 1.28 12.47 0 22.83-0.5 30.95-1.49 8.14-1.06 14.6-3.69 19.49-7.92 4.82-4.23 8.19-10.47 10.04-18.82 1.91-8.23 2.85-19.7 2.85-34.28v-97.42zm-150.1-170.67c-1.3-2.68-1.5-5.57-0.76-8.64 0.81-3.04 2.42-5.38 4.94-7.07l75.56-49.31c3.74-2.67 7.62-2.67 11.7 0l75.08 49.31c5.33 4.03 6.73 9.48 4.24 16.27l-10.8 22.82c-1.28 2.67-3.28 4.67-6.09 5.84-2.84 1.17-5.53 1.12-8-0.27l-60.51-26.95-60.54 26.95c-1.88 0.66-3.43 1-4.68 1-4.71 0-7.99-2.34-9.85-7.07l-10.29-22.88zm-86.85 44.7c2.21 2.38 3.31 5.29 3.31 8.62v49.78c0 6.45-2.84 10.47-8.46 12.18l-15.48 4.07v210.75l15.48 4.56c5.62 1.68 8.46 5.57 8.46 11.69v49.77c0 3.74-1.1 6.68-3.31 8.91-2.17 2.17-4.8 3.23-7.95 3.23h-108.83c-3.45 0-6.19-1.06-8.21-3.23-2.03-2.23-3.11-5.17-3.11-8.91v-49.77c0-6.12 2.84-10.01 8.47-11.69l15.5-4.56v-68.03h-115.44v68.03l15.99 4.56c2.49 0.68 4.52 2.12 6.08 4.35 1.56 2.17 2.36 4.68 2.36 7.34v49.77c0 3.74-1.11 6.68-3.28 8.91-2.19 2.17-5.04 3.23-8.43 3.23h-108.86c-3.12 0-5.82-1.06-7.99-3.23-2.16-2.23-3.24-5.17-3.24-8.91v-49.77c0-6.12 2.75-10.01 8.39-11.69l15.54-4.56v-210.75l-15.54-4.07c-5.64-1.71-8.39-5.73-8.39-12.18v-49.78c0-3.33 1.08-6.24 3.24-8.62 2.17-2.4 4.87-3.51 7.99-3.51h108.86c3.39 0 6.24 1.11 8.43 3.51 2.17 2.38 3.28 5.29 3.28 8.62v49.78c0 2.66-0.8 5.22-2.36 7.67-1.56 2.34-3.59 3.79-6.08 4.51l-15.99 4.07v61.96h115.44v-61.96l-15.5-4.07c-5.63-1.71-8.47-5.73-8.47-12.18v-49.78c0-3.33 1.14-6.24 3.32-8.62 2.21-2.4 4.86-3.51 8-3.51h108.83c3.15 0 5.78 1.11 7.95 3.51zm-361.69 62.18c4.37 16.47 6.55 37.86 6.55 64.24 0 12.91-0.54 24.48-1.62 34.84-1.09 10.31-2.76 19.49-4.93 27.61-4.71 17.27-12.34 30.67-22.99 40.2-10.62 9.8-23.86 16.19-39.62 19.25-15.8 3.03-34.19 4.58-55.12 4.58h-63.36v32.5l15.96 4.56c2.51 0.68 4.52 2.12 6.09 4.35 1.55 2.17 2.34 4.68 2.34 7.34v49.77c0 3.74-1.1 6.68-3.28 8.91-2.17 2.17-5.03 3.23-8.45 3.23h-108.81c-3.2 0-5.83-1.06-8.02-3.23-2.16-2.23-3.26-5.17-3.26-8.91v-49.77c0-6.12 2.81-10.01 8.43-11.69l15.51-4.56v-210.75l-15.51-4.07c-5.62-1.71-8.43-5.73-8.43-12.18v-49.78c0-3.33 1.1-6.24 3.26-8.62 2.19-2.4 4.82-3.51 8.02-3.51h159.51c23.43 0 42.04 1.66 55.8 5.01 17.19 4.79 30.66 11.86 40.35 21.38 10 9.8 17.21 22.93 21.58 39.3zm-76.96 64.24c0-9.79-0.35-18.15-1.13-25.11-0.83-6.95-2.47-12.08-4.94-15.53-1.59-2-4.48-3.9-8.68-5.79-4.24-1.9-12.14-2.83-23.68-2.83h-65.7v95.01h63.36c9.97 0 17.64-0.6 22.96-1.83 5.32-1.17 9.07-3.06 11.28-5.79 2.46-2.74 4.22-7.07 5.13-12.97 0.92-5.9 1.4-14.31 1.4-25.16z" fill-rule="evenodd"/>
<path class="shp1" d="m1843.3 610.36c1.08 2.55 0.74 5.45-0.87 7.63l-40.82 53.82c-1.28 1.67-3.13 2.67-5.13 2.67h-41.75c-2.3 0-4.44-1.28-5.62-3.39-1.2-2.13-1.37-4.74-0.38-6.95l23.94-53.84c1.12-2.51 3.41-4.07 5.96-4.07h58.67c2.59 0 4.91 1.56 6 4.13zm951.62 7.63-40.75 53.82c-1.29 1.67-3.18 2.67-5.12 2.67h-41.76c-2.33 0-4.46-1.28-5.65-3.39-1.19-2.13-1.37-4.74-0.37-6.95l23.96-53.84c1.09-2.51 3.45-4.07 5.94-4.07h58.61c2.62 0 4.98 1.56 6.02 4.13 1.12 2.55 0.78 5.45-0.88 7.63zm327.29 109.65v49.77c0 6.4-2.75 10.4-8.44 12.19l-15.46 4.01v276.77c0 3.78-1.14 6.68-3.23 8.9-2.23 2.25-4.9 3.29-8.04 3.29h-100.84c-4.36 0-7.81-2.17-10.36-6.62l-113.95-243.27 3.73 171.68 15.98 4.57c2.5 0.72 4.47 2.11 6.07 4.34 1.55 2.22 2.32 4.63 2.32 7.34v49.77c0 3.78-1.1 6.68-3.27 8.9-2.2 2.25-4.98 3.29-8.43 3.29h-108.87c-3.12 0-5.78-1.04-7.97-3.29-2.15-2.22-3.28-5.12-3.28-8.9v-49.77c0-6.06 2.78-10.01 8.48-11.68l15.46-4.57v-210.75l-15.46-4.01c-5.7-1.79-8.48-5.79-8.48-12.19v-49.77c0-3.39 1.13-6.29 3.28-8.62 2.19-2.45 4.85-3.57 7.97-3.57h124.8c4.47 0 7.67 2.23 9.86 6.57l114.94 242.7-3.78-171.11-15.9-4.01c-5.64-1.79-8.47-5.79-8.47-12.19v-49.77c0-3.39 1.11-6.29 3.32-8.62 2.15-2.45 4.8-3.57 7.99-3.57h108.81c3.43 0 6.14 1.12 8.22 3.57 2.02 2.33 3 5.23 3 8.62zm-612.2-53.33c-1.22-2.73-1.45-5.62-0.72-8.63 0.84-3.06 2.45-5.44 4.96-7.12l75.47-49.21c3.79-2.78 7.7-2.78 11.75 0l75.11 49.21c5.27 4.06 6.68 9.46 4.22 16.26l-10.79 22.82c-1.3 2.78-3.35 4.67-6.16 5.85-2.75 1.22-5.43 1.05-7.93-0.22l-60.52-26.95-60.56 26.95c-1.82 0.66-3.45 0.94-4.69 0.94-4.66 0-7.94-2.33-9.78-7.02l-10.36-22.88zm217.66 305.23c2.23 2.34 3.34 5.23 3.34 8.57v82.27c0 3.78-1.11 6.68-3.34 8.9-2.18 2.25-4.84 3.29-7.98 3.29h-242.51c-3.13 0-5.81-1.17-7.96-3.5-2.23-2.4-3.28-5.24-3.28-8.69v-49.77c0-6.06 2.77-10.01 8.38-11.68l15.52-4.57v-210.75l-15.52-4.57c-2.48-0.66-4.5-2.11-6.05-4.28-1.58-2.17-2.33-4.61-2.33-7.35v-49.77c0-2.73 1.05-5.62 3.28-8.62 2.15-2.45 4.83-3.57 7.96-3.57h241.13c3.14 0 5.74 1.12 8.01 3.57 2.12 2.33 3.26 5.23 3.26 8.62v82.22c0 3.46-1.14 6.3-3.26 8.63-2.27 2.4-4.87 3.63-8.01 3.63h-45.98c-2.55 0-4.78-0.91-6.84-2.57-2.06-1.73-3.28-3.89-3.95-6.63l-4.23-16.75h-83.95v60.89h74.14c3.47 0 6.15 1.24 8.18 3.63 2.06 2.34 3 5.24 3 8.62v53.84c0 3.72-0.94 6.73-3 9.12-2.03 2.39-4.71 3.5-8.18 3.5h-74.14v66.03h85.32l4.31-16.7c0.56-2.67 1.88-4.95 3.97-6.68 1.98-1.67 4.26-2.44 6.77-2.44h45.96c3.2 0 5.8 1.15 7.98 3.56zm-288.51-260.52c2.16 2.33 3.28 5.23 3.28 8.62v49.77c0 2.74-0.77 5.18-2.32 7.63-1.55 2.34-3.59 3.9-6.16 4.56l-15.92 4.01v210.75l15.92 4.57c2.57 0.72 4.61 2.11 6.16 4.34 1.55 2.22 2.32 4.63 2.32 7.34v49.77c0 3.78-1.12 6.68-3.28 8.9-2.18 2.25-4.95 3.29-8.47 3.29h-108.83c-3.11 0-5.77-1.04-7.96-3.29-2.17-2.22-3.28-5.12-3.28-8.9v-49.77c0-6.06 2.79-10.01 8.45-11.68l15.49-4.57v-210.75l-15.49-4.01c-5.66-1.79-8.45-5.79-8.45-12.19v-49.77c0-3.39 1.11-6.29 3.28-8.62 2.19-2.45 4.85-3.57 7.96-3.57h108.83c3.52 0 6.29 1.12 8.47 3.57zm-157.13 0c2.19 2.33 3.25 5.23 3.25 8.62v49.77c0 6.4-2.82 10.4-8.4 12.19l-15.51 4.01v210.75l15.51 4.57c5.58 1.67 8.4 5.62 8.4 11.68v49.77c0 3.78-1.06 6.68-3.25 8.9-2.19 2.25-4.91 3.29-7.98 3.29h-108.85c-3.47 0-6.18-1.04-8.23-3.29-2.01-2.22-3.01-5.12-3.01-8.9v-49.77c0-6.06 2.75-10.01 8.4-11.68l15.49-4.57v-68.02h-115.41v68.02l15.96 4.57c2.49 0.72 4.53 2.11 6.11 4.34 1.55 2.22 2.33 4.63 2.33 7.34v49.77c0 3.78-1.07 6.68-3.28 8.9-2.23 2.25-4.98 3.29-8.47 3.29h-108.84c-3.11 0-5.73-1.04-7.96-3.29-2.16-2.22-3.26-5.12-3.26-8.9v-49.77c0-6.06 2.78-10.01 8.44-11.68l15.46-4.57v-210.75l-15.46-4.01c-5.63-1.79-8.44-5.79-8.44-12.19v-49.77c0-3.39 1.1-6.29 3.26-8.62 2.23-2.45 4.85-3.57 7.96-3.57h108.84c3.49 0 6.24 1.12 8.47 3.57 2.21 2.33 3.28 5.23 3.28 8.62v49.77c0 2.74-0.78 5.18-2.33 7.63-1.58 2.34-3.62 3.9-6.11 4.56l-15.96 4.01v62h115.41v-62l-15.49-4.01c-5.65-1.79-8.4-5.79-8.4-12.19v-49.77c0-3.39 1.07-6.29 3.26-8.62 2.18-2.45 4.82-3.57 7.98-3.57h108.85c3.07 0 5.79 1.12 7.98 3.57zm-494.96 60.34c5.93 18.02 8.92 41.53 8.92 70.57v92.53c0 29.38-2.82 53.39-8.44 71.82-5.61 18.47-14.5 33.06-26.58 43.64-12.02 10.69-27.29 17.98-45.81 21.87-18.49 3.91-40.4 5.85-65.74 5.85-26.06 0-48.22-1.91-66.53-5.57-18.34-3.8-33.34-10.81-45.13-21.11-11.73-10.28-20.24-24.76-25.59-43.41-5.28-18.59-7.96-43.03-7.96-73.09v-92.53c0-29.38 2.77-53.2 8.43-71.3 5.62-18.07 14.44-32.01 26.32-41.63 11.93-9.63 26.96-16.08 45.1-19.32 18.18-3.18 39.98-4.78 65.36-4.78 24.73 0 46.24 1.66 64.59 5.06 18.33 3.39 33.56 9.97 45.82 19.81 12.23 9.8 21.32 23.73 27.24 41.59zm-74.58 65.57c0-6.13-0.48-13.31-1.4-21.6-0.95-8.29-3.48-14.81-7.53-19.53-2.78-2.74-6.51-4.85-11.23-6.42-4.7-1.42-9.62-2.49-14.78-2.99-5.18-0.45-10.32-0.78-15.48-0.78h-25.09c-5.03 0-10.09 0.33-15.28 1.05-5.16 0.67-10 1.73-14.51 3.28-4.53 1.56-8.08 3.63-10.57 6.36-2.17 2.33-3.94 5.5-5.15 9.4-1.3 3.9-2.11 8.02-2.61 12.41-0.47 4.46-0.78 8.75-0.93 12.97-0.16 4.25-0.23 8.02-0.23 11.42v91.96c0 15.25 0.69 27.06 2.13 35.51 1.39 8.45 4.21 14.64 8.44 18.53 4.19 3.9 10.38 6.31 18.53 7.07 8.11 0.9 18.89 1.35 32.33 1.35 12.52 0 22.85-0.56 31.01-1.56 8.15-0.99 14.6-3.62 19.46-7.9 4.82-4.13 8.2-10.46 10.07-18.71 1.94-8.35 2.82-19.76 2.82-34.29v-97.53zm-150.11-170.62c-1.27-2.73-1.47-5.62-0.74-8.63 0.83-3.06 2.45-5.44 4.95-7.12l75.57-49.21c3.76-2.78 7.61-2.78 11.68 0l75.06 49.21c5.32 4.06 6.73 9.46 4.26 16.26l-10.79 22.82c-1.29 2.78-3.29 4.67-6.12 5.85-2.79 1.22-5.5 1.05-7.97-0.22l-60.51-26.95-60.53 26.95c-1.88 0.66-3.43 0.94-4.68 0.94-4.73 0-8-2.33-9.89-7.02l-10.29-22.88zm-86.82 44.71c2.2 2.33 3.29 5.23 3.29 8.62v49.77c0 6.4-2.81 10.4-8.43 12.19l-15.49 4.01v210.75l15.49 4.57c5.62 1.67 8.43 5.62 8.43 11.68v49.77c0 3.78-1.09 6.68-3.29 8.9-2.15 2.25-4.83 3.29-7.98 3.29h-108.83c-3.45 0-6.19-1.04-8.18-3.29-2.06-2.22-3.07-5.12-3.07-8.9v-49.77c0-6.06 2.83-10.01 8.43-11.68l15.5-4.57v-68.02h-115.42v68.02l15.96 4.57c2.52 0.72 4.54 2.11 6.08 4.34 1.57 2.22 2.38 4.63 2.38 7.34v49.77c0 3.78-1.09 6.68-3.31 8.9-2.17 2.25-5.01 3.29-8.41 3.29h-108.85c-3.15 0-5.84-1.04-8.02-3.29-2.18-2.22-3.26-5.12-3.26-8.9v-49.77c0-6.06 2.81-10.01 8.44-11.68l15.51-4.57v-210.75l-15.51-4.01c-5.63-1.79-8.44-5.79-8.44-12.19v-49.77c0-3.39 1.08-6.29 3.26-8.62 2.18-2.45 4.87-3.57 8.02-3.57h108.85c3.4 0 6.24 1.12 8.41 3.57 2.22 2.33 3.31 5.23 3.31 8.62v49.77c0 2.74-0.81 5.18-2.38 7.63-1.54 2.34-3.56 3.9-6.08 4.56l-15.96 4.01v62h115.42v-62l-15.5-4.01c-5.6-1.79-8.43-5.79-8.43-12.19v-49.77c0-3.39 1.12-6.29 3.29-8.62 2.17-2.45 4.84-3.57 7.96-3.57h108.83c3.15 0 5.83 1.12 7.98 3.57zm-361.72 62.17c4.36 16.43 6.6 37.81 6.6 64.25 0 12.86-0.59 24.42-1.64 34.79-1.12 10.35-2.75 19.59-4.96 27.66-4.67 17.26-12.35 30.67-22.96 40.14-10.63 9.8-23.86 16.26-39.61 19.25-15.84 3.06-34.21 4.56-55.16 4.56h-63.32v32.52l15.91 4.57c2.53 0.72 4.58 2.11 6.14 4.34 1.56 2.22 2.32 4.63 2.32 7.34v49.77c0 3.78-1.1 6.68-3.3 8.9-2.17 2.25-4.98 3.29-8.43 3.29h-108.82c-3.19 0-5.84-1.04-8-3.29-2.2-2.22-3.3-5.12-3.3-8.9v-49.77c0-6.06 2.86-10.01 8.47-11.68l15.52-4.57v-210.75l-15.52-4.01c-5.61-1.79-8.47-5.79-8.47-12.19v-49.77c0-3.39 1.1-6.29 3.3-8.62 2.16-2.45 4.81-3.57 8-3.57h159.5c23.44 0 42.06 1.67 55.8 5.08 17.2 4.71 30.68 11.84 40.37 21.31 9.99 9.79 17.22 22.94 21.56 39.35zm-76.94 64.25c0-9.8-0.38-18.21-1.14-25.11-0.8-7.01-2.46-12.13-4.94-15.53-1.58-2.01-4.46-3.94-8.69-5.85-4.22-1.77-12.11-2.78-23.65-2.78h-65.69v94.97h63.32c9.99 0 17.67-0.56 22.99-1.78 5.31-1.17 9.07-3.11 11.24-5.84 2.47-2.69 4.24-7.07 5.19-12.99 0.91-5.89 1.37-14.24 1.37-25.09z" fill-rule="evenodd"/>
<path class="shp2" d="m1371.4 1004.4-15.48 4.57c-5.61 1.66-8.46 5.62-8.46 11.7v49.75c0 3.79 1.02 6.69 3.09 8.9 1.98 2.24 4.76 3.28 8.18 3.28h25.03c-3.43 0-6.18-1.04-8.19-3.28-2.07-2.21-3.08-5.11-3.08-8.9v-49.75c0-6.08 2.79-10.04 8.46-11.7l15.51-4.57v-68.02h-25.06v68.02zm-197.82-226.94v-49.79c0-3.38 1.11-6.28 3.3-8.62 2.13-2.43 4.83-3.56 7.98-3.56h-25.02c-3.15 0-5.83 1.13-7.99 3.56-2.21 2.34-3.29 5.24-3.29 8.62v49.79c0 6.39 2.82 10.4 8.44 12.18l15.5 4v210.76l-15.5 4.57c-5.62 1.66-8.44 5.62-8.44 11.7v49.75c0 3.79 1.08 6.69 3.29 8.9 2.16 2.24 4.84 3.28 7.99 3.28h25.02c-3.15 0-5.85-1.04-7.98-3.28-2.19-2.21-3.3-5.11-3.3-8.9v-49.75c0-6.08 2.79-10.04 8.45-11.7l15.5-4.57v-210.76l-15.5-4c-5.66-1.78-8.45-5.79-8.45-12.18zm-323.26 0v-49.79c0-3.38 1.09-6.28 3.3-8.62 2.19-2.43 4.83-3.56 7.95-3.56h-24.97c-3.2 0-5.84 1.13-8.02 3.56-2.2 2.34-3.3 5.24-3.3 8.62v49.79c0 6.39 2.87 10.4 8.48 12.18l15.5 4v210.76l-15.5 4.57c-5.61 1.66-8.48 5.62-8.48 11.7v49.75c0 3.79 1.1 6.69 3.3 8.9 2.18 2.24 4.82 3.28 8.02 3.28h24.97c-3.12 0-5.76-1.04-7.95-3.28-2.21-2.21-3.3-5.11-3.3-8.9v-49.75c0-6.08 2.83-10.04 8.47-11.7l15.51-4.57v-210.76l-15.51-4c-5.64-1.78-8.47-5.79-8.47-12.18zm205.49 27.38c-1.55-2-4.44-3.96-8.66-5.84-4.21-1.85-12.11-2.8-23.68-2.8h-25.01c11.54 0 19.44 0.95 23.68 2.8 4.19 1.88 7.08 3.84 8.67 5.84 2.5 3.4 4.15 8.51 4.92 15.52 0.77 6.9 1.16 15.32 1.16 25.12 0 10.84-0.47 19.2-1.38 25.09-0.93 5.97-2.71 10.3-5.18 12.99-2.17 2.72-5.95 4.67-11.26 5.84-5.3 1.23-12.99 1.78-22.97 1.78h25c10.01 0 17.65-0.55 22.97-1.78 5.36-1.17 9.1-3.12 11.27-5.84 2.5-2.69 4.24-7.02 5.16-12.99 0.95-5.89 1.42-14.25 1.42-25.09 0-9.8-0.41-18.22-1.18-25.12-0.77-7.01-2.39-12.12-4.93-15.52zm506.98 254.17c-11.75-10.29-20.31-24.77-25.63-43.43-5.32-18.58-7.96-43.03-7.96-73.13v-92.46c0-29.41 2.79-53.23 8.45-71.32 5.62-18.07 14.42-31.95 26.35-41.58 11.85-9.68 26.91-16.14 45.07-19.37 14.96-2.61 32.5-4.12 52.34-4.57-3.97-0.11-7.9-0.21-12.03-0.21-25.37 0-47.17 1.61-65.35 4.78-18.14 3.23-33.17 9.69-45.09 19.37-11.88 9.63-20.71 23.51-26.32 41.58-5.67 18.09-8.42 41.91-8.42 71.32v92.46c0 30.1 2.66 54.55 7.94 73.13 5.36 18.66 13.89 33.14 25.61 43.43 11.78 10.31 26.77 17.32 45.13 21.04 18.3 3.73 40.48 5.62 66.5 5.62 4.13 0 8.1-0.11 12.11-0.22-20.46-0.56-38.41-2.28-53.56-5.4-18.35-3.72-33.41-10.73-45.14-21.04zm930.42-274.22c-1.54-2.16-2.24-4.61-2.24-7.33v-49.79c0-2.72 1-5.61 3.21-8.62 2.18-2.43 4.9-3.56 8.03-3.56h-25.07c-3.12 0-5.79 1.13-7.94 3.56-1.12 1.52-1.97 3.01-2.44 4.34 0.37 1.34 0.72 2.73 0.72 4.28v49.79c0 1.43-0.3 2.88-0.81 4.27 0.42 1.06 0.9 2.12 1.58 3.06 1.55 2.18 3.57 3.63 6.07 4.29l15.51 4.56v210.76l-15.51 4.57c-4.05 1.22-6.63 3.68-7.75 7.24 0.52 1.39 0.91 2.89 0.91 4.46v49.75c0 1.78-0.3 3.23-0.81 4.67 0.56 1.46 1.41 2.8 2.53 4.02 2.15 2.34 4.82 3.49 7.94 3.49h25.07c-3.13 0-5.85-1.15-8.03-3.49-2.21-2.4-3.21-5.24-3.21-8.69v-49.75c0-6.08 2.75-10.04 8.38-11.7l15.44-4.57v-210.76l-15.44-4.56c-2.47-0.66-4.54-2.11-6.14-4.29zm507.66 291.2-114-243.27h-25.05l114 243.27c2.55 4.46 6.02 6.61 10.36 6.61h25.03c-4.44 0-7.84-2.15-10.34-6.61zm-217.73-298.53v-49.79c0-3.38 1.19-6.28 3.35-8.62 2.18-2.43 4.83-3.56 7.96-3.56h-25.05c-3.12 0-5.78 1.13-7.9 3.56-2.22 2.34-3.35 5.24-3.35 8.62v49.79c0 6.39 2.76 10.4 8.46 12.18l15.48 4v210.76l-15.48 4.57c-5.7 1.66-8.46 5.62-8.46 11.7v49.75c0 3.79 1.13 6.69 3.35 8.9 2.12 2.24 4.78 3.28 7.9 3.28h25.05c-3.13 0-5.78-1.04-7.96-3.28-2.16-2.21-3.35-5.11-3.35-8.9v-49.75c0-6.08 2.84-10.04 8.52-11.7l15.49-4.57v-210.76l-15.49-4c-5.68-1.78-8.52-5.79-8.52-12.18zm-605.32 226.94-15.48 4.57c-5.65 1.66-8.41 5.62-8.41 11.7v49.75c0 3.79 1.01 6.69 3.02 8.9 2.05 2.24 4.76 3.28 8.23 3.28h25.02c-3.46 0-6.2-1.04-8.22-3.28-2.02-2.21-3.05-5.11-3.05-8.9v-49.75c0-6.08 2.81-10.04 8.41-11.7l15.5-4.57v-68.02h-25.02v68.02zm-197.83-226.94v-49.79c0-3.38 1.08-6.28 3.29-8.62 2.16-2.43 4.88-3.56 7.99-3.56h-25.04c-3.12 0-5.73 1.13-7.94 3.56-2.18 2.34-3.28 5.24-3.28 8.62v49.79c0 6.39 2.81 10.4 8.44 12.18l15.45 4v210.76l-15.45 4.57c-5.63 1.66-8.44 5.62-8.44 11.7v49.75c0 3.79 1.1 6.69 3.28 8.9 2.21 2.24 4.82 3.28 7.94 3.28h25.04c-3.11 0-5.83-1.04-7.99-3.28-2.21-2.21-3.29-5.11-3.29-8.9v-49.75c0-6.08 2.85-10.04 8.46-11.7l15.49-4.57v-210.76l-15.49-4c-5.61-1.78-8.46-5.79-8.46-12.18zm-607.5 0v-49.79c0-3.38 1.08-6.28 3.31-8.62 2.17-2.43 4.8-3.56 7.96-3.56h-25.03c-3.12 0-5.78 1.13-7.96 3.56-2.17 2.34-3.31 5.24-3.31 8.62v49.79c0 6.39 2.85 10.4 8.46 12.18l15.48 4v62.03h25.06v-62.03l-15.51-4c-5.67-1.78-8.46-5.79-8.46-12.18zm963.12 292.96v-49.75c0-6.08 2.81-10.04 8.43-11.7l15.53-4.57v-210.76l-15.53-4c-5.62-1.78-8.43-5.79-8.43-12.18v-49.79c0-3.38 1.09-6.28 3.26-8.62 2.22-2.43 4.91-3.56 8.03-3.56h-25.06c-3.11 0-5.79 1.13-7.96 3.56-2.17 2.34-3.28 5.24-3.28 8.62v49.79c0 6.39 2.79 10.4 8.45 12.18l15.49 4v210.76l-15.49 4.57c-5.66 1.66-8.45 5.62-8.45 11.7v49.75c0 3.79 1.11 6.69 3.28 8.9 2.17 2.24 4.85 3.28 7.96 3.28h25.06c-3.12 0-5.81-1.04-8.03-3.28-2.17-2.21-3.26-5.11-3.26-8.9zm-156.68-292.96v-49.79c0-3.38 1.11-6.28 3.3-8.62 2.19-2.43 4.86-3.56 7.97-3.56h-25.02c-3.12 0-5.8 1.13-7.95 3.56-2.23 2.34-3.3 5.24-3.3 8.62v49.79c0 6.39 2.76 10.4 8.41 12.18l15.48 4v62.03h25.02v-62.03l-15.5-4c-5.6-1.78-8.41-5.79-8.41-12.18zm487.99 201.01c-2.06 1.72-3.39 4-3.95 6.67l-4.3 16.69h25l4.27-16.69c0.64-2.67 1.97-4.95 3.97-6.67 2.06-1.68 4.34-2.45 6.79-2.45h-24.97c-2.53 0-4.74 0.77-6.81 2.45zm-1094.3-281.24c1.9 4.68 5.16 7.07 9.88 7.07 1.27 0 2.82-0.32 4.69-1.06l11.1-4.9c-0.2-0.33-0.43-0.65-0.63-1.11l-10.3-22.89c-1.29-2.72-1.53-5.6-0.73-8.62 0.78-3.06 2.43-5.45 4.91-7.11l68.87-44.89-6.61-4.38c-4.07-2.72-7.93-2.72-11.7 0l-75.57 49.27c-2.5 1.66-4.11 4.05-4.92 7.11-0.77 3.02-0.53 5.9 0.72 8.62l10.29 22.89zm1092.9 122.36c1.99 1.67 4.22 2.56 6.77 2.56h25.06c-2.55 0-4.83-0.89-6.86-2.56-2.06-1.73-3.38-3.9-3.94-6.63l-4.23-16.76h-25.05l4.21 16.76c0.69 2.73 1.98 4.9 4.04 6.63zm374.73-25.95-15.93-4c-5.62-1.78-8.44-5.79-8.44-12.18v-49.79c0-3.38 1.11-6.28 3.22-8.62 2.24-2.43 4.87-3.56 8-3.56h-24.96c-3.19 0-5.85 1.13-7.99 3.56-2.21 2.34-3.32 5.24-3.32 8.62v49.79c0 6.39 2.83 10.4 8.47 12.18l15.89 4 2.58 171.13h26.27l-3.79-171.13zm-376.43-90.11c2.58-1.07 4.48-2.9 5.69-5.3l-49.19-21.87-12.48 5.57 48.04 21.31c2.49 1.33 5.18 1.46 7.94 0.29zm61.36-93.2-22.15 49.84c-5.46 8.8-1.24 13.29 2.89 14.12 0.38 0.05 0.89 0.23 1.33 0.23h25c-2.27 0-4.41-1.28-5.62-3.45-1.24-2.06-1.34-4.67-0.35-6.9l23.89-53.84c1.07-2.5 3.45-4.06 5.96-4.06h-24.99c-2.5 0-4.86 1.56-5.96 4.06zm-952.57 0-20.82 46.87-3.8 9.3c0 4.29 2.39 8.63 10.21 8.02h21.53c-2.33 0-4.44-1.28-5.67-3.45-1.21-2.06-1.34-4.67-0.33-6.9l23.9-53.84c1.12-2.5 3.43-4.06 5.99-4.06h-25.02c-2.55 0-4.84 1.56-5.99 4.06zm-44.03 193.5c-2.85-2.72-6.59-4.83-11.3-6.4-4.68-1.44-9.59-2.51-14.74-3-5.17-0.45-10.33-0.79-15.48-0.79h-25.04c5.18 0 10.33 0.34 15.49 0.79 5.16 0.49 10.07 1.56 14.78 3 4.71 1.57 8.45 3.68 11.25 6.4 4.06 4.74 6.55 11.25 7.5 19.56 0.92 8.29 1.41 15.46 1.41 21.58v97.48c0 14.58-0.93 25.99-2.84 34.34-1.85 8.24-5.23 14.53-10.06 18.71-4.83 4.27-11.32 6.91-19.47 7.9-5.47 0.67-11.97 1.11-19.42 1.34 4.18 0.12 8.59 0.22 13.48 0.22 12.5 0 22.84-0.56 30.98-1.56 8.11-0.99 14.59-3.63 19.42-7.9 4.86-4.18 8.24-10.47 10.12-18.71 1.87-8.35 2.8-19.76 2.8-34.34v-97.48c0-6.12-0.45-13.29-1.36-21.58-0.96-8.31-3.48-14.82-7.52-19.56zm806.38-129.49c-1.26-2.72-1.45-5.6-0.69-8.62 0.74-3.06 2.4-5.45 4.92-7.11l68.87-44.89-6.64-4.33c-4.04-2.77-7.95-2.77-11.74 0l-75.47 49.22c-2.51 1.66-4.12 4.05-4.97 7.11-0.72 3.02-0.51 5.9 0.73 8.62l10.36 22.89c1.82 4.68 5.12 7.07 9.78 7.07 1.24 0 2.87-0.32 4.69-1.06l11.14-4.9c-0.22-0.33-0.47-0.65-0.61-1.11l-10.37-22.89zm-826.71 28.9c2.48 1.33 5.18 1.46 7.94 0.29 2.62-1.07 4.5-2.9 5.72-5.3l-49.16-21.87-12.53 5.57 48.03 21.31z"/>
<path class="shp1" d="m2078.6 1440-88.5 3.01c62.75-43.66 115.96-51.44 115.96-51.44l-27.46 48.43zm260.58 653.57h101.78v447.18h-57.48c9.51 9.66 18.69 19.64 27.52 29.94h721.95v175.24h-618.48c3.68 9.86 7.11 19.85 10.26 29.96h507.9v66.3h-491.43c1.85 9.87 3.44 19.83 4.78 29.88h472.88v216.66c-41.23 56.67-88.56 109.5-142.2 157.32-25.06 22.43-49.98 43.86-74.93 64.46-15.47-57.12-63.46-98.76-120.35-98.76-69.47 0-125.82 62-125.82 138.61v139.22c-69.02 43.58-139.1 82.45-211.69 118.51v-212.57c-10.61 8.96-21.55 17.54-32.8 25.73v202.87c-40.39 19.32-81.71 37.85-124 55.78v-189.68c-67.58 27.4-141.48 42.5-218.89 42.5-66.9 0-131.16-11.27-191-32.01v186.42c-48.3-20.25-95.29-41.13-141.16-63.13v-195.1c-11.66-8.1-23-16.61-34.01-25.51v203.93c-72.6-36.03-142.74-75.04-211.77-118.69v-138.27c0-76.61-56.33-138.61-125.79-138.61-56.55 0-104.33 41.13-120.14 97.76-24.54-20.27-49.17-41.41-73.94-63.46-54.14-48.28-101.82-101.67-143.41-158.99v-214.99h463.42c1.34-10.05 2.93-20.01 4.77-29.88h-480.71v-66.3h497.18c3.16-10.11 6.58-20.1 10.26-29.96h-607.75v-175.24h711.22c8.83-10.3 18.01-20.28 27.52-29.94h-48.57v-447.18h101.77v399.39c9.74-7.72 19.72-15.14 29.95-22.25v-508.95h675.05v516.6c9.6 6.99 18.97 14.26 28.11 21.81v-406.6zm-1275-82.32s-34.4-60.34-38.14-104.99c0 0 111.93 88.72 242.27-15.42 130.34 104.14 242.26 15.42 242.26 15.42-3.7 44.65-38.16 104.99-38.16 104.99h-408.23zm717.05-425.07h384.53v146.41h-384.53v-146.41zm100.95 115.57h33.56v-84.67h-33.56v84.67zm74.57 0h33.53v-84.67h-33.53v84.67zm74.56 0h33.51v-84.67h-33.51v84.67zm74.49 0h33.58v-84.67h-33.58v84.67zm-298.16 0h33.55v-84.67h-33.55v84.67zm-23.01-138.28s-31.84-55.72-35.29-97.09c0 0 17.23 52.56 116.22 0h215.89c99.02 52.56 116.22 0 116.22 0-3.46 41.37-35.32 97.09-35.32 97.09h-377.72zm83.82-123.47-27.5-48.43s53.23 7.78 115.99 51.44l-88.49-3.01zm-514.16 1100.8v-233.8c0-33.96-38.47-61.45-85.98-61.45s-86.01 27.49-86.01 61.45v233.8h-119.98v-498.71h411.97v498.71h-120zm1408.6 0v-233.8c0-33.96-38.48-61.45-85.96-61.45-47.5 0-85.94 27.49-85.94 61.45v233.8h-120.03v-498.71h412v498.71h-120.07zm-785.29-349.7c-81.34 0-148.34 85.17-156.97 194.68 47.13-12.29 96.58-18.84 147.56-18.84 57.93 0 113.89 8.45 166.71 24.19-6.82-112.07-74.63-200.03-157.3-200.03zm497.59-181.92s-34.52-60.3-38.18-104.98c0 0 111.89 88.67 242.25-15.49 130.37 104.16 242.26 15.49 242.26 15.49-3.72 44.68-38.17 104.98-38.17 104.98h-408.16zm-844.96-77.37s-57.86-101.38-64.13-176.47c0 0 31.33 95.48 211.2 0h392.42c180.01 95.48 211.29 0 211.29 0-6.36 75.09-64.24 176.47-64.24 176.47h-686.54z" fill-rule="evenodd"/>
<path class="shp0" d="m2476.1 3118 56.26-2.1-40.51-39.07c-4.57-4.34-10.82-6.91-17.55-6.69-1.49 0-2.9 0.23-4.23 0.61 1.46 4.24 2.23 8.75 2.11 13.54-0.22 11.12-5.39 20.08-11.75 28.54 4.3 3.4 9.75 5.41 15.67 5.17z"/>
<path class="shp0" d="m2191.4 2896.1c0.67-3.29 1.79-6.36 3.12-9.25-0.56-1.34-2.45-5.89-5.84-12.56-3.99-7.92-9.84-18.73-15.82-29.41-6.05-10.81-12.1-21.54-16.64-29.61-4.49-8.14-7.48-13.52-7.48-13.52s5.03 3.54 12.57 8.91c7.65 5.26 17.79 12.35 27.87 19.42 10.25 7.1 20.37 14.36 27.95 20.25 5.24 3.89 9.22 7.35 11.35 9.12 1.45-0.32 2.88-0.65 4.35-0.77 33.38-3.45 116.66-11.98 169.04-15.69 0.51 0 0.93 0 1.39-0.05 0.85-1.51 1.79-3.07 2.9-5.07 3.57-6.5 8.23-15.59 12.46-24.84 8.81-18.6 15.88-38.23 15.88-38.23s3.96 20.53 5.97 41.8c1 10.59 1.65 21.27 1.94 29.49 0.25 8.19 0.14 13.93 0.14 13.93l-0.05 1c3.07 3.9 5.64 8.36 7.36 13.19 26.23 72.76 35.35 131.65 42.25 208.75 0.99 11.3-2 22.66-8.57 31.84-38.31 54.05-87.97 102.94-151.8 149.48-3.66 2.66-7.75 4.67-11.98 6.23-0.04 0.21-0.11 0.56-0.26 0.76 0 0-0.62 1.25-1.85 3.36-0.56 1.21-1.34 2.67-2.23 4.33-0.83 1.68-1.82 3.41-2.89 5.35-4.34 7.62-10.34 17.37-16.53 26.9-12.36 18.91-25.66 36.9-25.66 36.9s3.1-22.15 4.85-44.21c0.83-10.98 1.44-21.82 1.61-29.83v-5.35c0-1.55-0.1-2.88-0.1-4v-0.12c-1.19-0.76-2.37-1.51-3.47-2.45-38.76-32.51-91.53-75.7-128.2-104.99-1.44-1.1-2.67-2.44-3.96-3.78-2.93 0.34-7.41 0.89-13.01 1.45-9.88 0.99-22.94 2.12-35.99 3-26.09 1.9-52.02 2.8-52.02 2.8s23.21-11.59 45.86-23.95c11.32-6.11 22.58-12.47 30.83-17.26 4.98-3.01 8.94-5.33 11.27-6.73 0.48-3.18 1.24-6.4 2.48-9.5 26.07-68.25 45.44-134.06 60.91-207.09zm-31.45 218.37c-2.42 6.45-0.54 13.75 4.81 17.99 36.34 29.05 89.73 72.69 128.86 105.52 2.88 2.47 6.55 3.75 10.22 3.75 3.23 0 6.58-1 9.31-3.06 59.51-43.3 107.36-89.52 144.62-142.17 2.17-3.01 3.17-6.91 2.85-10.75-7.26-80.55-16.6-134.32-40.5-200.79-2.26-6.35-8.22-10.48-14.85-10.48h-1.12c-52.49 3.8-137.47 12.42-168.13 15.61-6.83 0.78-12.32 5.78-13.72 12.52-15.98 75.42-36 143.11-62.35 211.86z" fill-rule="evenodd"/>
<path class="shp0" d="m1841.1 2440.6s1.89-19.43 0.36-39.79c-1.25-20.26-5.85-40.98-5.85-40.98s14.42 15.42 26.61 33.62c6.14 8.97 11.77 18.49 15.73 25.95 3.26 6.01 5.38 10.46 6.1 11.96 71.24 6.84 153.52 34.78 205.01 60.3 1.94 0.94 3.79 2.1 5.55 3.27l6.05 0.34s1.44 0.06 3.97 0.15c2.49 0.19 6.01 0.47 10.09 0.9 8.16 0.85 18.76 2.34 29.21 4 20.83 3.35 41.41 7.36 41.41 7.36s-19.77 7.01-39.11 14.59c-9.67 3.78-19.18 7.73-25.97 10.85-1.75 0.84-3.31 1.5-4.64 2.17-0.02 1.23 0.02 2.45-0.08 3.68-5.39 56.78-12.37 110.22-20.26 169.27-0.3 2.24-0.83 4.4-1.46 6.58 0.39 0.49 0.79 1.17 1.3 1.94 1.71 2.35 4.11 5.91 6.71 9.91 5.26 8.02 11.94 18.76 18.55 29.5 13.1 21.38 26.22 42.86 26.22 42.86s-21.02-13.73-42.03-27.5c-10.5-6.79-21-13.58-28.86-18.35-3.93-2.47-7.08-4.24-9.25-5.53-0.84-0.43-1.5-0.81-2.01-1.15-3.11 1.09-6.32 2.11-9.62 2.55-78.81 11.57-142.23 25.77-212.08 47.6-3.25 1.05-6.6 1.56-9.94 1.83-0.44 0.55-1.03 1.34-1.7 2.35-1.62 2.05-3.77 4.77-6.44 8.51-5.34 7.29-12.3 17.32-19.02 27.55-13.69 20.39-26.25 41.75-26.25 41.75s2.07-24.72 5.54-49.53c1.72-12.37 3.69-24.84 5.44-34.26 0.85-4.61 1.71-8.79 2.24-11.51 0.09-0.22 0.14-0.44 0.16-0.66-0.89-1.12-1.85-2.12-2.64-3.24-24.22-32.94-47.96-64.42-70.96-94.85-11.08-14.69-21.78-28.9-31.86-42.42-1.02-1.23-1.75-2.67-2.56-4-8.76 0.21-24.78 0.71-40.99 2.11-11.97 1.01-24.08 2.34-33.1 3.73-8.97 1.28-15.05 2.51-15.05 2.51s4.88-3.68 12.55-8.92c7.66-5.23 18.09-11.96 28.85-18.31 21.31-12.76 44-23.98 44-23.98l0.44-0.24c0.02 0 0.15-0.05 0.22-0.11 1.12-2.66 2.47-5.24 4.11-7.67 37.18-55.34 98.66-112.9 155.31-146.13v-0.56zm-129.1 164.28c-3.77 5.61-3.49 12.96 0.58 18.37 30.67 40.92 66.71 88.11 103.02 137.43 3.06 4.18 7.93 6.52 12.94 6.52 1.61 0 3.23-0.17 4.78-0.68 63.56-19.87 128.36-35.79 216.95-48.7 7.08-1.06 12.73-6.62 13.72-13.74 7.34-55.11 14.58-110.24 20.07-168.01 0.65-6.79-3.01-13.14-9.03-16.08-53.36-26.45-135.38-52.94-201.35-57.97h-1.24c-2.7 0-5.32 0.68-7.77 2.02-52.83 28.94-115.21 85.17-152.67 140.84zm-272.56 303.37c3.43-82.82 34.59-170.1 64.74-221.48-13.2-22.99-22.53-71.09-20.14-105.05 0.62-8.7 8.08-15.37 16.91-14.7 8.64 0.67 15.21 8.18 14.63 16.92-1.74 25.01 4.23 57.91 11.49 77.27 7.48-1.84 17.01-4.11 26.65-6.13 19.91-4.22 39.8-7.77 39.8-7.77s-15.12 13.46-29.53 27.32c-7.24 6.96-14.32 13.85-19.45 19.2-4.99 5.24-18.26 18.59-18.8 19.15-24.85 46.14-49.07 116.57-54.05 185.36 2.47 12.75 6.64 31.86 11.47 54.33 2.13 10.14 4.39 20.27 6.4 27.9 1.92 7.63 3.48 12.58 3.48 12.58s-3.91-3.5-9.5-9.18c-5.61-5.57-12.89-13.31-20.03-21.27-6.64-7.35-13.03-14.8-18.03-20.98-25.88 17.62-48.92 45.76-53.84 66.96-1.7 7.36-8.22 12.27-15.4 12.27-1.16 0-2.38-0.13-3.57-0.48-8.48-1.94-13.78-10.45-11.78-18.93 8.62-37.17 45.73-74.75 78.55-93.29z" fill-rule="evenodd"/>
<path class="shp0" d="m1776.9 2937.1c-0.35 13.38-0.47 26.74-0.37 36.52 0.02 5.7 0.25 10.03 0.3 12.75 3.5 2.74 6.67 5.8 9.27 9.35 32.61 43.93 87.48 101.48 146.8 154.06 2.37 2.09 4.44 4.43 6.24 6.88l96.58 4.66-88.87 37.36c-0.59 2.06-1.25 4.08-2.17 6.03-20.64 45.64-46.69 100.58-75.37 158.91-1.16 2.34-2.59 4.64-4.11 6.8 0.11 0.34 0.23 0.72 0.37 1.21 0.29 1.06 0.96 2.57 1.61 4.25 2.66 6.46 7.26 15.36 12.37 24.21 5.14 8.85 10.78 17.54 15.09 24.08 4.31 6.6 7.23 10.92 7.23 10.92s-4.69-2.27-11.79-5.68c-7.07-3.49-16.5-8.23-25.86-13.48-9.38-5.26-18.69-11.11-25.71-16.35-1.7-1.34-3.3-2.44-4.85-3.79-1.44-1.2-2.68-2.34-3.71-3.22-0.53-0.34-1.64-1.33-2.97-2.33h-0.32c-2.42 0-4.89-0.24-7.33-0.62-80.22-12.57-149.2-34.57-205.54-65.27l-53.83 23.14 25.28-52.94c-35.78-75.5-45.07-175.69-47.06-205.24-0.25-3.46 0-6.78 0.48-10.08l-0.4-0.62s-3.47-5.22-7.7-12.69c-4.3-7.46-9.62-17.37-14.64-27.34-5.03-9.94-9.83-19.98-13.32-27.48-3.47-7.65-5.56-12.69-5.56-12.69s4.31 3.44 10.92 8.29c6.6 4.9 15.56 11.25 24.53 17.36 9.08 6.19 18.11 12.01 24.92 16.14 2.7 1.67 4.84 2.91 6.64 3.91 1.38-0.67 2.74-1.44 4.21-2 32.83-12.82 114.31-44.39 163.07-62.68 1.24-0.46 2.5-0.67 3.72-1.01 1.14-2.96 2.89-7.18 5.04-12.26 4.06-9.44 9.66-21.82 15.38-34.05 11.39-24.5 23.29-48.54 23.29-48.54s-1.23 26.82-1.86 53.53zm-16.18 77.5c-3.06-4.22-7.83-6.62-12.77-6.62-1.82 0-3.71 0.33-5.45 1.07-49.26 18.46-133.24 50.97-162.77 62.45-6.4 2.49-10.5 8.79-10.03 15.64 4.33 63.19 19.34 145.12 47.02 199.67 1.44 2.89 3.65 5.17 6.38 6.75 53.45 30.23 121.99 52.41 201.14 64.84 0.79 0.17 1.62 0.22 2.42 0.22 5.98 0 11.58-3.45 14.29-8.91 28.36-57.78 54.41-112.67 74.95-158.09 2.86-6.24 1.22-13.59-3.95-18.15-57.96-51.33-115.85-111.29-151.23-158.87zm472.72-519.25c7.92-1.96 16.04-3.67 23.17-5.02-5.36-23.7-19.6-54.67-36.73-72.7-6.09-6.35-5.8-16.36 0.49-22.37 6.35-5.96 16.31-5.74 22.31 0.56 26.84 28.1 45.86 77.26 47.77 107.42 26.6 19.27 104.97 80.27 156.46 166.67 22.67 0.56 63.63 11.08 87.47 33.8 6.24 6 6.51 16.03 0.51 22.32-3.19 3.27-7.31 4.9-11.43 4.9-3.95 0-7.9-1.45-10.9-4.34-13.14-12.53-37.42-21.17-55.46-24-1.89 8-4.61 18.19-7.78 28.21-6.34 20.83-14.38 40.31-14.38 40.31s-2.89-21.06-7.67-41.2c-2.28-10.12-4.95-20.04-7.19-27.32-1.16-3.73-2.07-6.41-2.76-8.58-2.85-8.74-7.48-22.87-7.87-24.1-36.46-54.78-87.05-102.99-128.3-134.16-0.61-0.32-14.42-6.79-21.27-9.46-6.93-2.72-16.75-6.01-26.87-8.9-20.11-5.91-41.1-10.35-41.1-10.35s20.26-6.58 41.53-11.69zm-278.75 997.19c-0.53-0.55-0.96-0.99-1.49-1.61-5.42-5.57-12.28-13.07-19.01-20.65-6.69-7.57-13.21-15.26-17.99-21.11l-7.89-9.79s4.73 1.62 11.77 4.13c7.07 2.37 16.55 5.38 26.06 8.23 9.48 2.83 18.99 5.45 26.01 7.18 7.05 1.79 11.45 2.62 11.45 2.62 1.18 0.17 2.3 0.67 3.44 1.06 0.2 0 0.42-0.11 0.56-0.11 83.39-7.3 154.53-23.72 212.04-48.73 2.58-1.93 15.89-12.05 21.01-16.08 5.66-4.32 13.14-11.22 20.54-17.62 7.33-6.41 14.59-13.09 19.82-18.21 5.29-5.17 8.61-8.91 8.61-8.91s-0.87 4.91-2.61 12.26c-1.74 7.33-4.33 17.03-7.31 26.69-2.8 9.7-5.98 19.33-8.65 26.61-0.24 0.69-0.46 1.34-0.68 2.02 17.6 6.33 42.75 11.53 60.45 7.95 8.57-1.67 16.91 3.84 18.64 12.41 1.68 8.57-3.83 16.93-12.41 18.6-32.5 6.46-78.36-6.56-98.85-19.2-60.95 27.51-136.66 45.47-224.84 53.44-1.46 1.88-2.93 3.95-4.5 6.06-14.39 19.44-34.17 46.2-65.14 60.01-2.05 0.89-4.28 1.34-6.4 1.34-6.07 0-11.83-3.46-14.45-9.35-3.55-8.01 0.02-17.31 8.03-20.83 18.43-8.24 32.34-23.59 43.79-38.41z" fill-rule="evenodd"/>
<path class="shp4" d="m1439.4 2908.3c-16.35 9.25-33.8 23.28-48.23 39.52 0.71-116.89 35.91-225.42 95.84-316.4 3.55 21.72 9.74 42.52 17.13 55.39-30.15 51.38-61.33 138.68-64.74 221.49zm-17.81-10.69c5.4-82.94 35.21-162.98 61.74-211.36-1.12-2.5-2.2-5.17-3.23-8.02-38.72 69.75-62.06 146.69-68.63 226.35 3.35-2.44 6.73-4.73 10.12-6.97zm393.97-136.88c-36.31-49.31-72.35-96.52-103.02-137.44-4.07-5.4-4.34-12.75-0.58-18.37 37.46-55.67 99.84-111.89 152.67-140.82 2.43-1.35 5.07-2.02 7.77-2.02h1.24c65.97 5.01 147.99 31.51 201.35 57.96 6.02 2.93 9.68 9.29 9.03 16.08-5.49 57.77-12.72 112.91-20.09 168.02-0.96 7.11-6.61 12.67-13.7 13.74-88.59 12.9-153.39 28.76-216.93 48.7-1.58 0.51-3.21 0.66-4.8 0.66-5.01 0-9.88-2.33-12.94-6.51zm-56.5-106.15c22.73 30.06 46.24 61.23 70.31 93.92 71.38-22.23 136.36-36.81 216.56-48.61 7.63-57.28 14.45-109.27 19.67-163.99-47.51-23.38-127.56-50.44-192.68-55.34-51.05 28.06-110.18 82.51-144.63 133.05 9.77 13.14 20.1 26.76 30.77 40.97zm531.36-151.3c-0.87-13.42-5.08-30.45-11.8-47.82 87.77 54.16 160.08 130.87 208.79 222.17-15.09-4.9-29.83-7.41-40.53-7.68-51.5-86.41-129.86-147.46-156.46-166.67z" fill-rule="evenodd"/>
<path class="shp4" d="m1486 2983.7c1.19-0.87 2.5-1.59 3.84-2.22-0.11-0.32-0.2-0.61-0.26-0.94-2-7.63-4.27-17.76-6.39-27.89-4.83-22.49-9-41.6-11.47-54.34 4.99-68.79 29.2-139.21 54.04-185.37 0.54-0.55 13.82-13.9 18.82-19.15 5.15-5.33 12.2-12.29 19.45-19.21 14.44-13.84 29.51-27.31 29.51-27.31s-19.87 3.57-39.8 7.79c-9.62 2-19.18 4.27-26.64 6.13-6.48-17.27-11.92-45.32-11.75-69.03 80.25-102.16 193.85-176.8 324.56-207.48 0.63 5.18 1.2 10.63 1.55 16.1 1.56 20.36-0.35 39.8-0.35 39.8-0.01 0.16 0 0.38-0.01 0.56-56.62 33.22-118.08 90.78-155.28 146.12-1.64 2.44-2.99 5-4.11 7.68-0.1 0.06-0.18 0.1-0.22 0.1l-0.44 0.23s-22.69 11.24-44 24c-10.76 6.35-21.19 13.07-28.84 18.3-7.68 5.23-12.56 8.92-12.56 8.92s6.08-1.24 15.05-2.51c9.03-1.4 21.09-2.72 33.1-3.74 16.21-1.39 32.23-1.89 40.99-2.1 0.81 1.32 1.58 2.77 2.56 4 10.08 13.52 20.78 27.72 31.87 42.43 22.99 30.43 46.73 61.9 70.95 94.83 0.79 1.12 1.73 2.13 2.67 3.23-0.05 0.25-0.08 0.45-0.19 0.69-0.5 2.72-1.41 6.9-2.24 11.51-1.75 9.42-3.72 21.87-5.44 34.25-1.87 13.41-3.34 26.75-4.3 36.24 2.08 0.22 4.06 0.65 5.88 1.49 4.88-8.02 11.84-19.15 19.1-29.95 6.78-10.24 13.7-20.25 19.05-27.54 2.68-3.74 4.82-6.48 6.44-8.52 0.67-1.01 1.26-1.79 1.7-2.34 3.36-0.29 6.72-0.8 9.94-1.86 69.85-21.81 133.27-36.01 212.08-47.59 3.3-0.43 6.51-1.44 9.62-2.54 0.51 0.33 1.17 0.73 2.01 1.21 2.19 1.22 5.32 3.01 9.25 5.45 7.87 4.8 18.37 11.59 28.86 18.38 21.01 13.75 42.03 27.5 42.03 27.5s-13.12-21.49-26.22-42.88c-6.61-10.73-13.28-21.46-18.56-29.49-2.57-4.01-4.99-7.57-6.7-9.91-0.51-0.78-0.91-1.45-1.3-1.94 0.63-2.17 1.17-4.35 1.46-6.58 7.89-59.05 14.87-112.49 20.26-169.28 0.1-1.22 0.06-2.45 0.08-3.67 1.34-0.66 2.89-1.34 4.64-2.17 6.79-3.12 16.3-7.07 25.98-10.84 19.33-7.58 39.1-14.61 39.1-14.61s-20.57-4-41.41-7.34c-10.45-1.66-21.05-3.17-29.21-4-4.09-0.45-7.6-0.72-10.09-0.9-2.53-0.1-3.97-0.16-3.97-0.16l-6.05-0.34c-1.76-1.16-3.61-2.33-5.55-3.28-51.49-25.5-133.77-53.45-205.01-60.28-0.72-1.52-2.85-5.96-6.1-11.98-3.96-7.46-9.59-16.98-15.73-25.93-2.84-4.25-5.74-8.24-8.61-11.92 38.73-8.14 78.78-12.48 119.88-12.48 91.3 0 177.65 21.06 254.54 58.51 13.4 18.14 24.07 42.93 28.59 62.74-7.15 1.34-15.25 3.06-23.16 5.02-21.28 5.11-41.54 11.69-41.54 11.69s21.01 4.44 41.1 10.35c10.12 2.89 19.94 6.18 26.87 8.9 6.85 2.67 20.65 9.14 21.27 9.46 41.25 31.12 91.84 79.38 128.28 134.16 0.41 1.23 5.04 15.36 7.89 24.05 0.7 2.22 1.6 4.9 2.76 8.63 2.24 7.28 4.9 17.2 7.19 27.32 4.78 20.14 7.67 41.2 7.67 41.2s8.04-19.55 14.38-40.31c3.16-10.02 5.89-20.24 7.77-28.21 16.94 2.73 39.31 10.53 52.79 21.76 29.61 69.81 45.98 146.64 45.98 227.18 0 57.06-8.34 112.19-23.6 164.28l-40.48-38.97c-0.11-0.12-0.27-0.12-0.37-0.23-6.81-74.02-16.16-131.64-41.59-202.36-1.72-4.81-4.29-9.29-7.36-13.17l0.05-1.01s0.11-5.74-0.14-13.92c-0.31-8.23-0.94-18.92-1.94-29.49-2.01-21.27-5.97-41.82-5.97-41.82s-7.07 19.64-15.88 38.25c-4.23 9.25-8.89 18.32-12.46 24.83-1.11 2-2.05 3.57-2.9 5.07-0.46 0.06-0.88 0.06-1.39 0.06-52.36 3.71-135.66 12.24-169.04 15.67-1.47 0.12-2.9 0.47-4.35 0.79-2.13-1.79-6.11-5.23-11.35-9.12-7.58-5.9-17.7-13.15-27.95-20.26-10.07-7.09-20.22-14.16-27.87-19.43-7.54-5.36-12.57-8.91-12.57-8.91s3.01 5.39 7.48 13.52c4.54 8.08 10.59 18.82 16.64 29.62 5.98 10.68 11.83 21.49 15.82 29.4 3.39 6.67 5.28 11.23 5.84 12.58-1.33 2.88-2.45 5.95-3.12 9.23-15.48 73.04-34.84 138.84-60.91 207.09-1.24 3.1-2 6.34-2.48 9.52-2.32 1.37-6.29 3.72-11.27 6.72-8.25 4.79-19.51 11.08-30.83 17.27-12.16 6.68-24.43 13.03-33.22 17.59 0.49 1.21 0.91 2.44 1.13 3.83 0.16 0.62 0.16 1.3 0.22 1.95 9.95-0.46 23.96-1.16 38.03-2.23 13.05-0.88 26.11-2 35.99-3 5.6-0.55 10.08-1.1 13.01-1.46 1.29 1.35 2.52 2.68 3.96 3.79 36.67 29.3 89.44 72.48 128.2 104.98 1.1 0.96 2.28 1.69 3.47 2.46v0.11c0 1.12 0.1 2.46 0.1 4.02v5.33c-0.17 8.03-0.78 18.86-1.6 29.84-1.76 22.05-4.86 44.2-4.86 44.2s13.3-17.98 25.66-36.89c6.19-9.52 12.19-19.28 16.53-26.89 1.07-1.96 2.06-3.67 2.89-5.36 0.89-1.67 1.67-3.11 2.32-4.34 1.14-2.12 1.76-3.34 1.76-3.34 0.15-0.22 0.22-0.56 0.26-0.78 4.23-1.57 8.32-3.56 11.98-6.23 62.74-45.7 111.62-93.64 149.63-146.51l50.81-1.89c-37.67 128.36-118.39 238.26-225.43 313.17-2.92 0.32-5.9 0.43-9.03 0.43-15.67 0-33.79-4.04-47.31-9 0.22-0.69 0.44-1.34 0.68-2.02 2.67-7.28 5.85-16.92 8.67-26.61 2.96-9.66 5.55-19.36 7.31-26.7 1.72-7.34 2.58-12.19 2.58-12.19s-3.31 3.68-8.61 8.85c-5.22 5.12-12.48 11.8-19.82 18.2-7.39 6.41-14.87 13.31-20.53 17.63-5.12 4.02-18.42 14.15-20.99 16.08-57.52 25.01-128.67 41.43-212.06 48.73-0.14 0-0.36 0.11-0.56 0.11-1.14-0.33-2.27-0.89-3.44-1.06 0 0-4.4-0.78-11.45-2.62-7.02-1.73-16.5-4.35-26.01-7.18-9.51-2.85-18.99-5.86-26.04-8.23-0.58-0.17-1.12-0.39-1.65-0.56-0.7 1.5-1.54 2.93-2.69 4.24-0.22 0.19-0.46 0.38-0.7 0.6 0.39 0.46 0.7 0.89 1.14 1.38 4.78 5.85 11.3 13.54 17.99 21.11 6.73 7.57 13.59 15.08 19.01 20.65 0.53 0.62 0.96 1.06 1.49 1.61-11.28 14.59-25.07 29.74-43.16 38.03-135-14.31-256.13-74.77-347.54-165.28-1.34 0.35-2.65 0.55-4.03 0.55-4.85 0-9.72-1.98-13.22-5.67-4.5-4.68-6.08-11.29-4.49-17.42-83.06-91.57-137.4-209.58-148.77-340.07 7.39-20.24 28.47-44.86 51.99-60.95 5.01 6.18 11.38 13.64 18.03 21 7.15 7.94 14.42 15.68 20.03 21.26l1.01 1.01c0.48-0.46 0.91-0.91 1.42-1.25zm4.25-86.5c1.64 8.53 4.07 19.66 6.78 32.4 1.25 6.08 2.68 12.48 4.1 19.25 2.39 11.26 4.55 20.61 6.22 27.17 0.99 3.8 1.88 6.91 2.49 8.98 1.65 1.27 4.84 3.71 9.11 6.95 6.76 5.01 15.49 11.15 23.93 16.91 8.03 5.47 16.05 10.7 22.47 14.59 33.97-13.17 108.54-42.08 155.92-59.91 0.65-1.49 1.25-2.98 1.97-4.65 4.85-11.37 11.14-25.07 15.63-34.63 9.2-19.83 18.89-39.64 22.26-46.44 0.03-0.22-0.02-0.5 0-0.77 0.06-1 2.11-25.49 5.66-50.5 1.72-12.62 3.76-25.41 5.5-35.01 0.29-1.42 0.56-2.88 0.85-4.34-23.37-31.61-46.25-62-68.45-91.4l-0.32-0.45c-10.05-13.34-19.78-26.22-29.01-38.51-8.36 0.22-19.17 0.78-30.04 1.77-10.7 0.78-22.32 2.13-31.96 3.57-4.57 0.67-8.38 1.28-10.88 1.73-5.21 4.73-15.68 14.3-25.81 23.93-6.67 6.41-13.56 13.26-18.82 18.59-3.97 4.3-13.12 13.47-17.12 17.49-21.27 40.24-45.18 105.92-50.48 173.28zm107.61-274.82c8.77-6.02 19.64-12.96 29.73-18.88 15.91-9.52 32.32-18.13 40.32-22.2 0.87-1.52 1.73-2.94 2.66-4.35 36.77-54.62 95.95-111.28 152.83-146.57 0.27-5.79 0.46-13.9 0.08-22.59-113.41 31.33-215.44 98.35-289.68 190.71 0.54 13.85 2.88 28.67 5.89 40.86 3.38-0.79 6.84-1.57 10.19-2.24 15.87-3.44 31.45-6.34 37.59-7.5 2.38-1.62 5.93-4.18 10.39-7.24zm176 273.71c-0.38-0.11-0.65-0.22-1.05-0.34-4.51 9.24-10.97 22.66-17.3 36.32-5.72 12.22-11.32 24.59-15.39 34.05-2.14 5.06-3.91 9.3-5.03 12.24-1.21 0.35-2.48 0.55-3.72 1.01-48.75 18.31-130.25 49.88-163.08 62.67-1.46 0.57-2.82 1.29-4.2 2.01-1.81-1.01-3.94-2.23-6.63-3.89-6.79-4.13-15.86-9.97-24.91-16.16-8.99-6.1-17.95-12.47-24.55-17.34-0.53-0.36-0.94-0.68-1.47-1.06-1.05 1.15-2.22 2.16-3.62 3.05-0.33 0.21-0.76 0.34-1.1 0.56 0.26 0.56 0.53 1.12 0.83 1.82 3.49 7.53 8.29 17.54 13.3 27.5 5.05 9.97 10.36 19.89 14.66 27.33 4.22 7.48 7.69 12.7 7.69 12.7l0.41 0.63c-0.48 3.28-0.73 6.61-0.48 10.07 2.01 29.55 11.3 129.75 47.06 205.17l-21.25 44.55c1.51 1.55 3 3.23 4.51 4.78l45.29-19.48c56.35 30.72 125.32 52.72 205.54 65.29 2.44 0.38 4.91 0.63 7.33 0.63h0.32c1.3 1 2.48 1.98 2.96 2.33 1.04 0.86 2.3 2 3.72 3.21 1.55 1.34 3.15 2.45 4.85 3.79 7.02 5.23 16.35 11.08 25.71 16.36 9.36 5.24 18.79 9.98 25.85 13.47 0.79 0.34 1.53 0.68 2.26 1.06 0.31-0.6 0.61-1.17 0.95-1.73 0.75-0.99 1.63-1.89 2.55-2.77-0.42-0.55-0.75-1.11-1.2-1.79-4.3-6.55-9.94-15.24-15.08-24.08-5.11-8.85-9.73-17.77-12.37-24.22-0.65-1.68-1.32-3.13-1.61-4.24-0.14-0.5-0.23-0.88-0.37-1.23 1.52-2.15 2.95-4.45 4.09-6.78 28.7-58.34 54.75-113.29 75.43-158.93 0.88-1.94 1.52-3.95 2.13-6.02l75.88-31.88c-0.22-0.56-0.39-1.01-0.53-1.56-0.42-1.56-0.52-3.02-0.47-4.58l-82.59-3.99c-1.8-2.46-3.87-4.81-6.24-6.9-59.32-52.56-114.19-110.12-146.79-153.98-2.61-3.61-5.78-6.67-9.28-9.41-0.05-2.74-0.28-7.06-0.3-12.76-0.1-9.79 0.02-23.15 0.37-36.51 0.36-14.92 0.89-29.9 1.28-40.17-1.4-0.08-2.96-0.31-4.36-0.8zm21.12 77.32c0 1.62 0 3.12 0.02 4.5 2.18 2.13 4.15 4.48 5.89 6.8 31.93 42.97 85.85 99.54 144.26 151.25 0.92 0.84 1.86 1.72 2.77 2.66l86.73 4.18c6.74-3.39 24.88-12.57 42.5-22.26 11.07-6.03 22.13-12.27 30.17-16.93l4.5-2.67c0.44-1.49 0.96-2.9 1.47-4.34 25.77-67.35 44.87-132.27 60.13-204.3 0.35-1.65 0.76-3.29 1.28-4.9-0.72-1.44-1.51-3.04-2.43-4.9-3.4-6.73-8.55-16.35-15.4-28.61l-16.72-29.72-6.43-11.69-39.15-25.56c-11.57-7.52-21.4-13.79-28.47-18.09-1.46-0.92-2.76-1.78-4-2.44-1.58 0.34-3.08 0.61-4.57 0.88-77.79 11.36-140.37 25.39-209.28 46.87-1.69 0.56-3.46 1.01-5.33 1.42-0.96 1.31-2.1 2.8-3.41 4.6-5.23 7.13-11.99 16.86-18.62 26.88-10.15 15.21-19.76 31.12-23.76 37.7-0.02 0.16-0.02 0.28-0.02 0.43-0.17 4.68-1.22 28.73-1.77 52.33-0.36 14.27-0.45 26.94-0.36 35.91zm366.67-185.1 10.16 7.24 28.01 19.42c12.39 8.77 21.75 15.54 28.41 20.73 2.03 1.56 3.92 3 5.69 4.39 33.29-3.46 106.99-10.91 158.12-14.8 3.32-6.29 6.87-13.36 10-20.16 6.57-13.9 12.23-28.74 14.3-34.29-0.92-6.12-3.37-21.83-6.94-36.95-1.89-8.64-4.45-18.16-6.9-26.12-0.68-2.4-1.34-4.33-1.89-5.97l-0.8-2.16-6.99-21.71c-42.1-62.51-97.55-108.37-121.15-126.47-4.6-2.18-13.78-6.29-18.42-8.07-6.63-2.61-16.02-5.68-25.33-8.46-15.57-4.5-31.84-8.24-37.64-9.52-4.54 1.61-21.18 7.57-37.31 13.97-7.29 2.79-14.21 5.63-19.75 8.02-5.34 54.55-12.08 106.38-19.66 163.33 0 0-0.07 0.1-0.07 0.22 1.22 1.67 2.46 3.55 3.74 5.67 4.81 7.35 11.33 17.71 18.83 29.94l25.59 41.75zm25.3-299.02c4-1.3 22.6-7.14 42.14-11.92 1.41-0.28 2.78-0.61 4.18-0.95-4.56-12.18-10.72-24.43-17.46-34.34-76-36.31-157.47-54.68-242.29-54.68-29.61 0-59.33 2.46-88.7 7.02 4.2 6.8 7.47 12.7 9.39 16.21 0.66 1.27 1.24 2.38 1.82 3.5 75.79 9.14 155.05 38.14 201.2 61.01 1.09 0.56 2.1 1.05 3.17 1.67l1.17 0.12 4.08 0.16c3.14 0.16 7.02 0.5 11.02 0.95 10.15 1.05 22.01 2.83 30.16 4.11 17.52 2.8 34.54 6.02 40.12 7.14zm-146 689.7-79.59 33.5c-20.73 45.77-46.84 100.78-75.54 159.21-0.06 0.13-0.1 0.29-0.18 0.4 2.33 5.17 5.81 11.73 9.81 18.65 5.18 8.88 10.78 17.58 14.52 23.25l5.61 8.41 10.44 3.61c7.1 2.47 16.34 5.35 25.42 8.03 9.18 2.78 18.35 5.35 25.26 7 6.21 1.62 10.1 2.34 10.14 2.34 0.76 0.12 1.5 0.34 2.21 0.45 78.7-7.13 146.41-22.59 201.3-46.1 4.52-3.44 14.69-11.12 18.99-14.57 3.89-3 9-7.58 14.47-12.36l5.33-4.66c7.02-6.13 13.94-12.48 19.06-17.49 1.55-1.57 2.89-2.94 4.11-4.13 0.6-4.51 3.13-23.43 4.56-42.07 0.88-10.69 1.44-21.17 1.55-28.45v-0.29c-37.9-31.73-87.93-72.7-123.51-101.14l-5.07 0.61c-10.02 0.94-23.33 2.07-36.4 3.01-25.19 1.78-49.77 2.72-52.49 2.79zm-139.06 281.67-6.99-8.7c-0.3-0.14-0.66-0.2-0.97-0.38l-11.93-5.75c-9.71-4.78-18.69-9.44-26.73-13.96-7.69-4.3-18.72-10.84-27.73-17.58l-0.64-0.5c-1.62-1.25-3.45-2.62-5.09-4.01l-1.82-1.56c-1.14-0.11-2.29-0.33-3.49-0.44-78.24-12.36-146.67-33.5-203.56-63.12l-30.32 13.02c86.55 83.37 199.64 139.49 325.55 153.97 8.33-4.69 15.73-11.49 22.07-18.37-3.19-3.45-6.5-7.23-9.76-10.92-6.62-7.45-13.33-15.36-18.59-21.7zm551.37-685.69c1.22 7.02 3.87 23.15 5.44 39.73 1.03 10.15 1.8 21.32 2.13 30.85 0.11 3.89 0.11 7.24 0.11 9.79 2.57 3.95 4.67 8.23 6.23 12.69 25.49 70.82 35.18 129.53 41.97 199.94l13.36 12.82c10.03-42.42 15.02-85.84 15.02-129.31 0-74.7-14.35-147.15-42.62-215.54-6.29-4.39-15.15-8.4-24.5-11.42-1.12 3.95-2.28 7.91-3.44 11.58-5.08 16.66-11.15 32.3-13.7 38.87zm-179.3 633.25c8.47 1.9 16.8 2.89 23.76 2.89h2.45c95.86-68.29 168.43-165.38 206.64-275.89l-15.92 0.56c-38.37 51.72-86.96 98.67-148.31 143.36-2.93 2.1-6.12 4-9.46 5.61l-1.28 2.52c-0.71 1.38-1.39 2.72-2.22 4.17l-1.07 1.88c-4.44 7.91-10.56 17.82-17.13 27.83-9.23 14.26-18.93 27.73-23.51 34.09-0.1 0.27-0.1 0.55-0.19 0.76 0 0.23-0.9 5.56-2.75 13.36s-4.61 17.92-7.57 27.72c-1.04 3.67-2.2 7.41-3.44 11.14zm-788.02-389.56c-2.62-5.67-4.45-10.01-5.35-12-0.33-0.36-4.37-4.03-10.02-9.7-5.94-5.96-13.49-13.91-20.73-21.99-2.35-2.66-4.71-5.34-7.01-7.96-13.52 11.79-25.14 26.28-30.62 38.41 11.57 121.7 61.87 232.13 138.46 318.97l14.35-30.06c-34.21-77.39-43.19-175.01-45.17-203.86-0.12-2.22-0.15-4.45 0-6.66-1.48-2.36-3.26-5.36-5.25-8.7-4.37-7.69-9.84-17.97-15.05-28.22-4.92-9.74-9.91-20.09-13.61-28.23z" fill-rule="evenodd"/>
<path class="shp4" d="m2262.6 3457c-85.22 48.83-183.85 76.92-289.15 76.92-4.24 0-8.45-0.27-12.72-0.33 11.39-11.3 20.56-23.55 28.08-33.85 1.59-2.06 3.06-4.12 4.52-6 88.19-7.98 163.87-25.93 224.84-53.44 10.17 6.29 26.61 12.64 44.43 16.7zm-59.07 9.42c-56.61 22.31-123.9 37.39-200.37 44.85-0.86 1.11-1.72 2.35-2.68 3.68 70.16-3.44 139.14-19.94 203.05-48.53zm90.02-228.36c-39.13-32.83-92.52-76.48-128.86-105.53-5.35-4.24-7.23-11.53-4.81-17.98 26.35-68.77 46.37-136.44 62.35-211.86 1.4-6.75 6.89-11.76 13.74-12.54 30.63-3.18 115.62-11.8 168.11-15.59h1.12c6.63 0 12.59 4.12 14.85 10.48 23.9 66.44 33.24 120.18 40.5 200.78 0.32 3.84-0.68 7.75-2.86 10.74-37.25 52.67-85.1 98.86-144.61 142.23-2.73 2.01-6.09 3.01-9.31 3.01-3.67 0-7.33-1.29-10.22-3.74zm-115.84-118.69c36.45 29.18 87.77 71.28 126.12 103.45 58.4-42.76 103.64-87.29 138.3-136.06-6.58-73.8-14.77-126.8-38.7-193.72-50.79 3.67-129.64 11.7-163.55 15.2-15.88 74.42-35.65 141.56-62.17 211.13zm-561.02 167.46c-27.65-54.57-42.7-136.48-47.01-199.67-0.47-6.85 3.63-13.15 10.02-15.63 29.53-11.49 113.49-43.99 162.76-62.48 1.77-0.66 3.62-1.06 5.47-1.06 4.92 0 9.71 2.41 12.77 6.63 35.38 47.59 93.27 107.54 151.22 158.87 5.17 4.56 6.81 11.91 3.95 18.15-20.54 45.42-46.59 100.31-74.96 158.09-2.71 5.46-8.32 8.9-14.28 8.9-0.81 0-1.61-0.04-2.43-0.21-79.15-12.43-147.68-34.61-201.11-64.84-2.75-1.58-4.97-3.87-6.4-6.75zm16.02-8.92c50.97 28.63 117.48 50.11 192.48 62.13 27.72-56.54 53.01-109.77 73.11-154.08-60.63-53.82-116.92-113.13-151.27-159.04-47.87 18.04-125.49 48.04-158.87 61.07 4.11 57.45 17.87 136.76 44.55 189.92z" fill-rule="evenodd"/>
<path class="shp0" d="m1973.5 3592.8c-353.56 0-641.15-287.7-641.15-641.23s287.59-641.22 641.15-641.22c353.6 0 641.18 287.69 641.18 641.22s-287.58 641.23-641.18 641.23zm0-58.91c321.63 0 582.37-260.73 582.37-582.32 0-321.7-260.74-582.44-582.37-582.44s-582.36 260.74-582.36 582.44c0 321.59 260.73 582.32 582.36 582.32z" fill-rule="evenodd"/>
<path class="shp5" d="m1633.5 3278.2c50.88 28.5 117.08 49.82 191.81 61.79 27.67-56.55 52.97-109.77 73.07-154.09-54.83-48.7-106.1-101.76-140.85-145.51 0 0 41.15 77.09 114.07 151.06-16.98 36.99-37.05 79.28-58.89 123.98-101.6-7.18-179.21-37.23-179.21-37.23zm433.05-177.02c-13.84 7.62-28.08 14.97-36.7 19.38l-76.49 4.21-82.25-59.39c22.71 23.44 47.92 47.48 74.05 70.59 0.92 0.84 1.86 1.72 2.77 2.67l86.73 4.18c6.74-3.46 24.87-12.63 42.5-22.26 11.07-6.04 22.14-12.28 30.17-16.94l4.49-2.68c0.47-1.49 0.97-2.88 1.49-4.33 25.76-67.3 44.86-132.27 60.12-204.3 0.35-1.65 0.79-3.27 1.28-4.9-0.72-1.44-1.51-3.04-2.43-4.9-3.42-6.79-8.55-16.35-15.4-28.61l-16.72-29.72-6.43-11.7 22.08 76.28c-16.21 64.11-37.56 132.75-62.06 197.27-7.64 4.41-17.35 9.8-27.2 15.15zm-327.11-229.13c-4.49 9.13-12.66 25.89-20.57 42.93-4.02 8.61-9.57 20.53-14.18 31.22-47.92 27.94-142.21 75.49-142.21 75.49 0.93 0.54 1.95 1.23 2.88 1.79 33.98-13.19 108.56-42.1 155.91-59.92 0.66-1.5 1.27-3 1.98-4.66 4.85-11.37 11.14-25.06 15.62-34.63 9.21-19.83 18.91-39.63 22.25-46.43 0.03-0.23-0.02-0.5 0-0.79 0.07-0.99 2.12-25.48 5.67-50.48 1.73-12.63 3.77-25.42 5.52-35.02 0.27-1.42 0.55-2.88 0.83-4.33-23.37-31.61-46.24-62-68.45-91.41l-0.31-0.44c-10.05-13.36-19.78-26.22-29.01-38.51 0 0 42.79 85.84 74.36 135.81-1.6 9.09-3.32 20.06-4.76 30.84-2.86 20.48-4.85 40.75-5.53 48.54zm-259.55 184.75c5.34 10.63 11.07 21.27 15.59 29.19 0.76 1.39 1.56 2.72 2.26 3.94 0.02 0.67 0.07 1.34 0.11 2.07 1.69 24.2 8.36 98.46 31.2 169.28l21.6 63.11 14.38-30.12c-34.21-77.37-43.19-174.95-45.17-203.79-0.12-2.22-0.15-4.44 0-6.66-1.48-2.36-3.26-5.36-5.25-8.75-4.37-7.64-9.84-17.92-15.05-28.22-4.92-9.69-9.91-20.04-13.59-28.17-2.64-5.67-4.47-10.02-5.37-12.02-0.33-0.35-4.37-4.01-10.02-9.68-5.94-5.97-13.49-13.92-20.73-22-2.35-2.61-4.71-5.35-7.01-7.96l19.35 52.55c0.98 2.23 2.24 5 3.69 8.24 3.87 8.46 8.97 19.04 14.01 28.99zm117.94-434.41c8.81-6 19.69-12.97 29.77-18.88 15.93-9.51 32.32-18.14 40.32-22.21 0.88-1.49 1.73-2.94 2.66-4.34 36.77-54.6 95.95-111.27 152.82-146.55 0 0-88.09 34.6-168.03 134.25-28.88 16.58-54.63 35.57-72.56 51.5-2.55 1.73-43.13 23.22-43.13 23.22 3.41-0.78 6.87-1.57 10.23-2.24 15.85-3.45 31.43-6.33 37.61-7.52 2.33-1.61 5.89-4.17 10.31-7.23zm633.56 711.8c-4.62 4.5-42.75 36.62-59.34 50.33-51.56 21.7-182.99 59.34-182.99 59.34 78.7-7.14 146.41-22.61 201.3-46.1 4.5-3.46 14.69-11.14 18.99-14.58 3.9-3 9-7.57 14.47-12.37l5.33-4.67c7.02-6.1 13.93-12.47 19.06-17.47 1.55-1.56 2.89-2.94 4.11-4.12 0.59-4.51 3.13-23.43 4.56-42.1 0.9-10.67 1.45-21.14 1.55-28.43v-0.28c-25.37-21.25-56.1-46.52-84.41-69.58l61.98 76.89-0.27 2.5c0.11 0.1 0.23 0.16 0.27 0.21-0.27 5.23-0.65 11.14-1.09 17-0.98 12.56-2.52 25.48-3.52 33.43zm-314.02-611.43-4.25 2.5c41.94-10.19 84.66-18.31 132.89-25.44 7.65-57.28 14.45-109.27 19.67-164-47.52-23.37-127.55-50.37-192.68-55.39 0 0 101.74 32.02 170.12 64.42-4.44 43.92-10.77 90.39-16.79 135.71l-108.96 42.2zm183.05-245.94 1.16 0.11 4.08 0.16c3.14 0.18 7.02 0.51 11.02 0.96 10.16 1.06 22.02 2.84 30.14 4.12 17.55 2.79 34.56 6.01 40.14 7.13 4.01-1.29 22.6-7.13 42.14-11.92 1.41-0.29 2.79-0.61 4.17-0.94-4.55-12.2-10.7-24.44-17.47-34.35-27.06-12.91-54.91-23.6-83.31-31.97 0 0 39.89 17.72 72 37.92l7.87 16.2-26.98 11.52c-32.61-2.17-84.96 1.06-84.96 1.06zm31.97 79.15 4.05-9.9c-1.07 0.45-2.25 0.94-3.21 1.34-0.25 2.9-0.59 5.68-0.84 8.56zm245.63 248.28-144.09 35.86c33.29-3.48 106.99-10.91 158.12-14.82 3.31-6.28 6.87-13.35 10-20.15 6.57-13.91 12.23-28.73 14.3-34.23-0.92-6.19-3.36-21.88-6.96-37-1.87-8.65-4.43-18.18-6.88-26.07-0.68-2.46-1.34-4.4-1.89-6.01l-0.8-2.18-7.01-21.7c-42.08-62.51-97.53-108.39-121.13-126.47-4.61-2.18-13.78-6.29-18.42-8.08-6.63-2.61-16.02-5.68-25.33-8.46-15.57-4.5-31.84-8.25-37.65-9.52l74.6 35.81c23.68 21.91 68.69 69.11 107.94 126.56l6.2 18.82 0.72 2.35c0.49 1.44 1.04 3.12 1.73 5.34 2.27 7.38 4.56 16.36 6.5 24.65 2.58 10.87 4.51 22.21 5.73 29.57-2.68 6.85-6.9 17.36-11.63 27.34-1.29 2.71-2.62 5.6-4.05 8.39zm-73.37 390.34-81.84-38.87c27.56 22.52 56.89 46.72 81.1 66.99 58.4-42.71 103.65-87.24 138.32-136.01-6.6-73.8-14.79-126.8-38.72-193.72-27.5 2.01-63.37 5.22-95.75 8.46l83.26 6.56c14.09 55.2 22.73 110.51 28.5 172.46-29.83 40.54-67.55 78.01-114.87 114.13zm-583.07 260.89c-1-0.32-1.93-0.72-2.87-0.99 58.08 29.49 121.85 49.38 189.47 57.17 8.33-4.68 15.73-11.48 22.07-18.38-3.19-3.44-6.5-7.23-9.76-10.91-6.62-7.46-13.33-15.35-18.59-21.7l-6.99-8.69c-0.3-0.16-0.66-0.21-0.97-0.39l-11.93-5.74c-6.7-3.33-12.93-6.56-18.88-9.75l45.72 55.63-5.76 5.35s-101-15.03-181.51-41.6z"/>
<path class="shp6" d="m1678.9 3355c-48.12 0-95.05-4.99-140.37-14.53 106.66 119.73 261.97 195.28 434.98 195.28 321.63 0 582.38-260.78 582.38-582.33 0-185.58-86.84-350.69-222-457.35 15.68 57.28 24.15 117.57 24.15 179.8 0 375.08-304.07 679.13-679.14 679.13z"/>
</g>
</svg>
