<svg height="366.02508" viewBox="0 0 312 418" width="273.205323" xmlns="http://www.w3.org/2000/svg" xmlns:xlink="http://www.w3.org/1999/xlink"><clipPath id="a"><path d="m-81-67h474v537h-474z"/></clipPath><g clip-path="url(#a)"><path d="m-80.78-67.23h473.65v537.01h-473.65z" fill="none" stroke="#00b9f2" stroke-width=".432"/><path d="m11.29 91.53c-33.82 147.65 11.9 257.68 144.75 326.48 132.86-68.8 178.58-178.83 144.76-326.48-40.02-22.34-90.23-35.63-144.76-35.63-54.52 0-104.73 13.29-144.75 35.63z" fill="#ececed"/><path d="m42.81 92.68c-6.18 32.22-9.33 62.36-9.12 90.54-.42 93.02 36.44 164.48 122.32 218.46l.03.02c110.33-70.68 139.79-170.72 113.22-309.03 8.25 3.44 16.16 7.25 23.69 11.39 31.98 137.61-11.25 240.16-136.91 304.28-125.65-64.12-168.89-166.67-136.91-304.28 7.53-4.14 15.44-7.94 23.68-11.38zm130.46-21.36-1.46-.08 1.17.06.15.01.4.02 1.05.06.05.01-1.1-.07zm1.36.08.34.01.35.03zm-30.76-.32.39-.01-.21.01h-.08l-1.5.06zm1.55-.05.33-.01h.03c.52-.02 1.05-.04 1.57-.05-.62.02-1.25.04-1.87.06zm23.6.09-.23-.01h.22zm-.25-.01h.02zm0 0-.22-.01h.19zm-.25-.01h.03zm0 0-.2-.01h.18zm-.21-.01h-.01.02zm-.01 0-.45-.02h.02l.28.01h.02zm-.54-.02h-.01.1zm-.01 0-.14-.01h.13zm-.29-.01-.02-.01.17.01zm-.02-.01h-.06.05zm1.69.07h-.03-.03-.03-.02z" fill="#731f1d" fill-rule="evenodd"/><path d="m156.04 59.74c40.41 0 78.32 8.03 111.05 22.08 30.23 143.95 2.15 247.37-111.05 319.88l-.03-.02c-85.88-53.98-122.74-125.44-122.32-218.46-.23-31.32 3.68-65.07 11.31-101.4 32.72-14.05 70.63-22.08 111.04-22.08zm.03 11.11c-36.88 0-71.68 6.4-102.35 17.72-31.41 146.49-5.48 239.01 102.99 311.9 108.51-72.91 132.81-165.47 101.36-312.03-30.6-11.24-65.26-17.59-102-17.59z" fill="#00b9f2" fill-rule="evenodd"/><path d="m258.06 88.44c31.46 146.56 7.16 239.12-101.35 312.03-108.48-72.89-134.4-165.41-102.99-311.9 30.68-11.32 65.47-17.72 102.35-17.72 36.74 0 71.4 6.35 101.99 17.59z" fill="#ffc734"/><path d="m65.3 180.36c6.79-5.1 12.66-12.29 17.58-21.62v-5.62h3.51c.12.99.23 1.99.35 2.99 11.71-.61 22.97-2.79 33.75-6.68v-3.52h3.52v2.29c15.77 4.07 31.26 3.42 46.58 0v-3.34c1.34.06 2.69.12 4.03.17v2.64c11.49 5.49 24.84 7.28 38.67 8.08 2.81 8.74 8.73 16.34 16.7 23.21l-2.84-.57 3.76.93c-7.14-8.41-13.58-16.93-14.53-26.26-5.64 0-22.29.27-39.34-7.25 0 0-.24-.12-.63-.3v-2.99h-7.26v2.67c-.04.04-.07.08-.1.12-2 2.62-17.99 4-17.24 3.62.75-.37 2-2.12-3-4.12-4.99-2-2.87-2.5-3.12-3.49-.25-1 .88-2.38 2.87-3.75 2-1.38 3.25-1.63 3.5-2.75.25-1.13.37-2.75 2.37-4.62 2-1.88 6-.5 7.25-1.5 1.24-1-3.38-2.37-3.75-4.12-.38-1.75 1.12-2 3.5-4 2.37-2 2.24-.5 3.99-.87 1.75-.38 2-.75 1.63-4.5-.38-3.75-.25-3.75.25-6.87s.75-2.5 3.49-6.62c2.75-4.12.14-5.91 4-9.61 3.86-3.71 2.99-.68 7.12-5.5 4.12-4.82 3.37-2 7.62-4.37 4.24-2.38 3.12.5 5.62.12 2.5-.37 3.5.63 5.24 1.5 1.75.88 3.62 1.88 5.62 3.37 2 1.5 1.75 3.38 2.13 4.25.37.88 3.24 3 5.74 4.25s2.88 6.24 3.63 6.99c.74.75.87 2.25.87 3.12 0 .88 1.37 5.37 2.12 6.62s-.87 3-.87 3 .37 2.12-.63 3c-1 .87-2.49 1-2.74 1.62-.25.63 1.74 1.75 4.12 1.88 2.37.12 3.12 0 3.99 0 .88 0 2.76 1.87 2.25 3.12-.5 1.25.51 2.37 4 2.49 3.49.13 2.12 1.63 2.12 3.88 0 2.24 0 2.74.25 3.62.25.87 1 .12 3.12 1.62 2.13 1.5.38 2.75 2.5 3 2.13.25.28 2.29-.05 3.25-.34.95-.91 1.57-2.1 2.19-1.2.62-2.01 1.24-2.87 2.06-.86.81 0 1.81 1.67 1.86 1.67.04 2.58.28 3.01.76s.62 1.76 2.43 2.34c1.82.57.77-.72 1.87-1.63 1.09-.9 1.24-.33 3.34.05 2.1.39 1.95 2.25 3.34 2.44 1.38.19 1.57.28 1.62.85.05.58-.67 1.87.05 2.11.71.24 1.38.05 2.76 0 1.39-.05 1.39 1.48.87 1.95-.53.48-.96.2-1.96.96s-.81.67-.58.95c.25.29.77.19 1.25 1.2.48 1-.43.67-2.05 1.04-1.63.39-.44 1.68.09 2.06s.67.28 1.14 1.05c.48.76-1.52 1.1-1.52 1.1s-.87.33-2.1 1.03c-1.23.69-1.15 1.15-1.15 2.15s-.31 3.45-.7 6.07c-.38 2.61.54 3.92 2.16 5.22 1.61 1.31.92 2.92.77 4.15-.16 1.23-1.08 1.46-1.77 2.38s-1.38 3.15 1.15 5.3c2.54 2.15 2.23 2.69 1.46 5.61-.06.21.34 2.13.69 3.86 7.3 2.01 13.74 4.26 19.14 6.69h-229.05c9.18-4.14 21.36-7.74 35.73-10.58v-20.12zm148.74 171.38c-.86.96-1.75 1.93-2.64 2.89.68-3.17 1.09-6.45 1.18-9.81l-4.45 3.5-6.53 16.31c-1.54 1.48-3.11 2.96-4.71 4.43l8.56-21.39-9.88-13.78-14.39 5.61-4.02 12.2-4.01 12.19 7.94 11.17 15.42-5.65c-8.99 8.24-18.84 16.23-29.61 23.99l-19.28.77c-10.61-7.57-20.36-15.36-29.28-23.4l15.06 5.37 9.37-12.27-4.01-12.17-4-12.16-14.8-4-9.35 13.11 6.75 21.23c-1.37-1.25-2.72-2.5-4.05-3.76l-5.4-16.98-4.57-4.51c.11 4.78.86 9.41 2.16 13.81-.99-1.02-1.97-2.04-2.94-3.07-.86-3.88-1.32-7.91-1.32-12.04 0-.26 0-.51.01-.76l-.32-.32.02-.58c.14-4.82.9-9.49 2.2-13.93 1.33-4.59 3.24-8.93 5.64-12.94l.36-.61.4-.03c2.35-3.78 5.14-7.28 8.31-10.4 7.61-7.51 17.37-12.89 28.3-15.17l.78-.48c1.77-.35 3.61-.61 5.48-.79 1.86-.18 3.7-.27 5.54-.27 2.35 0 4.67.14 6.95.42 2.31.27 4.6.69 6.83 1.24l.65.16.17.37c9.79 2.57 18.55 7.66 25.51 14.52 3.12 3.08 5.87 6.52 8.2 10.25l.42.06.33.55c2.49 4.13 4.46 8.59 5.81 13.3 1.32 4.56 2.06 9.37 2.16 14.35l.01.66-.32.25v.15c0 2.86-.22 5.66-.64 8.41zm-52.39 45.37c-1.05.72-2.12 1.45-3.18 2.17l-.51.01c-1.05 0-2.09-.03-3.12-.09-1.16-.78-2.31-1.57-3.45-2.36 2.16.26 4.35.39 6.57.39 1.24 0 2.47-.04 3.69-.12zm-49.52-83.14 6.76-.52 19.52-14.87 5.73-7.41c-9.54 2.45-18.06 7.38-24.82 14.05-2.69 2.65-5.1 5.59-7.19 8.75zm61.51-22.29 3.42 7.68 19.05 13.13 7.44 1.11c-2.03-3.02-4.36-5.83-6.95-8.38-6.32-6.23-14.17-10.95-22.96-13.54zm-14.92 14.92.59 15.29 10.52 7.54 10.48 7.51 14.37-5.6-.43-16.85-18.53-12.76zm-2.13 15.31-.6-15.34-16.35-5.52-18.88 14.37v17.55l14.81 4.01 10.53-7.55zm12.59 68.7 9.74-13.92-7.98-11.22h-25.97l-9.39 12.29 10.2 13.8zm-83.96-148.51c-.99-.29-1.94-.6-2.83-.92-.89-.31-1.78-.65-2.67-1.01-.88-.36-1.81-.75-2.78-1.16-.24-.11-.48-.18-.74-.23s-.51-.08-.76-.11c-.92-.07-1.82-.26-2.7-.57-.87-.32-1.69-.76-2.45-1.32s-1.43-1.26-2.01-2.08c-.58-.83-1.03-1.79-1.36-2.88-.33-1.08-.49-2.31-.5-3.67 0-1.21.15-2.35.46-3.43.3-1.09.74-2.08 1.31-2.98.59-.9 1.29-1.67 2.13-2.33s1.8-1.17 2.88-1.53c1.07-.36 2.26-.55 3.56-.55 1.31 0 2.5.19 3.56.56 1.06.36 1.99.88 2.79 1.53.8.66 1.47 1.43 2 2.3.54.88.94 1.83 1.21 2.85.27 1.03.4 2.08.4 3.18-.01 1.11-.12 2.14-.35 3.08-.24.96-.55 1.81-.96 2.57-.41.77-.88 1.42-1.42 1.97s-1.11.97-1.72 1.28v.15c.7.21 1.42.41 2.19.59.76.18 1.54.34 2.32.51zm-8.59-7.82c.67 0 1.26-.15 1.79-.46.52-.3.97-.73 1.33-1.29s.64-1.22.83-2c.19-.77.28-1.62.28-2.56 0-.91-.09-1.74-.29-2.51-.19-.76-.47-1.42-.84-1.98-.36-.56-.81-.99-1.34-1.3-.52-.31-1.12-.46-1.79-.47-.66.01-1.26.16-1.79.47s-.98.74-1.36 1.3c-.37.57-.66 1.23-.86 1.99-.21.77-.31 1.61-.31 2.53 0 .93.1 1.78.3 2.54.2.77.48 1.44.86 1.99.38.56.83.99 1.36 1.29.53.31 1.13.46 1.8.46zm18.55-16.62v11.72c0 1.04.12 1.93.36 2.66s.6 1.28 1.09 1.67c.47.38 1.08.57 1.8.57 1.11 0 1.93-.4 2.47-1.22s.81-2.04.81-3.68v-11.72h5.55v11.41c0 2.13-.35 3.9-1.04 5.33-.69 1.42-1.7 2.49-3.03 3.2-1.34.71-2.97 1.07-4.91 1.07-1.89 0-3.48-.35-4.76-1.05-1.29-.71-2.25-1.78-2.91-3.22-.65-1.44-.98-3.27-.98-5.48v-11.26zm20.42 15.89-1.16 4.78h-5.74l6.01-20.67h7.37l6.16 20.67h-5.98l-1.32-4.78zm4.57-4.11-.95-3.71c-.1-.4-.21-.83-.33-1.31-.11-.47-.23-.94-.35-1.43-.12-.48-.23-.92-.33-1.34h-.06c-.1.42-.21.86-.31 1.35-.1.48-.2.97-.3 1.45-.11.48-.21.91-.31 1.31l-.89 3.68zm10.7 8.89v-20.67h6.53l3.28 6.35c.38.69.77 1.44 1.15 2.25s.75 1.64 1.11 2.49.69 1.69 1 2.5h.09c-.16-1.36-.26-2.77-.33-4.22-.07-1.44-.1-2.94-.1-4.49v-4.88h5.06v20.67h-5.83l-3.49-6.87c-.4-.74-.79-1.53-1.21-2.36-.41-.83-.81-1.69-1.21-2.55-.39-.87-.75-1.73-1.08-2.57h-.09c.06 1.4.11 2.87.14 4.42.03 1.56.04 3.17.04 4.84v5.09zm39.53-.98c-.39.13-.85.27-1.38.41s-1.11.26-1.74.38-1.28.22-1.96.29-1.36.12-2.04.12c-1.35 0-2.57-.12-3.65-.33-1.08-.22-2.04-.54-2.87-.95-.84-.42-1.57-.92-2.18-1.52-.65-.61-1.19-1.31-1.62-2.09-.44-.78-.77-1.62-1-2.53-.22-.91-.33-1.86-.33-2.86.01-1.43.22-2.72.63-3.87.4-1.16.97-2.17 1.7-3.03.74-.87 1.61-1.59 2.61-2.18 1-.57 2.1-1.01 3.31-1.3 1.21-.3 2.48-.44 3.83-.44.94 0 1.79.05 2.55.15.77.09 1.45.21 2.03.37.57.15 1.05.31 1.4.49l-1.1 4.42c-.39-.16-.8-.31-1.26-.44s-.99-.23-1.58-.31c-.6-.07-1.29-.11-2.07-.11-.86 0-1.66.11-2.41.34s-1.41.59-1.98 1.07-1.01 1.1-1.34 1.86c-.32.76-.49 1.66-.49 2.71 0 .97.15 1.83.44 2.58s.7 1.4 1.22 1.91c.53.53 1.15.93 1.87 1.2s1.5.41 2.35.41c.25 0 .5-.01.73-.03.23-.01.43-.04.6-.07.18-.02.31-.05.39-.08v-3.56h-2.76v-4.29h8.1zm9.53.98v-20.67h6.53l3.29 6.35c.37.69.76 1.44 1.14 2.25s.75 1.64 1.11 2.49.69 1.69 1 2.5h.09c-.16-1.36-.26-2.77-.33-4.22-.07-1.44-.1-2.94-.1-4.49v-4.88h5.06v20.67h-5.83l-3.49-6.87c-.39-.74-.8-1.53-1.21-2.36s-.81-1.69-1.21-2.55c-.39-.87-.75-1.73-1.08-2.57h-.09c.06 1.4.11 2.87.14 4.42.03 1.56.04 3.17.04 4.84v5.09zm27.05-4.78-1.17 4.78h-5.73l6.01-20.67h7.36l6.16 20.67h-5.98l-1.31-4.78zm4.57-4.11-.95-3.71c-.11-.4-.22-.83-.34-1.31-.11-.47-.23-.94-.34-1.43-.12-.48-.23-.92-.33-1.34h-.07c-.1.42-.2.86-.3 1.35-.11.48-.21.97-.31 1.45s-.2.91-.31 1.31l-.89 3.68zm28.18 1.5c-.04-1.18-.07-2.46-.09-3.85-.02-1.38-.02-2.88-.01-4.49h-.09c-.21.92-.45 1.85-.7 2.81-.25.95-.5 1.88-.76 2.79-.25.9-.49 1.73-.72 2.5l-2.05 7.2h-4.32l-1.75-7.17c-.17-.75-.36-1.58-.55-2.48-.19-.89-.38-1.83-.56-2.79-.19-.96-.36-1.91-.52-2.86h-.06c-.04.98-.08 1.96-.12 2.94-.04.97-.08 1.92-.11 2.84-.04.92-.07 1.77-.11 2.56l-.3 7.39h-5.09l1.26-20.67h7.45l1.38 5.56c.18.77.37 1.57.56 2.42s.37 1.71.55 2.58c.17.87.34 1.73.48 2.57h.12c.2-.84.4-1.71.61-2.61.21-.89.42-1.76.63-2.61.22-.86.43-1.66.63-2.39l1.54-5.52h7.29l1.05 20.67h-5.4zm-169.29 16.42h9.47v1.88h-7.18v5.75h6.63v1.85h-6.63v7.84h-2.29zm23.11.34c.98.42 1.81 1.03 2.51 1.81s1.22 1.71 1.59 2.78.56 2.25.56 3.55c0 1.19-.14 2.27-.41 3.23-.28.96-.67 1.81-1.17 2.54-.5.74-1.09 1.35-1.77 1.85s-1.43.87-2.24 1.12c-.82.25-1.68.38-2.58.38-1.17 0-2.24-.22-3.2-.64-.97-.42-1.8-1.02-2.51-1.8-.7-.78-1.24-1.71-1.62-2.78-.38-1.08-.57-2.28-.58-3.59.01-1.38.21-2.63.62-3.74.4-1.12.96-2.07 1.69-2.87s1.59-1.41 2.58-1.84 2.08-.64 3.26-.65c1.21.01 2.31.23 3.27.65zm-5.39 1.57c-.61.25-1.14.61-1.59 1.06-.45.46-.83.99-1.13 1.59-.31.61-.53 1.27-.68 1.98-.15.7-.23 1.44-.23 2.2 0 .75.09 1.47.24 2.16.16.69.4 1.34.71 1.93s.69 1.1 1.15 1.54.98.79 1.57 1.04c.59.24 1.25.36 1.97.37.9-.01 1.71-.2 2.41-.57.7-.38 1.28-.9 1.77-1.56.48-.66.84-1.42 1.09-2.28.25-.87.37-1.8.37-2.78 0-.7-.07-1.39-.22-2.07-.14-.68-.36-1.32-.66-1.92s-.67-1.13-1.12-1.6c-.45-.46-.97-.82-1.57-1.08-.6-.27-1.28-.4-2.04-.4s-1.44.13-2.04.39zm23.38-1.57c.98.42 1.81 1.03 2.51 1.81.69.78 1.22 1.71 1.59 2.78s.56 2.25.56 3.55c0 1.19-.14 2.27-.42 3.23-.27.96-.66 1.81-1.16 2.54-.5.74-1.09 1.35-1.77 1.85s-1.43.87-2.24 1.12c-.82.25-1.68.38-2.58.38-1.17 0-2.24-.22-3.2-.64-.97-.42-1.81-1.02-2.51-1.8s-1.24-1.71-1.62-2.78c-.38-1.08-.58-2.28-.58-3.59 0-1.38.21-2.63.61-3.74.4-1.12.97-2.07 1.7-2.87s1.59-1.41 2.58-1.84 2.08-.64 3.26-.65c1.2.01 2.3.23 3.27.65zm-5.39 1.57c-.61.25-1.14.61-1.59 1.06-.45.46-.83.99-1.13 1.59-.31.61-.53 1.27-.68 1.98-.15.7-.23 1.44-.23 2.2 0 .75.08 1.47.24 2.16s.4 1.34.71 1.93.69 1.1 1.15 1.54.98.79 1.57 1.04c.59.24 1.25.36 1.97.37.9-.01 1.7-.2 2.4-.57.7-.38 1.29-.9 1.77-1.56s.85-1.42 1.1-2.28c.24-.87.37-1.8.37-2.78 0-.7-.07-1.39-.22-2.07s-.37-1.32-.66-1.92c-.3-.6-.67-1.13-1.12-1.6-.45-.46-.97-.82-1.58-1.08-.6-.27-1.28-.4-2.03-.4-.76 0-1.44.13-2.04.39zm15.69-.01h-5.35v-1.9h13.03v1.9h-5.38v15.42h-2.3zm9.63-1.64c.34-.08.73-.15 1.18-.2.44-.06.91-.1 1.42-.14.51-.03 1.03-.05 1.56-.05.75 0 1.42.05 2.01.14s1.12.22 1.57.41c.46.18.87.42 1.22.71.46.34.82.76 1.09 1.27.26.51.39 1.11.4 1.79-.01.57-.13 1.1-.37 1.6-.24.49-.58.93-1.02 1.31-.45.37-.98.67-1.59.89v.08c.42.09.85.25 1.27.47.43.23.82.51 1.17.87.36.35.64.78.86 1.27.21.49.33 1.06.33 1.71 0 .74-.14 1.4-.41 1.98s-.64 1.07-1.1 1.49c-.6.55-1.4.95-2.41 1.22-1 .27-2.22.39-3.65.39-.78 0-1.48-.02-2.07-.06s-1.08-.09-1.46-.14zm2.28 7.09h2.06c.79 0 1.47-.13 2.03-.39.57-.25 1-.6 1.3-1.04s.45-.94.45-1.5c0-.67-.16-1.21-.48-1.62-.31-.42-.77-.73-1.34-.92s-1.24-.29-2.01-.29c-.52 0-.94.02-1.27.05-.32.03-.57.07-.74.11zm0 8.28c.23.03.51.06.82.08.32.01.68.02 1.08.02.59 0 1.16-.06 1.7-.17.54-.12 1.02-.31 1.45-.57.41-.26.75-.61 1-1.04.24-.43.36-.96.37-1.59-.01-.58-.13-1.09-.36-1.51-.24-.42-.56-.77-.98-1.04s-.9-.47-1.45-.6c-.54-.12-1.13-.19-1.75-.19h-1.88zm14.72-3.76-1.83 5.45h-2.35l6.01-17.32h2.71l6.01 17.32h-2.43l-1.88-5.45zm5.8-1.74-1.75-4.99c-.19-.57-.36-1.1-.51-1.63-.14-.52-.28-1.03-.41-1.53h-.05c-.13.5-.26 1.02-.4 1.55s-.3 1.06-.49 1.59l-1.72 5.01zm7.31-10.13h2.29v15.44h7.52v1.88h-9.81zm12.32 0h2.3v15.44h7.52v1.88h-9.82zm30.15 16.78c-.27.14-.63.27-1.09.39-.45.13-.98.23-1.58.31s-1.25.12-1.97.12c-1.25 0-2.4-.19-3.45-.57s-1.97-.94-2.75-1.68-1.38-1.66-1.82-2.75c-.43-1.1-.64-2.36-.65-3.79 0-1.36.22-2.6.67-3.72.44-1.11 1.06-2.06 1.88-2.87.81-.8 1.78-1.41 2.9-1.84 1.13-.44 2.37-.66 3.74-.66.72 0 1.36.05 1.91.13s1.02.19 1.4.3c.37.12.67.23.86.34l-.57 1.82c-.42-.21-.93-.38-1.53-.51-.59-.13-1.26-.2-1.99-.21-1.04 0-1.97.16-2.82.48-.84.32-1.56.78-2.17 1.39-.59.61-1.06 1.36-1.39 2.24-.32.89-.49 1.9-.49 3.04 0 1.43.27 2.66.8 3.7s1.3 1.84 2.3 2.41c1 .56 2.21.84 3.64.85.47 0 .93-.03 1.39-.09.45-.06.88-.14 1.28-.25s.75-.23 1.06-.38zm2.85-16.78h2.3v15.44h7.51v1.88h-9.81zm13.68 0v10.28c.01 1.28.18 2.33.54 3.14.35.81.84 1.41 1.45 1.79s1.32.57 2.11.57c.86 0 1.62-.2 2.25-.58.65-.39 1.14-.99 1.5-1.8.35-.81.53-1.86.53-3.12v-10.28h2.3v10.13c-.01 1.32-.18 2.46-.51 3.41-.33.94-.79 1.72-1.39 2.32s-1.31 1.04-2.11 1.32c-.81.28-1.69.43-2.65.42-.91.01-1.74-.13-2.51-.39-.76-.28-1.43-.7-2-1.29-.57-.58-1.01-1.34-1.33-2.28-.31-.95-.48-2.09-.48-3.44v-10.2zm14.62.26c.33-.08.72-.15 1.17-.2.44-.06.92-.1 1.43-.14.51-.03 1.03-.05 1.55-.05.75 0 1.43.05 2.02.14s1.11.22 1.57.41c.46.18.86.42 1.21.71.46.34.83.76 1.09 1.27s.4 1.11.4 1.79c0 .57-.13 1.1-.36 1.6-.24.49-.59.93-1.03 1.31-.45.37-.97.67-1.58.89v.08c.42.09.84.25 1.26.47.43.23.82.51 1.18.87.35.35.64.78.85 1.27.22.49.33 1.06.34 1.71-.01.74-.15 1.4-.42 1.98s-.64 1.07-1.1 1.49c-.6.55-1.4.95-2.4 1.22s-2.22.39-3.66.39c-.78 0-1.47-.02-2.06-.06s-1.08-.09-1.46-.14zm2.27 7.09h2.06c.8 0 1.48-.13 2.04-.39.56-.25 1-.6 1.29-1.04.31-.44.46-.94.46-1.5 0-.67-.17-1.21-.48-1.62-.32-.42-.77-.73-1.34-.92s-1.25-.29-2.02-.29c-.52 0-.94.02-1.26.05s-.57.07-.75.11zm0 8.28c.24.03.51.06.83.08.31.01.67.02 1.08.02.59 0 1.15-.06 1.69-.17.54-.12 1.02-.31 1.45-.57.42-.26.75-.61 1-1.04.24-.43.37-.96.37-1.59 0-.58-.13-1.09-.36-1.51s-.56-.77-.98-1.04-.9-.47-1.44-.6c-.55-.12-1.13-.19-1.76-.19h-1.88zm-21.01-67.89v-2.83l-4.85-1.29v3.49c1.63.2 3.25.41 4.85.63zm-7.67-.97v-3.9l-5.34-1.43v4.75c1.8.18 3.58.38 5.34.58zm-10.44-1.07v-5.4l-9.14-1.53v6.2c3.09.21 6.14.46 9.14.73zm-11.95-.92v-6.48l-10.19-1.7v7.65c3.44.14 6.84.32 10.19.53zm-15.29-.7v-8.04c-2.76-.17-5.52-.3-8.26-.4v8.25c2.77.04 5.53.1 8.26.19zm-11.08-.22v-8.3c-3.29-.09-6.58-.12-9.85-.1v8.42c1.94-.02 3.9-.03 5.86-.03 1.34 0 2.67 0 3.99.01zm-12.67.06v-8.43c-3.49.05-6.99.17-10.49.33v8.39c3.46-.13 6.96-.23 10.49-.29zm-13.31.41v-8.36c-3.05.17-6.11.38-9.17.64v8.22c3.02-.19 6.08-.36 9.17-.5zm-14.26.86v-7.9l-8.51 1.34v7.3c2.79-.27 5.63-.52 8.51-.74zm-11.33 1.02v-7.14l-8.01 1.26v6.78c2.63-.32 5.3-.63 8.01-.9zm-13.11 1.57v-6.53l-5.32 1.08v6.23c1.75-.27 3.52-.53 5.32-.78zm-8.14 1.22v-6.09l-4.86.99v5.94c1.6-.29 3.22-.57 4.86-.84zm121.58-12.72h2.82v4.5l4.85 1.29v-13.19l-13.01-2.61v12.32l5.34 1.43zm-22.39-4.6h2.81v4.31l9.14 1.53v-12.27l-20.91-4.2-1.23.01v12.75l10.19 1.71zm-26.37-1.92h2.82v3.14c2.75.09 5.5.22 8.26.39v-12.2l-46.05.31-.18.04v12.41c3.05-.25 6.11-.46 9.17-.63v-3.46h2.82v3.31c3.48-.16 6.98-.27 10.49-.32v-2.99h2.82v2.96c3.28-.01 6.57.01 9.85.1zm-51.57 2.94h2.82v3.15l8.51-1.34v-12.09l-19.34 3.76v11.37l8.01-1.26zm-21.25 5.12h2.82v1.72l5.32-1.08v-11.29l-13 2.52v11.41l4.86-.98z" fill="#731f1d" fill-rule="evenodd"/><path d="m176.33 96.12h8.58v1.5h-8.58zm21.44 49.38h13.87v1.5h-13.87zm-8.47-3.5h32.21v1.5h-32.21zm-41.5.2h17.66v1.5h-17.66zm21.15-1.89h17.65v1.5h-17.65zm-17.66-2.6h10.88v1.5h-10.88zm15.46-2.19h10.88v1.5h-10.88zm-4.89-2.79h10.88v1.5h-10.88zm21.25.3h28.03v1.5h-28.03zm-14.46-3h16.75v1.5h-16.75zm21.94-.89h13.87v1.5h-13.87zm-13.36-2.8h10.87v1.5h-10.87zm-5.09-3.19h10.87v1.5h-10.87zm9.77-2.59h9.98v1.5h-10.87v-1.2h-13.87v-1.5h14.76zm17.76 0h10.87v1.5h-10.87zm-10.27-3.79h10.87v1.5h-10.87zm-11.38-2.89h10.58v1.5h-10.58zm5.99-3h7.78v1.5h-7.78zm-12.67.8h7.78v1.5h-7.78zm-3.99-2.59h12.57v1.5h-12.57zm9.18-2.9h8.37v1.5h-8.37zm-5.19-2.49h8.38v1.5h-8.38zm3.59-5.09h8.58v1.5h-8.58zm-3.99 2.3h8.58v1.5h-8.58zm-14.9-100.43 5.54 17.16 18.04-.03-14.61 10.57 5.6 17.15-14.57-10.63-14.57 10.63 5.61-17.15-14.61-10.57 18.03.03z" fill="#ffc734"/></g></svg>