<?xml version="1.0" encoding="UTF-8" standalone="no"?>
<svg
   xmlns:dc="http://purl.org/dc/elements/1.1/"
   xmlns:cc="http://creativecommons.org/ns#"
   xmlns:rdf="http://www.w3.org/1999/02/22-rdf-syntax-ns#"
   xmlns:svg="http://www.w3.org/2000/svg"
   xmlns="http://www.w3.org/2000/svg"
   xmlns:sodipodi="http://sodipodi.sourceforge.net/DTD/sodipodi-0.dtd"
   xmlns:inkscape="http://www.inkscape.org/namespaces/inkscape"
   width="204.26041pt"
   height="270.26025pt"
   viewBox="0 0 204.26041 270.26026"
   version="1.1"
   id="svg93"
   sodipodi:docname="Than Quang Ninh FC logo.svg"
   inkscape:version="1.0.1 (3bc2e813f5, 2020-09-07)">
  <metadata
     id="metadata97">
    <rdf:RDF>
      <cc:Work
         rdf:about="">
        <dc:format>image/svg+xml</dc:format>
        <dc:type
           rdf:resource="http://purl.org/dc/dcmitype/StillImage" />
        <dc:title></dc:title>
      </cc:Work>
    </rdf:RDF>
  </metadata>
  <sodipodi:namedview
     pagecolor="#ffffff"
     bordercolor="#666666"
     borderopacity="1"
     objecttolerance="10"
     gridtolerance="10"
     guidetolerance="10"
     inkscape:pageopacity="0"
     inkscape:pageshadow="2"
     inkscape:window-width="1366"
     inkscape:window-height="705"
     id="namedview95"
     showgrid="false"
     fit-margin-top="0"
     fit-margin-left="0"
     fit-margin-right="0"
     fit-margin-bottom="0"
     inkscape:zoom="1.0079034"
     inkscape:cx="170.21857"
     inkscape:cy="225.22156"
     inkscape:window-x="-8"
     inkscape:window-y="-8"
     inkscape:window-maximized="1"
     inkscape:current-layer="svg93" />
  <defs
     id="defs8">
    <clipPath
       id="clip1">
      <path
         d="M 0,0 H 255.32812 V 337.82812 H 0 Z m 0,0"
         id="path2" />
    </clipPath>
    <clipPath
       id="clip2">
      <path
         d="m 1,187 h 254.32812 v 70 H 1 Z m 0,0"
         id="path5" />
    </clipPath>
  </defs>
  <g
     id="surface1"
     transform="scale(0.79999184)">
    <g
       clip-path="url(#clip1)"
       clip-rule="nonzero"
       id="g14">
      <path
         style="fill:#ffffff;fill-opacity:1;fill-rule:evenodd;stroke:none"
         d="m 123.89063,335.98437 c -1.24219,-0.60937 -2.46485,-1.2539 -3.6836,-1.90234 -3.14844,-1.67578 -6.25781,-3.42969 -9.33203,-5.23828 C 100.53516,322.76953 90.539063,316.08984 80.9375,308.90234 53.847656,288.62109 28.078125,262.50781 12.75,232.05469 9.113281,224.82812 6.675781,216.97266 4.90625,209.09766 2.863281,200.02344 1.675781,190.76172 0.964844,181.49609 0.179688,171.28906 -0.0117188,161.04297 0.171875,150.8125 0.359375,140.08594 0.96875,129.36719 1.882813,118.67969 3.445313,100.34766 5.890625,82.089844 9.082031,63.976563 11.617188,49.578125 14.585938,35.234375 18.351563,21.105469 l 1.125,-4.222656 4.15625,-1.347657 C 57.800781,4.457031 93.609375,0.105469 129.44141,0.105469 c 18.4375,0 36.8789,1.003906 55.13281,3.636719 16.37109,2.363281 32.51172,6.046875 48.24219,11.152343 l 4.15234,1.347657 1.125,4.21875 c 1.65625,6.195312 3.12109,12.441406 4.46875,18.710937 1.74219,8.125 3.27734,16.292969 4.64844,24.488281 3.05859,18.304688 5.3125,36.757814 6.67187,55.265624 0.78906,10.69531 1.26563,21.41406 1.33594,32.13672 0.0625,10.22266 -0.23828,20.45703 -1.11719,30.64844 -0.79687,9.24218 -2.05859,18.47265 -4.14844,27.51953 -1.8125,7.82031 -4.25781,15.6289 -7.8789,22.8164 -15.29688,30.39454 -41.01172,56.48438 -68.03906,76.7461 -9.6211,7.21094 -19.64063,13.91015 -30.00782,20.0039 -3.08984,1.81641 -6.21093,3.58204 -9.3789,5.26954 -1.22266,0.65234 -2.44922,1.30078 -3.69922,1.91015 l -3.52734,1.73438"
         id="path10" />
      <path
         style="fill:none;stroke:#babdbf;stroke-width:2.16;stroke-linecap:butt;stroke-linejoin:miter;stroke-miterlimit:2.613;stroke-opacity:1"
         d="M 1238.9063,18.45625 C 1226.4844,24.55 1214.2578,30.995312 1202.0703,37.479687 1170.5859,54.2375 1139.4922,71.776562 1108.75,89.8625 1005.3516,150.60469 905.39062,217.40156 809.375,289.27656 538.47656,492.08906 280.78125,753.22187 127.5,1057.7531 c -36.367187,72.2657 -60.742187,150.8203 -78.4375,229.5703 -20.429687,90.7422 -32.304687,183.3594 -39.414062,276.0157 -7.851563,102.0703 -9.765626,204.5312 -7.929688,306.8359 1.875,107.2656 7.96875,214.4531 17.109375,321.3281 15.625,183.3203 40.078125,365.8985 71.992188,547.0313 25.351567,143.9844 55.039057,287.4219 92.695307,428.7109 l 11.25,42.2266 41.5625,13.4765 c 341.67969,110.7813 699.76563,154.2969 1058.08598,154.2969 184.375,0 368.789,-10.039 551.3281,-36.3672 163.7109,-23.6328 325.1172,-60.4687 482.4219,-111.5234 l 41.5234,-13.4766 11.25,-42.1875 c 16.5625,-61.9531 31.2109,-124.414 44.6875,-187.1093 17.4219,-81.25 32.7734,-162.9297 46.4844,-244.8829 30.5859,-183.0468 53.125,-367.5781 66.7187,-552.6562 7.8907,-106.9531 12.6563,-214.1406 13.3594,-321.3672 0.625,-102.2266 -2.3828,-204.5703 -11.1719,-306.4844 -7.9687,-92.4218 -20.5859,-184.7265 -41.4843,-275.1953 -18.125,-78.2031 -42.5782,-156.289 -78.7891,-228.164 C 2267.7734,753.88594 2010.625,492.9875 1740.3516,290.37031 1644.1406,218.26094 1543.9453,151.26875 1440.2734,90.33125 1409.375,72.167187 1378.1641,54.510937 1346.4844,37.635937 1334.2578,31.1125 1321.9922,24.628125 1309.4922,18.534375 l -35.2734,-17.34375 z m 0,0"
         transform="matrix(0.1,0,0,-0.1,0,337.83)"
         id="path12" />
    </g>
    <path
       style="fill:#283894;fill-opacity:1;fill-rule:nonzero;stroke:none"
       d="m 127.41406,328.77344 c 1.16406,-0.57032 2.31641,-1.1836 3.46485,-1.79297 3.0625,-1.63281 6.08984,-3.34375 9.08203,-5.10156 10.09375,-5.9375 19.89062,-12.48438 29.26172,-19.50782 25.98437,-19.48437 50.98046,-44.72265 65.68359,-73.93359 3.30859,-6.57813 5.57031,-13.85938 7.22656,-21.01563 2,-8.65625 3.20703,-17.55859 3.96875,-26.40234 0.85938,-9.93359 1.15235,-19.9375 1.08985,-29.90625 -0.0664,-10.53906 -0.53907,-21.08594 -1.3125,-31.59765 -1.33985,-18.24219 -3.57032,-36.492192 -6.58985,-54.531255 -1.34765,-8.074219 -2.85937,-16.125 -4.57812,-24.128906 -1.31641,-6.136719 -2.75,-12.257813 -4.3711,-18.324219 C 215.02344,17.558594 199.37109,13.992188 183.42969,11.6875 165.54297,9.105469 147.5,8.132813 129.44141,8.132813 94.425781,8.132813 59.484375,12.347656 26.109375,23.171875 22.414063,37.039063 19.472656,51.25 16.988281,65.367188 13.839844,83.230469 11.421875,101.28906 9.878906,119.36328 c -0.898437,10.50391 -1.496093,21.04688 -1.683593,31.58984 -0.175782,9.97266 0.011718,19.98047 0.773437,29.92969 0.675781,8.85938 1.8125,17.78125 3.765625,26.45313 1.621094,7.19531 3.863281,14.50781 7.183594,21.10937 14.730469,29.26563 39.789062,54.53125 65.832031,74.03125 9.347656,7 19.12109,13.53125 29.19141,19.44531 2.97656,1.75 5.98828,3.45313 9.03515,5.07813 1.13672,0.60156 2.28125,1.20703 3.4375,1.77344"
       id="path16" />
    <path
       style="fill:none;stroke:#2b2e91;stroke-width:2.16;stroke-linecap:butt;stroke-linejoin:miter;stroke-miterlimit:2.613;stroke-opacity:1"
       d="m 1274.1406,90.565625 c 11.6407,5.703125 23.1641,11.835935 34.6485,17.929685 30.625,16.32813 60.8984,33.4375 90.8203,51.01563 100.9375,59.375 198.9062,124.84375 292.6172,195.07812 259.8437,194.84375 509.8047,447.22656 656.8359,739.33594 33.0859,65.7813 55.7031,138.5938 72.2656,210.1563 20,86.5625 32.0703,175.5859 39.6875,264.0234 8.5938,99.3359 11.5235,199.375 10.8985,299.0625 -0.6641,105.3906 -5.3907,210.8594 -13.125,315.9766 -13.3985,182.4218 -35.7032,364.9218 -65.8985,545.3125 -13.4765,80.7421 -28.5937,161.25 -45.7812,241.289 -13.1641,61.3672 -27.5,122.5781 -43.711,183.2422 -153.164,49.7266 -309.6875,85.3906 -469.1015,108.4375 -178.8672,25.8203 -359.2969,35.5469 -539.8828,35.5469 -350.15629,0 -699.57035,-42.1485 -1033.32035,-150.3906 C 224.14062,3007.9094 194.72656,2865.8 169.88281,2724.6281 138.39844,2545.9953 114.21875,2365.4094 98.789063,2184.6672 89.804688,2079.6281 83.828125,1974.1984 81.953125,1868.7688 c -1.757812,-99.7266 0.117188,-199.8047 7.734375,-299.2969 6.757813,-88.5938 18.125,-177.8125 37.65625,-264.5313 16.21094,-71.9531 38.63281,-145.0781 71.83594,-211.0937 C 346.48437,801.19062 597.07031,548.53437 857.5,353.53437 c 93.47656,-70 191.2109,-135.3125 291.9141,-194.45312 29.7656,-17.5 59.8828,-34.53125 90.3515,-50.78125 11.3672,-6.01563 22.8125,-12.070313 34.375,-17.734375 z m 0,0"
       transform="matrix(0.1,0,0,-0.1,0,337.83)"
       id="path18" />
    <path
       style="fill:#ffffff;fill-opacity:1;fill-rule:nonzero;stroke:none"
       d="m 43.613281,45.324219 c -0.0078,-0.910156 -0.01563,-1.828125 -0.01953,-2.746094 v -0.429687 l -0.417969,0.117187 c -2.894531,0.8125 -5.808593,1.628906 -8.75,2.441406 l -0.234375,0.06641 -0.0078,0.246093 c -0.01563,0.914063 -0.03516,1.832032 -0.04687,2.746094 l -0.0078,0.4375 2.851563,-0.785156 c -0.01953,3.8125 0.0039,7.671875 0.07031,11.472656 l 0.01172,0.421875 3.84375,-1.03125 -0.0078,-0.257812 C 40.792969,54.15625 40.734375,50.242188 40.722656,46.382813 l 2.894532,-0.804688"
       id="path20" />
    <path
       style="fill:#ffffff;fill-opacity:1;fill-rule:nonzero;stroke:none"
       d="m 56.484375,39.398438 0.0039,-0.421875 -3.621093,0.886718 -0.0039,0.253907 c -0.01953,1.777343 -0.03516,3.558593 -0.03906,5.34375 -1.53125,0.363281 -3.0625,0.730468 -4.605469,1.09375 0.03516,-1.71875 0.07422,-3.445313 0.125,-5.167969 l 0.01172,-0.425781 -3.675781,0.882812 -0.0078,0.25 c -0.1875,4.917969 -0.308594,9.914063 -0.363281,14.839844 l -0.0039,0.417969 3.8125,-0.882813 v -0.257812 c 0.0039,-2.082032 0.01953,-4.160157 0.04687,-6.246094 1.558593,-0.367188 3.113281,-0.734375 4.660156,-1.101563 0.0078,2.03125 0.02734,4.0625 0.05469,6.089844 l 0.0039,0.410156 3.761718,-0.875 -0.0078,-0.269531 c -0.117214,-4.921875 -0.164089,-9.910156 -0.15237,-14.820312"
       id="path22" />
    <path
       style="fill:#ffffff;fill-opacity:1;fill-rule:nonzero;stroke:none"
       d="m 67.070313,45.941406 -3.1875,0.605469 c 0.558593,-1.410156 1.113281,-2.824219 1.667968,-4.234375 0.496094,1.207031 1.003907,2.421875 1.519532,3.628906 m 0.320312,-8.894531 -0.101562,-0.253906 -3.367188,0.660156 -0.06641,0.167969 c -2.101563,5.363281 -4.289063,10.800781 -6.492188,16.15625 l -0.226562,0.550781 3.9375,-0.726562 0.06641,-0.164063 c 0.433594,-1.058594 0.863281,-2.117187 1.289063,-3.171875 2.007812,-0.375 4.003906,-0.753906 5.996093,-1.128906 0.375,0.871094 0.753907,1.746094 1.140625,2.617187 l 0.105469,0.238282 3.792969,-0.714844 -0.175781,-0.378906 C 71.191406,46.300781 69.207031,41.640625 67.390625,37.046875"
       id="path24" />
    <path
       style="fill:#ffffff;fill-opacity:1;fill-rule:nonzero;stroke:none"
       d="m 87.132813,33.941406 v -0.386718 l -3.46875,0.519531 -0.0039,0.277344 c -0.04687,2.988281 -0.07813,6 -0.09766,8.960937 -1.945312,-2.71875 -3.84375,-5.46875 -5.660156,-8.1875 l -0.113281,-0.175781 -3.199219,0.472656 -0.01172,0.273438 c -0.234375,5.03125 -0.4375,10.128906 -0.59375,15.144531 l -0.01563,0.390625 3.652344,-0.515625 0.0078,-0.273438 c 0.06641,-2.972656 0.144532,-5.972656 0.234375,-8.933593 1.882813,2.71875 3.847657,5.464843 5.855469,8.171875 l 0.117188,0.160156 3.328125,-0.472656 -0.0039,-0.289063 c -0.04687,-5.027344 -0.05859,-10.125 -0.02734,-15.136719"
       id="path26" />
    <path
       style="fill:#ffffff;fill-opacity:1;fill-rule:nonzero;stroke:none"
       d="m 99.023438,41.710938 c 0.796875,0.988281 1.601562,1.976562 2.414062,2.964843 -0.46094,0.191407 -0.94922,0.3125 -1.460937,0.359375 -1.121094,0.09375 -2.125,-0.183593 -2.992188,-0.816406 -1.101562,-0.816406 -1.613281,-1.984375 -1.566406,-3.578125 0.04687,-1.414062 0.527344,-2.644531 1.4375,-3.652344 0.917969,-1.007812 1.992187,-1.554687 3.289061,-1.667968 0.14063,-0.01172 0.27735,-0.01953 0.41406,-0.01953 1.0586,0 1.95313,0.375 2.73829,1.140625 0.875,0.867188 1.32031,1.980469 1.32812,3.324219 0.004,0.890625 -0.20312,1.742188 -0.62109,2.53125 -0.35157,-0.433594 -0.70313,-0.859375 -1.05078,-1.289062 l -0.10938,-0.136719 -4.207031,0.359375 z m 7.273442,3.347656 c 1.24218,-1.605469 1.85546,-3.460938 1.82812,-5.523438 -0.0352,-2.316406 -0.84375,-4.25 -2.40625,-5.75 -1.5625,-1.488281 -3.43359,-2.148437 -5.58203,-1.960937 -1.402345,0.125 -2.746095,0.621094 -3.996095,1.472656 -1.246094,0.847656 -2.261719,1.945313 -3.019531,3.261719 -0.761719,1.332031 -1.179688,2.761719 -1.242188,4.257812 -0.09375,2.277344 0.636719,4.199219 2.167969,5.699219 1.542969,1.515625 3.554688,2.183594 5.968755,1.980469 1.33984,-0.109375 2.57031,-0.492188 3.66796,-1.128906 0.39063,0.46875 0.78907,0.933593 1.1875,1.40625 l 0.10938,0.125 4.27734,-0.355469 -0.41797,-0.488281 c -0.85546,-1 -1.70312,-1.996094 -2.54296,-2.996094"
       id="path28" />
    <path
       style="fill:#ffffff;fill-opacity:1;fill-rule:nonzero;stroke:none"
       d="m 120.08594,31.371094 -0.008,-0.335938 -3.41407,0.140625 v 0.3125 c 0,3.179688 0.004,6.355469 0.0156,9.53125 0.004,1.222657 -0.10156,1.75 -0.1836,1.972657 -0.11718,0.308593 -0.32421,0.5625 -0.63671,0.777343 -0.3125,0.210938 -0.69922,0.328125 -1.14454,0.347657 h -0.11328 c -0.36718,0 -0.67968,-0.07422 -0.93359,-0.222657 -0.28125,-0.164062 -0.46875,-0.378906 -0.58594,-0.660156 -0.0898,-0.210937 -0.1875,-0.667969 -0.17578,-1.667969 0.043,-3.300781 0.0859,-6.59375 0.14063,-9.890625 l 0.004,-0.347656 -3.42578,0.144531 -0.008,0.304688 c -0.0781,3.039062 -0.15235,6.078125 -0.21875,9.121094 -0.043,1.890625 0.10937,3.199218 0.46875,4 0.36328,0.816406 0.98828,1.484375 1.85547,1.996093 0.79687,0.460938 1.73047,0.699219 2.78125,0.699219 0.0977,0 0.1914,-0.0039 0.29297,-0.0078 0.88671,-0.03516 1.67578,-0.207032 2.34765,-0.515625 0.67969,-0.3125 1.28125,-0.777344 1.79297,-1.386719 0.50391,-0.605469 0.85156,-1.242188 1.02734,-1.894531 0.17188,-0.632813 0.2461,-1.714844 0.22657,-3.300782 -0.0391,-3.039062 -0.0742,-6.078125 -0.10547,-9.117187"
       id="path30" />
    <path
       style="fill:#ffffff;fill-opacity:1;fill-rule:nonzero;stroke:none"
       d="m 129.99609,40.289063 -3.03906,-0.0039 c 0.51172,-1.324218 1.01172,-2.65625 1.51172,-3.984375 0.50391,1.328125 1.01172,2.660157 1.52734,3.988282 m 0.14453,-9.097657 -0.082,-0.210937 -3.24609,-0.0039 -0.082,0.214843 c -1.85938,5.074219 -3.84766,10.21875 -5.91016,15.289063 l -0.18359,0.453125 3.72656,0.0039 0.082,-0.203125 c 0.40235,-0.984375 0.79688,-1.96875 1.1875,-2.953125 l 5.71485,0.0078 c 0.38281,0.984375 0.76953,1.96875 1.16015,2.949218 l 0.082,0.207032 3.73047,0.0039 -0.18359,-0.453125 c -2.09375,-5.070313 -4.10938,-10.21875 -5.9961,-15.304688"
       id="path32" />
    <path
       style="fill:#ffffff;fill-opacity:1;fill-rule:nonzero;stroke:none"
       d="m 149.18359,31.929688 -0.008,-0.304688 -3.42187,-0.160156 0.008,0.351562 c 0.082,2.964844 0.15234,5.925782 0.21875,8.890625 -1.98828,-3.109375 -3.94141,-6.257812 -5.8125,-9.363281 l -0.0898,-0.152344 -3.16015,-0.148437 v 0.34375 c -0.0352,5.09375 -0.0781,10.1875 -0.13672,15.289062 l -0.004,0.316407 3.57032,0.160156 V 46.8125 c 0.004,-2.957031 0.004,-5.914062 0,-8.871094 1.91406,3.105469 3.91015,6.242188 5.9375,9.339844 l 0.0937,0.144531 3.32812,0.148438 -0.008,-0.351563 C 149.53906,42.125 149.36719,37.023438 149.18359,31.929688"
       id="path34" />
    <path
       style="fill:#ffffff;fill-opacity:1;fill-rule:nonzero;stroke:none"
       d="m 158.96484,39.984375 0.0703,3.386719 4.21093,0.394531 c -0.33203,0.574219 -0.75,0.992188 -1.24609,1.253906 -0.62109,0.324219 -1.41406,0.445313 -2.35156,0.355469 -1.46094,-0.136719 -2.70703,-0.738281 -3.70313,-1.796875 -0.99609,-1.058594 -1.48437,-2.257812 -1.48828,-3.660156 -0.004,-1.316406 0.44922,-2.40625 1.35547,-3.242188 0.91016,-0.839843 2.01562,-1.1875 3.37891,-1.050781 1.58593,0.148438 2.97265,0.925781 4.2539,2.363281 l 0.22266,0.253907 0.24609,-0.234375 c 0.64063,-0.609375 1.27735,-1.21875 1.91016,-1.832032 l 0.22265,-0.214843 -0.20312,-0.234375 c -0.98438,-1.125 -1.97656,-1.960938 -2.95703,-2.480469 -1.16406,-0.613281 -2.41797,-0.988281 -3.72266,-1.117188 -2.51562,-0.246093 -4.58594,0.488282 -6.17578,2.1875 -1.33594,1.429688 -2.02344,3.214844 -2.03906,5.296875 -0.008,1.53125 0.35937,3 1.08594,4.371094 0.73437,1.382813 1.76171,2.503906 3.05468,3.332031 1.29297,0.832032 2.78125,1.328125 4.4375,1.480469 0.32032,0.02734 0.63672,0.04297 0.94141,0.04297 1.16797,0 2.22266,-0.21875 3.12891,-0.65625 1.15234,-0.554688 2.07421,-1.429688 2.7539,-2.617188 0.67188,-1.175781 0.97656,-2.476562 0.91016,-3.882812 l -0.0742,-0.921875"
       id="path36" />
    <path
       style="fill:#ffffff;fill-opacity:1;fill-rule:nonzero;stroke:none"
       d="m 184.51172,36.210938 -0.0195,-0.265625 -3.51172,-0.554688 0.0156,0.402344 c 0.125,2.898437 0.24219,5.832031 0.34375,8.742187 -2.07812,-3.296875 -4.13672,-6.636718 -6.11718,-9.933593 l -0.0781,-0.132813 -3.25,-0.515625 0.008,0.390625 c 0.0625,5 0.082,10.089844 0.0625,15.113281 l -0.004,0.285157 3.63281,0.550781 V 49.90625 c -0.0156,-2.890625 -0.0469,-5.816406 -0.0898,-8.714844 2.00781,3.292969 4.08984,6.621094 6.19531,9.902344 l 0.0781,0.125 3.42969,0.511719 -0.0156,-0.390625 c -0.1836,-5.019531 -0.41407,-10.113281 -0.67969,-15.128906"
       id="path38" />
    <path
       style="fill:#ffffff;fill-opacity:1;fill-rule:nonzero;stroke:none"
       d="m 190.16797,37.320313 -0.008,-0.261719 -3.51954,-0.667969 0.0117,0.410156 c 0.14063,4.988282 0.23828,10.042969 0.27735,15.023438 l 0.004,0.273437 3.66016,0.660157 -0.004,-0.398438 C 190.5,47.371094 190.35547,42.308594 190.16797,37.320313"
       id="path40" />
    <path
       style="fill:#ffffff;fill-opacity:1;fill-rule:nonzero;stroke:none"
       d="m 205.31641,40.550781 -0.0117,-0.246093 -3.60547,-0.796875 0.0156,0.425781 c 0.11719,2.855469 0.21094,5.746094 0.28907,8.609375 -2.125,-3.414063 -4.22657,-6.859375 -6.25,-10.253906 l -0.0781,-0.117188 -3.32812,-0.746094 0.008,0.417969 c 0.0508,4.945313 0.043,9.960938 -0.0234,14.90625 l -0.004,0.269531 3.70313,0.789063 V 53.40625 c 0.0156,-2.855469 0.004,-5.738281 -0.0234,-8.589844 2.05469,3.40625 4.17188,6.835938 6.29688,10.21875 l 0.0781,0.117188 3.50781,0.738281 -0.008,-0.410156 c -0.1289,-4.949219 -0.32031,-9.96875 -0.5664,-14.929688"
       id="path42" />
    <path
       style="fill:#ffffff;fill-opacity:1;fill-rule:nonzero;stroke:none"
       d="m 220.39062,59.601563 -0.004,-0.425782 c -0.0195,-4.867187 -0.11328,-9.816406 -0.28125,-14.707031 l -0.0117,-0.246094 -3.71094,-0.988281 0.008,0.433594 c 0.043,1.703125 0.0781,3.40625 0.10157,5.113281 -1.56641,-0.417969 -3.12891,-0.828125 -4.6836,-1.242187 0,-1.765625 -0.008,-3.53125 -0.0273,-5.296875 v -0.25 l -3.67969,-0.996094 v 0.425781 c 0.004,4.882813 -0.0664,9.820313 -0.20703,14.695313 l -0.008,0.257812 3.80859,0.992188 0.008,-0.417969 c 0.043,-2.007813 0.0703,-4.015625 0.0859,-6.023438 1.57813,0.410157 3.15625,0.828125 4.74219,1.246094 0.0156,2.058594 0.0234,4.125 0.0117,6.183594 v 0.257812"
       id="path44" />
    <path
       style="fill:#ffffff;fill-opacity:1;fill-rule:nonzero;stroke:none"
       d="M 227.17187,80.558594 C 168.90234,58.289063 87.082031,58.382813 29.015625,80.574219 21.761719,124.21094 14.03125,183.91406 32.886719,221.96484 c 28.289062,57.08203 95.210941,91.12891 95.210941,91.12891 0,0 66.96875,-34.17188 95.19921,-91.13672 18.86329,-38.05469 11.12891,-97.75781 3.875,-141.398436"
       id="path46" />
    <path
       style="fill:#ca3030;fill-opacity:1;fill-rule:nonzero;stroke:none"
       d="M 225.01172,82.035156 C 168.00781,60.082031 87.976563,60.171875 31.175781,82.042969 24.082031,125.06641 16.515625,183.92578 34.964844,221.4375 c 27.675781,56.27734 93.132816,82.53125 93.132816,82.53125 0,0 65.51171,-26.37891 93.125,-82.53906 18.44921,-37.51172 10.88281,-96.375 3.78906,-139.394534"
       id="path48" />
    <path
       style="fill:#ffffff;fill-opacity:1;fill-rule:nonzero;stroke:none"
       d="m 226.57812,164.76953 c -0.17578,-0.54297 -0.4375,-1.05469 -0.79687,-1.55469 -0.28125,-0.40234 -0.59766,-0.75 -0.87109,-1.05468 -0.26172,-0.29297 -0.53907,-0.59766 -0.61329,-0.78907 -0.16796,-0.39843 -0.14843,-1.08593 -0.1289,-1.8125 0.0117,-0.46484 0.0273,-0.99218 0,-1.53906 -0.25781,-4.99609 -4.01172,-5.21875 -5.42578,-5.30469 -0.33203,-0.0195 -0.89844,-0.0547 -1.04688,-0.13672 -0.53125,-0.69531 -1,-1.5039 -1.49609,-2.36718 -1.26172,-2.17969 -2.83203,-4.90235 -6.19141,-6.11719 -0.79297,-0.29297 -1.75,-0.58984 -2.79297,-0.58984 -0.20312,0 -0.41015,0.0156 -0.60937,0.0391 -0.38281,0.043 -0.72266,0.11719 -0.97266,0.17187 -0.0508,0.0117 -0.10937,0.0273 -0.16015,0.0352 -0.55469,-0.23438 -1.125,-0.62109 -1.66407,-1 -0.11718,-0.0898 -0.23437,-0.18359 -0.35937,-0.27734 -0.40235,-0.31641 -0.90625,-0.71094 -1.53516,-1.01172 -0.51953,-0.25 -0.99609,-0.33985 -1.30859,-0.39844 -0.0312,-0.004 -0.0664,-0.008 -0.0937,-0.0156 -0.38672,-0.29296 -0.76172,-0.59375 -1.11719,-0.90625 l -0.14062,-0.13281 c -0.27735,-0.26562 -0.5586,-0.53125 -0.85938,-0.78906 -0.0352,-0.0273 -0.0703,-0.0586 -0.10547,-0.0898 -0.5664,-0.54297 -1.08594,-1.09766 -1.55078,-1.64454 -0.24219,-0.28515 -0.46094,-0.5625 -0.6875,-0.86328 -0.77344,-0.99609 -1.64844,-2.12109 -3.24609,-3.00781 -0.84766,-0.46875 -1.69532,-0.85547 -2.51172,-1.23437 -0.61328,-0.28516 -1.19141,-0.55079 -1.7461,-0.83985 -2.41015,-1.24609 -4.57421,-2.67578 -6.85937,-4.1875 l -0.35938,-0.24218 c -0.83593,-0.55469 -1.68359,-1.06641 -2.5,-1.56641 -2.51953,-1.52344 -4.89843,-2.96484 -6.41406,-5.23047 -1.33203,-1.98437 -2.59375,-4.15234 -3.8164,-6.24219 -1.08204,-1.85547 -2.19922,-3.76562 -3.38282,-5.60156 -1.09765,-1.70312 -2.1914,-3.46484 -3.24609,-5.17187 -0.85547,-1.375 -1.73438,-2.79688 -2.62109,-4.187505 -0.27735,-0.441406 -0.58985,-1.035156 -0.92579,-1.675781 -1.13286,-2.144681 -2.53911,-4.808744 -4.9102,-5.933744 -0.91797,-0.433594 -1.92188,-0.652344 -2.98047,-0.652344 -2.48828,0 -4.82813,1.214844 -6.70703,2.195313 -0.44141,0.226562 -0.85547,0.445312 -1.23047,0.621094 -0.46484,0.21875 -0.94141,0.433593 -1.40625,0.636718 -2.23828,0.984375 -4.55078,2 -6.46484,4.480469 -0.19922,0.261719 -0.41407,0.519531 -0.625,0.78125 -1.29688,1.60938 -2.875,3.55859 -3.08594,6.26563 -0.35156,0.19531 -0.6836,0.46484 -1,0.80078 -1.50391,1.62109 -2.58984,3.92187 -2.97656,6.3164 -0.11328,0.67969 -0.16797,1.35547 -0.17578,2.02344 -0.0781,-0.20703 -0.15625,-0.41797 -0.23047,-0.62109 -0.29688,-0.8125 -0.58203,-1.58203 -0.76172,-2.28516 -0.13281,-0.51172 -0.41797,-0.96484 -0.8125,-1.3125 -0.4961,-0.43359 -1,-0.82031 -1.48828,-1.19531 -0.89453,-0.6875 -1.74219,-1.33985 -2.20313,-2.03125 -0.33984,-0.51953 -0.74609,-1.58203 -1.03515,-2.47656 0.875,-0.69922 1.73046,-1.71094 1.875,-3.08985 0.24218,-2.304686 -1.57813,-3.785155 -2.66797,-4.671874 -0.17578,-0.140625 -0.42188,-0.34375 -0.57422,-0.480468 -0.99219,-2.914063 -3.82813,-4.96875 -5.92578,-6.492188 -1.46485,-1.066406 -3.13672,-1.636719 -4.60938,-2.140625 -0.58984,-0.199219 -1.14453,-0.386719 -1.66406,-0.597656 -0.0625,-0.02734 -0.12891,-0.05078 -0.19531,-0.07422 -0.2461,-0.07813 -0.50391,-0.117187 -0.75391,-0.125 l -0.47266,-0.01172 c -0.49609,-0.01563 -1.05859,-0.03125 -1.64062,-0.03125 -1.05469,0 -1.9375,0.05469 -2.73828,0.167969 l -2.187502,-0.558594 c -0.08594,-0.02734 -0.140625,-0.05078 -0.175782,-0.0625 -1.84375,-1.652343 -3.707031,-3.386718 -5.507812,-5.070312 -0.691406,-0.648438 -1.382813,-1.292969 -2.078125,-1.941406 -0.496094,-0.457032 -1.125,-0.691407 -1.753906,-0.699219 -0.02734,-0.0039 -0.05078,-0.01172 -0.07422,-0.01953 -0.59375,-0.15625 -1.265625,-0.339844 -2.019531,-0.40625 C 86.828125,78.710938 86.5,78.671875 86.167969,78.640625 85.09375,78.53125 83.984375,78.417969 82.851563,78.417969 c -2.613282,0 -6.398438,0.542969 -9.234375,5.1875 -0.320313,0.160156 -1.148438,0.34375 -1.65625,0.453125 -0.722657,0.160156 -1.472657,0.324219 -2.207032,0.601562 -0.613281,0.222657 -1.242187,0.527344 -1.859375,0.898438 -0.535156,0.332031 -1.066406,0.640625 -1.59375,0.953125 -1.429687,0.835937 -2.90625,1.707031 -4.328125,2.773437 -2.046875,1.539063 -4.421875,3.429688 -6.476562,5.789063 -1.304688,1.5 -0.488281,3.191406 0.230469,4.679687 C 56,100.31641 56.371094,101.09375 56.472656,101.5 c 0.07813,0.31641 0.05078,1.00391 -0.160156,1.65625 -0.15625,0.49609 -0.421875,1.04297 -0.699219,1.62109 -0.425781,0.88282 -0.90625,1.87891 -1.171875,3.03907 -0.304687,1.34375 -0.148437,2.64453 -0.01172,3.78515 0.03906,0.32032 0.07813,0.64063 0.105468,0.94922 0.02734,0.33985 0.07813,0.64453 0.136719,0.92578 -0.199219,-0.0312 -0.394531,-0.043 -0.59375,-0.043 -1,0 -1.867187,0.38672 -2.4375,1.10157 -0.414062,0.52734 -0.855469,1.03515 -1.320312,1.57031 -0.601563,0.69141 -1.21875,1.40625 -1.800782,2.17578 -0.683593,0.60547 -1.261718,1.33203 -1.71875,2.17969 -0.839843,1.53515 -1.21875,3.13281 -1.582031,4.67578 -0.101562,0.42187 -0.195312,0.82812 -0.300781,1.22266 -0.0625,0.11718 -0.117188,0.23437 -0.164063,0.35937 l -0.765625,2.07031 c -0.01172,0.0156 -0.01953,0.0352 -0.03125,0.0508 -0.363281,0.58985 -0.878906,1.19922 -1.425781,1.84766 -1.03125,1.21875 -2.195312,2.60156 -2.859375,4.44922 -0.0039,0.0117 -0.0078,0.0195 -0.0078,0.0273 -0.613282,0.78516 -1.21875,1.71485 -1.496094,2.88281 -0.3125,1.34375 -0.222656,2.66407 -0.08984,3.8711 -2.695312,1.86719 -2.667969,6.13281 -2.644531,8.85156 0.0078,0.80469 0.01172,1.63281 -0.04687,2.08203 -0.191406,1.41406 -0.75,2.79297 -1.339844,4.2461 -0.359375,0.88281 -0.730469,1.79296 -1.039062,2.76953 -0.230469,0.72265 -0.300782,1.40625 -0.355469,1.95703 -0.04297,0.41406 -0.08203,0.80469 -0.171875,1.0039 -0.203125,0.46094 -0.5,0.90625 -0.839844,1.41797 -0.644531,0.96875 -1.449219,2.17578 -1.777344,3.8711 -0.01172,0.0625 -1.410156,7.29687 0.230469,10.55078 0.703125,1.40625 1.855469,2.39062 2.785156,3.18359 0.285157,0.24219 0.558594,0.47266 0.777344,0.6836 1.105469,1.04687 2.0625,2.30468 3.074219,3.64062 0.394531,0.52344 0.804687,1.06641 1.230469,1.59766 0.125,0.16015 0.265625,0.33984 0.40625,0.52343 0.238281,0.30469 0.488281,0.625 0.75,0.94922 0.171875,0.4375 0.460937,0.83203 0.859375,1.13282 0.152343,0.11718 0.316406,0.24218 0.476562,0.37109 0.140625,0.13672 0.289063,0.27734 0.453125,0.41406 0.0078,0.0117 0.01953,0.0195 0.03125,0.0273 0.179688,0.15234 0.375,0.29687 0.585938,0.43359 0.02344,0.0156 0.04687,0.0352 0.07031,0.0547 -0.730469,0.59765 -1.417969,1.50781 -1.410156,2.88281 0.01953,3.22656 3.59375,3.85156 4.769531,4.05469 0.113281,0.0195 0.214844,0.0352 0.296875,0.0547 2.714844,0.57032 5.695313,0.92188 9.378906,1.10547 3.195313,0.15625 6.429688,0.20703 9.558594,0.25391 l 0.05078,0.004 c 2.324219,0.22656 5.351563,0.5 8.367188,0.60546 1.050781,0.043 2.101562,0.0977 3.15625,0.14844 2.378906,0.11328 4.835937,0.23047 7.277344,0.23047 h 0.25 l 3.050781,0.14844 c 0.04297,0.004 0.08594,0.004 0.128906,0.004 0.08594,0 0.171875,-0.004 0.253906,-0.0117 0.08984,0.008 0.179688,0.0117 0.269532,0.0117 0.121093,0 0.238281,-0.008 0.359375,-0.0234 0.9375,-0.12891 1.871093,-0.26172 2.808593,-0.39453 0.878907,-0.12891 1.761719,-0.25782 2.648438,-0.37891 0.441406,-0.0352 0.835937,-0.0898 1.199219,-0.16406 1.335937,-0.17969 2.578125,-0.33594 3.796875,-0.46485 0.09766,0.0156 0.378906,0.10157 0.566406,0.15625 0.5,0.14844 1.117187,0.33985 1.83204,0.38282 0.32421,0.0234 0.66015,0.0352 1,0.0352 3.63281,0 8.44921,-1.37109 11.08984,-5.21875 0.74219,-1.08594 1.87109,-2.72656 1.11328,-5.05078 -0.18359,-0.55078 -0.40625,-1.10156 -0.71094,-1.74219 -0.0703,-0.15625 -0.15625,-0.33984 -0.24218,-0.52343 -0.16797,-0.36329 -0.32422,-0.69922 -0.45704,-1.02344 -0.80859,-1.97656 -0.92578,-3.28125 -0.39453,-4.37891 0.98047,-2.01953 1.20313,-4.04297 0.66407,-5.75 0.49609,-1.10547 1.03125,-2 1.54687,-2.5664 2.26563,-2.47657 2.47266,-5.08985 2.375,-7.32032 -0.0664,-1.52343 -0.27344,-2.98047 -0.47266,-4.39453 -0.23046,-1.61719 -0.44531,-3.14062 -0.44531,-4.66797 0,-0.80859 -0.0195,-1.59375 -0.0625,-2.33203 -0.082,-1.4375 -0.23828,-2.89062 -0.46875,-4.3125 -0.39844,-2.50781 -0.3789,-4.76562 0.0547,-6.42578 0.0937,-0.11719 0.18359,-0.23828 0.26953,-0.36328 1.05078,-1.47656 1.58203,-3.33984 2.04688,-4.98828 0.28125,-0.98828 0.54296,-1.92578 0.875,-2.625 0.29687,-0.64453 0.48828,-0.84375 1.26953,-1.35938 1.88672,-1.22656 2.92968,-2.99609 3.84765,-4.5625 0.26563,-0.44922 0.51953,-0.875 0.77735,-1.27343 1.86718,-2.8086 3.15234,-5.53516 3.82422,-8.10938 0.0391,-0.15234 0.0547,-0.30469 0.082,-0.46484 0.35546,1.1914 0.78515,2.36719 1.23046,3.55078 2.4336,6.44922 4.44922,13.49219 2.77344,21.26953 -0.39062,1.82031 -0.0937,3.62891 0.17188,5.22656 0.0937,0.59375 0.1875,1.15235 0.23828,1.67188 0.15625,1.57422 0.33203,3.14453 0.5039,4.71484 0.20704,1.875 0.41797,3.8125 0.60157,5.71484 0.0234,0.23047 0.0469,0.46094 0.0742,0.69532 0.1289,1.28906 0.2539,2.5 0.13281,3.57422 -0.19531,1.79296 -0.52735,3.57031 -0.875,5.45312 -0.15235,0.80859 -0.30469,1.62109 -0.44531,2.42969 -0.0742,0.44922 -0.0352,0.90625 0.11718,1.33203 l 0.8125,2.26562 c 1.11719,3.10938 2.23438,6.22657 3.35547,9.33985 0.13281,0.38281 0.35156,0.71094 0.625,0.98437 0.41406,1.03907 0.97266,1.98438 1.6211,2.71875 l 0.0625,0.14063 c 0.77734,1.71094 1.66015,3.65625 2.97265,5.29297 0.1836,0.23047 0.39063,0.53906 0.61328,0.86328 0.57813,0.85547 1.23438,1.82422 2.19532,2.55469 1.20703,0.91796 2.89062,1.53125 4.05468,1.91015 1.6875,0.54688 3.29297,0.54688 4.58594,0.54688 h 0.31641 c 1.08203,0 2.14453,-0.043 3.17187,-0.0937 1.01563,-0.0469 1.98047,-0.0859 2.95313,-0.0859 0.30468,0 0.60937,0.004 0.91406,0.0117 0.27734,0.0117 0.55859,0.0156 0.83984,0.0156 1.19532,0 2.3711,-0.0781 3.50782,-0.15234 1.09375,-0.0703 2.125,-0.13672 3.13671,-0.13672 0.20704,0 0.41407,0 0.61719,0.008 0.92578,0.0273 1.89844,0.14453 2.9336,0.26953 1.28906,0.16016 2.625,0.32422 4.00781,0.32422 0.73828,0 1.41406,-0.0469 2.07422,-0.14062 0.36718,-0.0586 0.76172,-0.0781 1.19922,-0.0781 0.98828,0 2.02734,0.13282 3.1289,0.27344 1.21094,0.15625 2.46094,0.32031 3.77344,0.32031 0.62891,0 1.21484,-0.043 1.78516,-0.11718 0.28906,-0.0352 0.58984,-0.043 0.92968,-0.0508 0.89063,-0.0234 1.99219,-0.0508 3.26563,-0.63281 1.02344,-0.47265 1.76562,-1.14062 2.35547,-1.67969 0.16797,-0.15234 0.33984,-0.30468 0.51562,-0.45312 0.25,-0.20703 0.67188,-0.42188 1.11328,-0.64453 0.69922,-0.35938 1.48828,-0.76172 2.21875,-1.40625 1.00391,-0.89453 1.54688,-1.96094 1.98438,-2.81641 0.22265,-0.4375 0.43359,-0.84375 0.64453,-1.12109 0.0977,-0.125 0.49219,-0.34375 0.8125,-0.51953 0.24609,-0.13672 0.49219,-0.27344 0.72656,-0.42188 0.0352,-0.0234 0.0937,-0.0586 0.16016,-0.0977 0.64062,-0.36719 1.86719,-1.08204 2.4375,-2.25 0.62109,-0.60547 1.125,-1.25782 1.62109,-1.89844 0.4375,-0.5586 0.84766,-1.08594 1.30469,-1.54297 1.53516,-1.53125 2.33594,-3.08984 3.11328,-4.59375 0.28125,-0.54297 0.57422,-1.10938 0.90234,-1.68359 0.71875,-1.2461 1.96485,-1.78516 3.92969,-2.56641 l 0.44141,-0.17578 c 2.21484,-0.89063 3.68359,-2.5586 4.98047,-4.03125 0.49609,-0.5625 0.96875,-1.09766 1.44922,-1.5586 0.24609,-0.23437 0.53906,-0.48828 0.84765,-0.75 1.69922,-1.46093 4.53906,-3.90234 3.25781,-7.87109"
       id="path50" />
    <path
       style="fill:#ffffff;fill-opacity:1;fill-rule:evenodd;stroke:none"
       d="m 90.476563,83.207031 c 0.34375,0.394532 0.679687,0.789063 0.992187,1.207032 0.08984,0.109375 0.167969,0.238281 0.234375,0.371093 z m 28.703127,25.769529 c -1.00781,-1.52343 -1.98438,-5.07812 -1.79688,-5.16797 5.23438,-2.67187 -0.39062,-4.355465 -0.83203,-5.921871 -0.60937,-2.175781 -3.05469,-3.992188 -5.05859,-5.445313 -1.65235,-1.203125 -3.80078,-1.65625 -5.72656,-2.4375 0.33593,0.570313 0.67968,1.136719 1.03515,1.695313 l -8.781249,-2.234375 c -0.398437,-0.140625 -0.785156,-0.289063 -1.082031,-0.550781 -2.605469,-2.328125 -5.148437,-4.738282 -7.710937,-7.117188 0.359375,0.410156 0.734375,0.820313 1.097656,1.234375 l -4.5,1.582031 -9.527344,7.710938 -11.03125,16.320311 -18.050781,18.98828 -2.734375,7.375 c -0.4375,0.0117 -0.890625,-0.0273 -1.328125,-0.0156 -0.84375,1.21093 -2.113281,2.30468 -2.425781,3.64843 -0.371094,1.59375 0.07813,3.39844 0.171875,5.11329 0.0078,0.0117 0.01172,0.0156 0.01953,0.0234 l -1.808594,4.26563 c 0,0 4.640625,13.5039 5.011719,13.99219 0.378906,0.48437 31.714844,13.76953 31.714844,13.76953 l 16.921875,4.73047 c 0.820312,0.0937 1.640625,0.17968 2.464843,0.27734 3.328125,0.375 6.656255,0.78906 9.996095,1.125 2.04688,0.21094 2.73438,-0.44531 3.28516,-2.47656 0.625,-2.32032 1.76562,-5.40625 3.36718,-7.16407 1.46875,-1.60156 1.78907,-3.22656 1.69141,-5.4375 -0.12891,-3.07812 -0.91797,-6.04296 -0.91797,-9.17968 0,-0.71485 -0.0195,-1.44922 -0.0586,-2.17578 -0.0781,-1.36329 -0.22656,-2.72657 -0.4375,-4.04297 -0.4336,-2.69922 -0.55469,-5.96485 0.40625,-8.5 -0.4375,-0.56641 -0.89063,-1.1211 -1.33985,-1.6836 l 2.02735,-6.51953 c 0.1875,0.0625 0.3789,0.10547 0.57031,0.125 0.0937,0.0117 0.33203,-0.33594 0.30078,-0.45703 -0.29297,-1.01953 -0.58203,-2.04687 -0.87109,-3.06641 v -11.71874 c 0.082,-0.23047 0.16015,-0.46485 0.16406,-0.70313 0.0273,-2.94922 0.0156,-5.90234 0.043,-8.85156 0.008,-0.32031 0.17969,-0.66016 0.34375,-0.94531 0.0312,-0.0469 0.52734,0.0742 0.62891,0.23828 1.19921,2.00781 2.35937,4.04297 3.55078,6.05859 0.19531,0.34375 0.46875,0.63672 0.71093,0.95313 0.15235,-0.42969 0.31641,-0.84375 0.4375,-1.28125 0.14844,-0.47266 0.20704,-0.98438 0.39844,-1.42969 0.043,-0.0898 0.52735,0.0937 0.76563,0.0234 1.02343,-0.29688 2.03515,-0.64454 3.03906,-0.97657 -1.40625,-1.23047 -3.13672,-2.22656 -4.14453,-3.75"
       id="path52" />
    <path
       style="fill:#283894;fill-opacity:1;fill-rule:evenodd;stroke:none"
       d="m 40.488281,143.70312 c -3.304687,0.66797 -2.15625,6.95704 -2.503906,9.5 -0.359375,2.6836 -1.679687,4.96485 -2.476562,7.46094 -0.332032,1.03906 -0.167969,2.17969 -0.621094,3.21875 -0.757813,1.71485 -2.070313,2.78906 -2.445313,4.73438 -0.402343,2.03906 -0.925781,7.04297 -0.0039,8.86718 0.648438,1.29688 2.039063,2.19922 3.035156,3.15235 1.722657,1.63281 3.0625,3.64062 4.539063,5.5 0.753906,0.94922 1.722656,2.29297 2.609375,3.04297 0.929687,0.78125 2.167969,0.91797 3.285156,1.3164 1.351563,0.48828 2.480469,1.25391 3.820313,1.83594 2.257812,0.98047 5.128906,1.52344 7.550781,1.98047 2.03125,0.38281 4.074219,0.50391 6.148437,0.53516 1.738282,0.0195 3.316407,0.60546 5.011719,0.78906 1.539063,0.17187 2.863281,0.74219 4.425781,1.09375 1.960938,0.44531 4.078125,0.21875 6.046875,-0.0547 1.5,-0.21094 3.109375,-0.22656 4.722657,-0.24609 1.5625,-0.0156 2.507812,-0.63282 3.960937,-1.08985 3.3125,-1.0625 7.589844,0.14063 10.582031,-2.11718 2.593753,-1.95313 -1.15625,-5.07422 -2.910156,-6.16407 -0.566406,-0.35156 -2.664062,-1.29687 -2.015625,-2.42578 0.371094,-0.63672 2.519531,-0.11719 3.140625,0.008 1.550781,0.32032 3.054688,0.89454 4.671879,0.10157 1.07422,-0.51953 1.26953,-1.48047 1.94141,-2.39063 0.9414,-1.27734 3.48828,-2.14062 3.66797,-3.80469 0.28906,-2.68359 -3.78907,-3.75781 -5.51563,-4.60546 -1.687504,-0.83204 -3.59766,-1.69922 -5.402348,-2.15235 -1.328125,-0.33594 -2.800781,-0.44922 -3.878906,-1.44922 -1.175781,-1.08593 -1.96875,-1.9375 -3.550781,-2.625 -1.160156,-0.5039 -2.507813,-0.51172 -3.8125,-0.92578 -2.054688,-0.65234 -5.117188,-2.53515 -7.140625,-1.19531 -0.550781,0.37109 -0.679688,0.95703 -1.296875,1.16797 -0.597656,0.20312 -1.585938,-0.0664 -2.113281,-0.17188 -1.40625,-0.30468 -2.875,-0.76562 -4.292969,-1.1875 -1.289063,-0.3789 -2.539063,-1.05468 -3.765625,-1.52343 -1.183594,-0.44532 -2.472656,-0.58594 -3.601563,-1.33204 -1,-0.65234 -1.6875,-1.55468 -2.597656,-2.28125 -1.253906,-0.99609 -2.710937,-1.60156 -3.859375,-2.77343 -1.175781,-1.21875 -0.730469,-1.76172 -1.195312,-3.1836 -0.445313,-1.34765 -1.820313,-1.66015 -3.101563,-2 -1.246094,-0.33203 -2.601562,-0.0547 -3.8125,-0.55078 -1.402344,-0.57031 -2.179687,-1.58203 -3.015625,-2.76562 -1.269531,-1.80469 -2.398437,-4.63282 -4.605469,-5.41797"
       id="path54" />
    <path
       style="fill:#283894;fill-opacity:1;fill-rule:evenodd;stroke:none"
       d="m 192.59766,187.80078 c -3.69141,-1.02734 -7.76172,-3.00391 -10.74219,0.40625 -0.25781,0.29688 -0.6875,0.66406 -1.00391,0.62891 -3.64062,-0.39844 -7.26953,-0.97657 -10.91406,-1.30078 -5.09375,-0.44532 -10.22656,-1.22266 -15.28516,-0.91407 -3.37109,0.20703 -6.03515,1.42188 -9.39453,0.32032 -1.80078,-0.59375 -5.89844,-0.0234 -4.51172,2.97656 0.8711,1.85547 1.73438,4.03125 3.0586,5.68359 0.74609,0.9336 1.42187,2.26563 2.34765,2.96485 0.8711,0.66796 2.25391,1.17187 3.28516,1.5039 1.34375,0.4375 2.6875,0.42188 4.08594,0.42188 2.3789,0 4.71093,-0.24219 7.125,-0.16407 2.69922,0.0898 5.42578,-0.34765 8.09765,-0.26562 2.8086,0.082 5.75391,0.87891 8.55469,0.47266 3.33203,-0.47266 6.62891,0.83203 9.92578,0.39843 1.26172,-0.16406 2.25781,0.0742 3.4375,-0.46875 0.90625,-0.41406 1.53125,-1.13281 2.28906,-1.76562 0.98047,-0.8086 2.33594,-1.17188 3.27344,-1.9961 1.07813,-0.96484 1.41797,-2.46093 2.29688,-3.58593 0.58203,-0.7461 1.46484,-1.08203 2.21875,-1.55469 0.54297,-0.33203 2.32812,-1.20703 1.41015,-1.90234 -0.55859,-0.42188 -2.67968,0.043 -3.39062,-0.10547 -1.49219,-0.3125 -2.82422,-1.11328 -4.36328,-1.34766 -0.58594,-0.0859 -1.19141,-0.23047 -1.80078,-0.40625"
       id="path56" />
    <path
       style="fill:#283894;fill-opacity:1;fill-rule:evenodd;stroke:none"
       d="m 110.32031,189.42578 c -0.2539,-0.5625 -0.53125,-1.11719 -0.75781,-1.6875 -0.86719,-2.10547 -1.36328,-4.34375 -0.32812,-6.49609 0.66796,-1.36719 1.11718,-3.3086 0.0937,-4.69922 -0.80079,-1.09766 -2.50391,-1.27344 -3.67188,-1.57422 -0.8125,-0.21094 -4.76953,-2.03125 -4,0.23047 0.39453,1.15625 1.53125,1.59765 2.10938,2.57422 0.48046,0.82422 0.42187,2.01562 0.38281,2.9414 -0.043,0.85157 -0.0781,0.82813 -0.76953,1.09375 -0.39063,0.14453 -0.86328,0.15235 -1.23438,0.35938 -0.48828,0.26953 -0.53515,0.65234 -0.91015,1.02734 -0.71485,0.71094 -2.113286,1.16016 -3.054692,1.3086 -1.347657,0.21484 -2.746094,-0.1836 -4.019532,-0.60547 -0.691406,-0.23438 -2.546875,-1.05469 -2.40625,0.51953 0.06641,0.73437 1.175782,1.39453 1.644532,1.875 0.855468,0.8789 2.5,2.10547 2.9375,3.28906 0.46875,1.26172 -0.847657,2.33594 -1.742188,2.90625 -1.101562,0.70313 -2.648437,1.34766 -3.894531,1.62109 -0.902344,0.20313 -1.816406,-0.17578 -2.710938,-0.38671 -1.195312,-0.29688 -2.578125,-0.58594 -3.835937,-0.38282 -0.84375,0.13672 -0.941406,0.64063 -1.523438,1.21485 -1.660156,1.64062 -4.582031,1.16406 -6.617187,0.85547 -2.140625,-0.32813 -4.464844,-0.36329 -6.566406,-0.85157 -4.417969,-1.01172 -4.617188,-7.41015 -6.058594,-11 -0.246094,-0.61718 -0.542969,-1.24218 -0.976563,-1.73828 -0.417968,-0.47656 -0.949218,-0.55859 -1.386718,-0.92578 -0.136719,-0.11719 -0.285157,-0.23047 -0.433594,-0.32031 -0.664063,-0.41797 -1.609375,-0.32031 -2.433594,-0.45703 0.140625,0.26172 0.285156,0.51953 0.425781,0.76953 0.242188,0.43359 0.484375,0.86328 0.730469,1.28906 -0.507812,-0.0781 -1.070312,-0.0391 -1.507812,-0.25781 -0.46875,-0.23438 -0.902344,-0.52735 -1.34375,-0.81641 -0.542969,-0.40234 -0.972657,-0.71875 -1.628907,-0.86328 -0.410156,-0.13672 -0.839843,-0.21484 -1.257812,-0.34766 0.05078,0.0859 0.101562,0.17579 0.15625,0.26172 -0.06641,0.004 -0.117188,0.004 -0.183594,0.004 -0.03906,2.62109 2.28125,4.66406 4.207031,5.98047 0.390625,0.26562 0.847657,0.54687 1.316407,0.84765 0.929687,1.11719 1.859375,2.23829 2.785156,3.35938 -0.222656,0.46875 -0.78125,0.8125 -1.5625,0.92187 -1.199219,0.16407 -2.457031,-0.28906 -3.625,-0.42187 -1.714844,-0.19922 -3.449219,-0.23438 -5.15625,-0.33984 -2.003906,-0.125 -4,-0.70313 -5.96875,-1.11329 -1.367188,-0.28906 -2.636719,-0.64843 -3.980469,-1.10546 1.058594,0.80859 2.296875,1.80078 3.171875,2.80468 1.839844,2.12891 -1.9375,1.83203 -1.925781,3.46094 0.0078,1.19141 2.191406,1.38672 2.984375,1.55078 2.945312,0.6211 5.964844,0.90235 8.96875,1.05078 3.203125,0.16407 6.414062,0.20703 9.625,0.25782 2.777344,0.27343 5.554687,0.50781 8.3125,0.60937 3.554687,0.13672 7.109375,0.38672 10.652344,0.375 1.039062,0.0508 2.078125,0.10156 3.117187,0.15234 -0.0625,-0.0742 -0.128906,-0.14843 -0.1875,-0.22656 0.203125,-0.0117 0.410156,-0.0312 0.621094,-0.043 0.02734,0.0898 0.05469,0.1875 0.08984,0.27344 1.84375,-0.25391 3.6875,-0.53125 5.535156,-0.78516 0.347656,-0.0273 0.695312,-0.0703 1.011719,-0.14453 1.34375,-0.17968 2.6875,-0.34765 4.035156,-0.48828 0.898437,-0.10547 1.851562,0.47656 2.792975,0.53125 3.4375,0.23047 7.64453,-0.96094 9.75781,-4.04687 0.63281,-0.91797 1.14063,-1.65625 0.78516,-2.75 -0.16407,-0.4961 -0.36719,-0.97266 -0.58985,-1.44141"
       id="path58" />
    <path
       style="fill:#283894;fill-opacity:1;fill-rule:evenodd;stroke:none"
       d="m 123.32422,112.72656 c -1.00391,0.33203 -2.01563,0.6836 -3.03906,0.97657 -0.23828,0.0703 -0.72266,-0.11329 -0.76563,-0.0234 -0.1914,0.4414 -0.25,0.95703 -0.39844,1.43359 -0.12109,0.4336 -0.28515,0.84766 -0.4375,1.27735 -0.24218,-0.31641 -0.51562,-0.60938 -0.71093,-0.95313 -1.19141,-2.01562 -2.35547,-4.05078 -3.55078,-6.05859 -0.10157,-0.16797 -0.59766,-0.28516 -0.62891,-0.23828 -0.16406,0.28515 -0.33594,0.625 -0.34375,0.94531 -0.0273,2.94922 -0.0156,5.90234 -0.043,8.85156 -0.008,0.36328 -0.1875,0.72266 -0.28516,1.08203 -0.42187,-0.19531 -1.0625,-0.27734 -1.23828,-0.61719 -2.60937,-5.12109 -5.57812,-10.10937 -7.55078,-15.49609 -0.91797,-2.51172 0.16406,-5.820312 0.23047,-8.765625 0.008,-0.359375 -0.82422,-0.671875 -0.97266,-1.109375 -0.26953,-0.808594 -0.32421,-1.695312 -0.43359,-2.554687 -0.008,-0.03516 0.42969,-0.222657 0.47266,-0.167969 0.73047,0.894531 1.65234,1.730469 2.09765,2.777344 0.64063,1.523437 0.8086,3.273437 1.45313,4.800781 0.25781,0.613281 1.23437,0.890625 1.8789,1.316411 0.17188,-1.238286 0.8125,-2.707036 0.40625,-3.675786 -0.96875,-2.296875 -2.43359,-4.371094 -3.69921,-6.523438 -3.29688,-0.07422 -8.988286,-0.550781 -8.621099,4.816407 0.144532,2.046875 1.304688,3.613281 0.601563,5.683597 -0.648438,1.90234 -1.625,3.18359 -1.011719,5.36718 0.648438,2.32422 2.5,4.1211 3.925785,5.94141 1.67968,2.13672 3.17187,4.15234 4.47656,6.55078 1.23437,2.26563 2.89062,3.32031 4.79687,4.79688 1.69922,1.3125 2.28907,4.13281 2.53516,6.26171 0.10547,0.96875 1.50781,2.79688 1.09766,3.6836 -0.35157,0.77734 -1.01563,0.23828 -1.64063,0.52734 -0.70312,0.32813 -0.58984,0.375 -0.875,1.15625 -0.55078,1.50391 -0.22265,1.2461 -1.7539,1.73047 -1.39454,0.44141 -1.26172,0.86719 -0.58985,2.41797 0.51953,1.21094 1.17578,2.28125 1.62891,3.46875 0.61328,1.66016 1.57031,1.76172 2.57031,0.34766 1.36719,-1.92579 1.67969,-5.05469 2.69531,-7.22657 0.5586,-1.21484 1.15625,-1.75 2.21875,-2.44922 1.82813,-1.1914 2.6875,-3.29296 3.86719,-5.08203 1.45313,-2.1875 2.80078,-4.74218 3.47656,-7.32421 0.59375,-2.30079 -1.14453,-5.27344 -1.83984,-7.94532"
       id="path60" />
    <path
       style="fill:#ffffff;fill-opacity:1;fill-rule:evenodd;stroke:none"
       d="m 214.59375,158.94922 c -0.40625,-3.28516 -1.37891,-5.53906 -3.82813,-7.90625 -2.3789,-2.3086 -5.24218,-4.04688 -8.1289,-5.53906 -2.96094,-1.53125 -5.69531,-3.72657 -7.89844,-6.31641 -1.10937,-1.30469 -1.70312,-2.44531 -3.20703,-3.27734 -1.35938,-0.75391 -2.8125,-1.32032 -4.19141,-2.03907 -2.67187,-1.3789 -4.99218,-2.9375 -7.46093,-4.57422 -3.40625,-2.2539 -7.25391,-3.94921 -9.64454,-7.52343 -2.55078,-3.80469 -4.72265,-8.00391 -7.22656,-11.88281 -1.99609,-3.08985 -3.89453,-6.25782 -5.87109,-9.3711 -1.26563,-1.996092 -2.59766,-5.624999 -4.75,-6.64453 -2.8125,-1.328125 -6.17188,0.976563 -8.66797,2.160156 -2.60547,1.238282 -5.05469,1.941407 -6.91406,4.351564 -1.49219,1.92187 -3.36719,3.75391 -3.17969,6.44141 0.18359,2.64453 2.72656,4.03125 3.43359,6.48437 -1.39062,0.36719 -2.16015,0.26172 -3.5039,0.0234 -1.44532,-0.25781 -1.89063,-0.0312 -1.82813,1.63672 0.12891,3.33593 3.63672,5.76562 6.22266,7.10547 1.625,0.84375 3.26562,1.17578 4.33203,2.82031 1.17578,1.82422 1.70703,4.1289 1.52344,6.29687 -0.33203,3.75 -1.39844,7.4375 -1.6875,11.23047 -0.29297,3.88281 0.082,7.85156 0.45312,11.70703 1.05469,10.99219 2.14453,25.92188 14.07031,29.17188 5.6875,1.55078 11.76563,1.30078 17.61329,1.9375 6.33203,0.69531 12.94531,1.61328 19.30078,1.60547 3.63281,-0.004 7.08984,0.48046 10.55078,-0.85938 3.03515,-1.17578 2.60156,-3.80469 3.89844,-6.39844 1.59765,-3.22265 3.79687,-6.0664 5.35156,-9.30078 1.85937,-3.85547 1.72265,-6.80078 1.28125,-10.92969 -0.0156,-0.13671 -0.0273,-0.27343 -0.043,-0.41015"
       id="path62" />
    <path
       style="fill:#283894;fill-opacity:1;fill-rule:evenodd;stroke:none"
       d="m 103.89453,172.20703 c 0.27735,-0.27344 0.17188,-0.75 -0.61328,-1.44141 -1.14844,-1.02734 -3.00391,-1.59765 -4.3125,-2.51953 -1.632812,-1.14453 -3.21875,-2.3164 -4.75,-3.58203 -3.144531,-2.60547 -7.246094,-5.85156 -7.394531,-10.54297 -0.125,-4.07031 3.605469,-5.54297 3.304687,-9.53906 -0.34375,-4.48437 -1.398437,-8.14453 -2.847656,-12.25391 -3.382812,2.42969 1.03125,9.97266 -1.667969,12.80469 -3.140625,-1.48047 -5.703125,-6.39062 -7.53125,-9.51562 -1.125,-1.92188 -6.957031,-10.34766 -4.964843,-12.67578 C 74,123.87109 74.976563,124.70313 76,125.45313 c 1.242188,0.90234 2.257813,2.08984 3.488281,3.07031 2.476563,1.98437 4.054688,0.47265 4.164063,-2.67969 0.0625,-2.09375 0.246094,-4.55078 -0.160156,-6.57422 -0.476563,-2.375 -1.726563,-4.46094 -2.316407,-6.78125 -0.398437,-1.55078 -1.089843,-3.60937 -0.703125,-5.30469 0.378907,-1.64843 1.640625,-1.8789 3,-2.58203 1.746094,-0.90625 3.445313,-0.86718 5.363282,-1.45312 2.640625,-0.8125 2.59375,-1.96094 1.867187,-4.824221 C 89.789063,94.691406 88.191406,91.164063 89.191406,87.160156 89.929688,86.761719 91.5,86.625 91.675781,85.457031 c 0.15625,-1.070312 -1.875,-2.851562 -2.453125,-3.585937 -0.765625,-0.179688 -1.527343,-0.445313 -2.304687,-0.519531 -4.085938,-0.375 -8.152344,-1.269532 -11.140625,3.746093 -0.824219,1.378907 -3.359375,1.367188 -5.101563,2.019532 -0.488281,0.179687 -0.96875,0.414062 -1.425781,0.691406 -1.910156,1.167969 -3.890625,2.21875 -5.699219,3.578125 -2.144531,1.609375 -4.273437,3.34375 -6.074218,5.414062 -0.308594,0.355469 1.179687,2.601563 1.546875,4.070309 0.230468,0.9375 0.08984,2.13672 -0.203125,3.07422 -0.492188,1.53907 -1.464844,2.89453 -1.820313,4.45703 -0.277344,1.21094 0.04687,2.6211 0.152344,3.94141 0.05859,0.73438 0.339844,1.46484 0.324219,2.18359 -0.01953,0.96485 -0.179688,1.94141 -0.402344,2.86719 -0.04687,0.19922 -0.738281,0.4336 -0.929688,0.28906 -0.476562,-0.37109 -0.78125,-1.04687 -1.265625,-1.39843 -0.308593,-0.22657 -1.011718,-0.32422 -1.1875,-0.10938 -1.035156,1.3125 -2.253906,2.5586 -3.246093,3.91797 -0.523438,0.41797 -0.96875,0.94141 -1.339844,1.62109 -1.410156,2.59375 -1.304688,5.91407 -2.910156,8.49219 -1.230469,1.98828 -3.234375,3.52344 -4.050782,5.8125 -0.886718,2.47656 0.01953,3.33203 1.328125,4.55469 0.03516,0.0937 0.08203,0.1914 0.132813,0.28906 0.40625,0.76563 1.199219,1.76953 2.027344,2.68359 0.761718,1.97657 2.796875,3.60938 4.527343,4.36329 1.722657,0.75 3.132813,1.16015 4.5,2.52734 0.875,0.86328 1.296875,2.03125 2.140625,2.96484 2.203125,2.4336 5.433594,4.08985 8.328125,5.34766 1.917969,0.83984 4.03125,1.60547 5.824219,2.60937 1.421875,0.80079 2.304688,1.83594 4.003906,1.95313 2.257813,0.15625 4.449219,-0.19141 6.652344,0.37109 2.917969,0.73047 6.117188,1.3711 8.933594,2.35547 2.707031,0.94531 4.429687,4.1211 7.21875,5.23047 1.351562,0.53125 2.824221,1.02344 4.300781,1.21094 0.79688,0.10937 1.53906,0.0273 1.83203,-0.27344"
       id="path64" />
    <path
       style="fill:#283894;fill-opacity:1;fill-rule:evenodd;stroke:none"
       d="m 224.07812,165.57812 c -0.0977,-0.3125 -0.2539,-0.58593 -0.43359,-0.83984 -0.55469,-0.78906 -1.37891,-1.40234 -1.77734,-2.36328 -0.54688,-1.32031 -0.25,-2.78125 -0.32032,-4.21484 -0.23828,-4.55079 -4.02343,-1.54297 -5.91406,-3.96875 -2.12109,-2.72657 -2.97265,-6.34375 -6.51953,-7.62891 -0.67187,-0.24609 -1.47656,-0.50391 -2.19531,-0.41797 -0.86719,0.10156 -1.39063,0.44141 -2.2461,0.11719 -0.85546,-0.32813 -1.63671,-0.84375 -2.39062,-1.375 -0.48438,-0.35156 -0.96094,-0.80078 -1.49609,-1.05078 -0.37891,-0.1875 -0.77735,-0.17578 -1.15625,-0.3086 -1.10547,-0.38672 -2.04688,-1.55468 -2.9336,-2.30468 0.78906,1.12109 1.5586,2.24609 2.44141,3.35546 0.76953,0.97266 1.74219,1.66797 2.76953,2.29688 0.78516,0.48047 1.24609,1.39062 1.98828,1.92187 0.875,0.6211 1.56641,1.375 2.30469,2.1875 1.73437,1.91797 3.78125,3.875 4.63672,6.4375 0.97265,2.90625 -1.22657,3.77344 -1.95703,6.23829 -0.6211,2.08593 -0.082,4.62109 -0.11329,6.80468 -0.0234,2.55078 -1.76171,4.57422 -1.89843,7.16797 -0.10938,2.13672 0.0273,4.77344 -1.92188,6.08594 -0.70312,0.46484 -1.45703,0.46484 -2.26953,0.58594 -0.86328,0.14062 -1.46484,0.41015 -2.24609,0.64453 -1.9336,0.58594 -4,0.27734 -5.81641,-0.64453 -1.61328,-0.81641 -2.97656,-2.41797 -4.82812,-2.66407 -2.23047,-0.29296 -4.61719,0.69141 -6.8086,1.03907 -3.47265,0.55078 -7.33594,0.97265 -10.8164,0.44922 -3.32032,-0.50391 -6.25782,0.55078 -9.46094,0.59375 -3.16016,0.043 -4.72266,-1.30079 -7.03906,-3.42579 -1.01172,-0.92578 -1.8125,-2.01953 -0.13672,-2.71484 1.58593,-0.66016 2.27343,0.19531 2.53125,-1.89453 0.35156,-2.83203 -0.44141,-5.57031 -0.98828,-8.17578 -0.59766,-2.87891 -2.26172,-4.08985 -3.40625,-6.5625 -0.57813,-1.25781 -0.26563,-2.48438 -0.39063,-3.86328 -0.12891,-1.45703 -0.57812,-1.8711 -1.60937,-2.82032 -3.16407,-2.89843 2.32812,-2.13671 4.11718,-3.00781 0.38672,-1.66797 -2.59375,-4.17187 -3.74218,-5.0664 -0.8125,-0.63282 -1.66407,-1.29688 -2.71094,-1.30469 -1.3086,-0.0156 -4.48828,1.41406 -5.23828,-0.26172 -0.5586,-1.26953 1.01172,-5.37109 1.22265,-6.80469 0.26563,-1.71094 0.25,-3.64062 -0.0781,-5.41797 0.0547,-0.125 0.0898,-0.25781 0.16797,-0.37109 0.60547,-0.85547 1.94531,-0.82813 2.87109,-0.67188 1.51563,0.26172 3.07031,1.28516 4.48828,1.86329 1.41406,0.57421 2.76563,1.13671 4.12891,1.83203 -0.51172,-1.28516 -1.76953,-2.62891 -2.70313,-3.6211 -0.1875,-0.19531 -0.38281,-0.39062 -0.57812,-0.58593 -1.20313,-1.16797 -2.64453,-2.32422 -3.92578,-3.29688 -1.23047,-0.9414 -2.84766,-1.80078 -4.22657,-2.48047 -1.73437,-0.83984 -3.6289,-1.22656 -5.29296,-1.98437 -3.00782,-1.36719 -6.35157,-2.9375 -8.09375,-6.10156 -0.44141,-0.80469 -1.21094,-3.5586 0.22656,-3.35157 1.17187,0.16797 2.27344,1.20703 3.58984,0.7461 1.44922,-0.50782 -0.1289,-2.72266 -0.70312,-3.36328 -0.5625,-0.625 -0.97266,-1.38282 -1.48047,-2.0586 -0.60547,-0.78906 -0.98828,-1.36328 -1.76953,-0.53125 -1.21094,1.29688 -2.01563,3.15235 -2.30078,4.9336 -0.57422,3.47656 0.64843,6.95703 1.84375,10.13281 2.79296,7.41015 4.60937,14.72656 2.88281,22.75 -0.40235,1.89062 0.25,4.04687 0.45312,6.08203 0.35547,3.48047 0.77735,6.95703 1.11328,10.4375 0.15235,1.60156 0.3711,3.23437 0.19922,4.80859 -0.29297,2.69531 -0.8789,5.36719 -1.33984,8.04297 1.38672,3.86719 2.77734,7.73828 4.16797,11.60547 0.0508,-0.20313 0.10937,-0.39844 0.16015,-0.59766 0.47266,2.46094 2.28125,5.66016 5.00391,3.94532 2.16797,-1.37891 5.11719,-3.12891 7.85156,-3.125 2.39844,0.004 4.76953,-0.29688 7.16016,-0.34375 1.51172,-0.0391 2.85547,0.5 4.34766,0.64062 2.04296,0.19531 3.75781,0.20313 5.73046,0.95313 1.87891,0.71484 3.69532,1.65625 5.71094,1.83984 1.39063,0.12891 3.47266,0.33984 4.82422,0.0352 1.82422,-0.41797 3.10938,-1.34375 5.13672,-1.52735 2.69141,-0.23437 5.79687,-0.10547 8.39062,0.76563 2.4375,0.80859 4.33985,1.75 7.02344,1.20312 2.71485,-0.55078 3.60938,-2.96484 5.51563,-4.86328 1.74218,-1.73828 2.32812,-3.53906 3.59375,-5.73437 1.29687,-2.25 3.49218,-2.99219 5.67187,-3.86719 2.34766,-0.94531 3.7461,-3.28906 5.58985,-5.05078 1.67578,-1.60157 4.32421,-3.11328 3.41796,-5.91407"
       id="path66" />
    <path
       style="fill:#ffffff;fill-opacity:1;fill-rule:nonzero;stroke:none"
       d="m 215.80078,255.10156 c -5.53125,0 -11.78906,-1.47656 -18.60547,-4.38672 -30.13281,-12.86718 -53.375,-19.57422 -69.07422,-19.92968 -15.7539,0.35546 -38.992184,7.0625 -69.124996,19.92968 -6.816406,2.91407 -13.078125,4.38672 -18.605469,4.38672 -10.46875,0 -14.914062,-5.30078 -15.3125,-5.79687 L 2.488281,210.39453 c -0.398437,-1.06641 -0.453125,-2.12109 -0.160156,-3.14062 0.65625,-2.3086 2.972656,-4.08985 6.195313,-4.75782 1.050781,-0.16797 2.109375,-0.25781 3.152343,-0.26953 l 0.3125,-0.004 c 12.832032,0 20.59375,11.30078 20.671875,11.42187 l 0.355469,0.51953 0.632813,-0.0469 c 11.84375,-0.86328 45.050781,-16.11328 46.890625,-16.95703 15.605468,-6.01563 31.425777,-9.0625 47.011717,-9.0625 h 1.08984 c 15.58594,0 31.40235,3.04687 47.01172,9.0625 1.82813,0.84375 35.04297,16.09375 46.89063,16.95703 l 0.63281,0.0469 0.35547,-0.51953 c 0.0781,-0.11328 7.86719,-11.42187 20.67187,-11.42187 l 0.3125,0.004 c 1.03907,0.0117 2.09766,0.10156 3.15235,0.26953 3.22265,0.66797 5.53515,2.44922 6.19531,4.75391 0.29297,1.02344 0.23828,2.08203 -0.16406,3.14453 l -1.06641,1.83203 -21.52344,37.07813 c -0.42578,0.54687 -4.80078,5.79687 -15.30859,5.79687"
       id="path68" />
    <g
       clip-path="url(#clip2)"
       clip-rule="nonzero"
       id="g72">
      <path
         style="fill:#283894;fill-opacity:1;fill-rule:nonzero;stroke:none"
         d="m 252.70703,209.92578 -1.01953,1.75391 -21.48047,37 c -0.56641,0.69531 -4.72656,5.33203 -14.40625,5.33203 -5.38281,0 -11.49609,-1.44922 -18.17969,-4.30078 -30.25781,-12.92578 -53.63672,-19.66016 -69.47656,-20.01953 h -0.0977 c -15.84374,0.35937 -39.218745,7.09375 -69.480464,20.01953 -6.679687,2.85156 -12.796875,4.30078 -18.175781,4.30078 -9.722656,0 -13.878906,-4.67969 -14.40625,-5.32422 L 4.5,211.67969 3.480469,209.92578 c -0.285156,-0.80859 -0.324219,-1.60547 -0.101563,-2.375 0.535157,-1.875 2.578125,-3.39453 5.339844,-3.98047 0.988281,-0.15234 1.992188,-0.23828 2.972656,-0.25 0.09766,-0.004 0.195313,-0.004 0.296875,-0.004 12.195313,0 19.691407,10.83203 19.761719,10.9375 l 0.710938,1.05468 1.265625,-0.0937 c 11.976562,-0.8789 45.0625,-16.04687 47.234375,-17.05078 15.472656,-5.95312 31.148442,-8.97265 46.585942,-8.97265 h 1.09374 c 15.44141,0 31.11329,3.01953 46.58594,8.97265 2.16406,1 35.25781,16.17188 47.23828,17.05078 l 1.26563,0.0937 0.70703,-1.05468 c 0.0742,-0.10938 7.50391,-10.9336 19.76562,-10.9336 h 0.29297 c 0.98047,0.0117 1.98438,0.0977 2.97657,0.25391 2.75781,0.58203 4.80468,2.10547 5.33984,3.97656 0.21875,0.76953 0.18359,1.56641 -0.10547,2.375 m 2.20703,-2.97656 c -0.80078,-2.79688 -3.5625,-4.8086 -7.05078,-5.53125 -1.14453,-0.17969 -2.26172,-0.26563 -3.33203,-0.28516 -0.10938,-0.004 -0.21875,-0.004 -0.32813,-0.004 -13.5664,0 -21.58203,11.90234 -21.58203,11.90234 -11.86328,-0.87109 -46.54297,-16.87891 -46.54297,-16.87891 -18.73437,-7.22265 -35.19531,-9.14843 -47.4375,-9.14843 h -1.09374 c -12.23829,0 -28.699224,1.92578 -47.437505,9.14843 0,0 -34.679687,16.00782 -46.542969,16.87891 0,0 -8.015625,-11.90234 -21.578125,-11.90234 h -0.328125 c -1.078125,0.0234 -2.191406,0.10937 -3.332031,0.28906 -3.488281,0.72265 -6.253906,2.73437 -7.054687,5.53125 -0.375,1.32031 -0.269532,2.66015 0.226562,3.92187 l 1.109375,1.90625 21.558594,37.13282 c 0,0 4.609375,6.28515 16.222656,6.28515 4.992188,0 11.269531,-1.16015 19.035156,-4.47265 21.886719,-9.34766 49.289059,-19.40235 68.667969,-19.84375 19.37891,0.4414 46.78516,10.49609 68.67187,19.84375 7.76172,3.3125 14.04688,4.47265 19.03516,4.47265 11.61328,0 16.21875,-6.28515 16.21875,-6.28515 l 21.5625,-37.13282 1.10938,-1.90625 c 0.49609,-1.26172 0.60156,-2.60156 0.22265,-3.92187"
         id="path70" />
    </g>
    <path
       style="fill:#283894;fill-opacity:1;fill-rule:nonzero;stroke:none"
       d="m 247.5,208.48828 c 0,0 -5.16016,7.69141 -17.21875,6.72266 0,0 6.48828,-9.9336 17.21875,-6.72266"
       id="path74" />
    <path
       style="fill:#283894;fill-opacity:1;fill-rule:nonzero;stroke:none"
       d="m 8.6875,208.48828 c 0,0 5.164063,7.69141 17.21875,6.72266 0,0 -6.480469,-9.9336 -17.21875,-6.72266"
       id="path76" />
    <path
       style="fill:#283894;fill-opacity:1;fill-rule:nonzero;stroke:none"
       d="m 31.273438,247.38281 c 0,0 5.714843,2.89063 15.417968,1 22.21875,-4.32031 47.019532,-17.26172 69.304684,-21.45312 H 116 c 0.0234,-0.004 0.0508,-0.008 0.0781,-0.0195 4.09765,-0.76172 8.11718,-1.23438 12.01562,-1.30079 3.89844,0.0664 7.91797,0.53907 12.01562,1.30079 0.0273,0.0117 0.0547,0.0156 0.0781,0.0195 22.29297,4.1914 47.09375,17.13281 69.3125,21.45312 9.69922,1.89063 15.41797,-1 15.41797,-1 l 18.1875,-30.23828 c -13.91406,7.42969 -30.67578,0.28125 -67.63672,-14.54297 -18.14453,-7.28125 -34.95703,-9.07812 -47.375,-9.03125 -12.41797,-0.0469 -29.226562,1.75 -47.371094,9.03125 -36.960937,14.82422 -53.726562,21.97266 -67.636718,14.54297"
       id="path78" />
    <path
       style="fill:#ffffff;fill-opacity:1;fill-rule:nonzero;stroke:none"
       d="m 111.34766,214.00781 -3.4336,-11.6875 -1.78515,0.52735 -0.70703,-2.39844 4.39062,-1.28906 4.13672,14.07812"
       id="path80" />
    <path
       style="fill:#ffffff;fill-opacity:1;fill-rule:nonzero;stroke:none"
       d="m 119.66016,199.60937 c -0.65625,0.082 -1.1836,0.39454 -1.58594,0.94141 -0.40234,0.54688 -0.56641,1.14453 -0.48828,1.78516 0.0898,0.72265 0.38672,1.30859 0.89453,1.74218 0.50781,0.4375 1.13281,0.60938 1.87109,0.52344 0.69532,-0.0859 1.2461,-0.40234 1.65235,-0.96484 0.41015,-0.55078 0.57031,-1.16797 0.48828,-1.85547 -0.082,-0.69531 -0.39844,-1.25 -0.94531,-1.66797 -0.55079,-0.42187 -1.17579,-0.58984 -1.88672,-0.50391 m -1.76172,12.67969 2.66015,-5.27734 -0.48046,0.0586 c -1.35157,0.16797 -2.51172,-0.15625 -3.47266,-0.96484 -0.95703,-0.8086 -1.51953,-1.87891 -1.68359,-3.20313 -0.17579,-1.46875 0.14843,-2.76562 0.97656,-3.89062 0.82812,-1.12891 1.99219,-1.78125 3.49219,-1.96875 0.68359,-0.082 1.37109,-0.0234 2.07031,0.16797 0.69531,0.19922 1.3164,0.51562 1.86719,0.95312 0.55078,0.44141 0.96875,0.94922 1.26562,1.51563 0.29297,0.57031 0.48438,1.23047 0.57422,1.97656 0.0859,0.69531 0.0391,1.375 -0.13672,2.03906 -0.13672,0.46485 -0.39062,1.10547 -0.76953,1.91016 l -3.23047,6.30469"
       id="path82" />
    <path
       style="fill:#ffffff;fill-opacity:1;fill-rule:nonzero;stroke:none"
       d="m 137.40234,197.32031 -0.21093,2.48828 -4.76172,-0.40234 -0.66797,2.65234 c 0.27734,-0.0977 0.59375,-0.16406 0.9414,-0.21093 0.34766,-0.043 0.66407,-0.0508 0.94532,-0.0312 1.375,0.11718 2.46484,0.72265 3.28125,1.8125 0.8164,1.08593 1.16406,2.30468 1.05078,3.65234 -0.11719,1.40625 -0.71875,2.57422 -1.8086,3.5 -1.08203,0.92187 -2.33203,1.32422 -3.74609,1.20312 -1.31641,-0.10937 -2.46094,-0.67578 -3.42969,-1.69921 -0.96875,-1.02735 -1.40234,-2.17188 -1.29687,-3.4375 l 2.70312,0.23046 c 0.0312,0.60938 0.23438,1.14063 0.61719,1.58204 0.38672,0.44531 0.88281,0.6914 1.50391,0.74218 0.73828,0.0703 1.36718,-0.11718 1.88281,-0.54297 0.51562,-0.42578 0.80469,-1.0039 0.86719,-1.72656 l 0.0117,-0.16015 c 0.0547,-0.66016 -0.14454,-1.2461 -0.60157,-1.76172 -0.45703,-0.51953 -1.02343,-0.80469 -1.69531,-0.85938 -0.80469,-0.0664 -1.49219,0.19141 -2.05859,0.78125 l -2.32422,-0.83203 2.05859,-7.55078"
       id="path84" />
    <path
       style="fill:#ffffff;fill-opacity:1;fill-rule:nonzero;stroke:none"
       d="m 146.00391,206.73047 c -0.66016,-0.19141 -1.28907,-0.13281 -1.87891,0.17969 -0.59375,0.32031 -0.98438,0.80859 -1.18359,1.48437 -0.20313,0.69922 -0.15625,1.35547 0.14843,1.97656 0.30469,0.61719 0.8086,1.03516 1.52344,1.24219 0.66016,0.19531 1.28906,0.11719 1.89063,-0.21875 0.59765,-0.34375 0.99218,-0.83594 1.17968,-1.48437 0.19922,-0.67188 0.14063,-1.32032 -0.17578,-1.94532 -0.3164,-0.62109 -0.8164,-1.03515 -1.5039,-1.23437 m 2.26953,-7.02344 3.07031,0.89844 -4.63281,3.85156 0.76172,0.14063 c 0.55468,0.16015 1.05078,0.43359 1.48437,0.80859 0.42969,0.37109 0.78906,0.83594 1.07422,1.39062 0.60156,1.125 0.69922,2.36719 0.30078,3.72266 -0.40625,1.38672 -1.22656,2.42969 -2.46875,3.13281 -1.24219,0.70313 -2.56641,0.84766 -3.97656,0.4336 -1.41406,-0.41407 -2.44922,-1.2461 -3.11719,-2.4961 -0.66797,-1.25 -0.79297,-2.57812 -0.37891,-3.98828 0.34375,-1.17969 1.01563,-2.16406 2.00782,-2.96484"
       id="path86" />
    <path
       style="fill:#ffffff;fill-opacity:1;fill-rule:nonzero;stroke:none"
       d="m 172.97656,260.32812 c 0,24.78907 -20.09765,44.88282 -44.88281,44.88282 -24.78516,0 -44.878906,-20.09375 -44.878906,-44.88282 0,-24.78906 20.093746,-44.8789 44.878906,-44.8789 24.78516,0 44.88281,20.08984 44.88281,44.8789"
       id="path88" />
    <path
       style="fill:#283894;fill-opacity:1;fill-rule:nonzero;stroke:none"
       d="m 156.96875,280.51953 c -0.22656,0.21094 -0.48828,0.48047 -0.80469,0.76172 -0.33984,0.26953 -0.71484,0.57812 -1.125,0.91797 -0.10156,0.0859 -0.20312,0.17187 -0.30469,0.25781 -0.11328,0.082 -0.23046,0.16406 -0.34765,0.24609 -0.23047,0.16797 -0.46485,0.33985 -0.71094,0.51563 -0.48047,0.37109 -1.02734,0.70312 -1.57812,1.06641 -0.54688,0.37109 -1.15235,0.6875 -1.75,1.03906 -0.58985,0.36328 -1.23438,0.65625 -1.85547,0.98828 -0.625,0.32422 -1.26953,0.60937 -1.89844,0.90625 -0.64453,0.26562 -1.25781,0.55859 -1.87891,0.79687 -0.61328,0.24219 -1.20312,0.48438 -1.78125,0.6875 -0.5664,0.21485 -1.10937,0.39844 -1.61328,0.57422 -0.5039,0.16797 -0.96875,0.31641 -1.375,0.45703 -0.41797,0.125 -0.77734,0.23829 -1.07422,0.32032 -0.16015,0.0469 -0.30078,0.0859 -0.42578,0.12109 l 0.043,-0.0508 -10.37891,-7.64844 c 0.0781,-0.26953 0.16016,-0.55469 0.24219,-0.85547 0.15235,-0.55468 0.3086,-1.16015 0.45313,-1.80468 0.14453,-0.64844 0.30468,-1.32422 0.42187,-2.03516 0.13672,-0.70703 0.25781,-1.44141 0.35938,-2.19531 0.12109,-0.7461 0.18359,-1.51172 0.27734,-2.26953 0.082,-0.76954 0.125,-1.53907 0.17969,-2.28907 0.0508,-0.76172 0.0625,-1.5039 0.0859,-2.22265 0.0195,-0.71875 0,-1.41797 -0.008,-2.07813 0.008,-0.65625 -0.043,-1.28125 -0.0703,-1.85547 -0.0195,-0.39453 -0.0391,-0.76562 -0.0664,-1.10937 l 16.34766,-6.36328 -0.004,-0.0156 c 0.26563,0.21094 0.5625,0.44141 0.88282,0.69531 0.67968,0.53125 1.48437,1.15235 2.33593,1.82813 0.42969,0.32812 0.8711,0.67578 1.32032,1.02344 0.45312,0.34765 0.90234,0.71093 1.35547,1.0664 0.91796,0.71094 1.8125,1.44141 2.66015,2.1211 0.41406,0.33984 0.82031,0.67578 1.20703,0.99218 0.375,0.32032 0.73438,0.6211 1.06641,0.90235 0.1875,0.16015 0.35937,0.3125 0.52734,0.46094 z m -23.83594,18.44141 c -0.39453,0.0234 -0.78906,0.0469 -1.19531,0.0703 -0.20313,0.0117 -0.40625,0.0234 -0.61328,0.0234 h -1.90625 c -0.20313,0 -0.41406,0.0195 -0.62891,0.0195 -0.21875,-0.0195 -0.44531,0 -0.66797,-0.0156 -0.44921,-0.0195 -0.90234,-0.0547 -1.36328,-0.0781 -0.44531,-0.043 -0.89453,-0.0937 -1.34765,-0.14063 -0.23047,-0.0273 -0.45703,-0.043 -0.6875,-0.0781 -0.22657,-0.0352 -0.46094,-0.0703 -0.69141,-0.10547 -0.46484,-0.0781 -0.94141,-0.12891 -1.40234,-0.23047 -0.47266,-0.10156 -0.94922,-0.19922 -1.42969,-0.29687 -0.47266,-0.10157 -0.94531,-0.23829 -1.43359,-0.36329 -0.47657,-0.11328 -0.95704,-0.26562 -1.44141,-0.42187 -1.26172,-0.39063 -2.54297,-0.84375 -3.80859,-1.38281 0.33203,-0.13672 0.6875,-0.29297 1.03515,-0.46485 0.22266,-0.10937 0.4375,-0.22265 0.65235,-0.33984 1.01562,0.42969 3.7539,1.5 7.58984,2.17187 5.15625,0.90235 8.07812,0.61329 8.69922,0.52735 0.10156,0.1914 0.20703,0.37109 0.30468,0.54297 0.11719,0.20312 0.22266,0.39062 0.33594,0.5625 m -19.22656,-3.25782 c -0.46484,-0.20312 -0.91797,-0.42187 -1.375,-0.65234 -3.83594,-1.90234 -7.54687,-4.55469 -10.76953,-7.89453 -1.60938,-1.67188 -3.10547,-3.50781 -4.41797,-5.49219 -1.3125,-1.99219 -2.460937,-4.125 -3.398437,-6.35937 -0.136719,-0.32032 -0.261719,-0.64453 -0.390625,-0.96875 l 6.996092,-1.23828 c 0.35156,0.43359 0.80078,0.97656 1.33203,1.57421 0.33985,0.39454 0.70703,0.82422 1.11328,1.25391 0.41016,0.4375 0.83204,0.89844 1.27344,1.37109 0.44531,0.48047 0.92188,0.95313 1.40625,1.4375 0.48047,0.48047 0.96875,0.97266 1.46485,1.45313 0.51562,0.47266 1.02343,0.94141 1.52343,1.40625 0.25782,0.23047 0.50782,0.45312 0.75,0.68359 0.2461,0.22657 0.5,0.44141 0.75391,0.64453 0.5,0.41797 0.98437,0.81641 1.44531,1.19532 0.46875,0.375 0.89063,0.74218 1.3125,1.04687 0.34766,0.2461 0.66797,0.47266 0.96485,0.6836 l 1.83593,8.89843 c -0.14843,0.0664 -0.29687,0.13672 -0.44531,0.21094 -0.35156,0.17188 -0.69922,0.35938 -1.02344,0.54297 -0.12109,0.0625 -0.23828,0.13672 -0.35156,0.20312 M 93.527344,246.61328 c 0.875,-2.26562 1.960937,-4.42578 3.210937,-6.44922 1.253907,-2.02734 2.691407,-3.91015 4.249999,-5.6289 1.41797,-1.57032 2.95703,-2.99219 4.54688,-4.28125 l 0.28515,1.33984 c -0.0391,0.0352 -0.0703,0.0703 -0.10937,0.10937 -0.28125,0.29297 -0.58594,0.62891 -0.91016,1 -0.32422,0.375 -0.66406,0.78907 -1.01953,1.23438 -0.34375,0.45312 -0.71875,0.92187 -1.06641,1.43359 -0.17968,0.25391 -0.35937,0.51172 -0.53906,0.77344 -0.17578,0.26953 -0.34765,0.54297 -0.52734,0.81641 -0.35547,0.54297 -0.67188,1.12109 -1.01563,1.6875 -0.33203,0.57422 -0.62109,1.16797 -0.925779,1.74218 -0.296875,0.58204 -0.550781,1.16797 -0.8125,1.73438 -0.257812,0.55859 -0.46875,1.12109 -0.683593,1.64844 -0.222657,0.52343 -0.378907,1.03515 -0.539063,1.5039 -0.15625,0.47266 -0.3125,0.89453 -0.410156,1.28907 -0.09375,0.34765 -0.175781,0.65234 -0.246094,0.91015 l -5.023437,4.1211 c 0.402343,-1.69922 0.910156,-3.36719 1.535156,-4.98438 m 10.859376,9.83594 c 0.47266,-0.0977 1.11328,-0.22266 1.875,-0.38672 0.81641,-0.17578 1.76953,-0.39453 2.78516,-0.63672 0.50781,-0.125 1.03125,-0.25 1.5664,-0.38672 0.52735,-0.13672 1.06641,-0.27344 1.60547,-0.41015 0.53906,-0.14844 1.07813,-0.29297 1.60547,-0.4375 0.52734,-0.13672 1.05078,-0.29688 1.55078,-0.4375 1.01172,-0.28516 1.94531,-0.5625 2.74219,-0.8125 0.62109,-0.19141 1.16015,-0.3711 1.58594,-0.51172 l 10.01953,11.375 c -0.004,0.33984 -0.0156,0.69531 -0.0156,1.07422 -0.0117,0.57421 0.004,1.1914 -0.0312,1.84765 -0.0195,0.65625 -0.0469,1.34766 -0.0742,2.0625 -0.0391,0.71094 -0.0898,1.45313 -0.13281,2.19922 -0.0664,0.74609 -0.12109,1.50391 -0.19922,2.26172 -0.0898,0.76172 -0.14844,1.51953 -0.25781,2.26172 -0.0547,0.37109 -0.0977,0.74219 -0.14844,1.10547 -0.043,0.36328 -0.10547,0.71875 -0.16016,1.07422 -0.10156,0.71093 -0.22656,1.39062 -0.33984,2.03125 -0.11719,0.64843 -0.23047,1.25 -0.34766,1.8164 -0.0664,0.3086 -0.1289,0.60547 -0.1914,0.88672 l -13.68359,3.30859 c -0.29688,-0.25781 -0.62891,-0.53906 -0.9961,-0.83984 -0.19922,-0.16016 -0.39453,-0.34766 -0.60156,-0.53906 -0.20313,-0.1875 -0.42188,-0.38281 -0.64063,-0.58203 -0.4375,-0.39453 -0.90234,-0.8125 -1.38671,-1.2461 -0.4961,-0.42187 -0.95704,-0.90234 -1.45704,-1.36328 -0.48828,-0.46484 -0.99609,-0.9375 -1.5,-1.40625 -0.5,-0.47656 -0.98828,-0.96484 -1.47265,-1.4375 -0.48438,-0.48047 -0.98438,-0.92969 -1.4375,-1.39062 -0.92188,-0.91407 -1.77735,-1.76172 -2.51563,-2.49219 -0.58203,-0.57422 -1.08203,-1.07031 -1.48047,-1.46484 z M 167.69531,262 l -9.83594,4.25 c -0.14062,-0.15625 -0.30078,-0.32031 -0.46875,-0.48828 -0.30859,-0.3086 -0.63671,-0.64453 -1.0039,-0.98828 -0.3711,-0.33985 -0.75,-0.70313 -1.16406,-1.0625 -0.41016,-0.35547 -0.83204,-0.73438 -1.27735,-1.08985 -0.4414,-0.36328 -0.89062,-0.73437 -1.34765,-1.09765 -0.46094,-0.35157 -0.91797,-0.71094 -1.375,-1.05078 -0.45313,-0.35157 -0.91016,-0.67579 -1.35547,-0.99219 -0.44141,-0.32031 -0.87891,-0.61719 -1.28907,-0.90235 -0.41406,-0.28125 -0.80078,-0.54296 -1.16796,-0.78125 -0.41407,-0.26562 -0.78125,-0.50781 -1.11329,-0.71093 l -1.5625,-16.19922 c 0.22266,-0.15235 0.48829,-0.33594 0.79297,-0.55469 0.44532,-0.32031 0.95313,-0.70703 1.49219,-1.125 0.26953,-0.21484 0.55469,-0.42578 0.82813,-0.66016 0.28125,-0.22265 0.5625,-0.45703 0.84765,-0.68359 0.27735,-0.24219 0.55078,-0.47656 0.82422,-0.70703 0.27734,-0.23047 0.53906,-0.46875 0.80078,-0.69141 0.51172,-0.45703 0.97656,-0.89062 1.3711,-1.26562 0.21875,-0.20313 0.40625,-0.38672 0.5664,-0.55469 l 0.0234,0.043 9.73437,4.86719 c 0,0 -3.39062,-7.84375 -14.20703,-13.79688 l 4.35157,8.6875 c -0.20313,0.14063 -0.42969,0.30469 -0.6836,0.48438 -0.44531,0.32031 -0.95703,0.70312 -1.5,1.125 -0.26562,0.21093 -0.55078,0.42968 -0.82422,0.65625 -0.27734,0.22265 -0.5625,0.45312 -0.84375,0.6875 -0.28125,0.23828 -0.55468,0.47265 -0.83203,0.70312 -0.27734,0.23047 -0.53515,0.46875 -0.79297,0.69141 -0.51172,0.45703 -0.98047,0.89062 -1.3789,1.27344 -0.22266,0.21093 -0.42188,0.40625 -0.59375,0.57812 l -0.004,-0.008 -17.30469,-2.16406 -7.84375,13.79296 0.0156,0.0234 c -0.42578,0.082 -0.95313,0.1875 -1.54688,0.31641 -0.8164,0.17969 -1.76953,0.39453 -2.78515,0.63672 -0.50781,0.1289 -1.03125,0.25 -1.5625,0.38672 -0.53516,0.13671 -1.07422,0.27343 -1.60938,0.41406 -0.53906,0.14453 -1.07812,0.29297 -1.60937,0.43359 -0.53125,0.14453 -1.04688,0.29688 -1.55078,0.4375 -1.00391,0.28516 -1.94141,0.5625 -2.73828,0.81641 -0.71875,0.22265 -1.32032,0.41797 -1.77344,0.57031 l -7.24219,-8.84375 c 0.09375,-0.23828 0.199219,-0.50781 0.316406,-0.82031 0.07031,-0.1836 0.152344,-0.38281 0.246094,-0.58594 0.08594,-0.20312 0.179688,-0.42578 0.273438,-0.64844 0.199218,-0.45312 0.390625,-0.94922 0.636718,-1.45312 0.238282,-0.51172 0.472657,-1.05078 0.742188,-1.60547 0.273437,-0.54688 0.5625,-1.10938 0.851566,-1.6875 0.3125,-0.5625 0.60156,-1.14453 0.9375,-1.70703 0.32812,-0.56641 0.64062,-1.14453 0.98828,-1.6836 0.16406,-0.27343 0.33203,-0.54687 0.49219,-0.8125 0.17578,-0.26562 0.34375,-0.52343 0.51171,-0.78515 0.33204,-0.51172 0.67188,-0.9961 0.99219,-1.46094 0.32813,-0.45703 0.63281,-0.89453 0.92188,-1.28516 0.29687,-0.39062 0.5664,-0.75781 0.8125,-1.0664 0.0117,-0.0156 0.0234,-0.0312 0.0352,-0.043 l 13.8125,-3.78516 c 0.13282,0.21875 0.28907,0.46875 0.46094,0.73828 0.36328,0.5625 0.79688,1.21875 1.27344,1.91407 0.23437,0.33984 0.46875,0.70312 0.72656,1.0625 0.26172,0.35937 0.51953,0.72656 0.77734,1.09375 0.26563,0.35937 0.53125,0.71875 0.78907,1.07422 0.25781,0.35937 0.52343,0.70703 0.78125,1.03906 0.50781,0.66797 0.98828,1.28515 1.41406,1.80859 0.84375,1.04688 1.45312,1.71485 1.45312,1.71485 0,0 -0.4414,-0.78516 -1.16796,-1.91407 -0.36719,-0.57422 -0.80079,-1.22656 -1.26954,-1.91797 -0.24218,-0.34765 -0.48046,-0.71093 -0.73828,-1.0664 -0.2539,-0.35938 -0.51172,-0.72266 -0.77734,-1.09375 -0.26172,-0.35938 -0.52734,-0.71875 -0.78516,-1.07422 -0.26172,-0.35938 -0.52734,-0.70313 -0.77734,-1.03906 -0.51172,-0.66797 -0.99609,-1.28516 -1.41797,-1.8086 -0.19922,-0.24609 -0.38672,-0.47265 -0.55078,-0.67187 l 3.69531,-5.63281 c 0.6875,-0.10547 1.35938,-0.21875 2.02344,-0.26954 0.44922,-0.043 0.88672,-0.10156 1.33203,-0.1289 0.44141,-0.0273 0.875,-0.0547 1.30469,-0.0781 l 0.32031,-0.0312 0.16406,-0.004 c 0.0117,0 -0.0234,-0.0117 0.0117,-0.0117 h 0.12109 c 0.22266,0 0.4336,0.0117 0.64844,0.0117 0.42578,0 0.85156,0.0234 1.26953,0.0234 0.41797,-0.0156 0.81641,0.0117 1.21094,0.0391 0.38672,0.0234 0.77734,0.043 1.16016,0.0664 3.0625,0.25 5.71875,0.8125 7.87109,1.40235 2.13672,0.64062 3.78516,1.25781 4.89063,1.74218 1.10156,0.48829 1.6875,0.75 1.6875,0.75 0,0 -0.55469,-0.32421 -1.60547,-0.92187 -1.05469,-0.58203 -2.64453,-1.38281 -4.76563,-2.19922 -2.13672,-0.76953 -4.78906,-1.58203 -7.94922,-2.03516 -0.39843,-0.0508 -0.80468,-0.10546 -1.21093,-0.15625 -0.41407,-0.0547 -0.83204,-0.11328 -1.2461,-0.1289 -0.41797,-0.0273 -0.83203,-0.0547 -1.26562,-0.082 -0.21094,-0.0156 -0.42578,-0.0273 -0.64063,-0.043 l -0.0859,-0.004 h -0.0391 c 0.008,-0.004 -0.0547,-0.004 -0.0625,-0.004 h -0.16797 l -0.33984,-0.004 c -0.44922,-0.004 -0.89844,-0.004 -1.35937,-0.008 -0.46094,0.004 -0.92188,0.043 -1.39454,0.0586 -0.94531,0.0273 -1.90234,0.16016 -2.88671,0.25 -1.95704,0.26953 -3.98047,0.66797 -6.03907,1.24609 -2.05078,0.58985 -4.125,1.40235 -6.17578,2.38672 -2.04687,0.9961 -4.07812,2.1836 -6.03125,3.58594 -1.94531,1.39453 -3.80078,3.02344 -5.527342,4.82813 -1.726563,1.80078 -3.3125,3.80468 -4.707032,5.96875 -1.410156,2.16015 -2.617187,4.48828 -3.589843,6.9375 -0.976563,2.4414 -1.726563,5.00781 -2.199219,7.6289 l -0.175781,0.98438 c -0.05859,0.32812 -0.08984,0.66015 -0.136719,0.99218 l -0.125,0.99219 c -0.04687,0.33203 -0.05859,0.67578 -0.08203,1.01563 -0.05469,0.67578 -0.109375,1.375 -0.113282,1.99609 l -0.01172,0.96484 0.0078,0.23829 0.03906,0.12109 v 0.10937 l -0.03906,0.0625 -0.04687,0.5 c 0.04297,2.67188 0.351563,5.34766 0.90625,7.95313 0.550781,2.61328 1.386719,5.14844 2.429688,7.5625 2.09375,4.83594 5.121093,9.15625 8.683593,12.65234 3.554687,3.51953 7.652347,6.19532 11.804687,8.06641 2.07422,0.9375 4.17969,1.66016 6.24609,2.1875 0.51563,0.13672 1.03516,0.26953 1.54688,0.36328 0.51562,0.10156 1.01953,0.21875 1.52734,0.30078 0.50781,0.0781 1.01563,0.15625 1.51172,0.23438 0.5,0.0781 1,0.10547 1.49219,0.16406 0.24219,0.0273 0.48047,0.0508 0.73047,0.0742 0.23828,0.0234 0.48828,0.0273 0.73047,0.043 0.48828,0.0234 0.96875,0.0469 1.44531,0.0703 h 2.04297 c 0.22656,-0.0156 0.46484,-0.0312 0.69531,-0.0469 0.44531,-0.0273 0.88281,-0.0586 1.3164,-0.0859 0.22266,-0.0156 0.4375,-0.0274 0.64844,-0.043 0.21875,-0.0156 0.42578,-0.0547 0.64063,-0.0781 0.41406,-0.0547 0.83203,-0.10937 1.23437,-0.16797 0.20703,-0.0312 0.41016,-0.0547 0.61328,-0.0781 l 0.29688,-0.043 0.29297,-0.0625 c 3.14453,-0.51953 5.76953,-1.45312 7.875,-2.28125 0.52343,-0.22656 1.01562,-0.4375 1.47656,-0.64062 0.11719,-0.0508 0.23047,-0.0977 0.34766,-0.14844 0.10546,-0.0547 0.21093,-0.10938 0.3164,-0.16406 0.21094,-0.10547 0.41406,-0.21485 0.60547,-0.31641 0.78516,-0.40625 1.45313,-0.73438 1.96094,-1.0625 1.02344,-0.62891 1.57812,-0.96484 1.57812,-0.96484 0,0 -0.58203,0.27734 -1.66797,0.79687 -0.53906,0.28125 -1.23437,0.54297 -2.03515,0.875 -0.79297,0.34375 -1.75,0.64844 -2.80469,1.00391 -0.52344,0.19531 -1.09766,0.33203 -1.69141,0.49218 -0.30078,0.082 -0.59765,0.15625 -0.91406,0.2461 -0.15234,0.0351 -0.30859,0.082 -0.46875,0.11719 -0.16406,0.0351 -0.32422,0.0664 -0.48828,0.0976 -0.65625,0.12891 -1.33984,0.26172 -2.05078,0.40235 -0.71484,0.10156 -1.44922,0.19531 -2.21484,0.30078 l -0.28907,0.0351 -0.29297,0.0156 c -0.0547,0.004 -0.10937,0.004 -0.16406,0.008 -0.0898,-0.23437 -0.18359,-0.49219 -0.29687,-0.76172 -0.10547,-0.23828 -0.21875,-0.49219 -0.33985,-0.73828 l 5.45313,-7.17187 c 0.14062,-0.0195 0.30859,-0.0469 0.51172,-0.0859 0.30859,-0.0547 0.67578,-0.13281 1.10547,-0.21875 0.41796,-0.0977 0.90234,-0.19922 1.41406,-0.34375 0.51953,-0.13672 1.07422,-0.28906 1.66015,-0.47656 0.58594,-0.17579 1.20313,-0.39063 1.82813,-0.6211 0.31641,-0.10937 0.63281,-0.23828 0.95312,-0.36328 0.32032,-0.12891 0.64454,-0.26172 0.96485,-0.39453 0.64062,-0.29688 1.29687,-0.57813 1.9375,-0.89844 0.3164,-0.16797 0.63281,-0.33594 0.94531,-0.5 0.16016,-0.0859 0.32031,-0.16015 0.47266,-0.2539 0.15234,-0.0899 0.30859,-0.17969 0.45703,-0.26563 0.60156,-0.35937 1.20312,-0.71484 1.75,-1.10937 0.27734,-0.1875 0.55078,-0.37891 0.8125,-0.5625 0.26953,-0.17579 0.5,-0.39454 0.74219,-0.57813 0.47656,-0.39844 0.94921,-0.73437 1.32421,-1.125 0.39063,-0.36719 0.74219,-0.71094 1.05079,-1.01562 0.26953,-0.29297 0.5,-0.5625 0.6914,-0.78516 l 5.00781,1.12109 c 0,0 5.94922,-7.60937 5.67969,-19.77734"
       id="path90" />
  </g>
</svg>
