<?xml version="1.0" encoding="UTF-8" standalone="no"?>
<svg
   xmlns:dc="http://purl.org/dc/elements/1.1/"
   xmlns:cc="http://creativecommons.org/ns#"
   xmlns:rdf="http://www.w3.org/1999/02/22-rdf-syntax-ns#"
   xmlns:svg="http://www.w3.org/2000/svg"
   xmlns="http://www.w3.org/2000/svg"
   xmlns:sodipodi="http://sodipodi.sourceforge.net/DTD/sodipodi-0.dtd"
   xmlns:inkscape="http://www.inkscape.org/namespaces/inkscape"
   width="209.76399pt"
   height="209.76254pt"
   viewBox="0 0 209.764 209.76255"
   version="1.1"
   id="svg36"
   sodipodi:docname="Saigon FC logo.svg"
   inkscape:version="1.0.1 (3bc2e813f5, 2020-09-07)">
  <metadata
     id="metadata40">
    <rdf:RDF>
      <cc:Work
         rdf:about="">
        <dc:format>image/svg+xml</dc:format>
        <dc:type
           rdf:resource="http://purl.org/dc/dcmitype/StillImage" />
        <dc:title></dc:title>
      </cc:Work>
    </rdf:RDF>
  </metadata>
  <sodipodi:namedview
     pagecolor="#ffffff"
     bordercolor="#666666"
     borderopacity="1"
     objecttolerance="10"
     gridtolerance="10"
     guidetolerance="10"
     inkscape:pageopacity="0"
     inkscape:pageshadow="2"
     inkscape:window-width="1366"
     inkscape:window-height="705"
     id="namedview38"
     showgrid="false"
     fit-margin-top="0"
     fit-margin-left="0"
     fit-margin-right="0"
     fit-margin-bottom="0"
     inkscape:zoom="0.60060326"
     inkscape:cx="377.95333"
     inkscape:cy="377.94812"
     inkscape:window-x="-8"
     inkscape:window-y="-8"
     inkscape:window-maximized="1"
     inkscape:current-layer="svg36" />
  <defs
     id="defs5">
    <clipPath
       id="clip1">
      <path
         d="M 0,0 H 566.92969 V 566.92969 H 0 Z m 0,0"
         id="path2" />
    </clipPath>
  </defs>
  <g
     id="surface1"
     transform="matrix(0.37,0,0,0.37,0,-0.00144531)">
    <g
       clip-path="url(#clip1)"
       clip-rule="nonzero"
       id="g9">
      <path
         style="fill:#ffffff;fill-opacity:1;fill-rule:evenodd;stroke:none"
         d="m 283.46484,0.00390625 c 156.55078,0 283.46485,126.91015375 283.46485,283.46484375 0,156.55078 -126.91407,283.46094 -283.46485,283.46094 C 126.91016,566.92969 0,440.01953 0,283.46875 0,126.91406 126.91016,0.00390625 283.46484,0.00390625"
         id="path7" />
    </g>
    <path
       style="fill:#28579c;fill-opacity:1;fill-rule:evenodd;stroke:none"
       d="m 283.46484,6.375 c 153.03125,0 277.08985,124.05859 277.08985,277.09375 0,153.03516 -124.0586,277.09375 -277.08985,277.09375 C 130.42969,560.5625 6.371094,436.50391 6.371094,283.46875 6.371094,130.43359 130.42969,6.375 283.46484,6.375"
       id="path11" />
    <path
       style="fill:#ffcc28;fill-opacity:1;fill-rule:evenodd;stroke:none"
       d="m 283.46484,18.34375 c 146.42188,0 265.125,118.69922 265.125,265.125 0,146.42187 -118.70312,265.125 -265.125,265.125 -146.42578,0 -265.124996,-118.70313 -265.124996,-265.125 0,-146.42578 118.699216,-265.125 265.124996,-265.125 m 0,3.941406 c 144.2461,0 261.1836,116.933594 261.1836,261.183594 0,144.24609 -116.9375,261.18359 -261.1836,261.18359 -144.24609,0 -261.18359,-116.9375 -261.18359,-261.18359 0,-144.25 116.9375,-261.183594 261.18359,-261.183594"
       id="path13" />
    <path
       style="fill:#28579c;fill-opacity:1;fill-rule:evenodd;stroke:none"
       d="m 283.46484,22.285156 c 144.2461,0 261.1836,116.933594 261.1836,261.183594 0,144.24609 -116.9375,261.18359 -261.1836,261.18359 -144.24609,0 -261.18359,-116.9375 -261.18359,-261.18359 0,-144.25 116.9375,-261.183594 261.18359,-261.183594"
       id="path15" />
    <path
       style="fill:#ffcc28;fill-opacity:1;fill-rule:evenodd;stroke:none"
       d="m 283.46484,100.15234 c 101.24219,0 183.3125,82.07422 183.3125,183.3125 0,101.24219 -82.07031,183.31641 -183.3125,183.31641 -101.24218,0 -183.3164,-82.07422 -183.3164,-183.31641 0,-101.23828 82.07422,-183.3125 183.3164,-183.3125"
       id="path17" />
    <path
       style="fill:#eb238f;fill-opacity:1;fill-rule:evenodd;stroke:none"
       d="m 283.46484,107.72266 c 97.0625,0 175.75,78.68359 175.75,175.74218 0,97.0625 -78.6875,175.75 -175.75,175.75 -97.0625,0 -175.74609,-78.6875 -175.74609,-175.75 0,-97.05859 78.68359,-175.74218 175.74609,-175.74218"
       id="path19" />
    <path
       style="fill:#ffcc28;fill-opacity:1;fill-rule:evenodd;stroke:none"
       d="m 287.30859,156.30078 -87.69922,23.51953 15.48047,11.76172 h 63.77735 v 8.44531 h -52.40625 l 6.15625,5.875 h 0.0742 l 1.55468,1.46875 h 51.88672 v 44.21485 H 275.3906 v 20.5039 h 63.21485 l 25.80078,19.56641 H 459.875 c -0.0937,-2.41016 -0.22266,-4.80859 -0.41016,-7.19141 l -28.73828,-27.4375 -53.85547,21.02735 -31.76562,-20.97266 v -5.38672 h -10.98438 v -44.32422 h 7.46094 l -7.69922,-7.34375 h -4.05859 v -8.44922 h 16.54687 l 4.03125,-3.84765 z M 103.78125,291.23047 c 0.26563,-6.34375 0.85156,-12.60156 1.75391,-18.75781 18.63672,-4.19922 34.26562,25.67187 46.95312,-3.6836 v -14.0039 h 38 l 34.24219,-20.96485 v -11.28515 h 7.96484 v 36.18359 h 36.86328 v 11.53516 h -72.02343 v 7.07812 h -38.17969 v 13.89844 z m 152.12891,-73.58203 c 7,0 12.68359,5.42187 12.68359,12.10547 0,6.6875 -5.68359,12.10937 -12.68359,12.10937 -7.00391,0 -12.6836,-5.42187 -12.6836,-12.10937 0,-6.6836 5.67969,-12.10547 12.6836,-12.10547 m 32.25,-70.97266 -1.94141,-20.72265 -1.94141,20.72265 c -1.60547,0.44141 -2.72656,1.41406 -2.72656,2.54688 0,1.55078 2.09375,2.80859 4.66797,2.80859 2.57812,0 4.66797,-1.25781 4.66797,-2.80859 0,-1.13282 -1.1211,-2.10547 -2.72656,-2.54688"
       id="path21" />
    <path
       style="fill:#ffcc28;fill-opacity:1;fill-rule:evenodd;stroke:none"
       d="m 283.88281,301.40625 c 42.86719,1.58594 76.33594,37.62109 74.75391,80.48828 -1.58594,42.87109 -37.6211,76.33984 -80.48828,74.75391 -42.86719,-1.58203 -76.33594,-37.61719 -74.75391,-80.48828 1.58594,-42.86719 37.62109,-76.33594 80.48828,-74.75391"
       id="path23" />
    <path
       style="fill:#28579c;fill-opacity:1;fill-rule:nonzero;stroke:none"
       d="m 312.72656,371.39844 20.35938,-7.1836 0.28906,-24.22656 -25.41797,-19.19141 -24.35937,6.10938 0.0234,21.66797 14.58985,11.4414 h 0.008 z m -28.84375,-71.57032 h 0.004 l 0.0547,0.008 c 21.87109,0.80468 41.34375,10.40234 55.14453,25.26172 13.78515,14.84765 21.91797,34.94921 21.125,56.79687 h 0.004 v 0.004 l -0.004,0.0586 c -0.8086,21.86719 -10.40235,41.33984 -25.26172,55.14063 -14.85156,13.78906 -34.95313,21.92187 -56.80078,21.125 v 0.008 h -0.004 l -0.0547,-0.008 c -8.12109,-0.30079 -15.90625,-1.8086 -23.19922,-4.35157 l -0.0195,0.008 -0.72656,-0.26172 c -6.77734,-2.4336 -13.12109,-5.76563 -18.88672,-9.84375 l -0.004,0.004 c -5.85938,-4.14453 -11.1211,-9.05859 -15.64063,-14.58203 l -0.0352,-0.10937 C 207.85145,414.70759 201.09364,396.16462 201.8202,376.16462 h -0.004 v -0.004 l 0.008,-0.0547 c 0.0195,-0.53125 0.043,-1.05469 0.0742,-1.58203 l -0.0625,-0.0703 0.043,-0.67187 c 0.44921,-6.78125 1.74218,-13.31641 3.77343,-19.5 2.08985,-6.375 4.96875,-12.38672 8.51563,-17.92188 l 0.4414,-0.6914 h 0.0586 c 3.53515,-5.40235 7.71094,-10.33985 12.41406,-14.70703 11.28516,-10.48047 25.60938,-17.69532 41.42969,-20.20313 l 0.008,-0.004 c 2.53125,-0.39844 5.08984,-0.67969 7.66016,-0.83204 1.49609,-0.0898 3.01172,-0.14062 4.53906,-0.14453 h 0.24219 l 0.60547,0.004 h 0.12109 l 0.0312,0.004 h 0.21094 l 0.12109,0.004 h 0.12109 l 0.1211,0.004 h 0.12109 l 0.36328,0.0117 h 0.1211 l 0.125,0.004 h 0.12109 l 0.36328,0.0117 0.125,0.004 0.25,0.0117 z m 50.125,67.40625 -20.33594,7.17579 -6.39453,17.45312 -6.36718,17.39063 10.48828,16.19531 22.57422,-7.45313 13.32421,-30.41406 z m 16.34766,21.21875 -13.60547,31.05469 1.21484,9.9961 c 10.94141,-12.33204 17.96485,-28.27344 19.01563,-45.91797 z m -52.71875,64.85547 -3.23047,-3.41015 -33.50391,0.13281 -2.58593,1.65234 c 6.28515,1.96094 12.9375,3.13282 19.82812,3.39063 v -0.004 h 0.004 l 0.0547,0.008 c 6.6836,0.2461 13.19532,-0.3789 19.4336,-1.76953 m -78.08985,-29.41406 0.47657,-7.00781 -8.85938,-32.38672 -6.23437,-6.71484 c -0.28907,17.17578 5.16406,33.17578 14.61718,46.10937 m -0.96484,-88.38672 9.56641,-0.39062 28.11328,-20.08594 8.52734,-10.36719 c -13.51562,2.9375 -25.73437,9.48438 -35.55859,18.60547 -3.96094,3.68359 -7.53516,7.78516 -10.64844,12.23828 m 86.57422,-28.66797 4.45703,11.25391 26,19.63281 10.57813,2 c -2.70704,-4.47656 -5.86719,-8.66406 -9.41407,-12.48047 -8.55468,-9.21484 -19.3789,-16.3164 -31.62109,-20.40625 m -43.875,140.03907 33.00391,-0.13282 14.53906,-19.48437 L 298.28906,411 l -18.49219,-0.68359 -18.52343,-0.6836 -13.71875,16.875 z m -46.97656,-62.83594 8.625,31.52344 22.17578,8.95703 13.70312,-16.85157 -5.0625,-17.78515 -5.05859,-17.77344 -20.42969,-6.42187 z m 14.99218,-21.33203 20.44532,6.42187 15.39453,-10.33594 15.33984,-10.30468 -0.0273,-21.73438 -22.87891,-8.78906 -27.34375,19.53906"
       id="path25" />
    <path
       style="fill:#ffcc28;fill-opacity:1;fill-rule:evenodd;stroke:none"
       d="m 64.058594,196.31641 5.148437,15.9414 16.746094,-0.0312 -13.570312,9.82031 5.207031,15.91797 -13.53125,-9.87109 -13.53125,9.87109 5.207031,-15.91797 -13.570312,-9.82031 16.75,0.0312"
       id="path27" />
    <path
       style="fill:#ffcc28;fill-opacity:1;fill-rule:evenodd;stroke:none"
       d="m 500.55859,196.31641 5.14453,15.9414 16.75,-0.0312 -13.57031,9.82031 5.20703,15.91797 -13.53125,-9.87109 -13.53125,9.87109 5.20703,-15.91797 -13.57421,-9.82031 16.75,0.0312"
       id="path29" />
    <path
       style="fill:#ffcc28;fill-opacity:1;fill-rule:nonzero;stroke:none"
       d="m 156.04687,131.54297 c 0.99219,-0.10156 2.16797,-0.3711 3.52735,-0.80078 1.35547,-0.42578 2.78906,-0.98438 4.29687,-1.71094 1.50782,-0.72266 2.98438,-1.59375 4.42578,-2.58984 2.5625,-1.80469 4.57422,-3.6836 6.03907,-5.61719 1.47656,-1.93359 2.44922,-3.875 2.92968,-5.8125 0.4961,-1.93359 0.5625,-3.81641 0.17969,-5.63672 -0.36328,-1.82422 -1.10547,-3.51562 -2.21484,-5.10156 -1.22656,-1.75 -2.67188,-3.08594 -4.32813,-3.96875 -1.66015,-0.894534 -3.58593,-1.371096 -5.75781,-1.437502 -2.17187,-0.06641 -4.64062,0.269531 -7.41016,1.007812 -2.04687,0.53125 -3.7539,0.91406 -5.13671,1.12109 -1.38282,0.22266 -2.50782,0.21094 -3.38282,-0.0156 -0.8789,-0.23047 -1.59375,-0.73828 -2.1289,-1.523439 -0.44922,-0.640625 -0.66797,-1.367187 -0.65235,-2.191406 0.0156,-0.828125 0.32032,-1.691406 0.89453,-2.585937 0.56641,-0.910157 1.46094,-1.785157 2.67579,-2.648438 1.21093,-0.835937 2.38281,-1.507812 3.51562,-2.019531 1.125,-0.5 2.16016,-0.878906 3.10938,-1.140625 0.9414,-0.25 1.74609,-0.421875 2.40234,-0.511719 l -2.85938,-8.105469 c -1.47656,0.234375 -3.13281,0.714844 -4.95312,1.464844 -1.80859,0.746094 -3.79297,1.855469 -5.92969,3.339844 -2.19922,1.554687 -3.97265,3.222656 -5.32422,5 -1.34765,1.785156 -2.28906,3.617187 -2.80468,5.480469 -0.52344,1.875 -0.6211,3.726562 -0.32032,5.531247 0.30078,1.81641 1.01563,3.52735 2.13672,5.14453 1.27344,1.80079 2.83203,3.09766 4.66406,3.90235 1.82813,0.80078 3.875,1.17969 6.14844,1.1289 2.27344,-0.043 4.70703,-0.4375 7.3125,-1.15234 1.84766,-0.53516 3.41797,-0.875 4.69922,-1.01562 1.28906,-0.13672 2.34375,-0.0664 3.17578,0.23437 0.83985,0.29688 1.53516,0.83203 2.0625,1.60938 0.57813,0.82421 0.85547,1.6914 0.82422,2.61328 -0.0312,0.91797 -0.36719,1.85937 -1.01562,2.80859 -0.64454,0.94922 -1.61719,1.89063 -2.91407,2.80078 -1.21875,0.83985 -2.47265,1.55078 -3.78906,2.14063 -1.30469,0.58203 -2.58594,1.03906 -3.83203,1.38672 -1.25,0.34765 -2.37891,0.58984 -3.40625,0.71484 z m 53.25782,-41.496095 7.5039,9.695313 10.45313,-4.011719 L 197.56641,58.132813 184.89453,63 l 3.40625,47.6875 9.94531,-3.82031 -1.16797,-12.125002 z m -13.60547,-3.0625 -0.94531,-10.035156 c -0.0859,-0.921875 -0.20313,-1.894531 -0.34766,-2.929688 -0.14453,-1.035156 -0.28516,-2.070312 -0.4375,-3.101562 -0.16016,-1.042969 -0.29297,-2.019531 -0.41016,-2.957031 l 0.12891,-0.05078 c 0.53516,0.777344 1.10156,1.589844 1.70703,2.433594 0.59766,0.859375 1.20313,1.71875 1.82031,2.5625 0.60547,0.855469 1.20703,1.65625 1.78516,2.414063 l 6.14062,8.039062 z m 31.10547,-37.832031 9.51172,44.742187 10.08984,-2.148437 -9.50781,-44.742188 z m 92.51172,14.453125 -16.99219,-1.1875 -0.56641,8.058594 7.04297,0.492187 -0.66797,9.542969 c -0.42969,0.152344 -1.09375,0.242187 -1.96875,0.296875 -0.89062,0.05078 -1.92187,0.04687 -3.08594,-0.03516 -2.11718,-0.148438 -4.03906,-0.625 -5.75,-1.398438 -1.71093,-0.789062 -3.16796,-1.867187 -4.35546,-3.234375 -1.19922,-1.363281 -2.07813,-2.988281 -2.65235,-4.890625 -0.5664,-1.886719 -0.77344,-4.007812 -0.62109,-6.378906 0.1914,-2.492188 0.72265,-4.644531 1.62109,-6.453125 0.89063,-1.808594 2.06641,-3.269531 3.51953,-4.402344 1.46094,-1.132812 3.12891,-1.933594 5.01172,-2.417969 1.86719,-0.480468 3.89844,-0.644531 6.05469,-0.492187 1.65625,0.113281 3.12891,0.308594 4.39062,0.554687 1.26563,0.261719 2.38672,0.574219 3.35938,0.9375 0.98437,0.363282 1.87109,0.765625 2.67187,1.21875 l 2.75,-8.253906 c -0.71875,-0.378906 -1.6875,-0.761719 -2.89453,-1.175781 -1.20703,-0.402344 -2.61328,-0.773438 -4.23047,-1.101563 -1.625,-0.320312 -3.41015,-0.558593 -5.38671,-0.707031 -3.75391,-0.261719 -7.25391,0.02734 -10.47657,0.867188 -3.23437,0.839843 -6.09765,2.191406 -8.57812,4.070312 -2.47656,1.878906 -4.46485,4.246094 -5.97266,7.113281 -1.5039,2.875 -2.40625,6.214844 -2.70312,10.023438 -0.16016,2.238281 -0.0625,4.386719 0.30859,6.441406 0.35156,2.054688 0.94531,3.980469 1.78125,5.773438 0.82813,1.777343 1.89453,3.394531 3.17969,4.824218 1.94531,2.144532 4.41406,3.84375 7.41015,5.085938 2.98438,1.242187 6.5586,2.011719 10.71094,2.304687 2.03516,0.128907 4.01953,0.121094 5.95313,-0.01563 1.9414,-0.136718 3.72265,-0.339843 5.35156,-0.625 1.64453,-0.28125 3.00781,-0.570312 4.10937,-0.871093 z m 42.60156,-8.824219 c -3.20703,-1.03125 -6.29297,-1.390625 -9.26172,-1.109375 -2.96484,0.300781 -5.71094,1.171875 -8.22266,2.613281 -2.52734,1.449219 -4.74218,3.394532 -6.63672,5.832032 -1.89453,2.441406 -3.375,5.289062 -4.45312,8.570312 -0.80859,2.496094 -1.27734,4.957031 -1.40625,7.378906 -0.13672,2.417969 0.0742,4.746094 0.625,6.957032 0.54297,2.210937 1.42187,4.257812 2.65625,6.144531 1.21875,1.882812 2.77344,3.53125 4.67969,4.957031 1.88672,1.433594 4.125,2.566406 6.6914,3.410156 3.21094,1.031254 6.28907,1.460934 9.2461,1.269534 2.94922,-0.1836 5.6875,-0.96094 8.21484,-2.328127 2.51953,-1.355469 4.73828,-3.285157 6.68359,-5.785157 1.92579,-2.496093 3.48829,-5.535156 4.66407,-9.128906 0.78906,-2.417969 1.24609,-4.824219 1.39062,-7.203125 0.13281,-2.386719 -0.0586,-4.683594 -0.58984,-6.886719 -0.53516,-2.207031 -1.41406,-4.265625 -2.63672,-6.164062 -1.21875,-1.894531 -2.80078,-3.574219 -4.73438,-5.023438 -1.93359,-1.460937 -4.23437,-2.625 -6.91015,-3.503906 m -2.73047,7.746094 c 1.69531,0.5625 3.06641,1.4375 4.11719,2.632812 1.05078,1.1875 1.79687,2.597657 2.24218,4.226563 0.45313,1.632812 0.61719,3.398437 0.5,5.300781 -0.11718,1.898438 -0.5,3.84375 -1.14453,5.824219 -0.6875,2.121094 -1.5625,4.011719 -2.60547,5.644531 -1.05078,1.648438 -2.23046,2.988281 -3.55859,4.03125 -1.32422,1.035156 -2.75781,1.707031 -4.28906,2.03125 -1.53516,0.308594 -3.13281,0.207031 -4.80469,-0.324219 -1.64453,-0.542968 -3.01172,-1.382812 -4.08203,-2.515625 -1.07422,-1.121093 -1.85938,-2.480468 -2.35938,-4.085937 -0.5,-1.585938 -0.69531,-3.351563 -0.59375,-5.28125 0.0937,-1.941406 0.49219,-3.992188 1.1875,-6.144531 0.69532,-2.128907 1.56641,-4.007813 2.6211,-5.640625 1.05469,-1.644532 2.2539,-2.976563 3.58984,-4.019532 1.33985,-1.042968 2.77735,-1.710937 4.33203,-2.019531 1.54688,-0.304687 3.16797,-0.195312 4.84766,0.339844 m 25.625,53.968746 7.29687,-11.68359 c 1.97266,-3.15234 3.80079,-6.144531 5.48047,-8.976562 1.6836,-2.828125 3.25782,-5.582032 4.72657,-8.25 l 0.23046,0.144531 c -0.32812,1.914062 -0.61328,3.882812 -0.85546,5.933594 -0.23047,2.039062 -0.42579,4.078125 -0.58985,6.109375 -0.16015,2.035152 -0.28515,3.984372 -0.3789,5.859372 l -1.0625,20.14453 9.20703,5.75391 24.24218,-38.792969 -8.05859,-5.035156 L 418,98.984375 c -1.82813,2.925785 -3.53125,5.757815 -5.09375,8.488285 -1.56641,2.74609 -3.01172,5.46484 -4.35547,8.17578 l -0.11328,-0.0742 c 0.32031,-1.83984 0.61328,-3.73438 0.87891,-5.67969 0.26171,-1.95703 0.49609,-3.90625 0.6875,-5.86328 0.18359,-1.95312 0.3164,-3.85547 0.40625,-5.707031 l 0.82421,-19.25 -10.24218,-6.402344 -24.23828,38.789065"
       id="path31" />
    <path
       style="fill:#ffcc28;fill-opacity:1;fill-rule:nonzero;stroke:none"
       d="m 54.960938,382.29297 4.28125,8.78515 15.660156,-7.63671 6.820312,13.98437 7.167969,-3.49609 -6.824219,-13.98438 8.902344,-4.33984 7.296875,14.96484 7.222655,-3.52344 -11.58203,-23.74609 z m 66.671872,25.94531 c -1.97656,-2.51172 -4.20703,-4.42578 -6.6875,-5.77734 -2.48828,-1.33594 -5.10156,-2.10938 -7.83984,-2.3086 -2.75781,-0.19922 -5.52344,0.15625 -8.308595,1.06641 -2.777344,0.91797 -5.449219,2.37109 -8.03125,4.37109 -1.960937,1.53125 -3.632812,3.22266 -5.019531,5.04688 -1.382813,1.83203 -2.453125,3.76953 -3.191406,5.80078 -0.746094,2.02344 -1.140625,4.09375 -1.167969,6.23047 -0.04297,2.125 0.308594,4.24609 1.046875,6.37109 0.722656,2.12891 1.882812,4.20313 3.449219,6.23047 1.972656,2.50781 4.167968,4.48047 6.589843,5.89063 2.414063,1.41796 4.972657,2.25781 7.679684,2.52343 2.70313,0.27344 5.46875,-0.0703 8.31641,-1 2.84375,-0.9414 5.67578,-2.5 8.50391,-4.69922 1.89843,-1.48046 3.53515,-3.1289 4.90625,-4.92187 1.36718,-1.80078 2.43359,-3.71094 3.1875,-5.72656 0.75,-2.01172 1.14843,-4.09766 1.1914,-6.23438 0.0469,-2.1289 -0.30468,-4.28906 -1.05468,-6.44922 -0.75,-2.17578 -1.9375,-4.30859 -3.57032,-6.41406 m -6.25,4.63672 c 1.03125,1.33984 1.64453,2.75 1.83594,4.24609 0.19922,1.48828 0.0391,2.98828 -0.47656,4.50782 -0.50781,1.52343 -1.31641,3 -2.41406,4.42968 -1.10157,1.42969 -2.42969,2.75391 -3.98438,3.96485 -1.66406,1.30078 -3.35156,2.32422 -5.03906,3.05468 -1.69531,0.74219 -3.33203,1.16407 -4.92969,1.28125 -1.585937,0.10938 -3.070312,-0.11718 -4.441406,-0.67578 -1.375,-0.57422 -2.574219,-1.5 -3.605469,-2.80078 -0.996094,-1.29687 -1.628906,-2.68359 -1.871094,-4.13672 -0.25,-1.44922 -0.144531,-2.9375 0.3125,-4.45703 0.449219,-1.51172 1.230469,-3.0039 2.332032,-4.46484 1.105468,-1.47266 2.496093,-2.875 4.1875,-4.19141 1.671875,-1.3125 3.355467,-2.32422 5.046877,-3.04687 1.69531,-0.73047 3.34375,-1.14844 4.94531,-1.25782 1.60156,-0.10546 3.09375,0.13282 4.47266,0.71094 1.3789,0.58203 2.58984,1.52344 3.6289,2.83594 m 38.84766,29.39844 c -2.37891,-2.12891 -4.91016,-3.62891 -7.58985,-4.52735 -2.67968,-0.88672 -5.39062,-1.1914 -8.12109,-0.91015 -2.74609,0.28125 -5.41406,1.10937 -7.99609,2.49218 -2.57422,1.38672 -4.95703,3.27735 -7.15235,5.69922 -1.66015,1.84766 -3.01562,3.79688 -4.0625,5.84375 -1.04687,2.04297 -1.76562,4.13672 -2.13671,6.26563 -0.38282,2.12109 -0.41016,4.23047 -0.0703,6.33984 0.32813,2.09766 1.04297,4.125 2.14063,6.09375 1.08203,1.96875 2.58203,3.8086 4.47656,5.53125 2.37891,2.12891 4.88281,3.69141 7.51172,4.65625 2.625,0.98047 5.29297,1.36328 8.0039,1.15235 2.70704,-0.19922 5.375,-1.01563 8.01563,-2.42969 2.63281,-1.41797 5.15234,-3.44922 7.55469,-6.09766 1.61328,-1.79297 2.9414,-3.70312 3.98437,-5.70312 1.03125,-2.01563 1.7461,-4.07422 2.14063,-6.19532 0.38672,-2.11328 0.42187,-4.22656 0.0898,-6.34375 -0.32031,-2.10937 -1.04297,-4.17187 -2.16016,-6.16796 -1.11328,-2.01172 -2.65625,-3.91016 -4.6289,-5.69922 m -5.34766,5.65234 c 1.25,1.14063 2.09766,2.42188 2.54688,3.86328 0.45312,1.4336 0.55078,2.9375 0.30859,4.52344 -0.23047,1.58984 -0.76953,3.17969 -1.60547,4.77734 -0.83594,1.60157 -1.91406,3.13672 -3.23437,4.60157 -1.41407,1.57031 -2.89844,2.86718 -4.4336,3.88281 -1.53906,1.01953 -3.07812,1.72265 -4.6289,2.11719 -1.54297,0.38281 -3.04297,0.41796 -4.49219,0.10937 -1.45313,-0.32812 -2.79688,-1.03516 -4.03906,-2.13672 -1.20703,-1.10547 -2.07422,-2.35937 -2.5625,-3.75 -0.4961,-1.38672 -0.64844,-2.86328 -0.46875,-4.4414 0.1875,-1.57032 0.6914,-3.17188 1.52734,-4.80079 0.82813,-1.64843 1.96094,-3.26953 3.39063,-4.85937 1.42187,-1.57813 2.90234,-2.87109 4.4414,-3.875 1.55078,-1.01563 3.09766,-1.71484 4.65625,-2.09766 1.5586,-0.38281 3.06641,-0.41015 4.52344,-0.0742 1.46094,0.32813 2.82031,1.04688 4.07031,2.16016 m 11.41406,51.46094 8.37891,5.03125 18.08203,-30.08594 10.13672,6.09375 4.23828,-7.05469 -28.54687,-17.15234 -4.23828,7.05078 10.03125,6.02734 z m 32.65235,15.25 c 0.97656,0.51953 2.29687,1.125 3.9414,1.82031 1.63672,0.69922 3.60157,1.44531 5.87891,2.24219 2.70703,0.93359 5.13672,1.59765 7.28516,2.01953 2.14062,0.42187 4.05078,0.60547 5.71875,0.56641 1.66406,-0.0547 3.125,-0.29688 4.3789,-0.7461 1.10157,-0.39453 2.10938,-0.91797 3.05078,-1.58203 0.94141,-0.66016 1.76563,-1.46484 2.48438,-2.40625 0.72266,-0.94141 1.30469,-2.04297 1.73828,-3.30078 0.59375,-1.75781 0.76172,-3.42969 0.52734,-5.01953 -0.23437,-1.59766 -0.80468,-3.0625 -1.70703,-4.39844 -0.91015,-1.33203 -2.08203,-2.47266 -3.51172,-3.41797 l 0.0391,-0.12109 c 1.74609,-0.0664 3.27343,-0.37891 4.57031,-0.9336 1.3125,-0.55078 2.39453,-1.29296 3.26172,-2.23046 0.85937,-0.9375 1.49609,-2 1.91015,-3.20313 0.42188,-1.26172 0.61329,-2.48047 0.55469,-3.65234 -0.0508,-1.17188 -0.30469,-2.27344 -0.76562,-3.30078 -0.46094,-1.03516 -1.08203,-1.97266 -1.86719,-2.8086 -0.80078,-0.93359 -1.72656,-1.76562 -2.76563,-2.5039 -1.05078,-0.73438 -2.27343,-1.42969 -3.67187,-2.07032 -1.41016,-0.64453 -3.05078,-1.27734 -4.92578,-1.92187 -1.57813,-0.54688 -3.13672,-1.03516 -4.6836,-1.47656 -1.54687,-0.44532 -2.98437,-0.8125 -4.30078,-1.13282 -1.3125,-0.30078 -2.40625,-0.51953 -3.28515,-0.66406 z m 20.92187,-30.94141 c 0.375,0.0625 0.88282,0.16797 1.52735,0.33203 0.65234,0.1836 1.48437,0.4336 2.50781,0.78516 2.10547,0.72656 3.58594,1.6875 4.4375,2.875 0.85937,1.19141 1.01953,2.57422 0.49609,4.125 -0.35547,1.02734 -0.9414,1.80859 -1.7539,2.36719 -0.83203,0.5625 -1.85938,0.85547 -3.1211,0.89843 -1.25,0.0352 -2.69531,-0.23828 -4.33984,-0.79296 l -3.03906,-1.05079 z m -5.5664,16.16797 3.16015,1.08984 c 1.16407,0.40235 2.21485,0.875 3.14453,1.4336 0.92579,0.5664 1.69141,1.20703 2.29297,1.92578 0.60547,0.71875 0.9961,1.51953 1.17578,2.38281 0.17188,0.875 0.0859,1.82422 -0.2539,2.83985 -0.37891,1.07031 -0.91016,1.92187 -1.59766,2.53515 -0.67187,0.60547 -1.46094,1.02344 -2.36719,1.24219 -0.89062,0.21875 -1.84765,0.27344 -2.86718,0.16797 -1.03125,-0.0977 -2.06641,-0.34766 -3.1211,-0.70703 -0.78125,-0.27344 -1.46875,-0.50782 -2.04297,-0.71875 -0.57031,-0.21485 -1.07812,-0.42578 -1.5039,-0.63672 z m 54.46093,19.9375 1.96094,11.44922 10.53125,1.29297 -8.12109,-44.65625 -12.76172,-1.56641 -18.36328,41.40235 10.01953,1.23437 4.41797,-10.66406 z m -10.01953,-8.61328 3.67188,-8.8125 c 0.33594,-0.80859 0.67187,-1.67969 1.01172,-2.60547 0.33984,-0.92969 0.68359,-1.86328 1.01172,-2.78906 0.33203,-0.94141 0.65625,-1.82422 0.97265,-2.66016 l 0.12891,0.0195 c 0.10547,0.88672 0.21875,1.82032 0.34765,2.79297 0.11719,0.98828 0.2461,1.97266 0.38282,2.95313 0.125,0.98828 0.27343,1.92187 0.41797,2.8164 l 1.5625,9.45313 z m 37.92578,21.16016 26.90235,-2.34766 -0.71875,-8.19922 -17.16406,1.5 -3.0586,-34.97266 -9.73828,0.85547 z m 41.46094,-5.08985 26.3125,-6.07422 -1.85156,-8.01953 -16.78906,3.875 -7.89844,-34.20312 -9.52344,2.19531 z m 85.82813,-45.02734 c -0.4336,0.58594 -0.98047,1.20312 -1.63282,1.84375 -0.65234,0.64062 -1.38281,1.27344 -2.1875,1.89062 -0.80468,0.6211 -1.63281,1.19141 -2.50781,1.71875 -2.49219,1.48438 -4.91406,2.26172 -7.26562,2.33985 -2.36328,0.082 -4.55078,-0.5 -6.57813,-1.7461 -2.02344,-1.24609 -3.78515,-3.11718 -5.28515,-5.59765 -1.23438,-2.07422 -2.01563,-4.0586 -2.34375,-5.95703 -0.31641,-1.90235 -0.26172,-3.6836 0.19921,-5.34375 0.46485,-1.66797 1.2461,-3.17579 2.375,-4.54297 1.1211,-1.35938 2.51172,-2.53516 4.17579,-3.53516 1.52343,-0.89844 2.95703,-1.57031 4.29687,-2.00391 1.34375,-0.44531 2.53516,-0.73828 3.58594,-0.85546 l -2.21094,-7.67188 c -0.67578,0.0195 -1.52344,0.16406 -2.54687,0.44141 -1.01954,0.27343 -2.17969,0.69531 -3.46875,1.25781 -1.29297,0.55469 -2.67188,1.26953 -4.125,2.14062 -2.25782,1.36329 -4.23047,2.92188 -5.9336,4.69532 -1.6914,1.76172 -3.05469,3.69531 -4.09765,5.78515 -1.03907,2.09766 -1.69922,4.3086 -1.97657,6.63672 -0.28906,2.32422 -0.14062,4.73828 0.42188,7.21094 0.57031,2.48437 1.61328,4.99609 3.1289,7.53516 1.59766,2.66406 3.48438,4.86718 5.66016,6.63671 2.18359,1.76172 4.58984,2.99219 7.23047,3.69141 2.63672,0.70313 5.44922,0.78906 8.4375,0.26563 2.99219,-0.51563 6.09375,-1.7461 9.31641,-3.65625 1.49218,-0.90625 2.80859,-1.8125 3.96093,-2.72657 1.14063,-0.91015 2.10157,-1.76562 2.86719,-2.55078 0.76953,-0.80078 1.33594,-1.46484 1.6875,-2.01562 z m 18.10547,-2.42188 20.68359,-17.35937 -5.28906,-6.30078 -13.20313,11.07422 -22.5625,-26.89063 -7.48437,6.28125 z m -4.02344,-51.85156 19.55859,14.21094 c 3.70703,2.67969 7.15235,4.33594 10.32031,4.95312 3.17579,0.6211 6.08594,0.31641 8.73438,-0.9375 2.64844,-1.25781 5.04297,-3.37109 7.18359,-6.33203 2.22657,-3.05859 3.55469,-6.09375 3.98047,-9.12109 0.41797,-3.01953 -0.13281,-5.96485 -1.65625,-8.84766 -1.51953,-2.86328 -4.07422,-5.61719 -7.67187,-8.25 l -19.66407,-14.28125 -5.74218,7.90235 20.1289,14.625 c 3.10547,2.26953 5.00782,4.5 5.71094,6.6914 0.69531,2.19141 0.28516,4.32813 -1.24219,6.41016 -1.46875,2.01953 -3.35547,3.01953 -5.69531,3.0039 -2.32031,-0.008 -5.01562,-1.11718 -8.07031,-3.30859 l -20.12891,-14.625 z m 65.58594,-18.07031 c 0.6289,-0.91016 1.39062,-2.14844 2.28125,-3.69141 0.89843,-1.53906 1.875,-3.39844 2.9414,-5.5625 1.25781,-2.57031 2.21485,-4.90234 2.89063,-6.98437 0.6875,-2.07813 1.09765,-3.94922 1.26172,-5.60547 0.15234,-1.65625 0.0898,-3.14063 -0.20704,-4.44531 -0.2539,-1.13672 -0.65625,-2.19922 -1.19531,-3.21485 -0.54297,-1.01562 -1.24219,-1.92969 -2.08594,-2.76172 -0.84765,-0.82812 -1.875,-1.54297 -3.0664,-2.12109 -1.67188,-0.80859 -3.3125,-1.17578 -4.91797,-1.14063 -1.61719,0.0391 -3.14063,0.42188 -4.57031,1.16016 -1.4375,0.74219 -2.71094,1.76563 -3.82422,3.07031 l -0.11328,-0.0586 c 0.14453,-1.73828 0.0195,-3.29297 -0.36719,-4.64844 -0.39453,-1.37109 -0.99219,-2.53515 -1.82031,-3.50781 -0.82813,-0.96875 -1.80469,-1.72656 -2.94532,-2.28516 -1.20312,-0.57422 -2.38281,-0.91015 -3.55859,-0.99609 -1.16797,-0.0898 -2.29297,0.0273 -3.37109,0.35547 -1.08203,0.33594 -2.08594,0.83203 -3.01172,1.51172 -1.02344,0.68359 -1.96094,1.5039 -2.82422,2.4375 -0.85547,0.95703 -1.69531,2.08203 -2.50391,3.39453 -0.80859,1.32422 -1.64062,2.875 -2.50781,4.65234 -0.73047,1.50391 -1.41016,2.98828 -2.03516,4.46875 -0.625,1.48438 -1.17187,2.86328 -1.64453,4.13672 -0.46484,1.26563 -0.8125,2.32031 -1.0625,3.17578 z m -28.16407,-24.53906 c 0.10547,-0.36719 0.26953,-0.85547 0.51563,-1.47657 0.25781,-0.625 0.60937,-1.41797 1.08594,-2.39062 0.97656,-2 2.11328,-3.35938 3.39453,-4.05469 1.28515,-0.70703 2.67578,-0.69531 4.15234,0.0117 0.97266,0.47266 1.67969,1.15234 2.13672,2.03125 0.46094,0.88672 0.62109,1.94922 0.51172,3.20703 -0.1211,1.23828 -0.56641,2.64063 -1.31641,4.20703 l -1.41015,2.89063 z m 15.3711,7.49609 1.46484,-3 c 0.54297,-1.11328 1.13672,-2.09375 1.80469,-2.94922 0.67969,-0.85156 1.40625,-1.53125 2.1914,-2.04297 0.78907,-0.51172 1.62891,-0.80469 2.51172,-0.87109 0.89063,-0.0703 1.81641,0.13281 2.78516,0.59375 1.01562,0.5039 1.79297,1.13672 2.32031,1.89453 0.51953,0.73828 0.83594,1.57812 0.94922,2.5 0.10156,0.91016 0.0391,1.86719 -0.1875,2.86719 -0.23047,1.00781 -0.59375,2.01172 -1.08203,3.01172 -0.36328,0.74218 -0.67969,1.39843 -0.96094,1.9414 -0.28515,0.53906 -0.55469,1.01563 -0.82031,1.41016"
       id="path33" />
  </g>
</svg>
