<svg xmlns="http://www.w3.org/2000/svg" xmlns:xlink="http://www.w3.org/1999/xlink" width="100" height="100" xmlns:v="https://vecta.io/nano"><g fill-rule="evenodd"><circle cx="50" cy="50" r="50" fill="#ff0d26"/><circle cx="50" cy="50" r="33.046" fill="#fff"/></g><g fill="#ff0d26"><path d="M34.472 26.549a2.12 2.12 0 1 0 2.001 2.804c3.412.269 6.467 1.284 9.379 2.6-2.711 1.057-8.073-.565-12.905.628-6.458 1.595-12.166 8.445-10.413 22.446 3.319-7.233 6.884-10.686 10.506-12.156 5.673-2.302 9.705-2.217 12.013-7.27-5.59 1.828-10.909-1.521-18.766 7.94 7.197-10.797 13.7-6.562 21.806-11.085-3.221-2.721-7.287-3.823-11.605-4.44a2.12 2.12 0 0 0-2.017-1.468zM23.107 57.425a2.12 2.12 0 1 0 3.285-1.037c1.31-3.162 3.22-5.754 5.371-8.117.168 2.904-3.032 7.503-3.39 12.467-.479 6.635 4.272 14.18 18.13 16.839-5.853-5.392-8.035-9.849-8.314-13.748-.437-6.107.89-9.915-3.202-13.671.011 5.882-4.817 9.905 1.753 20.301-8.045-10.182-2.008-15.057-3.804-24.164-3.583 2.223-5.887 5.749-7.809 9.666a2.12 2.12 0 0 0-2.019 1.465zm25.765 20.518a2.12 2.12 0 1 0 .029-3.445c-2.603-2.223-4.478-4.84-6.06-7.617 2.814.738 6.199 5.202 10.809 7.077 6.162 2.506 14.806.319 21.618-12.039-6.936 3.9-11.85 4.598-15.644 3.659-5.943-1.472-9.155-3.91-13.992-1.179 5.597 1.807 7.932 7.642 19.849 4.606-12.169 4.505-14.941-2.744-24.157-3.849 1.006 4.095 3.648 7.376 6.78 10.413a2.12 2.12 0 0 0 .769 2.373zm27.393-18.111a2.12 2.12 0 0 0 .469-2.961 2.12 2.12 0 0 0-3.736 1.87c-2.919 1.788-5.987 2.763-9.116 3.409 1.571-2.448 6.863-4.288 10.071-8.093 4.287-5.086 4.879-13.983-4.769-24.28 1.566 7.802.711 12.691-1.355 16.009-3.236 5.197-6.548 7.499-5.445 12.942 3.448-4.765 9.72-5.182 10.514-17.454.524 12.965-7.226 13.361-11.125 21.785 4.205.308 8.142-1.191 11.999-3.23a2.12 2.12 0 0 0 2.494.002zm-8.691-31.798a2.12 2.12 0 1 0-2.048 2.77c.799 3.329.777 6.548.425 9.724-1.843-2.251-1.957-7.853-4.585-12.079-3.512-5.649-11.791-8.961-24.565-2.967 7.904.922 12.29 3.245 14.807 6.235 3.943 4.684 5.108 8.545 10.626 9.178-3.466-4.752-1.925-10.845-13.351-15.393 12.493 3.508 10.475 11.001 17.281 17.313 1.592-3.904 1.384-8.112.636-12.409a2.12 2.12 0 0 0 .772-2.372z" fill-rule="evenodd"/><path d="M43.306 59.171l-4.138-12.734L50 38.567l10.832 7.87-4.138 12.734z" fill-rule="evenodd"/></g><g fill="#fff"><path d="M39.644 8.335s-.348.025-.348.349l-.001 1.088s.272-.37.655-.37h.456s.373-.022.373-.337v-.389s0-.342-.381-.342zm9.771.25c-.414 0-.414.379-.414.379v.862h-.917v.579s0 .372.414.372h.503v2.889c.027.947 1.012 1.497 1.854 1.497h1.121c.306 0 .353-.428.353-.428v-.552c-.557.11-1.012-.007-1.012-.007-.863-.255-.835-.917-.835-.917v-2.483h2.92v2.889c.027.947 1.012 1.497 1.854 1.497h1.121c.306 0 .353-.428.353-.428v-.552c-.557.11-1.012-.007-1.012-.007-.862-.255-.835-.917-.835-.917v-2.483h1.42c.415 0 .407-.341.407-.341v-.61h-1.827v-.821c0-.397-.353-.421-.353-.421h-.713c-.414 0-.414.379-.414.379v.862h-2.921v-.821c0-.397-.353-.421-.353-.421zm15.053 0c-.414 0-.414.379-.414.379v4.703c.027.947 1.012 1.497 1.854 1.497h1.121c.306 0 .353-.428.353-.428v-.552c-.557.11-1.012-.007-1.012-.007-.862-.255-.835-.917-.835-.917V9.006c0-.397-.353-.421-.353-.421zM44.432 9.789c-.244 0-1.27.031-2.057.49-.516.301-.846.805-.861 1.86 0 0 .004 1.563.221 1.935a2.17 2.17 0 0 0 .825.852c.246.139.742.238 1.111.238h3.62s.353-.035.353-.476v-.483h-3.6s-.964-.027-.984-1.138a19.995 19.995 0 0 1-.002-.159h4.077s.713-.055.713-.993c0 0 .115-.965-.625-1.565s-1.928-.543-2.737-.561h-.054zm15.47 0c-.244 0-1.27.031-2.056.49-.516.301-.846.805-.861 1.86 0 0 .004 1.563.221 1.935a2.17 2.17 0 0 0 .825.852c.246.139.742.238 1.111.238h3.62s.353-.035.353-.476v-.483h-3.6s-.964-.027-.984-1.138a19.995 19.995 0 0 1-.002-.159h4.077s.713-.055.713-.993c0 0 .115-.965-.625-1.565s-1.928-.543-2.737-.561h-.054zm-27.748.057l2.527 4.951s.135.419.884.419h.27s.556.026.825-.461l2.527-4.908h-1.154s-.438.068-.716.65l-1.558 3.343s-.101.154-.177 0l-1.668-3.523s-.286-.47-.606-.47zm7.504 0s-.362 0-.362.419v4.541s.025.359.387.359h.809s.286-.017.286-.462v-4.489s-.059-.368-.345-.368zm5.017.89c.423 0 1.05.063 1.386.395 0 0 .251.207.251.524 0 .324-.204.324-.265.324h-2.275s-.369-.033-.715.302l.03-.598s-.007-.8 1.154-.924c0 0 .181-.022.434-.022zm15.471 0c.423 0 1.05.063 1.386.395 0 0 .251.207.251.524 0 .324-.204.324-.265.324h-2.275s-.369-.033-.715.302l.03-.598s-.007-.8 1.154-.924c0 0 .181-.022.434-.022z"/><g fill-rule="evenodd"><use xlink:href="#B"/><use xlink:href="#B" x="79.394"/></g></g><path d="M69.83 15.621c10.135 5.859 17.438 16.07 19.354 28.078m.022 12.459c-1.232 7.907-4.798 15.041-9.972 20.675m-58.303.179c-5.193-5.586-8.796-12.672-10.087-20.535m-.031-12.762c1.964-12.34 9.616-22.784 20.185-28.56" fill="none" stroke="#fff" stroke-width=".473"/><path d="M23.294 82.101q-.099-.078-.118-.199-.01-.123.067-.221l1.389-1.767q.371-.471.68-.662.315-.187.629-.131.318.052.756.396l1.183.93q.099.078.109.2.019.122-.059.221l-.229.292q-.078.099-.204.114-.118.014-.217-.064l-.914-.719q-.273-.215-.43-.239-.157-.024-.353.226l-.119.151q-.063.08.017.143l1.089.856q.099.078.109.2.019.121-.059.221l-.229.292q-.078.099-.204.114-.118.014-.217-.064l-1.088-.856q-.08-.063-.143.017l-.633.806q-.078.099-.204.114-.118.014-.217-.064zm6.951-.13q-.379-.231-.7-.315-.313-.086-.599-.008-.283.073-.561.332-.273.262-.557.727l-.219.358q-.209.343-.344.689-.131.341-.114.647.025.304.228.582.202.278.678.569l.409.25q.379.231.691.317.321.084.604.011.286-.078.559-.34.278-.259.562-.724l.219-.358q.209-.343.341-.684.134-.347.109-.65-.017-.305-.219-.584-.202-.278-.678-.569zm-.088 2.18l-.2.327q-.188.307-.331.451-.139.147-.288.161-.144.018-.374-.123l-.389-.238q-.194-.119-.267-.241-.068-.119-.022-.309.046-.19.271-.558l.2-.327q.187-.307.327-.454.144-.144.288-.161.149-.014.379.126l.389.238q.194.119.262.238.073.122.027.312-.046.19-.271.558zm4.299.071q-.405-.181-.734-.224-.321-.045-.596.068-.272.108-.514.4-.237.295-.46.792l-.172.383q-.164.366-.254.727-.087.355-.031.656.064.298.3.548.236.25.745.478l.438.196q.405.181.726.227.329.042.601-.066.274-.114.511-.408.243-.292.466-.79l.172-.383q.164-.366.251-.722.089-.361.026-.658-.056-.301-.292-.551-.236-.25-.745-.478zm.189 2.173l-.157.35q-.147.328-.272.489-.119.163-.265.196-.141.035-.387-.075l-.416-.186q-.208-.093-.296-.205-.082-.109-.061-.303.021-.194.198-.588l.157-.35q.147-.328.266-.491.125-.161.265-.196.146-.033.393.077l.416.186q.208.093.29.202.088.112.067.306-.021.194-.198.588zm2.799 3.424q-.12-.037-.181-.144-.054-.11-.017-.231l.812-2.635q.007-.023.006-.061.001-.044-.073-.066l-.865-.267q-.12-.037-.181-.144-.054-.111-.017-.231l.109-.355q.039-.126.144-.182.112-.059.233-.022l2.973.916q.12.037.174.148.061.107.022.233l-.109.355q-.037.121-.15.18-.105.056-.225.018l-.865-.267q-.023-.007-.066-.008-.038.001-.061.075l-.812 2.635q-.037.12-.15.18-.105.055-.225.018zm3.682 1q-.124-.022-.197-.121-.066-.103-.044-.227l.631-3.48q.022-.124.12-.192.104-.072.228-.05l1.451.263q.861.156 1.209.487.349.325.241.921l-.002.012q-.092.507-.427.708-.041.023-.045.047-.004.024.032.061.351.35.231 1.01l-.002.012q-.111.613-.553.801-.436.189-1.303.032zm1.434-2.969q-.1-.018-.118.082l-.085.466q-.018.1.082.118l.684.124q.265.048.379-.01.121-.063.149-.217l.004-.024q.03-.165-.062-.267-.085-.101-.35-.149zm.942 2.059l.004-.024q.031-.171-.06-.273-.085-.101-.351-.149l-.802-.145q-.1-.018-.119.082l-.093.513q-.018.1.082.118l.802.146q.265.048.381-.016.122-.069.155-.252zm2.192 1.303l.879-2.94q.133-.443.359-.616.226-.179.621-.157l.64.036q.395.022.6.225.205.198.287.653l.546 3.02q.027.158-.05.256-.071.092-.239.083l-.431-.024q-.144-.008-.237-.061-.093-.059-.129-.265l-.091-.521q-.018-.097-.108-.102l-1.298-.073q-.09-.005-.119.089l-.148.508q-.059.201-.158.249-.098.043-.242.035l-.431-.024q-.168-.009-.234-.109-.06-.106-.015-.259zm2.503-1.391q.09.005.077-.098l-.117-.907q-.025-.194-.088-.257-.057-.063-.206-.072l-.09-.005q-.143-.008-.213.048-.069.056-.116.246l-.218.888q-.024.101.066.106zm5.504 1.774l-1.263.073q-.551.032-.847-.119-.291-.157-.443-.503-.146-.346-.181-.944l-.127-2.184q-.007-.125.072-.214.084-.095.21-.102l.497-.029q.125-.007.214.078.095.079.102.204l.136 2.34q.014.239.068.344.054.099.187.127.134.028.391.013l.927-.054q.126-.007.215.078.095.079.102.204l.022.371q.007.126-.077.221-.079.089-.204.096zm4.253-.599l-1.248.203q-.544.088-.855-.031-.306-.126-.493-.454-.181-.329-.277-.921l-.351-2.159q-.02-.124.049-.221.074-.103.199-.124l.491-.08q.124-.02.221.055.102.068.122.193l.375 2.313q.039.237.103.335.064.093.199.107.136.014.39-.027l.917-.149q.124-.02.221.055.102.068.122.193l.06.367q.02.124-.054.227-.069.096-.194.117zm5.512-1.449q-.654.219-1.058.146-.404-.073-.692-.406-.285-.341-.507-1.006l-.114-.341q-.223-.665-.199-1.103.028-.445.306-.747.278-.302.932-.521l.17-.057q.546-.183.961-.208.284-.019.381.271l.126.375q.042.125-.009.218-.047.085-.161.123-.08.027-.305.033-.222-.002-.381.033-.161.029-.297.074l-.165.055q-.347.116-.42.349-.076.228.088.716l.141.421q.164.489.363.631.197.136.544.02l.148-.05q.17-.057.32-.139.155-.084.318-.201.167-.125.246-.152.119-.04.211.005.089.04.131.165l.131.392q.044.131.016.235-.028.104-.161.199-.301.215-.892.413zm5.145-2.151l-1.149.527q-.501.23-.833.197-.328-.04-.596-.307-.262-.269-.512-.814l-.912-1.988q-.053-.115-.011-.226.044-.119.159-.172l.452-.207q.114-.052.228-.006.117.039.169.153l.977 2.13q.1.218.189.296.086.073.221.05.135-.022.369-.13l.844-.387q.114-.053.228-.006.117.039.169.153l.155.338q.053.115.008.234-.041.111-.155.164zm3.08-1.686l-.154.093q-.375.226-.693.314-.316.079-.599.005-.286-.079-.562-.339-.279-.265-.558-.727L68.1 83.365q-.065-.108-.037-.223.03-.123.138-.189l.426-.257q.108-.065.226-.031.12.025.185.133l1.014 1.677q.186.308.324.455.143.144.287.163.149.015.38-.125l.133-.08q.195-.118.263-.237.074-.121.029-.311-.045-.19-.268-.559l-1.014-1.677q-.065-.107-.037-.223.03-.124.138-.189l.426-.257q.108-.065.226-.032.121.025.185.133l1.024 1.693q.279.462.384.832.102.366.039.656-.066.285-.288.531-.22.238-.595.465zm2.991-2.006q-.099.078-.221.068-.122-.019-.199-.118l-2.189-2.777q-.078-.099-.064-.217.015-.126.114-.204l1.158-.913q.687-.542 1.166-.583.475-.046.85.429l.007.009q.319.405.248.789-.009.046.005.065.015.019.066.016.494-.031.91.496l.008.009q.386.489.234.945-.147.452-.839.997zm-1.275-3.04q-.08.063-.017.143l.293.372q.063.08.143.017l.546-.431q.212-.167.244-.291.033-.133-.064-.255l-.015-.019q-.104-.132-.241-.131-.132-.003-.344.164zm2.167.658l-.015-.019q-.108-.137-.244-.136-.132-.003-.344.164l-.64.505q-.08.063-.017.143l.323.409q.063.08.143.017l.64-.505q.212-.167.24-.296.029-.137-.086-.283z" fill="#fff"/><circle cx="50" cy="50" r="47.142" fill="none" stroke="#fff" stroke-width="1.165"/><defs ><path id="B" d="M10.331 46.183l.953 2.954 3.103-.007-2.515 1.819.965 2.949-2.506-1.83-2.507 1.83.965-2.949-2.514-1.819 3.103.007z"/></defs></svg>